<svg width="161.005" height="44.07" viewBox="-0.005 0 161.005 44.07" fill="none" xmlns="http://www.w3.org/2000/svg">
<g clip-path="url(#clip0_1112_6889)">
<path d="M7.96555 11.9385C3.15917 12.3103 0.591185 15.3672 0.45386 20.3931L0.000687137 36.7103C-0.136638 41.7362 2.26655 44.4076 7.07293 44.0358C11.8793 43.664 14.4473 40.6071 14.5846 35.5812L14.8593 25.6256L8.00674 26.1489L7.88315 30.6378L10.1078 30.4726L9.94303 36.2559C9.87436 38.5003 8.88562 39.3816 7.32012 39.4918C5.75461 39.6019 4.80707 38.8859 4.862 36.6414L5.3289 19.7047C5.39757 17.4602 6.38631 16.5376 7.95181 16.4137C9.50359 16.2898 10.4649 17.0746 10.3962 19.3053L10.3001 22.6651L14.9279 22.3071L15.0103 19.264C15.1477 14.2381 12.7307 11.5667 7.93808 11.9385H7.96555Z" fill="#fff"/>
<path d="M24.5406 10.6574C19.7342 11.0292 17.0426 14.0999 16.8916 19.1258L16.4384 35.4429C16.3011 40.4689 18.8416 43.1265 23.648 42.7547C28.4543 42.3829 31.1459 39.3122 31.297 34.2863L31.7501 17.9692C31.8875 12.9432 29.347 10.2856 24.5406 10.6574ZM26.3945 34.9748C26.3258 37.2192 25.3371 38.1418 23.7716 38.2657C22.2198 38.3897 21.2585 37.6048 21.3272 35.3741L21.7941 18.4373C21.8627 16.1929 22.8515 15.2703 24.417 15.1464C25.9688 15.0224 26.93 15.8073 26.8614 18.038L26.3945 34.9748Z" fill="#fff"/>
<path d="M41.2525 9.36333C36.4461 9.73511 33.7545 12.8058 33.6035 17.8317L33.1503 34.1489C33.013 39.1748 35.5535 41.8324 40.3599 41.4606C45.1663 41.0888 47.8578 38.0182 48.0089 32.9922L48.4621 16.6751C48.5994 11.6629 46.0589 8.99155 41.2525 9.36333ZM43.1064 33.6807C43.0377 35.9251 42.049 36.8477 40.4835 36.9717C38.9317 37.0956 37.9704 36.3107 38.0391 34.08L38.506 17.1432C38.5747 14.8988 39.5634 13.9762 41.1289 13.8523C42.6807 13.7283 43.642 14.5132 43.5733 16.7439L43.1064 33.6807Z" fill="#fff"/>
<path d="M105.453 3.9377C100.646 4.30948 97.9547 7.38013 97.8037 12.4061L97.3505 28.7232C97.2132 33.7492 99.7537 36.4067 104.56 36.035C109.366 35.6632 112.058 32.5925 112.209 27.5666L112.662 11.2494C112.8 6.22347 110.259 3.56591 105.453 3.9377ZM107.307 28.2551C107.238 30.4995 106.249 31.4221 104.684 31.546C103.132 31.6699 102.171 30.8851 102.239 28.6544L102.706 11.7176C102.775 9.47313 103.764 8.55056 105.329 8.42663C106.881 8.3027 107.842 9.08758 107.773 11.3183L107.307 28.2551Z" fill="#fff"/>
<path d="M122.165 2.64473C117.358 3.01651 114.667 6.08716 114.516 11.1131L114.062 27.4303C113.925 32.4562 116.466 35.1138 121.272 34.742C126.078 34.3702 128.77 31.2995 128.921 26.2736L129.374 9.95646C129.511 4.9305 126.971 2.27294 122.165 2.64473ZM124.018 26.9621C123.95 29.2065 122.961 30.1291 121.396 30.253C119.844 30.377 118.883 29.5921 118.951 27.3614L119.418 10.4246C119.487 8.18016 120.476 7.25759 122.041 7.13366C123.593 7.00973 124.554 7.79461 124.485 10.0253L124.018 26.9621Z" fill="#fff"/>
<path d="M56.592 40.1929C61.3984 39.8211 63.9663 36.7642 64.1037 31.7383C64.3508 22.7742 54.8342 22.306 55.0127 15.848C55.0814 13.6035 55.9877 12.681 57.5395 12.5708C59.0913 12.4607 59.9564 13.2318 59.9015 15.4762L59.8603 16.7706L64.4882 16.4126L64.5156 15.4349C64.653 10.409 62.291 7.73764 57.5395 8.10942C52.7881 8.4812 50.2613 11.5381 50.124 16.5503C49.8768 25.5144 59.4071 25.9825 59.2149 32.4405C59.1462 34.685 58.1575 35.5663 56.592 35.6764C55.0265 35.7866 54.0789 35.0706 54.1339 32.8261L54.2025 30.5816L49.5747 30.9396L49.5197 32.8674C49.3824 37.8796 51.7856 40.5647 56.592 40.1929Z" fill="#fff"/>
<path d="M65.8066 39.1336L79.1409 38.1009L79.2645 33.6119L70.819 34.2729L71.0799 25.0885L77.7814 24.5652L77.905 20.0763L71.2035 20.5995L71.437 11.8695L79.8825 11.2086L80.0061 6.7334L66.6718 7.76613L65.8066 39.1336Z" fill="#fff"/>
<path d="M95.9081 19.3056V18.8512L96.3338 4.61328L91.651 4.97129V5.38439C90.8134 5.19161 89.8933 5.12276 88.8496 5.19161C84.0432 5.56339 81.3517 8.63404 81.2006 13.66L81.0495 20.3796C80.9122 25.4056 83.4527 28.0631 88.2591 27.6914C89.2891 27.6087 90.2091 27.4022 91.0331 27.0855L90.9919 29.6054C90.9232 31.8498 89.9345 32.7311 88.369 32.8412C86.8172 32.9652 85.8559 32.2216 85.9246 29.9909L86.0756 28.0081L81.1869 28.3385L81.0358 30.0598C80.8985 35.0857 83.3154 37.757 88.1081 37.3853C92.9007 37.0135 95.4824 33.9566 95.606 28.9444L95.8807 19.3194H95.9081V19.3056ZM88.3964 23.2024C86.8447 23.3264 85.8834 22.5415 85.9521 20.3108L86.1168 12.9715C86.1855 10.727 87.1743 9.80447 88.7398 9.68054C90.2915 9.55662 91.2528 10.3415 91.1841 12.5722L91.0194 19.9115C90.9644 22.1559 89.962 23.0785 88.3964 23.2024Z" fill="#fff"/>
<path d="M138.52 1.3767C133.768 1.74848 131.242 4.80536 131.104 9.81755C130.857 18.7816 140.388 19.2498 140.209 25.7078C140.14 27.9523 139.152 28.8336 137.586 28.9437C136.021 29.0539 135.073 28.3378 135.128 26.0934L135.197 23.8489L130.569 24.2069L130.514 26.1347C130.377 31.1606 132.78 33.832 137.586 33.4602C142.392 33.0884 144.96 30.0315 145.098 25.0056C145.345 16.0415 135.828 15.5733 136.007 9.11529C136.076 6.87082 136.982 5.94825 138.534 5.83809C140.085 5.71416 140.951 6.49904 140.896 8.74351L140.854 10.0379L145.482 9.67985L145.51 8.7022C145.647 3.67624 143.285 1.00492 138.52 1.36293V1.3767Z" fill="#fff"/>
<path d="M160.877 4.47516L161 0L147.666 1.03273L146.787 32.4002L160.121 31.3675L160.245 26.8785L151.799 27.5395L152.06 18.3551L158.776 17.8318L158.899 13.3566L152.184 13.8661L152.431 5.13611L160.877 4.47516Z" fill="#fff"/>
</g>
<defs>
<clipPath id="clip0_1112_6889">
<rect width="161" height="44.0632" fill="white"/>
</clipPath>
</defs>
</svg>
