<svg width="190" height="150" viewBox="0 0 190 150" fill="none" xmlns="http://www.w3.org/2000/svg">
<path d="M96.2339 6C115.396 6 132.009 16.8948 140.235 32.8262C140.256 32.8332 140.271 32.8467 140.285 32.8467C144.71 30.0722 151.748 27.417 159.594 27.8174C167.897 28.2459 176.98 32.0819 184.7 42.5342C185.023 42.9766 185.064 43.5731 184.791 44.0576C184.524 44.5353 183.99 44.8167 183.442 44.7676C181.461 44.592 178.202 44.5148 174.957 44.873C171.641 45.2383 168.627 46.0318 166.885 47.3945C164.554 49.2136 164.378 50.6537 164.595 51.4756C164.855 52.4379 165.839 53.3302 167.083 53.6885C167.687 53.857 168.79 53.955 170.426 54.0322C171.979 54.1025 173.932 54.1662 175.99 54.3066C180.099 54.5876 184.938 55.2202 188.907 57.1377C189.328 57.3414 189.624 57.7415 189.687 58.2051L189.68 58.1982C190.383 63.1787 190.382 75.7943 184.826 87.0684C184.601 87.5109 184.165 87.8125 183.667 87.8477C183.175 87.8896 182.691 87.6583 182.41 87.251C180.85 85.0032 178.005 81.4489 174.613 78.1826C171.213 74.9093 167.406 72.0642 163.879 70.9824C163.17 70.8419 162.011 70.765 160.887 71.0107C159.749 71.2636 158.794 71.8049 158.246 72.7812C157.312 74.4388 157.009 75.6963 157.15 76.792C157.29 77.8596 157.887 79.0189 159.278 80.4307C161.961 82.2359 166.008 85.3126 169.639 88.8037C171.486 90.5808 173.243 92.477 174.668 94.3945C176.08 96.2981 177.218 98.2865 177.731 100.239C177.822 100.576 177.78 100.942 177.612 101.258C176.994 102.41 175.933 104.271 174.718 106.146C173.524 108.001 172.126 109.961 170.84 111.239C170.524 111.555 170.082 111.696 169.639 111.633C169.197 111.563 168.818 111.296 168.607 110.902C168.003 109.764 166.864 107.868 165.466 105.957C164.054 104.025 162.453 102.185 160.915 101.054C160.908 101.047 160.901 101.033 160.894 101.033C160.571 100.78 159.938 100.45 159.243 100.358C158.597 100.274 157.929 100.394 157.297 100.963C157.234 101.019 157.157 101.068 157.086 101.117C156.89 101.237 156.581 101.553 156.49 102.052C156.413 102.501 156.469 103.337 157.403 104.587C158.751 105.823 160.718 107.783 162.397 109.792C163.254 110.825 164.069 111.893 164.68 112.904C165.27 113.874 165.783 114.963 165.853 115.988C165.881 116.388 165.733 116.781 165.453 117.069C161.484 121.101 151.958 130.275 145.882 134.314C145.847 134.342 145.798 134.357 145.756 134.378V150H46.1997V55.5781C46.1997 28.197 68.3965 6 95.7847 6H96.2339ZM118.038 104.538C113.535 107.383 107.579 109.266 100.217 109.807V147.19H142.939V133.626C141.225 132.734 139.069 131.575 136.976 130.367C134.237 128.787 131.454 127.03 129.972 125.646C129.67 125.373 129.509 124.972 129.523 124.564C129.6 122.675 129.867 119.655 130.415 116.684C130.934 113.86 131.75 110.825 133.056 108.914C133.323 108.212 133.548 107.236 133.492 106.414C133.457 105.993 133.358 105.704 133.232 105.515C133.127 105.353 132.958 105.198 132.592 105.1C130.921 104.657 130.59 104.833 130.45 104.932C130.323 105.016 130.141 105.199 129.846 105.634C129.551 106.062 129.249 106.582 128.799 107.312C128.308 108.38 127.577 110.235 126.987 112.363C126.383 114.541 125.954 116.908 126.039 118.945C126.06 119.486 125.765 119.992 125.288 120.245C124.81 120.498 124.226 120.448 123.791 120.125C122.554 119.198 119.429 116.69 116.668 113.937C116.402 113.67 116.253 113.312 116.253 112.939C116.253 111.605 116.605 109.462 117.223 107.151C117.455 106.308 117.729 105.423 118.038 104.538ZM96.2339 8.80957C70.4335 8.80973 49.5222 29.7211 49.522 55.5215V147.184H94.4644V109.855C83.8435 109.23 76.0745 105.844 71.2769 100.836C66.0928 95.4201 64.5399 88.2622 66.4927 81.1816C67.8554 76.2436 69.5977 72.6398 71.3608 68.8115C73.1169 64.9904 74.9434 60.8808 76.6011 54.7979L76.8823 53.7588H94.0288L94.9351 49.8105C95.0054 49.5017 95.1806 49.2278 95.4263 49.0312C97.1121 47.6896 100.028 45.828 103.414 44.5215C106.757 43.2362 110.733 42.4212 114.469 43.3975C115.256 43.545 116.443 43.5873 117.419 43.2783C118.333 42.9903 118.951 42.4634 119.12 41.4238V41.4102C119.253 40.6516 119.028 39.4781 117.399 38.6914C115.615 37.8344 112.053 37.4128 105.458 38.9932C104.874 39.1337 104.256 38.8809 103.94 38.3682C103.624 37.8554 103.666 37.195 104.052 36.7314C107.838 32.1586 119.014 25.963 136.238 31.3926C128.054 17.8568 113.205 8.80957 96.2339 8.80957ZM136.871 31.5898C137.222 32.2009 137.566 32.8124 137.896 33.4375C138.219 34.0484 138.528 34.6593 138.823 35.2842C141.731 41.4446 143.361 48.3219 143.361 55.5781V133.837C143.761 134.041 144.141 134.23 144.478 134.398L144.471 134.392C144.745 134.532 145.054 134.56 145.349 134.504V55.5713C145.349 48.4696 143.845 41.7185 141.155 35.6143C140.965 35.1859 140.775 34.7506 140.572 34.3223C140.298 33.7533 140.01 33.184 139.715 32.6221C138.753 32.2428 137.805 31.8989 136.871 31.5898ZM79.0239 56.5752C77.3872 62.3212 75.5965 66.3395 73.9106 69.9922C72.1265 73.8556 70.4893 77.2483 69.1968 81.9336C67.4899 88.122 68.8458 94.2403 73.3062 98.8975C77.7877 103.576 85.5645 106.934 96.937 107.145C107.34 106.948 114.722 104.117 119.337 100.057C119.71 99.7336 120.061 99.4035 120.391 99.0664C120.447 99.0102 120.511 98.9537 120.567 98.8975C120.855 98.6025 121.128 98.2933 121.388 97.9844C125.188 93.4537 126.278 87.7217 124.676 81.9336C123.377 77.2483 121.747 73.8556 119.962 69.9922C118.277 66.3395 116.486 62.3212 114.849 56.5752H79.0239ZM123.966 86.0781C124.135 89.9275 123.053 93.6297 120.714 96.8047C120.412 97.212 120.103 97.5981 119.766 97.9844C119.45 98.3496 119.106 98.7007 118.754 99.0449C114.329 103.351 107.08 106.259 96.937 106.449C78.3224 106.105 69.4432 96.6147 69.9067 86.0781H123.966ZM141.337 89.8428C140.326 88.2769 137.538 88.2768 135.115 89.8428C132.692 91.409 131.546 93.9519 132.564 95.5254C133.575 97.0918 136.364 97.0918 138.788 95.5254C141.211 93.9589 142.356 91.4162 141.337 89.8428ZM157.423 86.9346C154.803 85.7267 152.043 86.1273 151.263 87.8271C150.484 89.527 151.973 91.8797 154.593 93.0879C157.213 94.296 159.974 93.8962 160.753 92.1963C161.54 90.4964 160.043 88.1428 157.423 86.9346ZM139.434 66.1143C138.212 64.225 134.861 64.225 131.946 66.1074C129.031 67.997 127.661 71.0529 128.883 72.9424C130.106 74.8319 133.456 74.8318 136.372 72.9492C139.287 71.0597 140.656 68.0038 139.434 66.1143ZM158.337 55.7393C154.376 53.9199 150.343 54.2367 149.325 56.4424C148.307 58.648 150.694 61.921 154.656 63.7402C158.617 65.5595 162.65 65.2436 163.668 63.0381C164.687 60.8325 162.299 57.5586 158.337 55.7393Z" fill="white" fill-opacity="0.3"/>
</svg>
