<svg width="190" height="150" viewBox="0 0 190 150" fill="none" xmlns="http://www.w3.org/2000/svg">
<path d="M169.376 4.63281L162.823 21.2617C162.919 21.3194 163.014 21.3799 163.107 21.4424C163.316 21.5812 163.519 21.732 163.717 21.8945C166.779 24.4158 167.299 28.8791 164.963 32.0293C164.887 32.131 164.809 32.2312 164.728 32.3301L164.478 32.6182C163.113 34.1139 161.26 34.9297 159.364 35.0225C159.127 35.0341 158.89 35.0345 158.652 35.0234C158.296 35.0068 157.941 34.9646 157.589 34.8965C157.546 34.8882 157.504 34.8772 157.461 34.8682L156.191 38.0898C156.417 38.2373 156.636 38.3983 156.849 38.5732C157.598 39.1906 158.194 39.925 158.635 40.7275H171.258V55.2471L171.25 55.8857C171.086 62.4719 168.394 68.7538 163.715 73.4238L163.257 73.8701C159.042 77.873 153.606 80.3201 147.845 80.8447V147.3H171.133C171.879 147.3 172.483 147.905 172.483 148.65C172.483 149.396 171.878 150 171.133 150H115.36C114.615 150 114.01 149.396 114.01 148.65C114.01 147.923 114.585 147.331 115.305 147.302L118.799 145.044C128.747 137.776 128.004 121.735 116.207 116.814C105.555 112.372 93.4169 123.641 100.163 133.727C106.245 142.818 119.86 136.164 116.172 127.252C115.668 126.033 112.222 121.755 111.434 124.385C111.019 125.766 112.971 126.357 113.653 127.594C116.919 133.509 108.196 138.678 103.112 133.546C95.095 125.452 108.008 112.727 118.214 120.711C128.611 128.846 122.005 144.368 110.022 146.531C92.8273 149.634 83.1179 131.189 88.708 116.54C97.0437 94.6978 130.375 96.4175 138.279 118.256C141.513 127.19 141.254 139.241 135.874 147.3H143.313V80.8574C137.497 80.3619 132.003 77.9075 127.752 73.8701L127.293 73.4238C122.614 68.7538 119.922 62.4718 119.758 55.8857L119.75 55.2471V40.7275H145.639C145.857 40.3303 146.114 39.9468 146.413 39.584C148.237 37.3694 151.075 36.4853 153.699 37.0488L154.967 33.834C154.945 33.82 154.923 33.8073 154.901 33.793C154.693 33.6541 154.49 33.5034 154.292 33.3408C151.131 30.7382 150.679 26.0662 153.281 22.9053C153.363 22.8064 153.446 22.7098 153.531 22.6162C155.236 20.7471 157.706 19.9399 160.066 20.2793C160.142 20.2901 160.217 20.3042 160.292 20.3174L166.863 3.64258L169.376 4.63281ZM159.497 43.4287C159.725 45.364 159.196 47.3856 157.859 49.0088L157.609 49.2969C157.165 49.7837 156.669 50.1978 156.137 50.5391H165.247V58.8613L165.24 59.2275C165.115 63.0025 163.064 66.6026 159.499 69.2793C155.819 72.0423 150.829 73.5956 145.625 73.5957L145.138 73.5908C144.176 73.5729 143.223 73.5014 142.286 73.3799L140.577 77.7197C142.183 78.0704 143.834 78.2529 145.504 78.2529C151.62 78.2529 157.485 75.8275 161.808 71.5127C166.13 67.198 168.558 61.3467 168.558 55.2471V43.4287H159.497ZM122.451 55.2471C122.451 61.3467 124.879 67.198 129.201 71.5127C131.692 73.9991 134.696 75.8564 137.964 76.9854L139.581 72.8789C136.655 72.1675 133.965 70.9426 131.75 69.2793C128.185 66.6026 126.134 63.0024 126.009 59.2275L126.003 58.8613V50.5391H148.14C147.894 50.3815 147.655 50.2095 147.424 50.0195C145.404 48.3563 144.492 45.8479 144.774 43.4287H122.451V55.2471ZM143.311 70.7793C144.071 70.855 144.844 70.8945 145.625 70.8945C150.324 70.8944 154.726 69.4867 157.878 67.1201C161.015 64.7647 162.547 61.7622 162.547 58.8613V53.2393H150.222L143.311 70.7793ZM128.703 58.8613C128.703 61.7621 130.234 64.7647 133.371 67.1201C135.357 68.6116 137.841 69.7214 140.582 70.3389L147.32 53.2393H128.703V58.8613Z" fill="#000000" fill-opacity="0.3"/>
</svg>
