<svg width="185" height="80" viewBox="0 0 185 80" fill="none" xmlns="http://www.w3.org/2000/svg">
<path d="M112.429 13.392L105.731 31.8553L97.8462 13.392H89.5714L97.3824 30.3339C95.861 34.4473 93.4491 34.8605 90.9814 34.8605C88.05 34.8605 86.0277 32.1183 86.0277 28.775V0H73.7082V6.66783H78.2723V30.2024C78.1981 35.255 76.083 35.5743 74.9884 35.5743C73.9494 35.5743 72.2239 35.0108 72.2239 32.3437V24.9621C72.2239 15.9652 67.0475 12.6031 58.9396 12.6031C54.7837 12.6031 50.6648 13.6925 48.4755 14.425V21.2619C50.9987 20.2289 54.3198 19.2146 58.0491 19.2146C62.2792 19.2146 64.4129 21.0929 64.4129 23.8351V24.8118C62.3164 24.3235 60.1642 24.0793 57.9934 24.0793C53.1881 24.0793 47.7519 25.7885 46.416 31.0477C44.8575 34.2595 41.6664 34.8981 39.8667 34.8981C36.9352 34.8981 34.8758 32.4 34.8758 29.545V20.0786H43.4289V13.392H34.8758V6.46122L27.1019 6.48V13.4108H22.5377V20.0786H27.1019V28.7937C27.139 33.0762 23.484 35.2925 20.8308 35.2925C17.2129 35.2925 15.3761 32.1746 15.3761 29.3197V13.392H2.5V20.0598H7.58365V30.841C7.58365 37.6216 12.7601 41.5283 17.9921 41.5283C20.6267 41.5283 25.1538 41.5283 28.6789 36.6637C30.7384 39.8379 34.4862 41.5283 38.0113 41.5283C40.516 41.5283 44.0969 41.1151 47.455 37.7906C49.1434 40.1009 52.1862 41.4157 55.5443 41.5283C59.5333 41.641 62.6318 40.2699 65.2849 38.1663C66.4167 40.2136 68.8843 41.5283 72.9475 41.5283C76.955 41.5283 79.2928 40.5517 80.9626 37.7155C83.0777 40.1384 86.2318 41.5283 89.5714 41.5283C93.3006 41.5283 96.8815 40.8334 100.128 36.3256L102.336 41.1339L102.281 41.2466C100.815 45.2849 98.6811 47.2195 95.861 47.2195C94.7849 47.2007 93.7088 47.0692 92.6513 46.825V53.3802C94.0613 53.7183 95.4714 54 96.8629 54C101.26 54 105.472 51.671 108.514 44.0264L120.5 13.3732L112.429 13.392ZM64.3943 33.6772C62.5947 35.2737 60.5167 35.8936 58.3088 35.8936C55.9525 35.8936 54.0786 34.5788 54.0786 32.5315C54.0786 29.7329 56.8987 28.775 59.756 28.775C61.3887 28.775 63.1884 29.113 64.3758 29.3948L64.3943 33.6772ZM11.4613 10.2177C12.389 10.2177 13.2796 9.936 14.0588 9.42887C14.8195 8.90296 15.4318 8.17043 15.7843 7.30644C16.1368 6.44243 16.2296 5.5033 16.044 4.58296C15.8585 3.66261 15.4132 2.81739 14.7638 2.16C14.1145 1.50261 13.2796 1.05183 12.3704 0.864C11.4613 0.676174 10.5336 0.770087 9.68019 1.12696C8.82673 1.48383 8.10314 2.08487 7.58365 2.87374C7.06415 3.64383 6.8044 4.56417 6.8044 5.5033C6.8044 6.12313 6.93428 6.74296 7.15692 7.30644C7.39811 7.86991 7.73208 8.39583 8.15881 8.84661C8.58553 9.27861 9.10503 9.63548 9.68019 9.86087C10.2553 10.105 10.8491 10.2177 11.4613 10.2177Z" fill="#000000"/>
<path d="M1.28 69V61.32H2.4V64.6H6.8V61.32H7.92V69H6.8V65.64H2.4V69H1.28ZM15.1231 69V67.96C14.9631 68.184 14.7605 68.3867 14.5151 68.568C13.9498 68.9627 13.3258 69.16 12.6431 69.16C11.8645 69.16 11.2138 68.936 10.6911 68.488C10.1791 68.0293 9.92313 67.5067 9.92313 66.92C9.92313 65.6187 10.6698 64.8453 12.1631 64.6L15.1231 64.12C15.1231 63.5547 14.9418 63.096 14.5791 62.744C14.2271 62.3813 13.7685 62.2 13.2031 62.2C12.6485 62.2 12.1205 62.3867 11.6191 62.76C11.3845 62.9627 11.1925 63.1493 11.0431 63.32L10.3231 62.6C10.5258 62.3333 10.7765 62.0933 11.0751 61.88C11.7258 61.4 12.4351 61.16 13.2031 61.16C14.0778 61.16 14.8031 61.4427 15.3791 62.008C15.9551 62.5733 16.2431 63.2773 16.2431 64.12V69H15.1231ZM15.1231 65.56V65.08L12.4831 65.56C11.5231 65.7307 11.0431 66.184 11.0431 66.92C11.0431 67.2613 11.1818 67.5493 11.4591 67.784C11.7471 68.008 12.1418 68.12 12.6431 68.12C13.3791 68.12 13.9765 67.8853 14.4351 67.416C14.8938 66.9467 15.1231 66.328 15.1231 65.56ZM22.555 69V57.8H29.515V58.92H23.755V62.28H26.875C27.867 62.28 28.699 62.6107 29.371 63.272C30.0537 63.9227 30.395 64.712 30.395 65.64C30.395 66.568 30.0537 67.3627 29.371 68.024C28.699 68.6747 27.867 69 26.875 69H22.555ZM23.755 67.88H26.875C27.547 67.88 28.1017 67.6667 28.539 67.24C28.9763 66.8133 29.195 66.28 29.195 65.64C29.195 65 28.9763 64.4667 28.539 64.04C28.1017 63.6133 27.547 63.4 26.875 63.4H23.755V67.88ZM38.7674 68.008C38.01 68.776 37.0874 69.16 35.9994 69.16C34.9114 69.16 33.9834 68.776 33.2154 68.008C32.458 67.2293 32.0794 66.28 32.0794 65.16C32.0794 64.04 32.458 63.096 33.2154 62.328C33.9834 61.5493 34.9114 61.16 35.9994 61.16C37.0874 61.16 38.01 61.5493 38.7674 62.328C39.5354 63.096 39.9194 64.04 39.9194 65.16C39.9194 66.28 39.5354 67.2293 38.7674 68.008ZM34.0154 67.256C34.57 67.832 35.2314 68.12 35.9994 68.12C36.7674 68.12 37.4234 67.8373 37.9674 67.272C38.522 66.696 38.7994 65.992 38.7994 65.16C38.7994 64.328 38.522 63.6293 37.9674 63.064C37.4234 62.488 36.7674 62.2 35.9994 62.2C35.2314 62.2 34.57 62.488 34.0154 63.064C33.4714 63.6293 33.1994 64.328 33.1994 65.16C33.1994 65.9813 33.4714 66.68 34.0154 67.256ZM40.4844 69V67.88C40.5484 67.9227 40.6124 67.9493 40.6764 67.96C40.815 68.0133 40.9644 68.04 41.1244 68.04C41.455 68.04 41.711 67.944 41.8924 67.752C42.0844 67.56 42.2444 67.128 42.3724 66.456C42.5004 65.7733 42.5644 64.808 42.5644 63.56V61.32H48.1644V69H47.0444V62.36H43.6844V63.56C43.6844 64.6907 43.6257 65.6347 43.5084 66.392C43.4017 67.1387 43.2364 67.7093 43.0124 68.104C42.7884 68.4987 42.5377 68.776 42.2604 68.936C41.9937 69.0853 41.6684 69.16 41.2844 69.16C41.0924 69.16 40.9057 69.1333 40.7244 69.08C40.671 69.0693 40.591 69.0427 40.4844 69ZM50.7175 69V61.32H51.8375V63.88H53.8375C54.7122 63.88 55.3948 64.1147 55.8855 64.584C56.3868 65.0427 56.6375 65.6613 56.6375 66.44C56.6375 67.2187 56.3868 67.8427 55.8855 68.312C55.3948 68.7707 54.7175 69 53.8535 69H50.7175ZM51.8375 67.96H53.8535C54.3655 67.96 54.7708 67.8213 55.0695 67.544C55.3682 67.256 55.5175 66.888 55.5175 66.44C55.5175 65.9813 55.3628 65.6133 55.0535 65.336C54.7548 65.0587 54.3495 64.92 53.8375 64.92H51.8375V67.96ZM58.6394 69V61.32H59.7594V67.96H63.0394V61.32H64.1754V67.96H67.4394V61.32H68.5594V69H58.6394ZM77.2518 68.008C76.4944 68.776 75.5718 69.16 74.4838 69.16C73.3958 69.16 72.4678 68.776 71.6998 68.008C70.9424 67.2293 70.5638 66.28 70.5638 65.16C70.5638 64.04 70.9424 63.096 71.6998 62.328C72.4678 61.5493 73.3958 61.16 74.4838 61.16C75.5718 61.16 76.4944 61.5493 77.2518 62.328C78.0198 63.096 78.4038 64.04 78.4038 65.16C78.4038 66.28 78.0198 67.2293 77.2518 68.008ZM72.4998 67.256C73.0544 67.832 73.7158 68.12 74.4838 68.12C75.2518 68.12 75.9078 67.8373 76.4518 67.272C77.0064 66.696 77.2838 65.992 77.2838 65.16C77.2838 64.328 77.0064 63.6293 76.4518 63.064C75.9078 62.488 75.2518 62.2 74.4838 62.2C73.7158 62.2 73.0544 62.488 72.4998 63.064C71.9558 63.6293 71.6838 64.328 71.6838 65.16C71.6838 65.9813 71.9558 66.68 72.4998 67.256ZM81.605 57.8H82.485C82.485 58.7067 82.9117 59.16 83.765 59.16C84.6183 59.16 85.045 58.7067 85.045 57.8H85.925C85.925 58.44 85.7223 58.9627 85.317 59.368C84.9223 59.7627 84.405 59.96 83.765 59.96C83.125 59.96 82.6023 59.7627 82.197 59.368C81.8023 58.9627 81.605 58.44 81.605 57.8ZM80.405 69V61.32H81.525V67.08L86.165 61.32H87.125V69H86.005V63.24L81.365 69H80.405ZM93.4456 69V57.8H94.4856L99.1256 63.88L103.766 57.8H104.806V69H103.606V59.88L99.1256 65.8L94.6456 59.88V69H93.4456ZM113.892 68.008C113.135 68.776 112.212 69.16 111.124 69.16C110.036 69.16 109.108 68.776 108.34 68.008C107.583 67.2293 107.204 66.28 107.204 65.16C107.204 64.04 107.583 63.096 108.34 62.328C109.108 61.5493 110.036 61.16 111.124 61.16C112.212 61.16 113.135 61.5493 113.892 62.328C114.66 63.096 115.044 64.04 115.044 65.16C115.044 66.28 114.66 67.2293 113.892 68.008ZM109.14 67.256C109.695 67.832 110.356 68.12 111.124 68.12C111.892 68.12 112.548 67.8373 113.092 67.272C113.647 66.696 113.924 65.992 113.924 65.16C113.924 64.328 113.647 63.6293 113.092 63.064C112.548 62.488 111.892 62.2 111.124 62.2C110.356 62.2 109.695 62.488 109.14 63.064C108.596 63.6293 108.324 64.328 108.324 65.16C108.324 65.9813 108.596 66.68 109.14 67.256ZM117.046 72.36V61.32H118.166V62.44C118.347 62.1947 118.566 61.9813 118.822 61.8C119.398 61.3733 120.059 61.16 120.806 61.16C121.862 61.16 122.752 61.5387 123.478 62.296C124.203 63.0533 124.566 64.008 124.566 65.16C124.566 66.312 124.203 67.2667 123.478 68.024C122.752 68.7813 121.862 69.16 120.806 69.16C120.059 69.16 119.398 68.9467 118.822 68.52C118.566 68.3387 118.347 68.1253 118.166 67.88V72.36H117.046ZM120.806 68.12C121.542 68.12 122.166 67.8427 122.678 67.288C123.19 66.7333 123.446 66.024 123.446 65.16C123.446 64.296 123.19 63.5867 122.678 63.032C122.166 62.4773 121.542 62.2 120.806 62.2C120.112 62.2 119.499 62.488 118.966 63.064C118.432 63.64 118.166 64.3387 118.166 65.16C118.166 65.9813 118.432 66.68 118.966 67.256C119.499 67.832 120.112 68.12 120.806 68.12ZM132.241 66.84L133.041 67.56C132.828 67.8267 132.545 68.0933 132.193 68.36C131.447 68.8933 130.663 69.16 129.841 69.16C128.785 69.16 127.879 68.7707 127.121 67.992C126.375 67.2133 126.001 66.2693 126.001 65.16C126.001 64.0507 126.375 63.1067 127.121 62.328C127.879 61.5493 128.785 61.16 129.841 61.16C130.673 61.16 131.441 61.416 132.145 61.928C132.433 62.1413 132.705 62.392 132.961 62.68L132.161 63.48C131.991 63.2453 131.793 63.032 131.569 62.84C131.057 62.4133 130.481 62.2 129.841 62.2C129.105 62.2 128.465 62.488 127.921 63.064C127.388 63.6293 127.121 64.328 127.121 65.16C127.121 65.992 127.388 66.696 127.921 67.272C128.465 67.8373 129.105 68.12 129.841 68.12C130.449 68.12 131.041 67.9067 131.617 67.48C131.863 67.2773 132.071 67.064 132.241 66.84ZM134.796 69V61.32H135.916V65.4L139.756 61.32H141.116L138.156 64.44L141.436 69H140.156L137.436 65.24L135.916 66.84V69H134.796ZM148.846 68.008C148.088 68.776 147.166 69.16 146.078 69.16C144.99 69.16 144.062 68.776 143.294 68.008C142.536 67.2293 142.158 66.28 142.158 65.16C142.158 64.04 142.536 63.096 143.294 62.328C144.062 61.5493 144.99 61.16 146.078 61.16C147.166 61.16 148.088 61.5493 148.846 62.328C149.614 63.096 149.998 64.04 149.998 65.16C149.998 66.28 149.614 67.2293 148.846 68.008ZM144.094 67.256C144.648 67.832 145.31 68.12 146.078 68.12C146.846 68.12 147.502 67.8373 148.046 67.272C148.6 66.696 148.878 65.992 148.878 65.16C148.878 64.328 148.6 63.6293 148.046 63.064C147.502 62.488 146.846 62.2 146.078 62.2C145.31 62.2 144.648 62.488 144.094 63.064C143.55 63.6293 143.278 64.328 143.278 65.16C143.278 65.9813 143.55 66.68 144.094 67.256ZM153.199 57.8H154.079C154.079 58.7067 154.505 59.16 155.359 59.16C156.212 59.16 156.639 58.7067 156.639 57.8H157.519C157.519 58.44 157.316 58.9627 156.911 59.368C156.516 59.7627 155.999 59.96 155.359 59.96C154.719 59.96 154.196 59.7627 153.791 59.368C153.396 58.9627 153.199 58.44 153.199 57.8ZM151.999 69V61.32H153.119V67.08L157.759 61.32H158.719V69H157.599V63.24L152.959 69H151.999Z" fill="#000000"/>
</svg>
