<svg width="169.093" height="57.461" viewBox="0 0.899 169.093 57.461" fill="none" xmlns="http://www.w3.org/2000/svg">
<path d="M164.088 21.8209V1.46508H156.211V16.2953C156.211 20.6371 152.722 23.3429 149.967 23.3429C146.815 23.3429 144.507 21.1444 144.507 16.8578V1.46508H131.677V8.11922H136.63V18.3247C136.63 19.4533 136.744 20.5231 136.968 21.4826C135.955 22.8355 134.719 23.3429 133.592 23.3429C131.285 23.3429 129.204 21.4826 128.078 17.196L123.859 1.46508H105.852V8.17436H110.974L108.273 17.196C106.978 21.5378 104.898 23.3429 103.151 23.3429C101.97 23.3429 101.126 22.3833 101.126 20.6371V13.3616C101.126 4.33996 95.9494 0.898926 87.7347 0.898926C83.6255 0.898926 79.7438 1.57537 77.326 2.75914V9.69636C79.9162 8.51258 83.0641 7.55306 86.9495 7.55306C90.5524 7.55306 93.2527 9.46843 93.2527 12.1779V13.1374C91.3962 12.7992 89.0335 12.347 86.7257 12.347C81.9415 12.347 77.0471 14.1521 75.3594 18.9423C74.2918 21.9311 73.1654 23.3392 71.8703 23.3392C70.8027 23.3392 69.9001 22.6627 69.9001 20.0673V14.1484C69.9001 4.61936 64.892 0.898926 59.6602 0.898926C55.551 0.898926 53.0781 1.68933 49.644 6.47958C48.8002 4.33628 46.1549 0.898926 40.923 0.898926C36.8139 0.898926 33.776 2.30696 31.6957 5.74799H31.527L31.3032 1.4614H24.5524V16.2917C24.5524 20.6334 21.0632 23.3392 18.3079 23.3392C15.1563 23.3392 12.8485 20.5746 12.8485 16.2917V1.46508H0V8.11922H4.95303V18.3247C4.95303 25.6553 10.1299 30.2212 15.4755 30.2212C19.6397 30.2212 22.3987 28.2471 24.534 25.3722H24.7028L24.9266 29.6588H32.4112V16.5196C32.4112 10.4868 35.394 7.78099 38.1493 7.78099C40.9047 7.78099 43.2711 9.97943 43.2711 14.266V29.6588H51.1483V16.5196C51.1483 10.4868 54.1311 7.78099 56.8865 7.78099C59.6418 7.78099 62.0083 9.97943 62.0083 14.266V22.273C62.0083 28.5301 65.2149 30.2249 68.5353 30.2249C72.0244 30.2249 73.9946 28.986 76.3574 26.2766H76.4711C78.1588 28.5338 81.0279 30.2249 84.407 30.2249C88.4575 30.2249 91.554 28.7581 94.1993 26.5596C95.3807 28.5338 98.2498 30.2249 102.414 30.2249C108.266 30.2249 112.768 26.953 114.624 20.979L118.337 8.96845L121.657 20.9238C123.459 27.464 127.847 30.2286 132.011 30.2286C134.88 30.2286 137.074 29.1588 139.496 26.6185C141.466 28.9309 144.28 30.2286 147.149 30.2286C151.313 30.2286 154.072 28.2544 156.208 25.3795H156.376C158.347 28.4823 161.608 30.2286 164.929 30.2286C166.616 30.2286 167.798 30.0595 169.093 29.6661V21.8282H164.085L164.088 21.8209ZM93.1867 21.9348C91.3302 23.6811 89.1362 24.3024 87.0523 24.3024C84.9683 24.3024 82.833 22.9495 82.833 21.1444C82.833 18.8908 85.7608 17.196 88.5712 17.196C90.3726 17.196 91.499 17.31 93.1867 17.7585V21.9311V21.9348Z" fill="#000"/>
<path d="M1.28 55V47.32H2.4V50.6H6.8V47.32H7.92V55H6.8V51.64H2.4V55H1.28ZM15.1231 55V53.96C14.9631 54.184 14.7605 54.3867 14.5151 54.568C13.9498 54.9627 13.3258 55.16 12.6431 55.16C11.8645 55.16 11.2138 54.936 10.6911 54.488C10.1791 54.0293 9.92313 53.5067 9.92313 52.92C9.92313 51.6187 10.6698 50.8453 12.1631 50.6L15.1231 50.12C15.1231 49.5547 14.9418 49.096 14.5791 48.744C14.2271 48.3813 13.7685 48.2 13.2031 48.2C12.6485 48.2 12.1205 48.3867 11.6191 48.76C11.3845 48.9627 11.1925 49.1493 11.0431 49.32L10.3231 48.6C10.5258 48.3333 10.7765 48.0933 11.0751 47.88C11.7258 47.4 12.4351 47.16 13.2031 47.16C14.0778 47.16 14.8031 47.4427 15.3791 48.008C15.9551 48.5733 16.2431 49.2773 16.2431 50.12V55H15.1231ZM15.1231 51.56V51.08L12.4831 51.56C11.5231 51.7307 11.0431 52.184 11.0431 52.92C11.0431 53.2613 11.1818 53.5493 11.4591 53.784C11.7471 54.008 12.1418 54.12 12.6431 54.12C13.3791 54.12 13.9765 53.8853 14.4351 53.416C14.8938 52.9467 15.1231 52.328 15.1231 51.56ZM22.555 55V43.8H29.515V44.92H23.755V48.28H26.875C27.867 48.28 28.699 48.6107 29.371 49.272C30.0537 49.9227 30.395 50.712 30.395 51.64C30.395 52.568 30.0537 53.3627 29.371 54.024C28.699 54.6747 27.867 55 26.875 55H22.555ZM23.755 53.88H26.875C27.547 53.88 28.1017 53.6667 28.539 53.24C28.9763 52.8133 29.195 52.28 29.195 51.64C29.195 51 28.9763 50.4667 28.539 50.04C28.1017 49.6133 27.547 49.4 26.875 49.4H23.755V53.88ZM38.7674 54.008C38.01 54.776 37.0874 55.16 35.9994 55.16C34.9114 55.16 33.9834 54.776 33.2154 54.008C32.458 53.2293 32.0794 52.28 32.0794 51.16C32.0794 50.04 32.458 49.096 33.2154 48.328C33.9834 47.5493 34.9114 47.16 35.9994 47.16C37.0874 47.16 38.01 47.5493 38.7674 48.328C39.5354 49.096 39.9194 50.04 39.9194 51.16C39.9194 52.28 39.5354 53.2293 38.7674 54.008ZM34.0154 53.256C34.57 53.832 35.2314 54.12 35.9994 54.12C36.7674 54.12 37.4234 53.8373 37.9674 53.272C38.522 52.696 38.7994 51.992 38.7994 51.16C38.7994 50.328 38.522 49.6293 37.9674 49.064C37.4234 48.488 36.7674 48.2 35.9994 48.2C35.2314 48.2 34.57 48.488 34.0154 49.064C33.4714 49.6293 33.1994 50.328 33.1994 51.16C33.1994 51.9813 33.4714 52.68 34.0154 53.256ZM40.4844 55V53.88C40.5484 53.9227 40.6124 53.9493 40.6764 53.96C40.815 54.0133 40.9644 54.04 41.1244 54.04C41.455 54.04 41.711 53.944 41.8924 53.752C42.0844 53.56 42.2444 53.128 42.3724 52.456C42.5004 51.7733 42.5644 50.808 42.5644 49.56V47.32H48.1644V55H47.0444V48.36H43.6844V49.56C43.6844 50.6907 43.6257 51.6347 43.5084 52.392C43.4017 53.1387 43.2364 53.7093 43.0124 54.104C42.7884 54.4987 42.5377 54.776 42.2604 54.936C41.9937 55.0853 41.6684 55.16 41.2844 55.16C41.0924 55.16 40.9057 55.1333 40.7244 55.08C40.671 55.0693 40.591 55.0427 40.4844 55ZM50.7175 55V47.32H51.8375V49.88H53.8375C54.7122 49.88 55.3948 50.1147 55.8855 50.584C56.3868 51.0427 56.6375 51.6613 56.6375 52.44C56.6375 53.2187 56.3868 53.8427 55.8855 54.312C55.3948 54.7707 54.7175 55 53.8535 55H50.7175ZM51.8375 53.96H53.8535C54.3655 53.96 54.7708 53.8213 55.0695 53.544C55.3682 53.256 55.5175 52.888 55.5175 52.44C55.5175 51.9813 55.3628 51.6133 55.0535 51.336C54.7548 51.0587 54.3495 50.92 53.8375 50.92H51.8375V53.96ZM58.6394 55V47.32H59.7594V53.96H63.0394V47.32H64.1754V53.96H67.4394V47.32H68.5594V55H58.6394ZM77.2518 54.008C76.4944 54.776 75.5718 55.16 74.4838 55.16C73.3958 55.16 72.4678 54.776 71.6998 54.008C70.9424 53.2293 70.5638 52.28 70.5638 51.16C70.5638 50.04 70.9424 49.096 71.6998 48.328C72.4678 47.5493 73.3958 47.16 74.4838 47.16C75.5718 47.16 76.4944 47.5493 77.2518 48.328C78.0198 49.096 78.4038 50.04 78.4038 51.16C78.4038 52.28 78.0198 53.2293 77.2518 54.008ZM72.4998 53.256C73.0544 53.832 73.7158 54.12 74.4838 54.12C75.2518 54.12 75.9078 53.8373 76.4518 53.272C77.0064 52.696 77.2838 51.992 77.2838 51.16C77.2838 50.328 77.0064 49.6293 76.4518 49.064C75.9078 48.488 75.2518 48.2 74.4838 48.2C73.7158 48.2 73.0544 48.488 72.4998 49.064C71.9558 49.6293 71.6838 50.328 71.6838 51.16C71.6838 51.9813 71.9558 52.68 72.4998 53.256ZM81.605 43.8H82.485C82.485 44.7067 82.9117 45.16 83.765 45.16C84.6183 45.16 85.045 44.7067 85.045 43.8H85.925C85.925 44.44 85.7223 44.9627 85.317 45.368C84.9223 45.7627 84.405 45.96 83.765 45.96C83.125 45.96 82.6023 45.7627 82.197 45.368C81.8023 44.9627 81.605 44.44 81.605 43.8ZM80.405 55V47.32H81.525V53.08L86.165 47.32H87.125V55H86.005V49.24L81.365 55H80.405ZM93.4456 55V43.8H94.4856L99.1256 49.88L103.766 43.8H104.806V55H103.606V45.88L99.1256 51.8L94.6456 45.88V55H93.4456ZM113.892 54.008C113.135 54.776 112.212 55.16 111.124 55.16C110.036 55.16 109.108 54.776 108.34 54.008C107.583 53.2293 107.204 52.28 107.204 51.16C107.204 50.04 107.583 49.096 108.34 48.328C109.108 47.5493 110.036 47.16 111.124 47.16C112.212 47.16 113.135 47.5493 113.892 48.328C114.66 49.096 115.044 50.04 115.044 51.16C115.044 52.28 114.66 53.2293 113.892 54.008ZM109.14 53.256C109.695 53.832 110.356 54.12 111.124 54.12C111.892 54.12 112.548 53.8373 113.092 53.272C113.647 52.696 113.924 51.992 113.924 51.16C113.924 50.328 113.647 49.6293 113.092 49.064C112.548 48.488 111.892 48.2 111.124 48.2C110.356 48.2 109.695 48.488 109.14 49.064C108.596 49.6293 108.324 50.328 108.324 51.16C108.324 51.9813 108.596 52.68 109.14 53.256ZM117.046 58.36V47.32H118.166V48.44C118.347 48.1947 118.566 47.9813 118.822 47.8C119.398 47.3733 120.059 47.16 120.806 47.16C121.862 47.16 122.752 47.5387 123.478 48.296C124.203 49.0533 124.566 50.008 124.566 51.16C124.566 52.312 124.203 53.2667 123.478 54.024C122.752 54.7813 121.862 55.16 120.806 55.16C120.059 55.16 119.398 54.9467 118.822 54.52C118.566 54.3387 118.347 54.1253 118.166 53.88V58.36H117.046ZM120.806 54.12C121.542 54.12 122.166 53.8427 122.678 53.288C123.19 52.7333 123.446 52.024 123.446 51.16C123.446 50.296 123.19 49.5867 122.678 49.032C122.166 48.4773 121.542 48.2 120.806 48.2C120.112 48.2 119.499 48.488 118.966 49.064C118.432 49.64 118.166 50.3387 118.166 51.16C118.166 51.9813 118.432 52.68 118.966 53.256C119.499 53.832 120.112 54.12 120.806 54.12ZM132.241 52.84L133.041 53.56C132.828 53.8267 132.545 54.0933 132.193 54.36C131.447 54.8933 130.663 55.16 129.841 55.16C128.785 55.16 127.879 54.7707 127.121 53.992C126.375 53.2133 126.001 52.2693 126.001 51.16C126.001 50.0507 126.375 49.1067 127.121 48.328C127.879 47.5493 128.785 47.16 129.841 47.16C130.673 47.16 131.441 47.416 132.145 47.928C132.433 48.1413 132.705 48.392 132.961 48.68L132.161 49.48C131.991 49.2453 131.793 49.032 131.569 48.84C131.057 48.4133 130.481 48.2 129.841 48.2C129.105 48.2 128.465 48.488 127.921 49.064C127.388 49.6293 127.121 50.328 127.121 51.16C127.121 51.992 127.388 52.696 127.921 53.272C128.465 53.8373 129.105 54.12 129.841 54.12C130.449 54.12 131.041 53.9067 131.617 53.48C131.863 53.2773 132.071 53.064 132.241 52.84ZM134.796 55V47.32H135.916V51.4L139.756 47.32H141.116L138.156 50.44L141.436 55H140.156L137.436 51.24L135.916 52.84V55H134.796ZM148.846 54.008C148.088 54.776 147.166 55.16 146.078 55.16C144.99 55.16 144.062 54.776 143.294 54.008C142.536 53.2293 142.158 52.28 142.158 51.16C142.158 50.04 142.536 49.096 143.294 48.328C144.062 47.5493 144.99 47.16 146.078 47.16C147.166 47.16 148.088 47.5493 148.846 48.328C149.614 49.096 149.998 50.04 149.998 51.16C149.998 52.28 149.614 53.2293 148.846 54.008ZM144.094 53.256C144.648 53.832 145.31 54.12 146.078 54.12C146.846 54.12 147.502 53.8373 148.046 53.272C148.6 52.696 148.878 51.992 148.878 51.16C148.878 50.328 148.6 49.6293 148.046 49.064C147.502 48.488 146.846 48.2 146.078 48.2C145.31 48.2 144.648 48.488 144.094 49.064C143.55 49.6293 143.278 50.328 143.278 51.16C143.278 51.9813 143.55 52.68 144.094 53.256ZM153.199 43.8H154.079C154.079 44.7067 154.505 45.16 155.359 45.16C156.212 45.16 156.639 44.7067 156.639 43.8H157.519C157.519 44.44 157.316 44.9627 156.911 45.368C156.516 45.7627 155.999 45.96 155.359 45.96C154.719 45.96 154.196 45.7627 153.791 45.368C153.396 44.9627 153.199 44.44 153.199 43.8ZM151.999 55V47.32H153.119V53.08L157.759 47.32H158.719V55H157.599V49.24L152.959 55H151.999Z" fill="#000"/>
</svg>
