<svg width="190" height="150" viewBox="0 0 190 150" fill="none" xmlns="http://www.w3.org/2000/svg">
<path d="M167.474 0C149.396 -1.40556e-08 135.762 -0.00084086 124.915 0.874023C114.053 1.75006 105.876 3.51056 98.73 7.09277C85.6585 13.6453 75.065 24.3057 68.5532 37.459C64.9933 44.6499 63.2431 52.8776 62.3726 63.8066C61.5031 74.7216 61.5044 88.4412 61.5044 106.633V150H170.386L170.724 148.363C176.891 124.718 171.508 99.0788 167.474 87.2363V0ZM164.962 87.3135C168.852 98.3557 174.321 124.187 168.568 147.449H155.57C155.967 146.683 156.338 145.819 156.683 144.881C157.343 143.085 157.942 140.942 158.481 138.558C159.559 133.788 160.416 127.964 161.04 121.821C162.252 109.868 162.588 96.5816 161.891 87.3135H164.962ZM159.441 87.3135C160.142 96.3887 159.821 109.618 158.61 121.554C157.993 127.634 157.15 133.345 156.103 137.976C155.58 140.291 155.01 142.317 154.401 143.974C153.833 145.519 153.252 146.677 152.687 147.449H147.307C147.538 146.743 147.759 145.944 147.971 145.075C148.398 143.323 148.809 141.202 149.202 138.817C149.988 134.048 150.712 128.164 151.353 121.951C152.607 109.803 153.547 96.3307 154.008 87.3135H159.441ZM151.481 87.3135C151.019 96.2931 150.085 109.65 148.842 121.688C148.203 127.878 147.485 133.704 146.711 138.401C146.324 140.75 145.926 142.802 145.52 144.469C145.213 145.729 144.911 146.725 144.625 147.449H135.644C135.393 129.023 142.075 100.451 145.616 87.3135H151.481ZM116.208 62.5254C122.32 68.1414 129.976 73.4117 139.54 77.7676C139.527 77.7851 139.515 77.8036 139.502 77.8213C139.476 77.8578 139.45 77.8945 139.424 77.9316C139.398 77.9703 139.372 78.0095 139.346 78.0488C139.319 78.0901 139.293 78.1318 139.267 78.1738C139.244 78.212 139.22 78.2504 139.198 78.2891C139.172 78.3337 139.146 78.3785 139.121 78.4238C139.101 78.4589 139.082 78.4938 139.063 78.5293C139.038 78.576 139.015 78.6235 138.992 78.6709C138.971 78.7128 138.95 78.7544 138.93 78.7969C138.912 78.8369 138.894 78.8775 138.876 78.918C138.856 78.964 138.836 79.01 138.817 79.0566C138.798 79.1025 138.781 79.1489 138.763 79.1953C138.748 79.2343 138.733 79.2731 138.719 79.3125C138.699 79.369 138.681 79.4262 138.663 79.4834C138.651 79.5201 138.639 79.5567 138.627 79.5938C138.613 79.6407 138.6 79.688 138.587 79.7354C138.576 79.7776 138.564 79.8197 138.553 79.8623C138.492 80.1051 138.447 80.3538 138.417 80.6074C138.387 80.8488 138.37 81.0944 138.37 81.3438C138.37 81.5952 138.388 81.8427 138.417 82.0859C138.448 82.3372 138.493 82.5836 138.553 82.8242C138.562 82.8573 138.571 82.89 138.58 82.9229C138.595 82.9785 138.61 83.0339 138.626 83.0889C138.639 83.1318 138.654 83.1742 138.667 83.2168C138.683 83.2653 138.697 83.3143 138.714 83.3623C138.73 83.4053 138.746 83.4477 138.762 83.4902C138.78 83.537 138.798 83.5836 138.817 83.6299C138.835 83.6733 138.854 83.7159 138.873 83.7588C138.893 83.8049 138.913 83.851 138.934 83.8965C138.952 83.9359 138.972 83.9748 138.991 84.0137C139.012 84.0564 139.032 84.0994 139.054 84.1416C139.077 84.1858 139.102 84.2289 139.126 84.2725C139.15 84.3145 139.173 84.3561 139.198 84.3975C139.219 84.4335 139.24 84.4693 139.262 84.5049C139.289 84.5485 139.316 84.5919 139.344 84.6348C139.375 84.6822 139.407 84.7289 139.439 84.7754C139.456 84.8002 139.473 84.8251 139.491 84.8496C139.524 84.896 139.558 84.9419 139.592 84.9873C139.617 85.0197 139.641 85.0521 139.667 85.084C139.701 85.1272 139.736 85.1697 139.771 85.2119C139.796 85.2418 139.822 85.2714 139.847 85.3008C139.879 85.3371 139.911 85.3727 139.944 85.4082C139.978 85.4458 140.013 85.4829 140.048 85.5195C140.075 85.5474 140.102 85.5752 140.129 85.6025C140.168 85.6409 140.207 85.6785 140.247 85.7158C140.276 85.7434 140.305 85.7709 140.334 85.7979C140.377 85.836 140.419 85.8732 140.462 85.9102C140.49 85.9342 140.519 85.9579 140.547 85.9814C140.585 86.0125 140.623 86.0431 140.662 86.0732C140.698 86.1019 140.735 86.1304 140.772 86.1582C140.811 86.1875 140.851 86.2158 140.891 86.2441C140.927 86.2694 140.962 86.2949 140.999 86.3193C141.043 86.3495 141.089 86.3783 141.134 86.4072C141.164 86.4261 141.193 86.4455 141.223 86.4639C141.284 86.5008 141.345 86.5365 141.407 86.5713C141.424 86.581 141.441 86.591 141.458 86.6006C141.518 86.6332 141.578 86.6638 141.639 86.6943C141.667 86.7084 141.695 86.7227 141.723 86.7363C141.771 86.7595 141.819 86.7819 141.868 86.8037C141.907 86.8212 141.946 86.8388 141.985 86.8555C142.051 86.8835 142.118 86.9099 142.185 86.9355C142.2 86.9414 142.216 86.9474 142.231 86.9531C142.302 86.9794 142.374 87.0038 142.446 87.0273C142.467 87.0344 142.489 87.0421 142.51 87.0488C142.561 87.0647 142.612 87.0783 142.664 87.0928C142.708 87.1055 142.753 87.1192 142.798 87.1309C142.862 87.1472 142.926 87.1615 142.991 87.1758C143.016 87.1813 143.041 87.1881 143.066 87.1934C139.494 100.553 132.911 128.872 133.154 147.449H99.564V105.191C104.396 104.922 108.977 102.918 112.422 99.5332C116.133 95.887 118.221 90.9377 118.221 85.7734V85.7188L118.215 85.6641L116.208 62.5254ZM83.8921 21.04C86.6953 22.4058 89.7862 23.1337 92.9497 23.1338C93.225 23.1338 93.4999 23.1262 93.7739 23.1152C94.6028 27.8599 96.4145 34.1836 99.8735 41.0449H81.7964L78.6714 85.6855L78.6685 85.7295V85.7734C78.6685 90.9378 80.7566 95.887 84.4673 99.5332C87.7343 102.743 92.0234 104.711 96.5786 105.136V147.449H64.0396V106.633C64.0396 88.4001 64.0405 74.8001 64.8999 64.0107C65.7582 53.2361 67.4664 45.3733 70.8218 38.5957C74.2049 31.7621 78.7353 25.6299 84.1655 20.4395L83.8921 21.04ZM114.39 70.8955L115.685 85.8184C115.673 90.2848 113.863 94.5698 110.642 97.7344C107.41 100.91 103.023 102.697 98.4448 102.697C93.8668 102.697 89.4795 100.91 86.2476 97.7344C83.0254 94.5682 81.2149 90.2804 81.2046 85.8115L82.2485 70.8955H114.39ZM102.176 88.8066C101.146 88.8066 100.31 89.6416 100.31 90.6719C100.31 91.7023 101.146 92.5381 102.176 92.5381C103.207 92.538 104.042 91.7022 104.042 90.6719C104.041 89.6417 103.206 88.8068 102.176 88.8066ZM92.1011 75.373C90.4527 75.3732 89.1168 76.71 89.1167 78.3584C89.1167 80.0069 90.4526 81.3436 92.1011 81.3438C93.7497 81.3438 95.0864 80.007 95.0864 78.3584C95.0863 76.7099 93.7496 75.373 92.1011 75.373ZM104.788 75.373C103.551 75.3732 102.549 76.3759 102.549 77.6123C102.549 78.8487 103.551 79.8514 104.788 79.8516C106.024 79.8516 107.027 78.8488 107.027 77.6123C107.027 76.3758 106.024 75.373 104.788 75.373ZM106.708 17.9023C109.575 20.4323 113.039 22.1138 116.731 22.793C116.64 32.5459 122.493 54.1508 145.985 75.373H144.242C144.141 75.3731 144.04 75.3757 143.94 75.3809C143.841 75.386 143.743 75.3933 143.645 75.4033C143.628 75.4051 143.611 75.4083 143.594 75.4102C143.513 75.4192 143.433 75.4291 143.353 75.4414C143.338 75.4437 143.323 75.4468 143.308 75.4492C143.226 75.4626 143.143 75.4773 143.062 75.4941C143.055 75.4956 143.048 75.4976 143.042 75.499C142.862 75.537 142.685 75.5824 142.511 75.6367C142.475 75.6479 142.44 75.661 142.405 75.6729C142.353 75.69 142.302 75.707 142.251 75.7256C142.206 75.7424 142.16 75.7604 142.115 75.7783C142.071 75.7956 142.027 75.8127 141.984 75.8311C141.945 75.8477 141.906 75.8653 141.867 75.8828C141.823 75.9024 141.78 75.9218 141.737 75.9424C141.732 75.9447 141.727 75.9469 141.722 75.9492C108.738 61.4065 98.6518 35.8607 96.3315 22.8525C100.158 22.2159 103.754 20.5098 106.708 17.9023ZM165.236 75.373H159.492C142.474 51.9545 139.077 30.9911 139.449 21.7393C141.827 22.6521 144.368 23.1347 146.958 23.1348C152.596 23.1348 158.006 20.8585 161.998 16.8018C163.361 15.4161 164.423 13.8707 165.236 12.2188V75.373ZM133.291 18.0752C134.432 19.049 135.664 19.8942 136.965 20.5986C136.276 29.8337 139.394 51.3292 156.357 75.373H149.844C125.22 54.1418 119.32 32.4047 119.287 23.0996C119.672 23.1214 120.058 23.1338 120.446 23.1338C125.452 23.1338 129.665 21.3042 133.291 18.0752ZM101.212 43.5713C104.175 48.9124 108.148 54.4951 113.431 59.8506L114.13 67.9102H82.4575L84.1616 43.5713H101.212ZM110.928 5.4707C110.111 8.97908 108.431 12.576 106.074 14.9854C102.596 18.5394 97.8751 20.539 92.9497 20.5391C90.4299 20.539 87.9641 20.0138 85.6899 19.0264C89.9413 15.216 94.7001 11.9629 99.8608 9.37598C103.209 7.69755 106.824 6.42852 110.928 5.4707ZM164.923 2.55078C164.755 7.32604 163.412 11.6988 160.217 14.9463C156.704 18.5177 151.934 20.5273 146.958 20.5273C141.983 20.5272 137.214 18.5176 133.701 14.9463C130.29 11.4798 128.393 7.84565 128.23 3.19727C137.897 2.58846 149.747 2.55255 164.923 2.55078ZM125.702 3.37305C125.903 8.54436 127.98 12.6177 131.429 16.2891C128.258 19.0366 124.676 20.5195 120.446 20.5195C116.07 20.5195 111.856 18.9338 108.528 16.0771C111.174 13.0073 112.895 8.78645 113.613 4.90234C117.067 4.23899 120.864 3.76009 125.118 3.41699C125.311 3.40138 125.506 3.38811 125.702 3.37305Z" fill="#000000" fill-opacity="0.3"/>
</svg>
