<svg width="193" height="150" viewBox="0 0 193 150" fill="none" xmlns="http://www.w3.org/2000/svg">
<path d="M145.358 148.071C144.739 149.257 143.512 150 142.175 150H51.1777C49.8696 150 48.664 149.289 48.0322 148.144L40.3984 134.3H152.548L145.358 148.071ZM110.049 35.8789C110.297 38.6829 110.024 42.9873 108.365 46.8623C107.235 49.5008 105.437 51.9784 102.715 53.6064C120.704 56.2853 134.571 71.5784 135.039 90.2012C141.259 91.721 147.11 95.0152 151.271 100.622C155.382 106.161 157.754 113.832 157.339 123.989H189.147C191.131 123.989 192.739 125.598 192.739 127.581C192.739 129.564 191.131 131.172 189.147 131.172H3.5918C1.60848 131.172 0.000261149 129.564 0 127.581C0 125.598 1.60832 123.989 3.5918 123.989H37.6465C37.8733 109.068 46.565 96.2086 59.1045 90.0889C59.6152 71.8728 72.9522 56.8647 90.4043 53.7734C90.0985 53.5679 89.7968 53.3419 89.5029 53.0918C86.9032 50.8788 85.0844 47.0513 85.21 40.9727L85.2393 39.5342L86.6748 39.6396C88.8115 39.7972 91.9207 40.7064 94.4287 42.9551C95.2494 43.691 95.9943 44.5619 96.6162 45.5781C96.7816 44.9574 96.9859 44.3357 97.2344 43.7197C98.8223 39.7837 102.178 36.1885 108.364 34.6738L109.909 34.2959L110.049 35.8789ZM75.6484 88.6738C56.1862 88.674 40.359 104.422 40.042 123.989H45.8721C46.319 118.888 49.0411 111.536 54.042 105.443C59.443 98.8635 67.6072 93.6306 78.584 94.3643C89.4328 95.0896 96.3959 99.751 100.757 105.381C105.085 110.968 106.8 117.439 107.342 121.787C107.43 122.494 107.471 123.232 107.456 123.989H111.256C110.939 104.422 95.1107 88.6739 75.6484 88.6738ZM78.4248 96.7529C68.4027 96.083 60.9328 100.822 55.8926 106.962C51.223 112.651 48.7308 119.441 48.2764 123.989H54.4404C54.3718 116.81 58.4858 109.362 64.2969 105.626C71.3852 101.069 78.6418 100.215 84.7305 102.257C90.8126 104.297 95.5947 109.183 97.8047 115.832C98.8716 119.042 99.0488 121.737 98.502 123.989H105.062C105.076 123.335 105.042 122.696 104.966 122.083C104.458 118.007 102.847 111.991 98.8633 106.848C94.912 101.747 88.5751 97.4317 78.4248 96.7529ZM83.9697 104.526C78.6589 102.745 72.1528 103.422 65.5918 107.64C60.4255 110.961 56.7714 117.67 56.8398 123.989H62.2705C62.0014 122.899 61.9294 121.742 62.1045 120.533C62.5253 117.63 64.33 114.634 67.7588 111.707C71.2424 108.734 74.7797 107.554 78.0439 107.661C81.2915 107.768 84.1502 109.145 86.3047 111.074C88.4496 112.995 89.9586 115.518 90.4629 118.02C90.8855 120.117 90.6059 122.287 89.2949 123.989H96.0156C96.5998 122.215 96.6109 119.83 95.5332 116.587C93.5433 110.6 89.2871 106.31 83.9697 104.526ZM77.9658 110.054C75.3794 109.969 72.4091 110.886 69.3135 113.528C66.1632 116.217 64.7857 118.731 64.4746 120.876C64.3173 121.962 64.4282 123.005 64.7637 123.989H70.6562C70.6308 123.923 70.6059 123.855 70.583 123.787C69.9418 121.874 70.4417 119.719 72.0732 117.578C73.6332 115.532 75.4521 114.53 77.25 114.415C79.0253 114.302 80.5989 115.068 81.6338 116.194C82.6563 117.308 83.2531 118.897 82.8428 120.473C82.4179 122.103 81.0194 123.347 78.8203 123.948L78.1885 121.639C79.8378 121.188 80.3802 120.425 80.5254 119.869C80.6846 119.258 80.4797 118.477 79.8701 117.813C79.2728 117.163 78.3829 116.742 77.4033 116.805C76.4463 116.866 75.217 117.404 73.9775 119.03C72.6671 120.75 72.5373 122.086 72.8525 123.026C72.9647 123.361 73.1479 123.684 73.3975 123.989H85.6973C86.0809 123.73 86.4587 123.447 86.8232 123.134C88.0756 122.057 88.5027 120.412 88.1162 118.493C87.7267 116.56 86.5178 114.48 84.707 112.858C82.9058 111.245 80.5692 110.139 77.9658 110.054ZM126.733 111.85C124.084 111.519 120.776 112.299 116.948 115.205C115.167 116.558 113.996 117.901 113.279 119.188C113.499 120.76 113.625 122.362 113.649 123.989H117.827C118 122.534 118.673 121.018 119.825 119.506C121.391 117.451 123.2 116.415 125.018 116.379C126.821 116.343 128.32 117.302 129.219 118.583C130.112 119.856 130.501 121.571 129.96 123.195C129.868 123.47 129.752 123.735 129.612 123.989H135.478C135.597 123.473 135.658 122.908 135.649 122.299C135.618 120.149 134.75 117.68 133.17 115.663C131.6 113.66 129.394 112.182 126.733 111.85ZM125.071 119.108C124.334 119.123 123.229 119.543 121.996 121.161C121.169 122.247 120.749 123.193 120.59 123.989H125.525C126.693 123.542 127.185 122.884 127.369 122.332C127.598 121.645 127.455 120.823 126.984 120.151C126.519 119.488 125.822 119.093 125.071 119.108ZM131.364 105.441C126.684 103.916 120.753 104.748 114.167 108.981C113.148 109.637 112.197 110.443 111.331 111.367C111.823 112.715 112.24 114.099 112.581 115.514C113.336 114.665 114.239 113.835 115.297 113.031C119.549 109.803 123.554 108.702 127.071 109.141C130.577 109.578 133.392 111.519 135.319 113.979C137.236 116.425 138.34 119.464 138.38 122.261C138.388 122.842 138.347 123.422 138.257 123.989H141.863C142.535 121.843 142.6 119.467 141.762 116.943C139.766 110.938 136.038 106.965 131.364 105.441ZM126.853 98.4238C119.084 98.1733 113.095 101.186 108.638 105.55C109.206 106.549 109.731 107.577 110.21 108.63C110.986 107.902 111.815 107.249 112.69 106.686C119.754 102.145 126.538 100.997 132.21 102.846C137.888 104.697 142.15 109.452 144.354 116.082C145.291 118.902 145.303 121.57 144.698 123.989H148.925C148.908 122.95 148.875 121.956 148.875 121.002C148.875 116.972 147.73 111.435 144.421 106.872C141.156 102.37 135.715 98.7097 126.853 98.4238ZM134.068 92.7764C128.213 91.4113 121.934 91.7146 116.474 93.2129C111.42 94.5996 107.204 96.9701 104.655 99.8359C105.551 100.902 106.393 102.016 107.171 103.177C112.02 98.6132 118.542 95.4235 126.94 95.6943C136.633 96.007 142.864 100.073 146.632 105.27C150.356 110.405 151.605 116.543 151.605 121.002C151.605 121.855 151.638 122.878 151.654 123.989H154.604C155.022 114.262 152.758 107.206 149.079 102.249C145.294 97.1498 139.913 94.139 134.068 92.7764ZM102.995 73.4639C98.7509 72.0933 93.5655 72.8473 88.46 76.334C84.9127 78.7566 81.991 82.5399 80.4238 86.5791C82.6462 86.8598 84.8089 87.3333 86.8945 87.9834C88.0517 85.7763 90.1085 83.5202 93.1699 81.2861C95.6617 79.4678 98.17 78.9179 100.355 79.4648C102.528 80.0088 104.158 81.5855 104.98 83.5605C106.518 87.2546 105.258 92.1752 100.219 95.3613C101.122 96.1333 101.988 96.9473 102.815 97.7998C105.025 95.4016 108.113 93.4199 111.665 91.9648C112.923 89.8523 113.386 87.215 112.42 83.9766C110.75 78.382 107.227 74.8307 102.995 73.4639ZM99.6924 82.1133C98.4661 81.8065 96.7762 82.034 94.7793 83.4912C92.1082 85.4404 90.4424 87.2764 89.502 88.9043C92.5156 90.0937 95.3404 91.6609 97.9219 93.5459C102.772 90.9598 103.465 87.0256 102.46 84.6094C101.929 83.3344 100.931 82.4234 99.6924 82.1133ZM98.1064 64.8984C88.1757 64.4721 81.1916 69.0296 76.6143 74.8838C73.6961 78.6161 71.7795 82.8498 70.7363 86.5957C72.3442 86.3866 73.9839 86.2793 75.6484 86.2793C76.3048 86.2793 76.9573 86.296 77.6055 86.3291C79.3182 81.4325 82.778 76.9079 86.9199 74.0791C92.5881 70.2082 98.643 69.189 103.834 70.8652C109.037 72.5457 113.146 76.8633 115.036 83.1963C115.882 86.0302 115.83 88.5526 115.167 90.7441C115.361 90.6875 115.556 90.6328 115.752 90.5791C117.707 90.0427 119.761 89.6485 121.865 89.416C121.895 89.2067 121.925 89.0002 121.951 88.7969C122.516 84.4652 121.578 78.6995 118.025 73.9336C114.51 69.2185 108.327 65.3376 98.1064 64.8984ZM97.0732 55.9199C78.3797 55.9202 63.0869 70.4712 61.8975 88.8643C63.7927 88.1227 65.7614 87.5294 67.79 87.0996C68.8363 82.7013 71.0073 77.6208 74.4629 73.2012C79.4779 66.7873 87.2542 61.6989 98.2236 62.1699C109.152 62.6394 116.145 66.8431 120.215 72.3018C124.246 77.7101 125.303 84.2111 124.659 89.1504C124.657 89.1685 124.654 89.1868 124.651 89.2051C127.182 89.1022 129.754 89.2378 132.289 89.6455C131.489 70.8847 116.031 55.92 97.0732 55.9199ZM87.957 42.6016C88.1548 47.1001 89.6402 49.622 91.2725 51.0117C92.7028 52.2292 94.3834 52.6959 95.7646 52.7578C95.7565 48.9742 94.3407 46.5441 92.6055 44.9883C91.1592 43.6915 89.4306 42.9527 87.957 42.6016ZM107.396 37.8008C103.142 39.2683 100.895 41.9415 99.7656 44.7412C98.7066 47.3665 98.6063 50.172 98.8955 52.3076C102.441 51.2734 104.587 48.7494 105.855 45.7871C106.999 43.1164 107.393 40.1497 107.396 37.8008Z" fill="white" fill-opacity="0.3"/>
</svg>
