<svg width="185" height="80" viewBox="0 0 185 80" fill="none" xmlns="http://www.w3.org/2000/svg">
<path d="M112.429 13.392L105.731 31.8553L97.8462 13.392H89.5714L97.3824 30.3339C95.861 34.4473 93.4491 34.8605 90.9814 34.8605C88.05 34.8605 86.0277 32.1183 86.0277 28.775V0H73.7082V6.66783H78.2723V30.2024C78.1981 35.255 76.083 35.5743 74.9884 35.5743C73.9494 35.5743 72.2239 35.0108 72.2239 32.3437V24.9621C72.2239 15.9652 67.0475 12.6031 58.9396 12.6031C54.7837 12.6031 50.6648 13.6925 48.4755 14.425V21.2619C50.9987 20.2289 54.3198 19.2146 58.0491 19.2146C62.2792 19.2146 64.4129 21.0929 64.4129 23.8351V24.8118C62.3164 24.3235 60.1642 24.0793 57.9934 24.0793C53.1881 24.0793 47.7519 25.7885 46.416 31.0477C44.8575 34.2595 41.6664 34.8981 39.8667 34.8981C36.9352 34.8981 34.8758 32.4 34.8758 29.545V20.0786H43.4289V13.392H34.8758V6.46122L27.1019 6.48V13.4108H22.5377V20.0786H27.1019V28.7937C27.139 33.0762 23.484 35.2925 20.8308 35.2925C17.2129 35.2925 15.3761 32.1746 15.3761 29.3197V13.392H2.5V20.0598H7.58365V30.841C7.58365 37.6216 12.7601 41.5283 17.9921 41.5283C20.6267 41.5283 25.1538 41.5283 28.6789 36.6637C30.7384 39.8379 34.4862 41.5283 38.0113 41.5283C40.516 41.5283 44.0969 41.1151 47.455 37.7906C49.1434 40.1009 52.1862 41.4157 55.5443 41.5283C59.5333 41.641 62.6318 40.2699 65.2849 38.1663C66.4167 40.2136 68.8843 41.5283 72.9475 41.5283C76.955 41.5283 79.2928 40.5517 80.9626 37.7155C83.0777 40.1384 86.2318 41.5283 89.5714 41.5283C93.3006 41.5283 96.8815 40.8334 100.128 36.3256L102.336 41.1339L102.281 41.2466C100.815 45.2849 98.6811 47.2195 95.861 47.2195C94.7849 47.2007 93.7088 47.0692 92.6513 46.825V53.3802C94.0613 53.7183 95.4714 54 96.8629 54C101.26 54 105.472 51.671 108.514 44.0264L120.5 13.3732L112.429 13.392ZM64.3943 33.6772C62.5947 35.2737 60.5167 35.8936 58.3088 35.8936C55.9525 35.8936 54.0786 34.5788 54.0786 32.5315C54.0786 29.7329 56.8987 28.775 59.756 28.775C61.3887 28.775 63.1884 29.113 64.3758 29.3948L64.3943 33.6772ZM11.4613 10.2177C12.389 10.2177 13.2796 9.936 14.0588 9.42887C14.8195 8.90296 15.4318 8.17043 15.7843 7.30644C16.1368 6.44243 16.2296 5.5033 16.044 4.58296C15.8585 3.66261 15.4132 2.81739 14.7638 2.16C14.1145 1.50261 13.2796 1.05183 12.3704 0.864C11.4613 0.676174 10.5336 0.770087 9.68019 1.12696C8.82673 1.48383 8.10314 2.08487 7.58365 2.87374C7.06415 3.64383 6.8044 4.56417 6.8044 5.5033C6.8044 6.12313 6.93428 6.74296 7.15692 7.30644C7.39811 7.86991 7.73208 8.39583 8.15881 8.84661C8.58553 9.27861 9.10503 9.63548 9.68019 9.86087C10.2553 10.105 10.8491 10.2177 11.4613 10.2177Z" fill="#000000"/>
<path d="M1.28 69V61.32H2.4V64.6H6.8V61.32H7.92V69H6.8V65.64H2.4V69H1.28ZM15.1231 69V67.96C14.9631 68.184 14.7605 68.3867 14.5151 68.568C13.9498 68.9627 13.3258 69.16 12.6431 69.16C11.8645 69.16 11.2138 68.936 10.6911 68.488C10.1791 68.0293 9.92313 67.5067 9.92313 66.92C9.92313 65.6187 10.6698 64.8453 12.1631 64.6L15.1231 64.12C15.1231 63.5547 14.9418 63.096 14.5791 62.744C14.2271 62.3813 13.7685 62.2 13.2031 62.2C12.6485 62.2 12.1205 62.3867 11.6191 62.76C11.3845 62.9627 11.1925 63.1493 11.0431 63.32L10.3231 62.6C10.5258 62.3333 10.7765 62.0933 11.0751 61.88C11.7258 61.4 12.4351 61.16 13.2031 61.16C14.0778 61.16 14.8031 61.4427 15.3791 62.008C15.9551 62.5733 16.2431 63.2773 16.2431 64.12V69H15.1231ZM15.1231 65.56V65.08L12.4831 65.56C11.5231 65.7307 11.0431 66.184 11.0431 66.92C11.0431 67.2613 11.1818 67.5493 11.4591 67.784C11.7471 68.008 12.1418 68.12 12.6431 68.12C13.3791 68.12 13.9765 67.8853 14.4351 67.416C14.8938 66.9467 15.1231 66.328 15.1231 65.56ZM22.555 69V57.8H23.595L28.235 63.88L32.875 57.8H33.915V69H32.715V59.88L28.235 65.8L23.755 59.88V69H22.555ZM43.0018 68.008C42.2444 68.776 41.3218 69.16 40.2338 69.16C39.1458 69.16 38.2178 68.776 37.4498 68.008C36.6924 67.2293 36.3138 66.28 36.3138 65.16C36.3138 64.04 36.6924 63.096 37.4498 62.328C38.2178 61.5493 39.1458 61.16 40.2338 61.16C41.3218 61.16 42.2444 61.5493 43.0018 62.328C43.7698 63.096 44.1538 64.04 44.1538 65.16C44.1538 66.28 43.7698 67.2293 43.0018 68.008ZM38.2498 67.256C38.8044 67.832 39.4658 68.12 40.2338 68.12C41.0018 68.12 41.6578 67.8373 42.2018 67.272C42.7564 66.696 43.0338 65.992 43.0338 65.16C43.0338 64.328 42.7564 63.6293 42.2018 63.064C41.6578 62.488 41.0018 62.2 40.2338 62.2C39.4658 62.2 38.8044 62.488 38.2498 63.064C37.7058 63.6293 37.4338 64.328 37.4338 65.16C37.4338 65.9813 37.7058 66.68 38.2498 67.256ZM51.835 66.84L52.635 67.56C52.4217 67.8267 52.139 68.0933 51.787 68.36C51.0403 68.8933 50.2563 69.16 49.435 69.16C48.379 69.16 47.4723 68.7707 46.715 67.992C45.9683 67.2133 45.595 66.2693 45.595 65.16C45.595 64.0507 45.9683 63.1067 46.715 62.328C47.4723 61.5493 48.379 61.16 49.435 61.16C50.267 61.16 51.035 61.416 51.739 61.928C52.027 62.1413 52.299 62.392 52.555 62.68L51.755 63.48C51.5843 63.2453 51.387 63.032 51.163 62.84C50.651 62.4133 50.075 62.2 49.435 62.2C48.699 62.2 48.059 62.488 47.515 63.064C46.9817 63.6293 46.715 64.328 46.715 65.16C46.715 65.992 46.9817 66.696 47.515 67.272C48.059 67.8373 48.699 68.12 49.435 68.12C50.043 68.12 50.635 67.9067 51.211 67.48C51.4563 67.2773 51.6643 67.064 51.835 66.84ZM54.3894 69V61.32H55.5094V65.4L59.3494 61.32H60.7094L57.7494 64.44L61.0294 69H59.7494L57.0294 65.24L55.5094 66.84V69H54.3894ZM68.4393 68.008C67.6819 68.776 66.7593 69.16 65.6713 69.16C64.5833 69.16 63.6553 68.776 62.8873 68.008C62.1299 67.2293 61.7513 66.28 61.7513 65.16C61.7513 64.04 62.1299 63.096 62.8873 62.328C63.6553 61.5493 64.5833 61.16 65.6713 61.16C66.7593 61.16 67.6819 61.5493 68.4393 62.328C69.2073 63.096 69.5913 64.04 69.5913 65.16C69.5913 66.28 69.2073 67.2293 68.4393 68.008ZM63.6873 67.256C64.2419 67.832 64.9033 68.12 65.6713 68.12C66.4393 68.12 67.0953 67.8373 67.6393 67.272C68.1939 66.696 68.4713 65.992 68.4713 65.16C68.4713 64.328 68.1939 63.6293 67.6393 63.064C67.0953 62.488 66.4393 62.2 65.6713 62.2C64.9033 62.2 64.2419 62.488 63.6873 63.064C63.1433 63.6293 62.8713 64.328 62.8713 65.16C62.8713 65.9813 63.1433 66.68 63.6873 67.256ZM71.5925 69V61.32H75.1125C75.8272 61.32 76.3925 61.5067 76.8085 61.88C77.2245 62.2533 77.4325 62.7333 77.4325 63.32C77.4325 63.7893 77.2725 64.1947 76.9525 64.536C76.8138 64.6747 76.6538 64.8027 76.4725 64.92C76.7178 65.0053 76.9312 65.1227 77.1125 65.272C77.5392 65.6347 77.7525 66.1307 77.7525 66.76C77.7525 67.4533 77.5338 68.0027 77.0965 68.408C76.6698 68.8027 76.0618 69 75.2725 69H71.5925ZM72.7125 64.44H75.1125C75.9125 64.44 76.3125 64.0933 76.3125 63.4C76.3125 62.7067 75.9125 62.36 75.1125 62.36H72.7125V64.44ZM72.7125 67.96H75.2725C76.1792 67.96 76.6325 67.5333 76.6325 66.68C76.6325 65.8267 76.1792 65.4 75.2725 65.4H72.7125V67.96ZM85.5069 66.84L86.3069 67.56C86.0935 67.8267 85.8109 68.0933 85.4589 68.36C84.7122 68.8933 83.9282 69.16 83.1069 69.16C82.0509 69.16 81.1442 68.7707 80.3869 67.992C79.6402 67.2133 79.2669 66.2693 79.2669 65.16C79.2669 64.0507 79.6402 63.1067 80.3869 62.328C81.1442 61.5493 82.0509 61.16 83.1069 61.16C83.9389 61.16 84.7069 61.416 85.4109 61.928C85.6989 62.1413 85.9709 62.392 86.2269 62.68L85.4269 63.48C85.2562 63.2453 85.0589 63.032 84.8349 62.84C84.3229 62.4133 83.7469 62.2 83.1069 62.2C82.3709 62.2 81.7309 62.488 81.1869 63.064C80.6535 63.6293 80.3869 64.328 80.3869 65.16C80.3869 65.992 80.6535 66.696 81.1869 67.272C81.7309 67.8373 82.3709 68.12 83.1069 68.12C83.7149 68.12 84.3069 67.9067 84.8829 67.48C85.1282 67.2773 85.3362 67.064 85.5069 66.84ZM88.0613 69V61.32H89.1813V65.4L93.0213 61.32H94.3813L91.4213 64.44L94.7013 69H93.4213L90.7013 65.24L89.1813 66.84V69H88.0613ZM102.111 68.008C101.354 68.776 100.431 69.16 99.3431 69.16C98.2551 69.16 97.3271 68.776 96.5591 68.008C95.8018 67.2293 95.4231 66.28 95.4231 65.16C95.4231 64.04 95.8018 63.096 96.5591 62.328C97.3271 61.5493 98.2551 61.16 99.3431 61.16C100.431 61.16 101.354 61.5493 102.111 62.328C102.879 63.096 103.263 64.04 103.263 65.16C103.263 66.28 102.879 67.2293 102.111 68.008ZM97.3591 67.256C97.9138 67.832 98.5751 68.12 99.3431 68.12C100.111 68.12 100.767 67.8373 101.311 67.272C101.866 66.696 102.143 65.992 102.143 65.16C102.143 64.328 101.866 63.6293 101.311 63.064C100.767 62.488 100.111 62.2 99.3431 62.2C98.5751 62.2 97.9138 62.488 97.3591 63.064C96.8151 63.6293 96.5431 64.328 96.5431 65.16C96.5431 65.9813 96.8151 66.68 97.3591 67.256ZM105.264 69V61.32H106.144L109.184 65.16L112.224 61.32H113.104V69H111.984V63.32L109.184 66.84L106.384 63.32V69H105.264Z" fill="#000000"/>
</svg>
