<svg width="185" height="80" viewBox="0 0 185 80" fill="none" xmlns="http://www.w3.org/2000/svg">
<path d="M36.0156 13.5084V6.75978H18.3194L15.6081 0H8.80186L11.5244 6.75978H1.99561V13.5084H14.2469L16.9581 20.2682H1.99561V27.0279H19.6806L22.4031 33.7877H8.80186H1.99561V50H8.80186V40.5363H29.2094V50H36.0156V33.7877H29.2094L26.4869 27.0279H36.0156V20.2682H23.7644L21.0419 13.5084H36.0156Z" fill="#ffffff"/>
<path d="M154.996 33.8096H42.0908V49.9995H154.996V33.8096Z" fill="#ffffff"/>
<path d="M53.3859 27.9218H48.2109V11.2179H42.0684V6.75977H59.4946V11.2179H53.3859V27.9218ZM49.0884 27.0503H52.5084V10.3464H58.6171V7.6201H42.9459V10.3464H49.0884V27.0503Z" fill="#ffffff"/>
<path d="M83.6598 27.9218H78.091L76.741 23.7542H69.856L68.4723 27.9218H63.0723L70.6773 6.75977H76.1223L83.6598 27.9218ZM78.7323 27.0503H82.4223L75.5035 7.63127H71.296L64.3098 27.0503H67.8423L69.226 22.8827H77.3823L78.7323 27.0503ZM76.5385 20.257H70.1035L73.366 10.4357L76.5385 20.257ZM71.3073 19.3855H75.3348L73.3435 13.2402L71.3073 19.3855Z" fill="#ffffff"/>
<path d="M98.9821 28.4464C96.2033 28.4464 93.9758 27.8096 92.3671 26.547C90.7246 25.2621 89.8921 23.4744 89.8921 21.2286V20.7928H94.7858L94.8421 21.1615C94.9658 21.9995 95.1908 22.6252 95.5171 23.0274C96.1358 23.7537 97.2496 24.1224 98.8246 24.1224C99.8033 24.1224 100.591 24.0219 101.187 23.8207C102.233 23.4632 102.717 22.8375 102.717 21.8766C102.717 21.3515 102.503 20.9828 102.031 20.6922C101.48 20.3682 100.568 20.0665 99.3308 19.7984L97.1146 19.3179C94.8646 18.8263 93.3458 18.29 92.4796 17.6978C90.9833 16.6811 90.2296 15.0833 90.2296 12.9492C90.2296 11.0163 90.9608 9.37381 92.3896 8.10007C93.8183 6.82632 95.9108 6.18945 98.6221 6.18945C100.883 6.18945 102.852 6.79281 104.461 7.97716C106.103 9.18387 106.981 10.9604 107.06 13.2509V13.6978H102.11L102.087 13.2956C102.02 12.2341 101.558 11.4967 100.681 11.0498C100.062 10.7481 99.2746 10.5917 98.3408 10.5917C97.3058 10.5917 96.4733 10.7928 95.8771 11.1839C95.3258 11.5414 95.0671 12.0219 95.0671 12.6699C95.0671 13.2397 95.3146 13.6308 95.8321 13.9101C96.1021 14.0665 96.7771 14.3235 98.4421 14.7034L102.031 15.5414C103.662 15.9213 104.9 16.4464 105.732 17.0945C107.06 18.1336 107.723 19.642 107.723 21.5749C107.723 23.5079 106.947 25.2174 105.406 26.5247C103.887 27.8096 101.738 28.4688 99.0046 28.4688L98.9821 28.4464ZM90.7696 21.6531C90.8708 23.4297 91.5683 24.804 92.9071 25.8543C94.3583 26.9939 96.4058 27.5749 98.9821 27.5749C101.558 27.5749 103.46 26.9939 104.81 25.8431C106.16 24.6922 106.823 23.2956 106.823 21.5526C106.823 19.8096 106.283 18.6252 105.158 17.7537C104.427 17.1839 103.302 16.7146 101.795 16.3571L98.2058 15.5191C96.7658 15.1839 95.8433 14.8934 95.3821 14.6364C94.5833 14.2118 94.1671 13.5079 94.1671 12.6364C94.1671 11.6978 94.5721 10.9492 95.3708 10.4241C96.1133 9.93247 97.1033 9.68666 98.3071 9.68666C99.3871 9.68666 100.31 9.8766 101.041 10.2453C102.087 10.7705 102.706 11.6308 102.886 12.804H106.126C105.968 10.9939 105.237 9.63079 103.91 8.64755C102.458 7.57493 100.67 7.02744 98.5883 7.02744C96.1021 7.02744 94.2008 7.59727 92.9408 8.71459C91.6808 9.84308 91.0621 11.2174 91.0621 12.9157C91.0621 14.7705 91.6696 16.0889 92.9408 16.9492C93.7058 17.4744 95.1571 17.9772 97.2721 18.4353L99.4883 18.9157C100.838 19.2062 101.817 19.5302 102.458 19.9213C103.19 20.3682 103.561 21.0386 103.561 21.8543C103.561 23.1839 102.83 24.1336 101.446 24.614C100.76 24.8487 99.8708 24.9716 98.7908 24.9716C96.9458 24.9716 95.6071 24.5023 94.8196 23.5638C94.4371 23.1057 94.1671 22.4688 94.0096 21.642H90.7583L90.7696 21.6531Z" fill="#ffffff"/>
<path d="M125.105 27.9218H119.93V11.2179H113.787V6.75977H131.213V11.2179H125.105V27.9218ZM120.807 27.0503H124.227V10.3464H130.336V7.6201H114.665V10.3464H120.807V27.0503Z" fill="#ffffff"/>
<path d="M154.996 27.9218H138.639V6.75977H154.501V11.2179H143.69V14.6592H153.612V19.0503H143.69V23.3966H154.996V27.9106V27.9218ZM139.516 27.0503H154.119V24.2681H142.812V18.1788H152.735V15.5195H142.812V10.3464H153.624V7.6201H139.516V27.0391V27.0503Z" fill="#ffffff"/>
<path d="M92.468 43.0064C92.3667 43.8332 92.0517 44.4924 91.523 44.984C90.9942 45.4756 90.2967 45.7214 89.4417 45.7214C88.3955 45.7214 87.5855 45.3974 87.0117 44.7494C86.438 44.1013 86.1567 43.241 86.1567 42.1684C86.1567 41.0175 86.4605 40.1125 87.0567 39.4421C87.653 38.7717 88.4742 38.4365 89.4867 38.4365C90.3417 38.4365 91.0167 38.6488 91.5342 39.0734C92.0405 39.498 92.3442 40.1013 92.4342 40.8834H91.253C91.0505 39.889 90.4655 39.3862 89.5092 39.3862C88.8455 39.3862 88.3167 39.6321 87.9342 40.1125C87.5517 40.5929 87.3605 41.2522 87.3605 42.079C87.3605 42.9058 87.5405 43.5762 87.9117 44.0566C88.283 44.5371 88.7892 44.7829 89.4305 44.7829C89.948 44.7829 90.3755 44.6265 90.7017 44.3248C91.028 44.0231 91.2417 43.5874 91.3317 43.0175H92.4905L92.468 43.0064Z" fill="#13110C"/>
<path d="M99.8707 44.604V45.4867C99.6344 45.5761 99.3757 45.6208 99.0944 45.6208C98.4419 45.6208 98.1044 45.2856 98.0819 44.604C97.4294 45.3303 96.5857 45.699 95.5732 45.699C94.8869 45.699 94.3469 45.5202 93.9532 45.1738C93.5594 44.8275 93.3569 44.347 93.3569 43.7437C93.3569 42.5146 94.1782 41.7995 95.8207 41.5984C95.9332 41.5761 96.0794 41.5649 96.2932 41.5426C97.0694 41.4532 97.5532 41.3526 97.7332 41.2297C97.9357 41.0845 98.0369 40.8386 98.0369 40.4923C98.0369 39.7325 97.5082 39.3526 96.4619 39.3526C95.9219 39.3526 95.5169 39.4643 95.2357 39.6766C94.9544 39.8889 94.7969 40.2576 94.7407 40.7493H93.6269C93.6494 40.0118 93.9082 39.442 94.4257 39.0286C94.9319 38.6152 95.6407 38.4141 96.5407 38.4141C97.5194 38.4141 98.2394 38.6375 98.7232 39.0845C98.8694 39.2297 98.9819 39.4085 99.0607 39.6431C99.1282 39.8777 99.1732 40.0677 99.1844 40.2129C99.1844 40.3582 99.1957 40.5817 99.1957 40.8722C99.1957 41.2074 99.1957 41.7213 99.1732 42.4029C99.1507 43.0845 99.1507 43.5984 99.1507 43.9336C99.1507 44.1794 99.1844 44.3582 99.2519 44.4588C99.3194 44.5593 99.4432 44.6152 99.6232 44.6152C99.6907 44.6152 99.7919 44.604 99.9044 44.5705L99.8707 44.604ZM98.0257 41.9336C97.9469 42.0007 97.8569 42.0453 97.7669 42.09C97.6769 42.1347 97.5644 42.1683 97.4294 42.2018C97.2944 42.2241 97.1932 42.2465 97.1482 42.2576C97.1032 42.2688 96.9794 42.2912 96.7882 42.3135C96.5969 42.3358 96.4957 42.347 96.4957 42.347C96.2144 42.3805 96.0344 42.4029 95.9557 42.4252C95.8657 42.4364 95.7082 42.4811 95.4719 42.537C95.2357 42.604 95.0669 42.671 94.9657 42.7493C94.8644 42.8275 94.7744 42.9504 94.6732 43.1068C94.5832 43.2632 94.5269 43.442 94.5269 43.6655C94.5269 44.023 94.6507 44.3023 94.8982 44.5034C95.1457 44.7046 95.4832 44.8051 95.9107 44.8051C96.4619 44.8051 96.9457 44.6487 97.3732 44.3247C97.8007 44.0007 98.0144 43.6208 98.0144 43.185V41.9336H98.0257Z" fill="#13110C"/>
<path d="M104.078 35.9777V36.961C103.875 36.9275 103.673 36.9051 103.448 36.9051C103.088 36.9051 102.852 36.961 102.739 37.0839C102.627 37.1956 102.57 37.4526 102.57 37.8325V38.6146H103.898V39.5532H102.57V45.5085H101.412V39.5532H100.242V38.6146H101.412V37.6984C101.412 37.0727 101.569 36.6258 101.895 36.3465C102.222 36.0671 102.694 35.9219 103.335 35.9219C103.538 35.9219 103.774 35.9442 104.078 35.9777Z" fill="#13110C"/>
<path d="M110.851 43.341C110.502 44.9388 109.49 45.7432 107.825 45.7432C106.801 45.7432 106.002 45.4304 105.428 44.7935C104.855 44.1566 104.562 43.2851 104.562 42.1678C104.562 41.0505 104.855 40.1566 105.451 39.4639C106.047 38.7712 106.823 38.4248 107.78 38.4248C108.848 38.4248 109.636 38.7823 110.153 39.4974C110.671 40.2125 110.93 41.1175 110.93 42.2125V42.3689H105.71V42.4472C105.698 43.1734 105.89 43.7544 106.272 44.1678C106.655 44.5812 107.183 44.7935 107.858 44.7935C108.365 44.7935 108.758 44.6818 109.051 44.4472C109.343 44.2125 109.568 43.8438 109.726 43.3298H110.84L110.851 43.341ZM109.748 41.4527C109.692 40.7935 109.49 40.2796 109.141 39.9108C108.792 39.5421 108.331 39.3522 107.757 39.3522C107.183 39.3522 106.733 39.5421 106.373 39.9108C106.002 40.2796 105.788 40.7935 105.71 41.4416H109.748V41.4527Z" fill="#13110C"/>
</svg>
