<svg width="185" height="81" viewBox="0 0 185 81" fill="none" xmlns="http://www.w3.org/2000/svg">
<path d="M1.97751 50.2239C2.37183 49.0538 2.84694 47.9203 3.36437 46.8022C3.58366 46.3319 3.95682 46.0196 4.35307 45.7362C5.15133 45.1694 5.96498 44.622 6.7921 44.0938C7.41917 43.6928 8.11356 43.4827 8.86566 43.4441C9.86975 43.3902 10.818 43.6408 11.774 43.8875C12.1587 43.9839 12.5492 44.0437 12.9032 44.248C13.4475 44.5622 13.8091 45.0287 14.0246 45.5878C14.3977 46.5535 14.717 47.5386 14.9248 48.5564C15.0729 49.2716 14.9709 49.9579 14.5843 50.5728C14.0977 51.3458 13.5802 52.1034 13.0705 52.8591C12.5896 53.5723 12.1453 53.6514 11.3489 53.5029C10.3025 53.3082 9.26768 53.0499 8.21359 52.9054C7.94814 52.8687 7.68462 52.8282 7.42494 52.7743C6.75363 52.6374 6.38816 52.1786 6.17465 51.5656C6.14387 51.475 6.10733 51.3882 6.06308 51.3034C6.04385 51.2668 6.09771 51.1743 5.99191 51.1935C5.89766 51.2109 5.87843 51.2707 5.88035 51.3613C5.93228 53.208 6.5382 54.889 7.39032 56.4967C7.72501 57.129 8.09048 57.7516 8.5906 58.2682C9.33116 59.0316 10.2545 59.5135 11.272 59.7892C12.4492 60.1073 13.6553 60.2846 14.8613 60.4446C15.6826 60.5526 16.504 60.647 17.335 60.6104C18.0909 60.5796 18.8315 60.4523 19.5605 60.2461C20.7723 59.901 21.8726 59.3169 22.869 58.5555C24.6867 57.1656 25.987 55.4114 26.5121 53.1425C26.7872 51.9511 26.7006 50.7367 26.6775 49.5299C26.6698 49.1675 26.6487 48.7974 26.6371 48.4331C26.6275 48.1343 26.5756 47.8297 26.591 47.5405C26.6391 46.5401 26.6025 45.5434 26.6448 44.5449C26.6814 43.6427 26.791 42.7425 26.818 41.8345C26.8449 40.9188 26.791 40.0147 26.7006 39.1068C26.6737 38.8388 26.666 38.569 26.6391 38.301C26.5467 37.3449 26.5467 36.381 26.5833 35.4229C26.6237 34.3029 26.7025 33.1887 26.7603 32.0707C26.7987 31.3188 26.8507 30.567 26.8641 29.8152C26.8757 29.1174 26.9122 28.4215 26.9449 27.7256C26.9661 27.2128 26.9545 26.702 26.9853 26.1873C27.068 24.8533 27.0584 23.5155 27.1161 22.1815C27.1546 21.289 27.1642 20.3964 27.145 19.5078C27.1276 18.7849 26.9776 18.0678 26.841 17.3545C26.7102 16.6586 26.5833 15.9627 26.5717 15.2494C26.5564 14.2972 26.5717 13.3468 26.6371 12.4003C26.691 11.6292 26.7006 10.8562 26.7641 10.089C26.8199 9.42969 26.7295 8.75884 26.9218 8.10921C27.0892 7.54246 27.3989 7.07981 27.8682 6.71354C28.2318 6.42824 28.5357 6.07354 28.8857 5.76511C29.3128 5.38535 29.6994 4.9574 30.1072 4.55258C30.8074 3.86246 31.5114 3.17234 32.2789 2.55161C32.7867 2.14294 33.3637 1.84029 33.9408 1.55113C34.3043 1.368 34.7294 1.368 35.0603 1.70535C35.3296 1.97716 35.3815 2.30101 35.2565 2.65957C35.2045 2.80607 35.1084 2.92559 35.0006 3.03354C34.4351 3.61571 33.8446 4.16704 33.2041 4.66631C32.9617 4.85523 32.8886 5.10583 32.9752 5.43354C33.2502 6.44173 33.256 7.47692 33.2079 8.50631C33.1233 10.3415 33.1521 12.1786 33.1675 14.0119C33.1733 14.7078 33.2252 15.4056 33.2118 16.1015C33.1906 16.9747 33.131 17.8461 32.9906 18.7116C32.8328 19.6851 32.7443 20.6682 32.8155 21.6533C32.854 22.2066 32.9694 22.7502 33.0348 23.2996C33.0887 23.7372 33.1271 24.1786 33.156 24.6181C33.2406 25.9078 33.2368 27.1993 33.2098 28.489C33.1925 29.3641 33.1117 30.2374 33.0367 31.1126C32.9732 31.8297 32.929 32.5507 32.8578 33.2678C32.7078 34.7405 32.702 36.2133 32.7713 37.6841C32.8444 39.2417 32.9636 40.7935 32.9213 42.3511C32.8905 43.4808 32.8348 44.6066 32.7443 45.7323C32.6732 46.621 32.6039 47.5078 32.6424 48.3964C32.6866 49.3719 32.727 50.3473 32.7617 51.3227C32.7886 52.0745 32.8155 52.8282 32.8809 53.5762C33.0002 54.9198 32.6886 56.1439 31.973 57.2543C31.4941 57.9945 30.8247 58.5632 30.1264 59.101C28.2337 60.5661 26.0986 61.607 23.9634 62.6441C22.7151 63.2495 21.4898 63.9242 20.1818 64.3984C19.5547 64.6239 18.9142 64.6895 18.2371 64.5969C16.7002 64.3868 15.1845 64.061 13.6783 63.7025C12.4319 63.4056 11.2028 63.047 9.97939 62.6711C9.06379 62.3897 8.13857 62.1352 7.20951 61.9078C6.1458 61.6456 5.44563 60.9825 5.07439 59.9801C4.63775 58.8022 4.12032 57.6591 3.67021 56.489C3.24511 55.3786 2.85464 54.2586 2.55072 53.1097C2.39684 52.5333 2.17948 51.9743 2.05253 51.3844C2.02752 51.2707 2.10446 51.128 1.97559 51.0393V50.2239H1.97751Z" fill="#ffffff"/>
<path d="M132.967 55.6582C132.708 56.2962 132.392 56.8958 131.905 57.395C131.325 57.9868 130.609 58.3685 129.861 58.6924C128.943 59.0895 128.028 59.4847 127.174 60.0186C126.895 60.1941 126.8 60.437 126.787 60.7358C126.781 60.8919 126.798 61.05 126.781 61.2023C126.754 61.4586 126.581 61.5839 126.344 61.6109C126.096 61.6379 125.883 61.4702 125.856 61.2312C125.819 60.9054 125.627 60.6664 125.415 60.4485C124.954 59.9743 124.492 59.502 124.013 59.0452C123.461 58.5189 123.19 57.8789 123.105 57.1271C123.028 56.4254 122.88 55.7353 122.778 55.0374C122.703 54.5362 122.649 54.0331 122.592 53.5261C122.551 53.1637 122.474 52.8013 122.482 52.4408C122.501 51.5772 122.632 50.7174 122.694 49.8596C122.732 49.3237 122.728 48.7801 122.667 48.2345C122.613 47.768 122.594 47.2957 122.534 46.8273C122.417 45.9271 122.37 45.0268 122.347 44.1189C122.32 43.1068 122.392 42.1044 122.461 41.0962C122.513 40.3656 122.703 39.6562 122.707 38.9256C122.709 38.0003 122.353 37.1791 121.947 36.3733C121.876 36.2345 121.726 36.1632 121.578 36.2191C121.22 36.3521 120.876 36.3329 120.518 36.2095C120.22 36.1073 120.003 36.2384 119.826 36.4871C119.299 37.2273 118.706 37.9097 117.95 38.4264C117.306 38.8659 116.552 39.0567 115.823 39.2919C115.086 39.5309 114.378 39.822 113.69 40.1709C113.393 40.3213 113.082 40.4427 112.784 40.5892C112.374 40.7917 112.318 40.969 112.424 41.4143C112.584 42.0851 112.647 42.7598 112.587 43.4635C112.48 44.6586 112.191 45.8403 112.28 47.0529C112.355 48.1112 112.443 49.1676 112.468 50.2297C112.487 51.0027 112.495 51.77 112.468 52.543C112.443 53.2736 112.289 54.0389 112.691 54.7271C112.986 55.2283 113.311 55.7102 113.624 56.1998C113.695 56.3097 113.79 56.302 113.903 56.2673C114.699 56.0437 115.482 55.7912 116.24 55.4519C116.471 55.3497 116.721 55.2495 116.963 55.4635C117.235 55.6986 117.233 55.9936 117.11 56.2789C116.804 56.9806 116.425 57.6398 115.957 58.249C115.355 59.0355 114.526 59.5001 113.692 59.9685C113.186 60.25 112.687 60.5507 112.195 60.8572C112.022 60.9652 111.935 61.1618 111.831 61.3314C111.76 61.4451 111.714 61.5724 111.643 61.6842C111.374 62.0986 111.058 62.1141 110.675 61.7864C110.372 61.5242 110.266 61.1444 110.064 60.8225C109.587 60.0688 108.971 59.4615 108.206 59.0124C107.713 58.7232 107.196 58.4842 106.665 58.2702C106.103 58.0408 105.715 58.1391 105.39 58.6615C104.88 59.477 104.126 59.5252 103.385 59.2553C103.172 59.1782 103.072 58.995 103.018 58.8042C102.87 58.2644 103.12 57.6052 103.566 57.289C104.482 56.6394 105.378 55.9608 106.305 55.3247C106.859 54.9468 107.057 54.3627 106.926 53.6803C106.865 53.3584 106.89 53.0288 106.863 52.6991C106.726 51.0085 106.69 49.3102 106.744 47.6138C106.775 46.6519 106.851 45.69 106.921 44.728C107.025 43.2803 106.884 41.8789 106.321 40.5391C106.115 40.0476 106.269 39.5714 106.292 39.0914C106.311 38.6345 106.401 38.1796 106.44 37.7208C106.459 37.5088 106.544 37.3025 106.448 37.0731C106.29 36.703 105.949 36.5102 105.563 36.6432C105.055 36.8167 104.603 37.1078 104.118 37.3314C103.63 37.557 103.127 37.7227 102.581 37.715C102.37 37.7131 102.175 37.6591 102.071 37.4644C101.954 37.2504 101.998 37.048 102.145 36.8495C102.533 36.3213 103.033 35.9107 103.531 35.5039C104.41 34.7868 105.324 34.1102 106.222 33.4143C107.036 32.7839 107.802 32.0957 108.544 31.3844C109.123 30.8312 109.856 30.8466 110.398 31.4384C111.201 32.3136 111.908 33.2582 112.278 34.4109C112.437 34.9102 112.464 35.4076 112.407 35.9396C112.341 36.5449 112.378 37.1637 112.397 37.7767C112.405 38.0119 112.618 38.0736 112.822 38.0639C113.415 38.037 114.003 37.9444 114.576 37.8114C115.157 37.6745 115.732 37.5049 116.294 37.3044C117.027 37.0442 117.633 36.5931 118.131 35.9801C118.408 35.637 118.71 35.3092 119.006 34.9796C119.479 34.4572 119.933 33.9194 120.432 33.4182C121.045 32.8032 121.765 32.3309 122.476 31.849C123.009 31.4904 123.502 31.0818 123.99 30.6692C124.332 30.3801 124.565 30.276 124.988 30.6288C125.819 31.3227 126.646 32.0206 127.481 32.7107C127.87 33.0345 128.27 33.3449 128.664 33.6668C128.797 33.7767 128.912 33.7671 129.053 33.6726C129.378 33.4509 129.636 33.1598 129.893 32.8745C130.43 32.2789 131.309 32.4813 131.73 33.0673C131.869 33.2601 131.832 33.6726 131.667 33.8538C131.19 34.3724 130.705 34.8851 130.234 35.4095C129.782 35.9107 129.337 36.4215 128.862 36.9015C128.674 37.0943 128.607 37.3391 128.662 37.5955C128.784 38.1526 128.832 38.7213 128.818 39.2842C128.791 40.2018 128.734 41.1194 128.697 42.0331C128.682 42.3878 128.657 42.7464 128.658 43.103C128.664 44.1709 128.605 45.237 128.578 46.303C128.56 46.97 128.595 47.6408 128.532 48.3059C128.451 49.1406 128.541 49.9753 128.468 50.8042C128.412 51.4538 128.424 52.1015 128.428 52.7512C128.433 53.7825 128.859 54.6384 129.603 55.3343C129.926 55.6389 130.342 55.6427 130.746 55.5599C131.076 55.4924 131.209 55.1974 131.271 54.9044C131.3 54.7676 131.342 54.6268 131.344 54.4803C131.35 54.3165 131.451 54.2452 131.611 54.2452C132.167 54.2432 132.671 54.355 132.973 54.8871V55.6505H132.967V55.6582Z" fill="#ffffff"/>
<path d="M13.8094 0.00385542C14.2922 0.169639 14.7981 0.235181 15.2905 0.348916C16.1138 0.537831 16.9448 0.699759 17.768 0.880964C19.0741 1.16819 20.3821 1.45542 21.6863 1.76C22.7577 2.0106 23.8233 2.28819 24.8928 2.54843C25.1236 2.60434 25.3563 2.66988 25.5891 2.6853C25.9199 2.70651 26.1815 2.48867 26.4604 2.35759C27.2395 1.99711 28.0031 1.59807 28.7706 1.21639C29.4535 0.875181 30.0247 1.05831 30.4999 1.57108C30.6307 1.71181 30.5479 1.80627 30.4364 1.86602C29.4554 2.36916 28.661 3.10361 27.9146 3.89783C27.6434 4.18506 27.378 4.48193 27.0991 4.76145C26.3989 5.46699 25.5833 6.01639 24.712 6.48096C23.3155 7.22506 21.8632 7.85157 20.4129 8.47614C19.8762 8.70747 19.3338 8.60337 18.8048 8.37976C17.3256 7.75711 15.8387 7.15374 14.3595 6.53301C13.8517 6.31904 13.3612 6.08771 12.7995 6.00482C12.1071 5.90072 11.4704 6.01639 10.8433 6.27663C10.0931 6.59084 9.51032 7.15759 8.85824 7.61639C8.56202 7.82651 8.27541 8.04434 7.98303 8.26024C7.67719 8.48578 7.67719 8.54747 7.93495 8.81735C8.23309 9.13349 8.56394 9.41494 8.83323 9.76386C9.29488 10.3653 9.34104 11.0477 9.23717 11.7436C9.19678 12.0193 9.20255 12.2969 9.15446 12.5706C9.09099 12.9253 9.1333 13.3012 9.08714 13.6655C9.05059 13.9605 9.22563 14.1359 9.48723 14.2573C9.86617 14.4347 10.2528 14.6024 10.6048 14.8357C10.8549 15.0014 10.901 15.2289 10.7375 15.4776C10.4394 15.9306 10.1355 16.3798 9.83732 16.8328C9.73922 16.9812 9.65458 17.0429 9.50647 16.8713C9.37567 16.7171 9.24679 16.5667 9.1333 16.399C8.96596 16.1484 8.73706 15.9904 8.4139 15.9981C7.98303 16.0058 7.88493 15.9229 7.73875 15.4892C7.0809 13.5345 6.41921 11.5817 5.75944 9.62699C5.64018 9.27614 5.44205 8.95807 5.40743 8.57831C5.35165 7.97687 5.59401 7.47181 5.91716 7.00145C6.48268 6.17639 7.08475 5.37639 7.64834 4.55133C8.41775 3.42554 9.31219 2.40578 10.3163 1.48819C10.9722 0.890602 11.6858 0.358554 12.5553 0.0925301C12.638 0.0674699 12.7572 0.113735 12.8111 0H13.8075L13.8094 0.00385542Z" fill="#ffffff"/>
<path d="M54.5594 80.0082C54.519 79.7942 54.4863 79.5783 54.4363 79.3663C54.4016 79.2275 54.2882 79.2371 54.167 79.2699C54.3305 79.4761 54.4459 79.7537 54.1978 79.9002C53.9669 80.0371 53.9958 79.6477 53.8381 79.5667C53.5899 79.7557 53.1783 79.6689 53.034 79.401C52.9782 79.2969 52.9398 79.1851 53.0436 79.1195C53.1514 79.052 53.2937 79.0231 53.3956 79.1561C53.461 79.2429 53.5245 79.3219 53.6515 79.3142C53.7727 79.3065 53.89 79.2757 53.9535 79.1754C54.015 79.0732 53.8765 79.0424 53.84 78.9691C53.6996 78.6935 53.5014 78.6318 53.1994 78.7166C52.8417 78.8169 52.6358 78.5932 52.7666 78.252C52.9032 77.9051 52.9782 77.4694 53.486 77.4424C53.5495 77.4405 53.5572 77.3981 53.5688 77.3479C53.6322 77.0665 53.788 77.0491 54.0035 77.1995C54.0573 77.2361 54.1266 77.2516 54.1862 77.2824C54.3689 77.3846 54.4844 77.346 54.5401 77.1359C54.5651 77.0492 54.5575 76.9258 54.6902 76.9238C54.8191 76.9219 54.8075 77.0511 54.8575 77.1224C54.9441 77.2458 54.9614 77.3826 54.9691 77.5311C54.9806 77.8569 55.148 78.0381 55.4711 78.0843C55.675 78.1132 55.7558 78.2501 55.8135 78.4255C55.5327 78.4506 55.2557 78.466 55.0768 78.7301C55.2057 78.7301 55.3192 78.7359 55.4307 78.7282C55.575 78.7205 55.6038 78.8361 55.6442 78.9287C55.6962 79.0385 55.65 79.1234 55.5673 79.2101C55.2903 79.5012 54.9037 79.6728 54.6729 80.014H54.5594V80.0082Z" fill="#ffffff"/>
<path d="M48.7269 39.6021C48.7808 40.8377 48.5499 41.9809 48.6134 43.1375C48.6615 44.03 48.7461 44.9187 48.8442 45.8074C48.9616 46.856 48.977 47.9105 48.9712 48.9649C48.9654 49.7457 48.8404 50.5129 48.75 51.284C48.6365 52.2517 48.473 53.231 48.7904 54.1987C48.9366 54.644 49.1058 55.0777 49.3232 55.4902C49.4694 55.7678 49.756 55.7659 49.9868 55.7004C50.258 55.6233 50.5023 55.683 50.7505 55.737C51.0948 55.8102 51.4083 55.764 51.7218 55.6194C53.0818 54.989 54.3475 54.1775 55.7035 53.5433C56.8096 53.0266 57.9098 52.5023 59.0062 51.9741C59.4833 51.7447 59.5256 51.6522 59.4006 51.1413C59.1794 50.2488 59.2044 49.3563 59.3371 48.456C59.4044 48.0011 59.4486 47.5384 59.4563 47.0796C59.4737 46.1312 59.5929 45.1789 59.5121 44.2305C59.4448 43.4247 59.5237 42.617 59.4544 41.8189C59.3736 40.9168 59.4179 40.0165 59.4102 39.1124C59.4044 38.4146 59.1947 37.7977 58.7793 37.2502C58.5792 36.99 58.4311 36.7047 58.2868 36.4136C58.1945 36.2286 58.0637 36.1418 57.856 36.2768C57.5809 36.456 57.2481 36.404 56.9442 36.4869C56.4537 36.6237 55.9921 36.8184 55.5516 37.0652C55.3265 37.1924 55.0726 37.2117 54.9072 37.0594C54.7341 36.9033 54.6052 36.6488 54.7129 36.3828C54.9976 35.6753 55.2958 34.9736 55.7766 34.3683C56.2825 33.7302 56.8615 33.1808 57.5944 32.8261C58.4638 32.4059 59.2698 31.8854 60.0988 31.3958C60.2104 31.3302 60.2815 31.2686 60.4162 31.4363C60.6816 31.764 61.0817 31.9221 61.4991 31.9317C61.8107 31.9394 61.9954 32.0531 62.1935 32.2922C62.6571 32.8474 63.213 33.31 63.8478 33.6666C64.2882 33.9153 64.7518 34.1139 65.2327 34.2719C65.7309 34.4358 66.0887 34.2989 66.4041 33.8652C66.6273 33.5587 66.8465 33.2329 67.2601 33.1481C67.8506 33.0286 68.5854 33.1461 68.7681 33.6936C68.9143 34.137 68.6816 34.8522 68.295 35.1471C67.3082 35.897 66.3137 36.6334 65.3019 37.3486C64.9249 37.6146 64.7922 38.0715 64.848 38.5013C64.9038 38.9505 64.8845 39.4035 64.9288 39.8546C64.9749 40.35 64.9769 40.8628 65.0211 41.3582C65.1077 42.3433 65.1384 43.3283 65.1192 44.3153C65.0981 45.364 65.0076 46.4069 64.898 47.4517C64.7845 48.5351 64.7441 49.6242 65.073 50.6845C65.2096 51.1278 65.4366 51.5404 65.4962 52.0107C65.5539 52.4753 65.5443 52.9399 65.5116 53.4006C65.4808 53.8382 65.4039 54.2739 65.3616 54.7115C65.3366 54.964 65.2442 55.2146 65.3597 55.4748C65.4712 55.7274 65.7405 55.8739 66.0098 55.7871C66.86 55.5153 67.6756 55.149 68.5085 54.831C68.9413 54.6652 69.3433 54.7963 69.703 55.0334C69.9357 55.1876 69.9069 55.5037 69.6414 55.7601C69.2471 56.1418 68.8355 56.5061 68.4181 56.8628C67.9218 57.283 67.4121 57.6898 66.9081 58.0965C66.1483 58.7076 65.3847 59.3129 64.6268 59.9259C64.0978 60.3519 63.59 60.8069 63.0437 61.2078C62.407 61.6724 61.8396 61.5317 61.3452 61.0517C60.6528 60.3828 60.2277 59.5327 59.8237 58.6748C59.6968 58.4069 59.5929 58.1331 59.4698 57.8652C59.3313 57.5741 59.3621 57.2792 59.3871 56.9669C59.4275 56.456 59.4256 55.9375 59.4063 55.4247C59.3967 55.1992 59.5044 54.989 59.4256 54.7461C59.3429 54.484 59.1774 54.3992 58.9562 54.4319C58.4484 54.509 57.931 54.5225 57.4309 54.6536C56.0748 55.0122 54.7437 55.4266 53.6107 56.298C52.9606 56.7992 52.3431 57.3447 51.6795 57.8286C50.7928 58.4763 49.9137 59.1298 49.0616 59.8218C48.3903 60.3616 47.6497 60.8165 47.0592 61.4565C46.9111 61.6165 46.8014 61.6589 46.5822 61.4758C45.6839 60.7163 44.7894 59.9529 43.8527 59.2416C43.493 58.9698 43.1602 58.6671 42.814 58.3799C42.5197 58.1389 42.335 58.1775 42.0946 58.4666C41.7791 58.8464 41.404 59.1683 40.9982 59.4401C40.6115 59.7004 40.3018 59.4247 39.9941 59.2281C39.9229 59.1818 39.8614 59.124 39.7902 59.0719C39.4632 58.8425 39.4016 58.4936 39.6325 58.1524C39.7402 57.9943 39.8479 57.8363 39.9768 57.6975C40.3653 57.2792 40.7616 56.8686 41.154 56.4541C41.5733 56.0146 42.0042 55.5789 42.4139 55.1278C42.6178 54.9042 42.6813 54.6324 42.6428 54.3143C42.5947 53.923 42.6043 53.5259 42.5793 53.1288C42.5408 52.4792 42.562 51.8237 42.5697 51.1722C42.5812 50.0927 42.739 49.0189 42.7582 47.9355C42.764 47.631 42.7755 47.3206 42.8024 47.0141C42.8755 46.2507 42.8197 45.4816 42.8659 44.7201C42.9756 42.9254 42.9178 41.1269 42.9025 39.3302C42.8948 38.3336 42.5639 37.4199 41.8137 36.697C41.379 36.2787 40.7173 36.2787 40.2768 36.564C40.0806 36.6912 40.0249 36.9418 40.0075 37.1693C39.9979 37.2984 39.9537 37.4122 39.9171 37.5298C39.8806 37.6493 39.7786 37.736 39.6594 37.7129C39.3555 37.6512 39.0419 37.5992 38.7553 37.4816C38.3668 37.3254 38.211 36.778 38.4014 36.3192C38.6899 35.6213 39.0727 34.9736 39.594 34.4146C40.1768 33.7842 40.927 33.4199 41.7003 33.1172C42.5197 32.7992 43.3083 32.431 44.07 31.9953C44.3355 31.8449 44.4951 31.6136 44.4894 31.2917C44.4874 31.1355 44.4874 30.9794 44.4894 30.8252C44.4913 30.5013 44.6471 30.3221 44.9356 30.3047C45.3319 30.2796 45.4357 30.3683 45.48 30.7558C45.5165 31.0796 45.7108 31.3187 45.9243 31.5365C46.4264 32.0531 46.9207 32.5775 47.4516 33.0594C47.9248 33.4854 48.1191 34.0252 48.2152 34.6189C48.3383 35.3919 48.4749 36.163 48.5596 36.9399C48.6442 37.8498 48.7942 38.7577 48.725 39.5963L48.7269 39.6021Z" fill="#ffffff"/>
<path d="M82.8838 44.9204C82.5607 45.3657 82.1548 45.5122 81.6297 45.4023C81.3796 45.3503 81.1026 45.3503 80.8468 45.3946C80.4929 45.4563 80.2467 45.6606 80.137 46.0423C79.8889 46.9175 79.4041 47.6539 78.7444 48.2785C78.1769 48.8182 77.6133 49.3657 77.0536 49.9151C76.9247 50.0423 76.7978 50.183 76.7208 50.343C76.617 50.557 76.6631 50.7806 76.7689 50.9985C77.1863 51.8447 77.6095 52.691 78.0134 53.5488C78.2904 54.1349 78.5424 54.7363 78.8886 55.2857C79.2887 55.9238 79.9235 56.2245 80.6198 56.4173C82.3106 56.8876 83.7629 56.3498 85.1305 55.3782C85.9807 54.7749 86.754 54.0847 87.4791 53.3464C87.7869 53.0341 88.1158 52.7315 88.3678 52.3614C88.5563 52.0857 88.6063 51.8023 88.4851 51.492C88.387 51.2471 88.3659 50.9927 88.3659 50.7305C88.3678 49.2153 88.4755 47.7021 88.4236 46.1888C88.3928 45.25 88.2601 44.3228 88.0523 43.4052C87.9023 42.7402 87.783 42.0712 87.7907 41.3888C87.7965 41.0669 87.7176 40.7565 87.7196 40.4365C87.7273 39.8255 87.8696 39.2606 88.2389 38.7729C88.412 38.5435 88.3966 38.3797 88.1754 38.2139C87.6792 37.8418 87.1425 37.5334 86.6193 37.2096C86.5578 37.171 86.5097 37.1691 86.4462 37.2288C85.8884 37.7937 85.1613 38.0057 84.4207 38.21C83.4051 38.4915 82.3856 38.7864 81.5162 39.4226C80.9026 39.8717 80.1947 40.1339 79.5119 40.4423C79.308 40.5349 79.1137 40.4712 78.9464 40.3556C77.8307 39.5691 76.9093 38.6014 76.3034 37.3734C75.8475 36.4443 75.4609 35.4765 75.2128 34.4703C75.0589 33.8476 75.2224 33.2231 75.6398 32.7084C76.0591 32.1917 76.4996 31.6944 77.0921 31.3647C77.9923 30.8616 79.4272 30.8365 80.2601 31.6828C80.8699 32.3016 81.4623 32.9339 82.0048 33.6144C82.1125 33.7474 82.1894 33.9016 82.0894 34.0655C81.4969 35.0409 80.9334 36.0394 80.214 36.932C80.0139 37.1806 79.7254 37.3291 79.4715 37.5084C79.7677 37.9749 80.2409 38.0924 80.6948 37.8496C82.1913 37.0457 83.6975 36.263 85.1901 35.463C85.9114 35.0756 86.4693 34.5069 86.9732 33.865C87.6099 33.0573 88.2197 32.2245 88.9891 31.5286C89.6643 30.9175 90.5683 30.9271 91.2223 31.5806C92.0071 32.3614 92.8015 33.1382 93.569 33.9363C94.298 34.6958 94.5462 34.503 95.2483 34.2544C95.8753 34.0327 96.4947 33.7975 97.1314 33.6067C97.3603 33.5392 97.7296 33.6587 97.8335 33.8226C97.9989 34.0828 97.9758 34.5956 97.7815 34.8096C97.3911 35.2394 96.9256 35.5884 96.4909 35.97C96.0869 36.3228 95.6657 36.6505 95.2521 36.9937C95.0751 37.1421 94.9116 37.3059 94.7327 37.4505C94.2499 37.8496 94.0826 38.399 94.0826 38.983C94.0845 40.1782 94.0268 41.3696 93.998 42.5628C93.973 43.5016 94.0172 44.4462 93.946 45.3831C93.8595 46.5281 93.8941 47.6732 93.9114 48.8163C93.921 49.4602 94.0653 50.1059 94.1576 50.7479C94.2153 51.145 94.2692 51.544 94.3115 51.9431C94.3961 52.7565 94.323 53.5739 94.373 54.3835C94.4096 55.0023 94.7924 55.4592 95.2386 55.8563C95.3752 55.9778 95.6734 55.8949 95.7599 55.7194C96.2427 54.7459 97.1006 54.6052 98.0528 54.6765C98.2124 54.6881 98.374 54.7691 98.4702 54.9079C98.6067 55.1026 98.7375 55.305 98.8318 55.5209C98.8933 55.6597 98.8799 55.8235 98.7241 55.9353C98.3278 56.2168 98.2451 56.4982 98.3394 56.9859C98.4163 57.3927 98.4605 57.8052 98.4413 58.2197C98.4259 58.5108 98.222 58.611 97.7238 58.6958C96.7775 58.8616 95.8234 58.9869 94.8789 59.172C94.1845 59.3088 93.5959 59.6905 93.0612 60.1455C92.688 60.4616 92.361 60.8491 91.9552 61.1132C91.0934 61.6722 90.4394 61.4004 89.9855 60.3671C89.4565 59.1643 89.143 57.8785 88.5255 56.7141C88.2274 56.1512 87.8619 55.6385 87.2618 55.3493C86.8924 55.172 86.5558 55.2163 86.2634 55.5035C85.5998 56.1609 85.0401 56.9069 84.4534 57.6317C83.7475 58.5031 83.1108 59.4399 82.2721 60.1937C81.597 60.8028 80.8756 61.3503 80.0101 61.6703C79.1618 61.9845 78.3097 61.8727 77.4691 61.651C76.2746 61.3349 75.1705 60.8047 74.1491 60.1069C73.8163 59.8775 73.5951 59.5768 73.4547 59.2144C72.9642 57.9363 72.4871 56.6544 72.0024 55.3744C71.8697 55.0197 71.8755 54.6669 72.0005 54.3084C72.4737 52.9243 72.9699 51.544 73.397 50.1445C73.597 49.4929 74.0106 49.0611 74.5049 48.6582C74.9569 48.2881 75.3897 47.891 75.8533 47.5382C76.4842 47.0582 76.8901 46.3932 77.3671 45.784C77.4691 45.6529 77.6133 45.57 77.7557 45.4929C79.2926 44.664 80.8487 43.8717 82.4125 43.0968C82.8165 42.8963 83.2166 43.0062 83.6205 43.0679C83.9129 43.1122 84.2014 43.1816 84.4919 43.2144C85.1593 43.2857 85.6633 43.8235 85.6672 44.5021C85.6691 44.8394 85.7229 45.1691 85.7768 45.5026C85.8787 46.1271 85.5056 46.4799 84.9574 46.5532C84.3649 46.6303 83.859 46.4992 83.4801 46.0211C83.2858 45.7724 83.1493 45.4891 83.0108 45.2038C82.9819 45.1132 82.93 45.0264 82.878 44.9262L82.8838 44.9204Z" fill="#ffffff"/>
<path d="M13.4673 30.4899C13.45 29.0056 13.7 27.5906 14.2348 26.2316C14.531 25.474 14.8945 24.7434 15.4658 24.1516C15.9775 23.6234 16.6103 23.2687 17.3259 23.0779C17.9049 22.9236 18.4704 22.7347 19.0417 22.5612C19.5476 22.407 19.7803 22.0966 19.8284 21.5781C19.8746 21.075 20.0342 20.5776 20.0419 20.0803C20.0534 19.2456 19.8284 18.4379 19.611 17.6379C19.4456 17.0229 19.2763 16.4099 19.1244 15.7911C19.0763 15.5964 18.9705 15.4268 18.9397 15.2244C18.8628 14.6885 19.2148 14.4282 19.5649 14.1468C20.0457 13.7574 20.4632 13.3024 20.8767 12.8398C21.7558 11.8528 22.4405 10.7174 23.2638 9.69183C23.6062 9.26388 24.089 9.01135 24.6776 9.06339C24.9642 9.08845 25.1546 9.28894 25.1854 9.57617C25.2316 9.97713 25.1142 10.3453 24.9257 10.6788C24.4199 11.5771 24.4141 12.5159 24.5853 13.4933C24.6488 13.8576 24.6795 14.2354 24.7084 14.6075C24.8219 16.0398 24.8123 17.4817 24.7603 18.9159C24.7084 20.273 24.4641 21.6244 24.5487 22.9873C24.6161 24.0745 24.743 25.1598 24.718 26.2528C24.7065 26.8118 24.6045 27.3574 24.5218 27.9068C24.3929 28.7704 24.4102 29.634 24.4699 30.5034C24.5141 31.126 24.6334 31.7391 24.6738 32.3656C24.7257 33.1019 24.7411 33.8422 24.7045 34.5728C24.6122 36.3424 24.6949 38.1082 24.6507 39.874C24.6411 40.2557 24.5333 40.6104 24.2237 40.8976C23.4927 41.5762 22.7925 42.2894 22.0712 42.9795C21.4307 43.5945 20.7786 44.2017 20.1304 44.8089C19.9342 44.994 19.2302 45.1039 18.9859 44.9921C18.7435 44.8803 18.6974 44.6393 18.7243 44.4369C18.7974 43.8624 18.9089 43.2918 19.0263 42.7212C19.1628 42.0465 19.2648 41.368 19.3494 40.6875C19.3937 40.3424 19.2629 40.0089 19.2109 39.6677C19.0724 38.7309 19.007 37.794 19.109 36.8456C19.1571 36.3983 19.1802 35.9453 19.2379 35.4981C19.3206 34.8735 19.3975 34.247 19.486 33.6224C19.5533 33.1309 19.6591 32.6412 19.6976 32.1477C19.7495 31.5154 19.8669 30.8851 19.8207 30.2451C19.7861 29.7651 19.8092 29.2697 19.688 28.8128C19.4687 27.9781 19.1821 27.5848 18.1992 27.8181C17.8106 27.9106 17.4201 27.982 17.0373 28.0995C16.2641 28.3386 15.8832 28.888 15.7409 29.6475C15.6428 30.1699 15.612 30.6981 15.6216 31.2282C15.6293 31.6851 15.6274 32.1458 15.6216 32.6027C15.6197 33.0075 15.412 33.2966 15.0542 33.4085C14.656 33.5318 14.3617 33.4374 14.1367 33.0615C13.6827 32.2981 13.4134 31.768 13.4654 30.4899H13.4673Z" fill="#ffffff"/>
<path d="M115.246 75.1043C115.554 75.1043 115.864 75.1023 116.172 75.1062C116.229 75.1062 116.32 75.0676 116.339 75.1679C116.364 75.2951 116.256 75.2585 116.191 75.2855C115.827 75.4397 115.469 75.2103 115.108 75.27C114.856 74.9288 114.527 75.2084 114.238 75.1794C113.99 75.1544 113.731 75.2508 113.475 75.2739C113.327 75.2893 113.203 75.3221 113.282 75.4956C113.334 75.6055 113.255 75.6556 113.234 75.7288C113.217 75.7867 113.102 75.8233 113.163 75.8927C113.217 75.9486 113.304 76.0007 113.398 75.9756C113.48 75.9563 113.575 75.9467 113.64 75.8985C114.117 75.5438 114.69 75.6787 115.214 75.5746C115.494 75.5187 115.787 75.5341 116.075 75.5091C116.275 75.4917 116.454 75.5303 116.61 75.6575C116.491 75.9062 116.233 75.8773 116.035 75.9062C115.552 75.9794 115.062 75.9833 114.575 76.0392C114.184 76.0855 113.779 76.0662 113.384 76.2339C113.659 76.4209 113.956 76.3245 114.223 76.3669C114.894 76.4749 115.575 76.4999 116.254 76.5597C116.329 76.5674 116.412 76.5443 116.477 76.6002C116.558 76.6676 116.747 76.5269 116.747 76.7274C116.747 76.9279 116.562 76.8835 116.448 76.9105C116.123 76.9857 115.789 77.0069 115.456 77.0339C114.867 77.0802 114.267 77.0532 113.698 77.2479C113.625 77.2729 113.534 77.2884 113.482 77.217C113.34 77.0204 113.138 76.978 112.915 76.9375C112.499 76.8623 112.496 76.4941 112.449 76.178C112.43 76.045 112.43 75.91 112.342 75.7674C112.238 76.0353 112.132 76.2937 112.034 76.5539C111.978 76.7081 111.888 76.8662 111.72 76.8315C111.59 76.8045 111.576 76.6291 111.565 76.4884C111.492 75.5785 111.411 74.6705 111.336 73.7606C111.324 73.6064 111.334 73.4541 111.265 73.3038C111.305 74.4141 111.349 75.5226 111.392 76.6464C111.105 76.5925 111.049 76.3862 110.984 76.1607V76.6831C110.984 76.7698 110.999 76.8662 110.857 76.8566C110.753 76.8488 110.693 76.8007 110.691 76.6966C110.686 76.3033 110.614 75.9158 110.574 75.5245C110.457 74.2888 110.434 73.0493 110.455 71.8117C110.47 70.9847 110.584 70.1674 110.693 69.3501C110.703 69.2729 110.718 69.1611 110.832 69.1611C110.98 69.1631 110.916 69.2903 110.918 69.3597C110.926 69.6566 110.92 69.9534 110.953 70.2503C111.09 70.1076 111.034 69.9341 111.036 69.7761C111.045 69.2556 111.351 69.0416 111.809 69.2806C112.151 69.4599 112.484 69.3635 112.817 69.3076C112.948 69.2864 112.967 69.3057 112.963 69.4156V69.4734C112.946 70.6493 113.03 71.8194 113.036 72.9934C113.038 73.591 113.075 74.1925 113.082 74.792C113.084 74.9211 113.094 74.9925 113.284 74.9578C114.256 74.7881 115.225 74.5761 116.222 74.6416C116.27 74.6435 116.32 74.6435 116.368 74.6416C116.472 74.6397 116.572 74.657 116.574 74.7843C116.575 74.9134 116.475 74.9231 116.372 74.9346C115.995 74.9732 115.619 75.0214 115.242 75.0676C115.248 75.0831 115.248 75.0966 115.248 75.1081L115.246 75.1043Z" fill="#ffffff"/>
<path d="M38.7905 76.4587C38.6058 76.5956 38.7847 76.7036 38.7905 76.8327C38.3096 76.7864 38.2423 76.3296 38.0134 76.0423C37.7826 75.7532 37.6075 75.4216 37.3998 75.1151C37.2613 74.9108 37.0382 74.8819 36.8285 74.9378C36.465 75.038 36.1053 75.1672 35.7494 75.2982C35.509 75.385 35.4109 75.5855 35.3801 75.8303C35.3281 76.2274 35.2935 76.6284 35.0358 76.9619C35.03 76.9696 35.0338 76.9831 35.0281 76.9889C34.9088 77.1469 34.7242 77.3204 34.5684 77.2876C34.3798 77.251 34.4549 76.9966 34.451 76.8327C34.4433 76.3161 34.4529 75.8014 34.4452 75.2848C34.4376 74.7161 34.6568 74.1744 34.6511 73.6038C34.6491 73.4669 34.6761 73.3166 34.678 73.1739C34.6838 72.7999 34.678 72.4279 34.7857 72.0578C34.8415 71.8611 34.8338 71.624 34.5645 71.5392C34.4376 71.5007 34.4568 71.4004 34.5126 71.3426C35.0146 70.8163 35.0569 70.0973 35.3185 69.4689C35.3839 69.3127 35.4205 69.145 35.4763 68.958C35.6224 69.0891 35.7532 69.1373 35.9668 69.0428C36.2553 68.9137 36.5419 69.064 36.6804 69.3667C37.0882 70.2669 37.4921 71.1729 37.8826 72.0828C38.1442 72.6958 38.325 73.3802 38.7674 73.8621C39.054 74.1744 39.2041 74.5503 39.4734 74.8529C39.5003 74.8819 39.5291 74.9089 39.4984 74.957C39.3579 74.9358 39.3695 74.7585 39.1944 74.6814C39.4503 75.1517 39.6811 75.5758 39.9446 76.0635C39.76 75.9556 39.7138 75.8207 39.6484 75.7108C39.6003 75.6279 39.5657 75.4852 39.4618 75.545C39.3522 75.6086 39.4791 75.705 39.5176 75.7802C39.6369 76.0038 39.758 76.2255 39.8581 76.4645C39.6522 76.3643 39.6234 76.1117 39.406 75.9729C39.4772 76.3045 39.7388 76.5127 39.8042 76.8481C39.5099 76.638 39.433 76.2717 39.0983 76.0963C39.2829 76.4799 39.5484 76.7922 39.6657 77.1816C39.4984 76.7633 39.0521 76.5725 38.8597 76.1715C38.8751 76.4298 39.0175 76.6438 39.1002 76.9349C38.9155 76.7922 38.8905 76.6072 38.7867 76.4587H38.7905ZM35.8475 73.172C35.8475 73.3281 35.8456 73.4438 35.8475 73.5595C35.8494 73.6327 35.8283 73.7175 35.9687 73.6693C36.163 73.6038 36.3688 73.5652 36.5727 73.5267C36.7169 73.4978 36.7496 73.3937 36.7112 73.2915C36.5842 72.9657 36.4419 72.6476 36.2957 72.3276C36.2553 72.2351 36.1456 72.1811 36.061 72.1985C35.9764 72.2158 35.8937 72.2987 35.9052 72.4125C35.9341 72.6843 35.7936 72.9426 35.8475 73.1739V73.172Z" fill="#ffffff"/>
<path d="M107.719 76.7402C107.625 76.6438 107.698 76.5513 107.692 76.4414C107.408 76.5513 107.129 76.6361 106.867 76.7595C106.078 77.1393 105.28 77.0043 104.532 76.7075C104.091 76.532 103.845 76.0597 103.647 75.6106C103.151 74.481 103.343 73.3937 103.832 72.3219C104.051 71.8419 104.276 71.3735 104.67 71.0014C105.159 70.5407 105.744 70.3152 106.392 70.2573C106.765 70.2226 107.144 70.1243 107.513 70.1995C107.902 70.2766 108.302 70.1879 108.685 70.3094C108.952 70.3942 109.183 70.533 109.256 70.8202C109.368 71.2597 109.672 71.6376 109.654 72.1214C109.643 72.4376 109.423 72.6805 109.385 72.9908C109.354 73.2434 109.314 73.5036 109.385 73.7369C109.631 74.5369 109.497 75.2154 108.904 75.8342C108.55 76.2082 108.177 76.5282 107.719 76.7422V76.7402ZM107.612 73.1836C107.612 73.066 107.604 73.0082 107.612 72.9503C107.646 72.6978 107.594 72.5128 107.286 72.5147C107.242 72.5147 107.196 72.4877 107.154 72.4703C106.857 72.3663 106.806 72.2564 106.913 71.9479C106.952 71.8304 107.006 71.7185 107.058 71.6067C107.084 71.5508 107.111 71.4969 107.063 71.4487C107.017 71.3966 106.981 71.4641 106.936 71.4737C106.731 71.5103 106.527 71.5817 106.311 71.5316C105.786 71.414 105.661 71.5026 105.388 71.9595C105.099 72.453 104.972 72.9831 104.936 73.5364C104.899 74.105 104.911 74.6872 105.38 75.1113C106.146 75.7995 107.013 76.0578 108.023 75.7205C108.275 75.6356 108.394 75.4949 108.429 75.2405C108.473 74.9185 108.539 74.6005 108.548 74.2728C108.55 74.186 108.568 74.0318 108.666 74.0414C108.943 74.0684 108.933 73.8737 108.95 73.7099C108.979 73.4303 108.948 73.1605 108.773 72.9176C108.568 72.6284 108.425 72.3046 108.312 71.9711C108.287 71.8997 108.267 71.7976 108.202 71.7918C108.112 71.7802 108.065 71.8766 108.019 71.9518C107.965 72.0347 107.985 72.1002 108.014 72.187C108.144 72.5957 107.965 72.8944 107.613 73.1836H107.612Z" fill="#ffffff"/>
<path d="M44.7334 70.1121C44.6564 69.5935 44.7776 69.1174 45.0123 68.6547C45.07 68.8706 45.1258 69.0807 45.12 69.3063C45.0796 70.7424 45.1777 72.1766 45.1931 73.6128C45.2008 74.2701 45.2123 74.9294 45.2297 75.5868C45.2316 75.66 45.2854 75.7815 45.1527 75.7969C45.0238 75.8084 44.9892 75.7101 45.0027 75.6022C45.0123 75.5077 44.9584 75.4383 44.9161 75.3458C44.6122 75.6928 44.4737 76.1246 44.3083 76.5333C44.2102 76.7742 44.1236 76.8475 43.8351 76.7781C43.0388 76.5911 42.6675 75.9896 42.304 75.3554C42.1712 75.1241 42.0366 74.8909 41.8404 74.7039C41.7885 74.6557 41.7327 74.6094 41.6634 74.648C41.6 74.6827 41.623 74.7501 41.6269 74.8041C41.6384 75.0239 41.6442 75.2436 41.6673 75.4653C41.7385 76.1092 41.4249 76.6277 41.0037 77.0827C40.894 77.2022 40.6594 77.0306 40.6343 76.8051C40.5709 76.2133 40.5343 75.6195 40.4516 75.0316C40.3574 74.3511 40.3804 73.6648 40.3227 72.9824C40.2766 72.4292 40.3978 71.8894 40.3439 71.34C40.3266 71.1665 40.4151 71.0084 40.5132 70.8658C40.6632 70.646 40.8113 70.4263 40.9787 70.1776C41.2595 70.6325 41.5423 71.0778 41.8173 71.5251C42.4001 72.4735 42.9791 73.4219 43.5581 74.3742C43.6504 74.5246 43.7312 74.5072 43.8274 74.3684C44.0371 74.0658 44.1082 73.7284 44.1256 73.3737C44.1717 72.3733 44.0948 71.3766 44.0486 70.3819C44.0236 69.8749 44.064 69.3911 44.1313 68.8995C44.1698 68.6277 44.3448 68.4427 44.6507 68.3154V69.2465C44.6507 69.4894 44.6487 69.7323 44.6526 69.9771C44.6507 70.0292 44.6084 70.1275 44.7295 70.1101C44.6545 70.5015 44.7353 70.8793 44.8873 71.2456C44.8334 70.8677 44.7796 70.488 44.7295 70.1101L44.7334 70.1121ZM42.6098 73.5858C42.6194 73.2696 42.329 72.859 42.0193 72.7665C41.9712 72.7511 41.925 72.6721 41.8712 72.7415C41.8327 72.7935 41.8616 72.8456 41.8904 72.8995C42.0366 73.1521 42.177 73.4104 42.3232 73.6668C42.3636 73.7419 42.4328 73.7843 42.5156 73.7516C42.5829 73.7246 42.6194 73.6648 42.6098 73.5858ZM44.7699 74.4706C44.768 74.567 44.7584 74.6653 44.7719 74.7598C44.7815 74.8407 44.7045 74.9718 44.8661 74.9834C45.0277 74.9949 45.0354 74.8639 45.0585 74.754C45.1065 74.5053 44.9219 74.2971 44.9354 74.0523C44.9373 74.008 44.8911 73.9964 44.8507 73.9964C44.7853 73.9964 44.7738 74.0407 44.7699 74.0908C44.768 74.2142 44.7699 74.3415 44.7699 74.4687V74.4706Z" fill="#ffffff"/>
<path d="M122.482 74.9137C122.48 75.5171 122.388 76.0433 122.12 76.5195C122.038 76.666 122.011 76.8241 121.961 76.9744C121.92 77.0978 121.868 77.1884 121.738 77.2C121.599 77.2154 121.534 77.1229 121.482 77.0072C121.293 76.5715 121.076 76.1455 120.916 75.6983C120.816 75.4207 120.593 75.3552 120.382 75.3532C120.031 75.3455 119.678 75.3976 119.329 75.4573C118.933 75.5286 118.698 75.7927 118.571 76.1686C118.435 76.5773 118.193 76.8896 117.773 77.0477C117.675 77.0843 117.573 77.1152 117.502 77.0593C117.425 77.0033 117.492 76.905 117.508 76.8202C117.627 76.1436 117.862 75.4997 118.006 74.8308C118.071 74.5243 118.321 74.32 118.414 74.0231C118.616 73.3793 118.741 72.7161 118.922 72.0665C118.952 71.9527 118.902 71.8371 118.854 71.7638C118.725 71.5653 118.789 71.4515 118.941 71.3031C119.381 70.8848 119.699 70.3778 119.956 69.8265C120.149 69.4159 120.595 69.1826 121.009 69.254C121.347 69.3156 121.588 69.6183 121.666 70.0617C121.915 71.4284 122.178 72.7913 122.413 74.1619C122.457 74.4299 122.532 74.6997 122.486 74.9118L122.482 74.9137ZM119.539 74.0501C119.824 74.0501 120.105 74.0482 120.383 74.0501C120.595 74.052 120.685 73.9479 120.67 73.7455C120.651 73.4217 120.576 73.1113 120.51 72.7932C120.472 72.6082 120.357 72.506 120.214 72.4886C120.058 72.4694 119.964 72.6352 119.922 72.7585C119.791 73.1826 119.62 73.5952 119.537 74.0482L119.539 74.0501Z" fill="#ffffff"/>
<path d="M59.7786 74.4191C59.9479 72.7015 59.6401 71.0051 60.0306 69.2471C60.2172 69.6268 60.1902 69.9738 60.2403 70.3266C60.3884 70.2437 60.296 70.0104 60.4884 70.0047C60.5826 70.3189 60.4307 70.6273 60.4615 70.9897C60.6192 70.448 60.648 69.943 60.625 69.4225C60.7788 69.4938 60.7288 69.6191 60.7481 69.7251C60.7577 69.781 60.6673 69.9642 60.8693 69.8543C60.875 69.8524 60.9096 69.889 60.9154 69.9121C61.0597 70.4712 61.1001 71.0321 61.0154 71.6124C60.9597 71.9921 60.8712 72.3757 60.9635 72.7825C61.0616 73.2085 61.027 73.6982 60.8885 74.0702C60.6134 74.7969 60.7 75.543 60.5769 76.2716C60.523 76.5955 60.1729 76.8307 59.8556 76.7574C59.1362 76.5936 58.7284 76.1078 58.4052 75.4929C58.2398 75.1806 58.0898 74.8432 57.7493 74.6562C57.6012 75.1516 57.7089 75.6586 57.5993 76.1444C57.5127 76.5338 57.3107 76.85 57.0145 77.1063C56.9299 77.1777 56.8452 77.2374 56.7741 77.0389C56.6183 76.609 56.6202 76.1579 56.5586 75.7145C56.3624 74.3227 56.372 72.9213 56.3701 71.5198C56.3701 70.9743 56.7106 70.608 56.951 70.1839C56.9972 70.103 57.0991 70.0914 57.1453 70.2186C57.1626 70.263 57.1972 70.3015 57.2088 70.3478C57.4031 71.0514 57.8435 71.6182 58.2359 72.2119C58.6341 72.8153 59.0207 73.4263 59.4074 74.0374C59.4939 74.1878 59.619 74.3035 59.7805 74.4191H59.7786ZM58.5399 73.515C58.4418 73.2162 58.2609 72.9753 58.0532 72.7478C58.1205 73.0659 58.184 73.382 58.5399 73.515ZM60.4672 75.9304C60.5903 75.7704 60.5769 75.6066 60.5596 75.4466C60.5519 75.3907 60.5057 75.3367 60.4403 75.3502C60.3788 75.3618 60.3884 75.4273 60.3961 75.4697C60.4134 75.6201 60.4403 75.7685 60.4672 75.9324V75.9304Z" fill="#ffffff"/>
<path d="M91.4389 71.4689C92.0371 70.9658 92.0679 70.2332 92.3333 69.6106C92.3853 69.4891 92.4064 69.3542 92.4565 69.2327C92.5199 69.0824 92.5988 68.9301 92.7892 69.1036C92.8623 69.1691 92.9085 69.1152 92.9681 69.092C93.3682 68.9339 93.6779 69.0766 93.8433 69.466C94.2838 70.4973 94.7185 71.5325 95.184 72.5503C95.6822 73.6376 96.0034 74.7556 95.89 75.9643C95.8746 76.1243 95.8515 76.2882 95.7995 76.4385C95.7611 76.56 95.6899 76.747 95.6072 76.7643C95.4687 76.7913 95.4379 76.5908 95.3668 76.4867C95.0705 76.053 94.7685 75.625 94.4973 75.1797C94.3415 74.9272 94.1338 74.8752 93.8876 74.9368C93.5663 75.0178 93.2509 75.1238 92.9373 75.2337C92.5199 75.3802 92.3257 75.7233 92.3487 76.1243C92.3795 76.6776 92.0641 76.9976 91.714 77.3195C91.6101 77.4139 91.512 77.4217 91.5197 77.2366C91.5485 76.5118 91.4908 75.787 91.5639 75.0583C91.6274 74.4202 91.8121 73.7995 91.7736 73.1441C91.7544 72.8279 91.7948 72.4925 91.814 72.1667C91.8294 71.8641 91.814 71.5845 91.4351 71.4689H91.4389ZM93.8433 73.2443C93.7144 72.932 93.6048 72.5311 93.3278 72.2226C93.1912 72.0684 93.0393 72.08 92.9316 72.3094C92.8085 72.5812 92.8469 72.8646 92.87 73.1344C92.8893 73.3446 92.6757 73.6356 92.9085 73.732C93.0912 73.8072 93.3682 73.6838 93.5933 73.6183C93.726 73.5797 93.8702 73.5046 93.8414 73.2443H93.8433Z" fill="#ffffff"/>
<path d="M62.5537 77.4213C62.8211 76.2723 62.4633 75.1446 62.8788 74.069C62.9538 73.8743 62.898 73.6256 62.898 73.402C62.8999 73.0222 62.8903 72.6425 62.8999 72.2627C62.9076 72.0044 62.8923 71.7596 62.7114 71.5591C62.6191 71.4589 62.6768 71.3702 62.7307 71.2989C63.1635 70.6974 63.302 69.9784 63.5289 69.296C63.5924 69.1032 63.6597 69.0473 63.8252 69.1186C63.9387 69.1668 64.0271 69.134 64.1272 69.0916C64.4445 68.9548 64.6619 69.0299 64.81 69.348C65.2986 70.4025 65.7987 71.4511 66.2488 72.521C66.4989 73.1167 66.8105 73.6892 66.9394 74.3292C67.049 74.8767 67.0894 75.4261 67.0009 75.989C66.9624 76.228 66.9394 76.4555 66.8182 76.6695C66.7316 76.8275 66.6893 76.8179 66.595 76.6752C66.2642 76.174 65.9545 75.6613 65.5987 75.1774C65.4505 74.975 65.2755 74.8863 65.062 74.9384C64.6157 75.0483 64.1541 75.1331 63.7752 75.4299C63.527 75.6246 63.5193 75.9099 63.4905 76.1817C63.427 76.7369 63.1962 77.1591 62.5556 77.4232L62.5537 77.4213ZM63.904 73.4926C63.8463 73.7374 63.9502 73.7952 64.1291 73.7586C64.3041 73.7239 64.4811 73.6854 64.6542 73.641C64.9139 73.5755 64.9851 73.4367 64.9062 73.1764C64.8773 73.0762 64.8619 72.9702 64.8139 72.8796C64.6657 72.6078 64.5927 72.2839 64.2791 72.122C64.1233 72.041 64.0214 72.0449 64.0041 72.2492C63.9675 72.6752 63.9329 73.1032 63.9021 73.4926H63.904Z" fill="#ffffff"/>
<path d="M102.032 72.4883C102.228 71.9062 102.336 71.3683 102.613 70.8845C102.53 71.2816 102.457 71.6826 102.361 72.0758C102.115 73.0763 101.928 74.0864 101.786 75.1042C101.724 75.5303 101.667 75.9563 101.611 76.3823C101.574 76.6503 101.205 76.8835 100.905 76.7794C100.407 76.6059 99.9509 76.3881 99.6777 75.8695C99.4911 75.511 99.2872 75.1467 98.9968 74.8498C98.9256 74.7785 98.8679 74.6339 98.7583 74.6724C98.639 74.7168 98.6948 74.8614 98.6967 74.9616C98.7025 75.3761 98.689 75.7867 98.5794 76.1895C98.4755 76.5732 98.2582 76.8777 97.9658 77.1418C97.8157 77.2748 97.7965 77.1071 97.7811 77.0493C97.6773 76.6618 97.6234 76.2667 97.5868 75.8638C97.5041 74.9423 97.4676 74.0189 97.4022 73.0975C97.3483 72.3438 97.3176 71.6035 97.5311 70.871C97.5407 70.8344 97.5522 70.7977 97.5695 70.763C97.6792 70.5433 97.8119 70.2811 98.0254 70.2406C98.1524 70.2156 98.2659 70.5394 98.3736 70.7129C99.0045 71.7327 99.6316 72.7544 100.266 73.7741C100.386 73.9669 100.482 74.1751 100.676 74.3756C100.743 73.1399 101.242 72.0218 101.419 70.8459C101.48 70.8999 101.399 71.004 101.49 71.1062C101.461 70.7997 101.678 70.6994 101.859 70.5703C101.905 70.5356 101.949 70.5433 101.959 70.6088C101.965 70.6474 101.957 70.6859 101.965 70.7264C101.992 70.8556 101.871 71.0406 102.115 71.0965C102.142 71.1023 102.161 71.3067 102.13 71.3953C102.026 71.6826 102.142 71.9929 102.026 72.2763C102.007 72.3206 102.026 72.3727 102.034 72.4883H102.032Z" fill="#ffffff"/>
<path d="M73.2123 75.7411C73.2123 75.8606 73.2104 75.9936 73.2123 76.1247C73.2123 76.1806 73.1873 76.2269 73.1412 76.2423C73.0873 76.2596 73.0546 76.2134 73.043 76.1652C72.9526 75.6948 72.8315 75.2302 72.868 74.7464C72.8699 74.729 72.8795 74.7097 72.893 74.6943C73.3893 74.1526 73.043 73.5415 73.0065 72.9671C72.968 72.3753 72.9796 71.795 73.0546 71.2109C73.0604 71.1801 73.1027 71.155 73.1681 71.0818V72.1709C73.3123 71.9666 73.2489 71.7507 73.27 71.5387C73.2777 71.477 73.2335 71.3902 73.3335 71.3709C73.4258 71.3517 73.472 71.4114 73.5066 71.4924C73.6182 71.7449 73.5143 72.0283 73.6163 72.2828C73.6413 72.3444 73.6163 72.4216 73.7355 72.4466C73.6951 72.1748 73.8182 71.9184 73.7894 71.6543C73.7336 71.1377 73.9721 70.7252 74.2337 70.3203C74.2876 70.2375 74.3626 70.1642 74.4799 70.1334C75.2436 69.9406 76.0053 69.8712 76.7747 70.0775C76.9055 70.1122 77.0305 70.1642 77.1325 70.2509C77.3344 70.4187 77.5326 70.6037 77.4576 70.9102C77.3806 71.2341 76.9863 71.5772 76.6458 71.5965C76.2515 71.6177 75.8591 71.6081 75.4705 71.5097C75.0358 71.396 74.955 71.4808 75.0089 71.9242C75.0397 72.1825 75.0031 72.4428 75.0666 72.7011C75.1051 72.8572 75.1743 72.9247 75.332 72.9497C75.6571 73.0037 75.9822 73.0037 76.3111 73.0056C76.6516 73.0076 77.0209 73.2852 77.094 73.6148C77.1402 73.8288 76.9959 73.9618 76.817 74.0293C76.4035 74.1796 75.9726 74.2644 75.534 74.2895C75.0608 74.3146 75.0262 74.3242 74.9127 74.783C74.8935 74.8659 74.905 74.9603 74.8685 75.0355C74.7819 75.2225 74.8896 75.2244 75.0243 75.2244C75.4225 75.2225 75.8206 75.2225 76.2188 75.2244C76.6785 75.2264 77.1632 75.6138 77.2633 76.0534C77.3017 76.2211 76.9978 76.5276 76.7285 76.5623C76.1996 76.6297 75.6648 76.6799 75.132 76.7416C74.8666 76.7724 74.6127 76.8322 74.3376 76.7512C74.201 76.7126 74.0779 76.649 74.0491 76.5469C73.9817 76.3213 73.8163 76.169 73.699 75.982C73.6817 75.9531 73.6547 75.9281 73.6355 75.9011C73.32 76.2731 73.4201 75.7314 73.2104 75.743L73.2123 75.7411ZM73.7394 74.9083C73.7548 75.0856 73.8048 75.2611 73.8067 75.4461C73.8086 75.5926 73.951 75.583 74.0548 75.5676C74.201 75.5483 74.1279 75.4596 74.1106 75.3748C74.0741 75.209 74.0568 75.0375 74.0298 74.8678C74.0144 74.7753 74.0029 74.6461 73.8971 74.6538C73.7663 74.6596 73.7105 74.7676 73.7394 74.9064V74.9083Z" fill="#ffffff"/>
<path d="M89.3028 73.013C88.9719 73.2328 88.7565 73.4872 88.5449 73.7667C88.1948 74.2313 87.7024 74.4993 86.7502 74.1851C86.6021 75.0679 86.7252 75.9566 86.6406 76.8395C86.6098 76.3576 86.5771 75.8737 86.5406 75.3108C86.3713 75.972 86.4194 76.5446 86.5944 77.1229C86.5675 77.0978 86.5309 77.0785 86.5136 77.0477C86.4963 77.0188 86.4944 76.9764 86.479 76.9147C86.454 76.9918 86.4405 77.0381 86.4251 77.0882C86.4155 77.0863 86.404 77.0824 86.3944 77.0824V76.3229C86.2251 76.3691 86.302 76.5176 86.2482 76.6024C86.2097 76.666 86.1924 76.7412 86.0847 76.7335C85.9866 76.7258 85.9943 76.666 85.9712 76.6024C85.7654 76.053 85.648 75.4959 85.6173 74.9022C85.5538 73.6742 85.5192 72.4463 85.4999 71.2164C85.4922 70.8058 85.398 70.3971 85.5576 70C85.7788 69.4467 86.2116 69.1537 86.7695 69.0091C87.562 68.8048 88.3006 68.8819 88.9796 69.3677C89.6451 69.8438 90.0087 70.5108 90.1645 71.2954C90.226 71.5942 90.0702 71.8737 89.8683 72.1031C89.5971 72.4116 89.4547 72.7585 89.4701 73.1769C89.4855 73.5952 89.4759 74.0135 89.4701 74.4318C89.4701 74.505 89.5259 74.6342 89.3758 74.6246C89.2566 74.6169 89.3008 74.507 89.3008 74.4395C89.2989 73.9769 89.3008 73.5123 89.3008 73.013H89.3028ZM87.7774 72.8222C88.0794 72.8222 88.3506 72.7566 88.543 72.6467C88.8507 72.4675 88.9123 72.2689 88.7565 71.9528C88.6718 71.7851 88.5641 71.625 88.4987 71.4496C88.3025 70.9234 87.9043 70.6766 87.3735 70.6111C87.208 70.5918 87.0214 70.6381 86.9503 70.7904C86.8945 70.9099 86.8099 71.0969 87.0311 71.1971C87.1042 71.2318 87.0368 71.3147 87.0137 71.3359C86.7387 71.6212 86.8599 71.8757 87.0618 72.1243C87.1061 72.1783 87.1542 72.1976 87.0522 72.2573C86.8503 72.3749 86.9157 72.4829 87.083 72.5908C87.3042 72.7335 87.5273 72.8491 87.7755 72.8222H87.7774Z" fill="#ffffff"/>
<path d="M28.0932 72.8964C28.0528 72.0772 28.2721 71.3755 28.7222 70.7316C28.853 70.5427 29.0358 70.4444 29.2108 70.348C29.7552 70.0492 30.3111 69.7755 30.8689 69.5094C31.3844 69.2646 31.8922 69.3668 32.3788 69.6116C32.7636 69.8044 33.1444 69.9991 33.5176 70.2034C33.7272 70.3172 33.8407 70.5273 33.9504 70.7297C34.0504 70.9167 33.91 71.0285 33.783 71.1094C33.5811 71.2405 33.4022 71.3947 33.281 71.601C33.1771 71.7803 33.1175 71.7128 33.0598 71.5817C32.9001 71.2174 32.6597 70.9225 32.275 70.7914C31.8018 70.6275 31.4325 70.8916 31.0805 71.1519C30.7727 71.3774 30.4803 71.6241 30.186 71.869C29.7898 72.2005 29.6474 72.642 29.734 73.1335C29.884 73.9721 30.3168 74.5986 31.1382 74.9437C31.569 75.1229 31.973 75.3523 32.45 75.4005C32.4769 75.4025 32.502 75.4217 32.527 75.4352C33.054 75.6473 33.0694 75.7205 32.6558 76.1041C31.9384 76.7692 30.7765 76.8386 29.9725 76.2931C29.1165 75.7147 28.4818 74.9128 28.1856 73.8911C28.0913 73.5557 28.0721 73.2106 28.0932 72.8984V72.8964Z" fill="#ffffff"/>
<path d="M48.8828 77.5164C48.8424 77.6629 48.8059 77.7843 48.7693 77.9154C48.6039 77.4219 48.7116 76.9303 48.7212 76.4426C48.5904 76.9091 48.6212 77.4065 48.3962 77.8518C48.5327 76.645 48.6712 75.4383 48.8059 74.2335L48.7328 74.2181C48.5385 75.3342 48.4096 76.4696 47.9999 77.5395C48.0807 76.9419 48.1596 76.3424 48.2423 75.7467C48.3096 75.2455 48.3789 74.7443 48.4462 74.2431C48.4654 74.0928 48.4577 73.9289 48.5097 73.7901C48.6885 73.2889 48.3365 72.8378 48.3865 72.352C48.3981 72.2287 48.3846 72.1014 48.4481 71.9877C48.602 71.712 48.3942 71.6889 48.2154 71.6619C47.7172 71.5867 47.2151 71.5944 46.7111 71.6041C46.5015 71.6099 46.2495 71.5983 46.1553 71.4499C46.0725 71.3188 46.2726 71.1414 46.3861 70.9988C46.7188 70.5843 47.1343 70.3588 47.671 70.3087C48.9194 70.1891 50.1677 70.1159 51.4238 70.139C51.7662 70.1448 52.0874 70.2123 52.3779 70.3877C52.6164 70.5284 52.626 70.6634 52.4048 70.8137C52.1182 71.0142 51.8777 71.2744 51.5373 71.4075C51.3353 71.4884 51.143 71.4749 50.9448 71.4846C50.8506 71.4903 50.7352 71.4537 50.6794 71.5559C50.4967 71.8894 50.1408 72.1303 50.085 72.5197C49.9869 73.1983 49.7734 73.8537 49.7215 74.5419C49.6753 75.1607 49.556 75.7737 49.506 76.3944C49.4753 76.7761 49.4118 77.1559 49.3829 77.5376C49.3714 77.6956 49.3983 77.9173 49.2367 77.9482C49.0675 77.9829 48.9944 77.7689 48.9194 77.6263C48.904 77.5954 48.9021 77.5646 48.8886 77.5164H48.8828Z" fill="#ffffff"/>
<path d="M80.1651 75.6294C80.2286 75.7528 80.3421 75.7393 80.4575 75.747C80.7537 75.7663 81.0615 75.6699 81.3327 75.9051C81.4193 75.9803 81.5905 75.9051 81.7193 75.8607C82.2733 75.666 82.5599 75.2766 82.5522 74.7272C82.5465 74.3494 82.2598 74.1817 82.0136 73.9928C81.3308 73.4704 80.5364 73.1234 79.8227 72.653C79.6092 72.5123 79.3919 72.3716 79.186 72.2193C78.8917 72.0053 78.8321 71.4424 79.0879 71.188C80.0189 70.2607 81.0923 69.6574 82.4541 69.7306C82.8523 69.7518 83.4274 69.9639 83.5986 70.3513C83.2774 70.3899 82.96 70.3995 82.6522 70.3571C82.1791 70.2858 81.7174 70.2839 81.2596 70.4323C80.8441 70.5692 80.5691 70.8699 80.3748 71.2458C80.2805 71.4309 80.3228 71.6063 80.5287 71.6988C81.2654 72.0342 81.9982 72.3793 82.8273 72.4198C82.9504 72.4256 83.062 72.466 83.1254 72.5663C83.4274 73.0289 83.8006 73.4395 84.0872 73.9176C84.2276 74.1489 84.2084 74.2627 84.0026 74.467C83.7506 74.7176 83.5832 75.0627 83.5986 75.4598C83.614 75.774 83.3313 76.148 83.0196 76.2694C83.0004 76.2289 82.9677 76.2135 82.9273 76.2309C82.5484 76.3774 82.1598 76.4699 81.7616 76.5393C81.6674 76.5566 81.4693 76.4641 81.4404 76.6781C81.1519 76.6203 80.873 76.626 80.621 76.8053L80.6268 76.7957C80.5133 76.8265 80.3786 76.7513 80.2748 76.8535C79.8189 76.8554 79.3611 76.8593 78.9052 76.8593C78.8206 76.8593 78.6955 76.9036 78.7032 76.7359C78.709 76.5894 78.8148 76.6318 78.8917 76.628C79.0206 76.6222 79.1495 76.626 79.2861 76.601C79.0629 76.6029 78.8975 76.4815 78.7225 76.3658C78.8917 76.4043 79.0437 76.3639 79.188 76.2887C79.2149 76.2771 79.2784 76.3523 79.2803 76.2598C79.2803 76.2251 79.2649 76.1653 79.2457 76.1595C79.0322 76.0921 78.8956 75.9378 78.7917 75.7528C78.7379 75.6583 78.6686 75.7913 78.6186 75.7316C78.6866 75.6069 78.6539 75.4238 78.5205 75.1822C78.8187 75.2265 78.9706 75.5619 79.2784 75.5234C79.4246 75.7335 79.9516 75.8395 80.1536 75.6969C80.1613 75.6853 80.1594 75.6583 80.1632 75.639L80.1651 75.6294ZM80.3825 76.0978C80.6287 76.2251 80.8461 76.1499 81.0865 76.0207C80.8711 75.9166 80.6922 76.04 80.5075 76.0323C80.3498 75.9378 80.1921 75.8665 80.0151 75.988C79.9747 76.015 79.9131 76.0805 79.8766 75.9957C79.8362 75.9012 79.9901 75.9552 79.9862 75.8684C79.8554 75.8665 79.7246 75.8704 79.6015 75.8048C79.5169 76.0824 79.6169 76.1788 79.8785 76.1595C80.0459 76.1403 80.219 76.1692 80.3806 76.0959L80.3825 76.0978ZM79.4188 76.2231C79.64 76.4641 79.8535 76.3889 80.1305 76.2231H79.4188Z" fill="#ffffff"/>
<path d="M54.0957 75.4379C53.9206 74.8076 53.7264 74.1849 53.5782 73.5507C53.357 72.6061 53.3436 71.6481 53.4494 70.6823C53.4878 70.3392 53.5205 70.0018 53.6283 69.6722C53.6994 69.4582 53.9822 69.2885 54.2534 69.3348C54.4823 69.3734 54.6016 69.5372 54.6246 69.7801C54.6689 70.2177 54.7689 70.6553 54.7343 71.0987C54.6516 72.1281 54.6439 73.1652 54.3996 74.1791C54.2996 74.5898 54.2592 75.0158 54.1899 75.4341C54.1553 75.436 54.1245 75.4399 54.0957 75.4399V75.4379Z" fill="#ffffff"/>
<path d="M105.567 67.6294C105.752 67.853 105.898 67.9012 106.105 67.7778C106.346 67.6371 106.644 67.7103 106.9 67.5754C107.133 67.4539 107.342 67.3344 107.446 67.0723C107.51 66.9123 107.64 66.7021 107.804 66.7812C107.937 66.8467 107.783 67.0568 107.721 67.1821C107.258 68.1576 106.115 68.4371 105.28 67.8896C105.076 67.7566 104.882 67.7759 104.707 67.9455C104.624 68.0265 104.553 68.1209 104.422 68.119C104.392 67.587 104.526 67.4983 105.4 67.4983C105.176 67.2959 104.953 67.2323 104.697 67.371C104.482 67.4906 104.274 67.6197 104.063 67.7431C103.949 67.6968 104.047 67.5696 103.961 67.5214C103.851 67.5021 103.749 67.6968 103.666 67.5773C103.603 67.4848 103.734 67.3788 103.788 67.2785C104.038 66.8216 104.913 66.4785 105.359 66.8525C105.251 66.8679 105.155 66.8795 105.009 66.8988C105.198 67.0453 105.35 66.9951 105.48 66.9161C105.653 66.8139 105.798 66.7985 105.988 66.8968C106.275 67.0433 106.431 66.9701 106.627 66.6867C106.734 66.5363 106.781 66.3359 107.083 66.438C107.302 66.5113 107.333 66.5961 107.323 66.7754C107.296 67.1898 106.846 67.6197 106.425 67.6274C106.157 67.6332 105.888 67.6274 105.565 67.6274L105.567 67.6294Z" fill="#ffffff"/>
<path d="M81.7795 76.905C81.4909 76.8183 81.1947 76.8703 80.9003 76.851C80.8061 76.8433 80.6868 76.9127 80.6156 76.7894L80.6099 76.799C80.9042 76.7547 81.2081 76.8665 81.4967 76.7412C81.6256 76.7797 81.7564 76.8125 81.893 76.799C81.8545 76.8337 81.816 76.8703 81.7795 76.9031V76.905Z" fill="#ffffff"/>
</svg>
