<svg width="185" height="91" viewBox="0 0 185 91" fill="none" xmlns="http://www.w3.org/2000/svg">
<g clip-path="url(#clip0_1112_11456)">
<mask id="mask0_1112_11456" style="mask-type:luminance" maskUnits="userSpaceOnUse" x="1" y="0" width="141" height="75">
<path d="M1 0H142V75H1V0Z" fill="#ffffff"/>
</mask>
<g mask="url(#mask0_1112_11456)">
<path d="M17.3044 3.43652C18.6891 3.54958 20.7439 3.70785 22.7987 3.88874C23.0221 3.88874 23.2678 3.91135 23.4911 3.93396C24.2282 3.95657 24.7419 4.40879 24.8089 5.17755C25.0546 7.30297 25.2779 9.42838 25.4566 11.5538C25.5013 11.9382 25.4566 12.3452 25.3449 12.7296C25.2109 13.227 24.8312 13.3401 24.4515 12.9783C24.1165 12.6165 23.8708 12.1643 23.6475 11.7121C23.2231 10.8755 22.9328 9.99365 22.4637 9.20228C21.3023 7.23514 19.5825 5.96893 17.349 5.49411C16.5226 5.31322 15.6516 5.22278 14.8252 5.24539C11.8323 5.31322 9.26381 8.4109 9.55417 11.4181C9.73285 13.3401 10.6039 14.9002 11.8993 16.2568C12.9937 17.41 14.2668 18.4049 15.5622 19.3093C16.746 20.1459 17.9744 20.9373 19.1582 21.7739C20.9449 23.0627 22.6201 24.4872 24.0048 26.2056C25.2332 27.6979 26.1936 29.3259 26.5733 31.2252C27.3997 35.3177 26.1043 38.6868 23.1114 41.4679C21.3916 43.0732 19.2698 43.8872 17.014 44.3621C12.2344 45.3796 7.61103 44.7691 3.07706 43.0959C2.36234 42.8245 2.11666 42.2366 2.00498 41.6035C1.64763 39.6816 1.33494 37.7597 1.04458 35.8152C0.955244 35.2499 0.977579 34.662 0.977579 34.0742C0.977579 33.8254 1.04458 33.5541 1.15626 33.328C1.35727 32.921 1.80397 32.8306 2.13899 33.1471C2.42935 33.441 2.67503 33.7802 2.87604 34.1646C3.61309 35.5665 4.35014 36.9683 5.04252 38.3702C5.91358 40.0886 7.18667 41.3774 8.97346 42.1236C10.5146 42.7567 12.1003 43.0506 13.7531 42.7793C13.9541 42.7567 14.1551 42.6889 14.3562 42.621C16.8353 41.8523 18.8455 39.0937 18.8008 36.5613C18.8008 35.5665 18.4658 34.6394 18.0191 33.7576C17.3044 32.3783 16.3216 31.2026 15.1602 30.2077C14.1551 29.3485 13.1054 28.5571 12.0333 27.7884C10.2465 26.5221 8.45976 25.2559 6.85165 23.741C5.80191 22.7688 4.84151 21.6834 4.08213 20.4625C2.83137 18.4275 2.42935 16.2342 2.56335 13.8601C2.85371 9.044 6.38262 5.29061 10.9166 4.09224C12.7704 3.61741 14.6689 3.43652 17.282 3.43652H17.3044Z" fill="#000000"/>
<path d="M101.574 21.7287C101.998 21.4122 102.289 21.186 102.579 20.9825C104.075 19.8972 105.661 18.9476 107.493 18.518C110.508 17.8623 113.099 18.518 115.109 21.0052C115.98 22.0905 116.382 23.3793 116.583 24.7133C116.784 26.0248 116.918 27.3362 116.985 28.6702C117.097 30.9991 117.097 33.328 117.164 35.657C117.186 36.9458 117.231 38.212 117.298 39.5008C117.365 41.0383 117.99 41.7845 119.419 42.2141C119.71 42.3045 120 42.3724 120.246 42.5306C120.759 42.8246 120.759 43.4125 120.246 43.7064C119.955 43.8647 119.598 43.9551 119.263 43.9551C118.303 43.9551 117.32 43.9551 116.359 43.9099C114.081 43.7742 111.826 43.7064 109.547 43.9099C108.922 43.9777 108.297 43.9551 107.694 43.9551C107.046 43.9551 106.599 43.6612 106.51 43.2768C106.443 42.9602 106.778 42.5759 107.381 42.3271L107.56 42.2367C108.788 41.988 109.235 41.1062 109.346 39.9756C109.391 39.4103 109.458 38.8677 109.458 38.3024C109.458 35.25 109.48 32.1975 109.458 29.1677C109.458 27.811 109.324 26.477 108.922 25.1655C108.475 23.6958 107.582 22.6105 106.041 22.2488C104.79 21.9774 103.562 22.1357 102.445 22.7914C101.886 23.108 101.618 23.628 101.551 24.2837V24.4194C101.551 28.738 101.551 33.0793 101.574 37.398C101.574 38.3476 101.73 39.2973 101.842 40.2469C101.931 41.0609 102.356 41.6262 103.093 41.9428C103.338 42.0332 103.562 42.1236 103.807 42.2141L104.299 42.4402C104.589 42.5985 104.835 42.8472 104.768 43.209C104.723 43.5481 104.455 43.729 104.142 43.7742C103.763 43.8421 103.361 43.9099 102.981 43.8873C101.618 43.8647 100.278 43.7516 98.916 43.7516C97.1515 43.7516 95.3647 43.8194 93.6003 43.8647C92.8856 43.8647 92.1708 43.9325 91.4561 43.8873C91.1211 43.8873 90.7637 43.7516 90.4957 43.5933C90.049 43.3446 90.0267 42.9602 90.4287 42.6437C90.6744 42.4402 90.9648 42.3045 91.2551 42.1689C91.6348 42.0106 92.0368 41.8749 92.4165 41.7166C93.0196 41.4679 93.4216 41.0383 93.4886 40.36C93.5779 39.5008 93.6896 38.6416 93.7119 37.7824C93.7789 33.622 93.8236 29.4616 93.8906 25.2786C93.8906 24.7586 93.7789 24.3063 93.4663 23.8993C93.1089 23.4245 92.7069 22.9723 92.3272 22.4975C92.1485 22.2714 91.9475 22.0905 91.7688 21.8644C91.3444 21.2991 91.4114 20.8469 92.0368 20.4851C92.2825 20.3494 92.5952 20.259 92.8632 20.1686C94.6277 19.6485 96.3921 19.1511 98.1566 18.6084C98.8266 18.4049 99.4743 18.0431 100.144 17.817C101.283 17.41 101.596 17.6814 101.551 18.9024C101.529 19.5807 101.507 20.259 101.484 20.9373C101.484 21.1182 101.507 21.2991 101.529 21.6383L101.574 21.7287Z" fill="#000000"/>
<path d="M65.2797 31.4062C65.3913 27.3137 66.9548 24.0351 70.037 21.5705C72.5608 19.5582 75.442 18.3824 78.6582 18.2467C84.845 17.9528 91.2104 21.9097 92.4165 29.2582C93.4886 35.7927 89.4236 41.3097 84.8673 43.2769C79.8643 45.4475 75.0177 45.0857 70.5283 41.9428C67.6025 39.9079 66.0167 36.9232 65.4583 33.396C65.3467 32.7176 65.3243 32.0167 65.2573 31.4062H65.2797ZM84.1973 32.7402C84.1973 30.9314 83.8846 28.2633 83.5049 26.6353C83.1475 25.1204 82.7009 23.6281 81.8968 22.2714C81.5171 21.6383 81.0481 21.0505 80.4227 20.6209C79.0379 19.6938 77.6755 19.6712 76.4471 20.7791C76.0004 21.1635 75.5984 21.661 75.3527 22.181C74.9953 22.9272 74.6826 23.7185 74.504 24.5325C73.6999 28.1729 73.7446 31.8358 74.437 35.4761C74.772 37.1946 75.3303 38.8452 76.2684 40.3375C76.7598 41.1288 77.3628 41.8298 78.1669 42.3272C79.641 43.2543 81.1821 42.9377 82.1425 41.4906C82.5445 40.8575 82.8795 40.1566 83.1252 39.433C83.9069 37.2172 84.1303 34.9109 84.1973 32.7402Z" fill="#000000"/>
<path d="M61.9515 19.1285C62.0185 24.6003 62.0409 29.3712 62.1302 34.1195C62.1525 35.8379 62.2642 37.5563 62.3535 39.2748C62.4206 40.4957 63.0013 41.3776 64.118 41.875C64.4754 42.0333 64.8551 42.1463 65.1901 42.3272C65.3911 42.4176 65.6144 42.5307 65.7708 42.7116C66.0835 43.0508 66.0165 43.503 65.6144 43.6839C65.2571 43.8421 64.8551 43.9326 64.4754 43.91C62.8673 43.8874 61.2591 43.7517 59.651 43.7517C57.7079 43.7517 55.7424 43.8421 53.7993 43.8874C53.0399 43.8874 52.2805 43.9326 51.5211 43.91C51.2978 43.91 51.0521 43.8647 50.8511 43.7969C50.2927 43.5934 50.181 43.0508 50.6501 42.6664C50.8958 42.4629 51.2085 42.3498 51.4988 42.2142C51.8338 42.0785 52.2135 41.988 52.5485 41.8524C53.3526 41.5358 53.8886 40.9706 54.0673 40.0887C54.179 39.5235 54.2907 38.9356 54.313 38.3703C54.581 29.733 54.6034 21.0957 54.4247 12.4583C54.4023 10.853 54.2683 9.24761 54.179 7.64225C54.1343 6.78304 53.8216 6.05949 53.2186 5.47161C52.7496 5.0194 52.2805 4.58979 51.8115 4.11496C51.2755 3.5723 51.2978 3.21053 51.9008 2.75832C52.0795 2.62265 52.3029 2.5096 52.5039 2.44177C55.0277 1.673 57.5516 0.904231 60.0977 0.158075C60.5221 0.0224101 60.9465 -0.0228115 61.3932 -0.0680331C61.8622 -0.113255 62.0185 -0.000200689 62.1079 0.497237C62.1749 0.904231 62.1972 1.33384 62.1972 1.74083C62.1302 7.7553 62.0409 13.7472 61.9739 19.0607L61.9515 19.1285Z" fill="#000000"/>
<path d="M46.8309 31.8582C46.8309 33.3957 46.8309 34.9333 46.8309 36.4708C46.8309 37.0135 46.8533 37.6013 46.9873 38.1214C47.3 39.4554 48.238 40.0433 49.5781 39.772C49.9132 39.7042 50.2258 39.5685 50.5609 39.4554C50.9629 39.3198 51.1862 39.4554 51.2533 39.8624C51.2979 40.1111 51.2533 40.3825 51.1862 40.6086C50.8736 41.7617 50.1812 42.6436 49.2208 43.2993C48.4614 43.8193 47.635 44.1585 46.7639 44.3394C45.6919 44.5429 44.6421 44.6785 43.5477 44.5203C41.8726 44.2489 40.6442 43.3897 39.8401 41.92C39.4604 41.2417 39.5274 40.9477 38.5894 41.6487C37.763 42.2366 36.9366 42.8244 36.0655 43.3671C35.1275 43.9776 34.1224 44.362 33.0057 44.5429C31.4199 44.769 30.0798 44.2941 28.9631 43.2088C27.2433 41.5356 26.7519 39.4328 27.2656 37.1265C27.5336 35.9055 28.3377 35.0237 29.4321 34.4584C30.1468 34.0967 30.9062 33.8027 31.6656 33.554C33.9661 32.8305 36.2889 32.1521 38.5894 31.4512C39.5051 31.1799 39.6168 31.0668 39.6168 30.0946C39.6391 28.557 39.7061 27.0195 39.6391 25.482C39.5944 24.3062 39.3041 23.1757 38.7011 22.1582C38.0533 21.0502 37.0706 20.5528 35.8199 20.6432C34.7478 20.7111 34.1671 21.1633 33.9437 22.2486C33.8097 22.9043 33.698 23.5827 33.698 24.261C33.698 25.0071 33.3854 25.5046 32.7376 25.7985C31.4199 26.4316 30.1245 27.0421 28.8067 27.6752C28.3823 27.8787 27.9803 27.9013 27.556 27.6752C27.1986 27.4943 26.9976 27.223 27.1093 26.8386C27.2433 26.3186 27.3773 25.7307 27.6676 25.3011C28.1813 24.5549 28.762 23.854 29.4098 23.2435C30.9509 21.7738 32.693 20.6206 34.5021 19.5579C35.8199 18.7892 37.227 18.3143 38.7457 18.2691C42.632 18.1561 45.8929 20.8015 46.5853 24.374C46.7639 25.2785 46.8309 26.2281 46.8756 27.1325C46.9203 28.7153 46.8756 30.2981 46.8756 31.8808H46.8086L46.8309 31.8582ZM39.3934 32.7626C38.6341 32.9435 37.897 33.0792 37.2046 33.3279C36.6239 33.5314 36.0432 33.7801 35.5518 34.1419C34.2788 35.0463 33.9437 36.3804 34.2117 37.8501C34.4574 39.2067 35.3285 40.0885 36.6239 40.4503C37.9863 40.8347 39.0807 40.3825 39.2818 38.8223C39.5498 36.923 39.5274 35.0237 39.5051 33.1244L39.3711 32.7626H39.3934Z" fill="#000000"/>
<path d="M133.87 27.4717C132.284 27.4265 130.699 27.3813 129.113 27.3361C128.644 27.3361 128.197 27.3135 127.728 27.3361C127.259 27.3361 127.103 27.4717 127.058 27.9466C126.991 28.7379 126.946 29.5293 126.969 30.3207C127.013 31.813 127.304 33.2375 127.996 34.5489C129.359 37.1718 131.458 38.845 134.384 39.2067C136.818 39.5233 139.119 39.0033 140.816 36.9909L140.906 36.8778C141.107 36.6743 141.285 36.3804 141.643 36.5161C141.888 36.6065 142.067 37.0135 141.933 37.4431C141.754 37.9858 141.553 38.551 141.241 39.0259C139.074 42.2366 136.104 44.1359 132.24 44.5429C128.778 44.9047 125.785 43.9098 123.351 41.3774C122.323 40.3147 121.541 39.0937 121.005 37.7144C119.71 34.4811 119.442 31.1799 120.38 27.8109C120.983 25.6629 122.055 23.7862 123.641 22.226C125.629 20.2589 127.951 18.9023 130.699 18.4274C133.602 17.93 136.282 18.45 138.628 20.3493C140.437 21.819 141.33 23.7636 141.397 26.1151C141.419 26.8839 141.017 27.3813 140.258 27.517C139.99 27.5622 139.7 27.5622 139.432 27.5622H133.848V27.517L133.87 27.4717ZM130.006 25.8212C131.145 25.7307 132.15 25.6855 133.156 25.5724C134.674 25.4142 135.21 24.7585 135.166 23.2435V22.9722C134.898 20.1685 132.173 18.857 129.917 20.4624C128.421 21.5251 127.594 23.0626 127.281 24.8715C127.17 25.5046 127.415 25.7759 128.063 25.7985C128.756 25.7985 129.448 25.7985 130.006 25.7985V25.8212Z" fill="#000000"/>
<path d="M34.0111 59.466C34.0557 59.986 34.0781 60.4156 34.1004 60.9357C35.3288 60.28 36.4679 59.6468 37.875 60.0765C39.2598 60.5061 39.9745 61.5914 40.4882 62.948C41.1135 61.7723 42.1186 61.0939 43.1684 60.4834C43.9724 60.0086 44.8211 59.7599 45.7369 60.0765C46.8759 60.4382 47.5683 61.1844 47.747 62.4054C47.814 62.8802 47.8363 63.3776 47.8363 63.8525C47.8363 64.8473 47.8363 65.8648 47.8363 66.8597C47.8363 67.4928 47.948 67.5832 48.4841 67.7641C48.7744 67.425 48.3947 66.8597 48.9307 66.5205L49.3551 67.0858C49.7571 67.5606 50.1368 68.0581 50.5612 68.4877C50.8515 68.7816 51.2759 68.9173 51.7003 68.8721C52.1693 68.8042 52.5267 68.5555 52.683 68.1033C52.8393 67.6737 52.75 67.2667 52.415 66.9501C52.1023 66.6562 51.7226 66.4075 51.3652 66.1588C50.8515 65.7744 50.3155 65.4126 49.8465 64.9604C49.0424 64.1916 48.6851 63.242 48.9531 62.1114C49.1541 61.32 49.6455 60.7548 50.3602 60.393C51.7003 59.7373 53.085 59.873 54.4698 60.2573C54.6708 60.3026 54.8048 60.5965 55.0505 60.8452C55.9662 60.1217 56.9266 59.3529 57.8647 58.5841C58.0434 58.4485 58.2444 58.2224 58.4677 58.4033C58.6241 58.5163 58.7134 58.7876 58.7358 58.9911C58.7804 59.3529 58.7358 59.7373 58.7358 60.1669C59.0708 60.1669 59.3165 60.2121 59.5845 60.2121C59.9195 60.2121 60.2769 60.2121 60.6119 60.2121C61.2373 60.2121 61.3489 60.3252 61.3713 60.9131C61.3936 61.5235 61.2819 61.6592 60.6566 61.6592C60.2545 61.6592 59.8748 61.6366 59.4728 61.614C59.2495 61.614 59.0261 61.614 58.7804 61.614C58.7581 61.8853 58.7134 62.0662 58.7134 62.2245C58.7134 63.5585 58.7134 64.8699 58.7358 66.204C58.7358 66.4753 58.7358 66.7692 58.8251 67.018C59.0261 67.7641 59.9865 68.1711 60.6119 67.7867L60.8129 67.4024C60.8129 66.3849 61.3713 65.8648 62.2423 65.5935C63.0911 65.3222 63.9621 65.0734 64.8108 64.8021C65.3692 64.6212 65.4139 64.6212 65.3915 64.0333C65.3915 63.2872 65.3469 62.541 65.2352 61.8175C65.1682 61.3879 64.8778 61.0035 64.3865 60.9131C63.8058 60.8 63.5154 60.9809 63.3814 61.5462V61.614C63.2697 61.9532 63.2921 62.428 63.0911 62.5636C62.5774 62.9254 61.9743 63.1967 61.3713 63.4229C61.0139 63.5585 60.7682 63.242 60.8799 62.8576L61.1703 62.2923C62.0637 61.2522 63.1134 60.4382 64.4311 60.0312C66.2626 59.4886 67.9601 60.7096 68.0717 62.6541C68.1387 63.8525 68.0717 65.0734 68.0941 66.2718C68.0941 66.5205 68.0941 66.7919 68.1387 67.0406C68.2504 67.6058 68.4961 67.7867 69.0545 67.7415C69.2331 67.7415 69.4118 67.6963 69.6575 67.6737V68.1485C69.5682 68.3746 69.4565 68.6233 69.3001 68.8042C68.3397 69.8895 66.4413 69.8443 65.5479 68.6912L65.3022 68.3972C65.0789 68.5329 64.9002 68.6459 64.6992 68.7816C64.4311 68.9625 64.1631 69.1434 63.8728 69.3017C62.8677 69.8217 62.1083 69.686 61.3266 68.8721L61.1703 68.6007C60.5002 69.0982 59.8302 69.4147 59.0931 69.5278C58.5124 69.6182 57.9317 69.573 57.3957 69.3921C56.5246 69.0982 55.9439 68.4877 55.8546 67.538C55.7876 66.9275 55.8099 66.3396 55.8099 65.7292C55.8099 64.6664 55.8546 63.5811 55.8546 62.5184C55.8546 61.6592 56.0556 61.614 54.9165 61.3879C54.6931 61.7723 55.0505 62.3375 54.5368 62.6315C54.2018 62.6089 54.1124 62.3149 54.0008 62.0888C53.7327 61.5914 53.4201 61.1392 52.9287 60.8226C52.348 60.4382 51.8566 60.5061 51.4546 60.9583C51.0972 61.3879 51.0972 62.021 51.5439 62.4732C51.8343 62.7671 52.1693 63.0159 52.5043 63.242C53.0627 63.649 53.6657 64.0107 54.2018 64.4177C54.8048 64.8926 55.1845 65.5257 55.2292 66.317C55.3185 67.6058 54.6708 68.5103 53.6211 69.0077C52.0576 69.7313 50.4272 69.8217 48.7744 69.0077C48.1937 69.3921 47.5013 69.6408 46.7419 69.5956C45.9379 69.5504 45.3572 69.166 44.9551 68.3746C44.6871 68.5555 44.4638 68.7364 44.1958 68.8721C43.7491 69.1208 43.3247 69.3921 42.8557 69.5278C41.8953 69.8217 40.9125 69.2112 40.5775 68.2163C40.1978 67.1084 40.5105 66.1814 41.5156 65.7744C42.342 65.4352 43.213 65.1865 44.0618 64.9378C45.0222 64.6438 45.0221 64.6438 45.0668 63.6037C45.0892 62.948 45.0668 62.2923 44.8211 61.6818C44.6648 61.2748 44.3968 60.9809 43.9277 60.8904C43.4364 60.8226 43.146 61.0035 43.012 61.5009V61.6366C43.1013 62.4958 42.543 62.835 41.8953 63.0837C41.4486 63.2646 41.0689 63.5811 40.5775 63.4455C40.5105 64.1464 40.5552 64.8021 40.3988 65.4126C39.8628 67.6963 38.3217 69.0755 35.7755 69.4599C35.3735 69.5278 34.9491 69.5278 34.5471 69.5504C34.0781 69.573 34.0111 69.5956 33.9887 70.0704C33.9887 70.9975 33.9887 71.9245 34.0111 72.8516C34.0334 73.5299 34.3237 74.0499 35.0608 74.2082C35.3065 74.2534 35.5298 74.4343 35.7755 74.57C35.5745 74.9996 35.2395 74.977 34.9715 74.977C33.3857 74.977 31.7999 74.9317 30.2141 74.9091H30.0131L29.6558 74.6152L29.9238 74.2534H29.9908C30.8842 74.0951 31.0405 73.4394 31.0405 72.6933C31.0405 69.3469 31.0405 66.0005 31.0852 62.6315C31.0852 62.2471 30.9512 61.9532 30.7055 61.7044L30.3705 61.3653C30.1248 61.0713 30.1695 60.8904 30.5268 60.7322L30.9288 60.5965C31.7329 60.3704 32.5146 60.0991 33.2293 59.6695C33.4304 59.5564 33.676 59.5338 33.9887 59.4207H34.0111V59.466ZM37.6963 65.4804C37.6516 64.4403 37.4506 63.4681 36.9369 62.5863C36.4456 61.7723 35.7308 61.4105 34.7928 61.4783C34.2567 61.5235 34.0557 61.6592 34.0781 62.2019C34.0781 63.7846 34.1451 65.3674 34.2344 66.9501C34.2791 67.7867 34.8375 68.2842 35.5522 68.6007C36.1329 68.8721 36.5126 68.759 36.8699 68.2616C37.0486 68.0128 37.2273 67.6963 37.3166 67.4024C37.473 66.7919 37.5846 66.1361 37.6963 65.503V65.4804ZM65.4809 65.3674C64.8332 65.3674 64.3865 65.5257 64.0068 65.8196C63.5824 66.1588 63.4484 66.7466 63.6048 67.2667C63.7388 67.6963 64.1855 68.0355 64.6322 68.0355C65.0342 68.0355 65.2575 67.8998 65.3022 67.4928C65.3915 66.8145 65.4139 66.1361 65.4809 65.3448V65.3674ZM44.9998 65.4126C44.4191 65.4352 44.0171 65.5483 43.7044 65.797C42.945 66.3623 43.012 67.5154 43.8161 67.945C44.3968 68.2616 44.9105 68.0581 44.9775 67.4024C45.0445 66.7466 44.9775 66.0683 44.9775 65.4126H44.9998Z" fill="#000000"/>
<path d="M103.316 61.1841C103.606 61.0259 103.785 60.8676 104.008 60.7771C104.834 60.438 105.683 60.144 106.51 59.8275C107.068 59.6014 107.291 59.737 107.247 60.3701C107.247 60.6415 107.202 60.9354 107.202 61.2067L107.247 61.4102L107.649 61.0485C108.051 60.7319 108.408 60.3701 108.855 60.144C109.167 59.9858 109.569 59.9405 109.927 59.9858C110.865 60.0762 111.267 60.845 110.91 61.7042C110.798 61.9755 110.597 62.2242 110.396 62.4277C109.927 62.8799 109.659 62.8799 109.123 62.5182C108.899 62.3599 108.676 62.179 108.43 62.0886C107.738 61.7946 107.314 62.066 107.247 62.8121C107.224 63.2417 107.224 63.6939 107.247 64.1462C107.269 65.1862 107.336 66.2263 107.381 67.2891C107.403 67.99 107.738 68.4196 108.386 68.6231L108.832 68.7814L109.123 69.1205L108.698 69.3919H108.296C106.688 69.3919 105.08 69.3919 103.472 69.3919L102.936 69.4823C101.708 69.8215 100.658 69.731 99.9208 68.4196C99.6751 68.6005 99.4518 68.7587 99.2061 68.8944C98.8041 69.1205 98.4244 69.3919 98 69.5275C97.0843 69.8441 96.1909 69.4597 95.7218 68.6005C95.0295 67.3569 95.4538 66.1585 96.7716 65.6611C97.4863 65.3897 98.2233 65.2089 98.9381 64.9827C100.144 64.621 100.01 64.7793 100.01 63.513C100.01 62.9252 99.9208 62.3147 99.8091 61.7268C99.7198 61.2972 99.4294 61.0033 98.9604 60.9128C98.4244 60.8224 98.0223 61.0032 98.0223 61.5459C98.0223 62.5408 97.4193 62.9252 96.6599 63.1965C96.3249 63.3096 95.9899 63.4452 95.6102 63.5583C95.6102 63.92 95.6548 64.3496 95.6102 64.7793C95.3868 67.1534 93.7787 68.9396 91.4559 69.4597C90.1605 69.7536 88.8874 69.5954 87.6366 69.2788C87.1899 69.1657 86.5199 69.1657 86.2295 69.211C86.1625 68.8492 86.0955 68.7814 86.0955 68.5553C86.0955 67.583 86.0955 66.5881 86.0955 65.6159C86.0955 62.8347 86.0955 60.031 86.0955 57.2272C86.0955 57.0011 86.0955 56.7524 86.0955 56.5263C86.0955 55.8254 85.9168 55.2375 85.2691 54.8757L85.0234 54.6496C85.0234 54.3331 85.2691 54.2426 85.4701 54.1748C86.5645 53.8808 87.6366 53.5869 88.731 53.293H88.932C89.2224 53.5417 89.1777 53.8808 89.1777 54.1974C89.1554 55.961 89.1107 57.7247 89.0661 59.4883C89.0661 59.737 89.0661 59.9858 89.0661 60.3023C89.3564 60.2345 89.5351 60.2119 89.6914 60.144C91.9249 59.2622 94.5604 60.3701 95.3198 62.6991L95.4092 62.8573C96.0345 61.5911 97.1513 60.8676 98.3127 60.2571C99.7421 59.4883 101.261 59.8275 102.154 61.0259C102.534 61.5233 102.69 62.1112 102.713 62.7217C102.713 63.4 102.713 64.0783 102.713 64.7566C102.713 65.3897 102.713 66.0228 102.713 66.6333C102.735 67.5604 103.025 67.7865 103.919 67.6734C104.075 67.6508 104.231 67.6508 104.432 67.6282V65.2767C104.432 64.5758 104.388 63.8748 104.432 63.1739C104.455 62.4956 104.276 61.9529 103.718 61.5233C103.606 61.4555 103.539 61.3198 103.36 61.0937L103.316 61.1841ZM88.9097 63.9653C88.9767 64.9601 89.0214 65.955 89.1107 66.9499C89.1777 67.5604 89.4681 68.103 89.9148 68.5326C90.4731 69.0527 91.2102 68.9849 91.6346 68.3518C91.7909 68.103 91.9249 67.8317 92.0143 67.5378C92.3046 66.5429 92.4163 65.5254 92.3269 64.5079C92.2376 63.6487 92.0366 62.8121 91.5452 62.066C91.1879 61.5007 90.6965 61.0937 90.0041 61.0032C89.2894 60.9128 89.0214 61.1163 88.999 61.8625C88.9767 62.5634 88.9097 63.2643 88.9097 63.9653ZM99.8985 65.4124C99.2061 65.4576 98.8041 65.5932 98.4914 65.842C98.0893 66.1811 97.933 66.769 98.1117 67.2891C98.268 67.7187 98.6924 68.0578 99.1614 68.0578C99.4964 68.0578 99.7645 67.9222 99.8091 67.583C99.9208 66.8821 100.01 66.1811 99.8985 65.4124Z" fill="#000000"/>
<path d="M82.3213 67.8777C82.5224 68.2395 82.3437 68.443 82.1873 68.6239C81.763 69.1213 81.1823 69.37 80.5569 69.4605C80.3335 69.5057 80.1102 69.5057 79.8645 69.5283C78.9711 69.5735 78.1671 69.37 77.698 68.5108L77.296 68.036C76.894 68.3978 76.559 68.7369 76.1793 69.0309C75.2412 69.7318 74.2361 69.8223 73.1864 69.3248C72.159 68.85 71.4889 67.6742 71.5783 66.5437C71.6229 65.7749 72.0696 65.2097 72.6504 64.7574C72.963 64.5087 73.3204 64.2826 73.6778 64.0113C73.4991 63.7626 73.3427 63.5365 73.2087 63.3104C72.5834 62.3381 72.7397 61.1171 73.5661 60.3257C74.4148 59.5344 75.7996 59.3987 76.693 60.0544C77.7874 60.8684 77.7874 62.225 76.6706 63.0164C76.5143 63.1295 76.3803 63.2199 76.1569 63.3782C76.961 64.2374 77.7427 65.074 78.5691 65.9332C79.2391 65.187 79.7975 64.3957 80.1772 63.4686C79.8422 63.3104 79.5742 63.1747 79.2391 62.9938L79.5742 62.7677C80.6239 62.7677 81.6736 62.4964 82.7457 62.519C82.7457 62.9034 82.5 62.926 82.3213 62.9938C81.562 63.2425 81.0036 63.74 80.5346 64.3504C80.0209 65.0288 79.4625 65.6845 78.9264 66.3628C79.3508 66.9733 79.7305 67.5838 80.4005 67.9456C81.0483 68.2847 81.7183 68.1491 82.366 67.9003L82.3213 67.8777ZM74.0574 64.3504C73.1417 65.2323 73.5214 67.0864 74.2808 67.6968C75.1519 68.3978 76.2463 68.3299 76.9163 67.4933C76.1123 66.3176 75.1295 65.3001 74.0351 64.3504H74.0574ZM75.7549 63.1069C76.3133 62.3155 76.3133 61.5467 75.9559 60.7553C75.7326 60.2579 75.3305 60.0318 74.9285 60.1448C74.5711 60.2353 74.3031 60.6197 74.3031 61.1171C74.3031 61.411 74.3701 61.7276 74.4818 61.9763C74.7275 62.4964 75.1295 62.8355 75.7326 63.1069H75.7549Z" fill="#000000"/>
</g>
</g>
<path d="M43.7503 90V78.8H44.7903L49.4303 84.88L54.0703 78.8H55.1103V90H53.9103V80.88L49.4303 86.8L44.9503 80.88V90H43.7503ZM64.1971 89.008C63.4397 89.776 62.5171 90.16 61.4291 90.16C60.3411 90.16 59.4131 89.776 58.6451 89.008C57.8877 88.2293 57.5091 87.28 57.5091 86.16C57.5091 85.04 57.8877 84.096 58.6451 83.328C59.4131 82.5493 60.3411 82.16 61.4291 82.16C62.5171 82.16 63.4397 82.5493 64.1971 83.328C64.9651 84.096 65.3491 85.04 65.3491 86.16C65.3491 87.28 64.9651 88.2293 64.1971 89.008ZM59.4451 88.256C59.9997 88.832 60.6611 89.12 61.4291 89.12C62.1971 89.12 62.8531 88.8373 63.3971 88.272C63.9517 87.696 64.2291 86.992 64.2291 86.16C64.2291 85.328 63.9517 84.6293 63.3971 84.064C62.8531 83.488 62.1971 83.2 61.4291 83.2C60.6611 83.2 59.9997 83.488 59.4451 84.064C58.9011 84.6293 58.6291 85.328 58.6291 86.16C58.6291 86.9813 58.9011 87.68 59.4451 88.256ZM73.0303 87.84L73.8303 88.56C73.617 88.8267 73.3343 89.0933 72.9823 89.36C72.2356 89.8933 71.4516 90.16 70.6303 90.16C69.5743 90.16 68.6676 89.7707 67.9103 88.992C67.1636 88.2133 66.7903 87.2693 66.7903 86.16C66.7903 85.0507 67.1636 84.1067 67.9103 83.328C68.6676 82.5493 69.5743 82.16 70.6303 82.16C71.4623 82.16 72.2303 82.416 72.9343 82.928C73.2223 83.1413 73.4943 83.392 73.7503 83.68L72.9503 84.48C72.7796 84.2453 72.5823 84.032 72.3583 83.84C71.8463 83.4133 71.2703 83.2 70.6303 83.2C69.8943 83.2 69.2543 83.488 68.7103 84.064C68.177 84.6293 67.9103 85.328 67.9103 86.16C67.9103 86.992 68.177 87.696 68.7103 88.272C69.2543 88.8373 69.8943 89.12 70.6303 89.12C71.2383 89.12 71.8303 88.9067 72.4063 88.48C72.6516 88.2773 72.8596 88.064 73.0303 87.84ZM75.5847 90V82.32H76.7047V86.4L80.5447 82.32H81.9047L78.9447 85.44L82.2247 90H80.9447L78.2247 86.24L76.7047 87.84V90H75.5847ZM83.6628 90V82.32H87.1828C87.8975 82.32 88.4628 82.5067 88.8788 82.88C89.2948 83.2533 89.5028 83.7333 89.5028 84.32C89.5028 84.7893 89.3428 85.1947 89.0228 85.536C88.8841 85.6747 88.7241 85.8027 88.5428 85.92C88.7881 86.0053 89.0015 86.1227 89.1828 86.272C89.6095 86.6347 89.8228 87.1307 89.8228 87.76C89.8228 88.4533 89.6041 89.0027 89.1668 89.408C88.7401 89.8027 88.1321 90 87.3428 90H83.6628ZM84.7828 85.44H87.1828C87.9828 85.44 88.3828 85.0933 88.3828 84.4C88.3828 83.7067 87.9828 83.36 87.1828 83.36H84.7828V85.44ZM84.7828 88.96H87.3428C88.2495 88.96 88.7028 88.5333 88.7028 87.68C88.7028 86.8267 88.2495 86.4 87.3428 86.4H84.7828V88.96ZM96.5372 90V88.96C96.3772 89.184 96.1745 89.3867 95.9292 89.568C95.3639 89.9627 94.7399 90.16 94.0572 90.16C93.2785 90.16 92.6279 89.936 92.1052 89.488C91.5932 89.0293 91.3372 88.5067 91.3372 87.92C91.3372 86.6187 92.0839 85.8453 93.5772 85.6L96.5372 85.12C96.5372 84.5547 96.3559 84.096 95.9932 83.744C95.6412 83.3813 95.1825 83.2 94.6172 83.2C94.0625 83.2 93.5345 83.3867 93.0332 83.76C92.7985 83.9627 92.6065 84.1493 92.4572 84.32L91.7372 83.6C91.9399 83.3333 92.1905 83.0933 92.4892 82.88C93.1399 82.4 93.8492 82.16 94.6172 82.16C95.4919 82.16 96.2172 82.4427 96.7932 83.008C97.3692 83.5733 97.6572 84.2773 97.6572 85.12V90H96.5372ZM96.5372 86.56V86.08L93.8972 86.56C92.9372 86.7307 92.4572 87.184 92.4572 87.92C92.4572 88.2613 92.5959 88.5493 92.8732 88.784C93.1612 89.008 93.5559 89.12 94.0572 89.12C94.7932 89.12 95.3905 88.8853 95.8492 88.416C96.3079 87.9467 96.5372 87.328 96.5372 86.56Z" fill="#000000"/>
<defs>
<clipPath id="clip0_1112_11456">
<rect width="141" height="75" fill="#000000"/>
</clipPath>
</defs>
</svg>
