<svg width="142" height="72" viewBox="0 4 142 72" fill="none" xmlns="http://www.w3.org/2000/svg">
<g clip-path="url(#clip0_1112_11456)">
<mask id="mask0_1112_11456" style="mask-type:luminance" maskUnits="userSpaceOnUse" x="0" y="4" width="141" height="75">
<path d="M0.98877 4.47363H140.535V78.7005H0.98877V4.47363Z" fill="white"/>
</mask>
<g mask="url(#mask0_1112_11456)">
<path d="M17.1258 7.87598C18.4963 7.98787 20.5299 8.14451 22.5635 8.32353C22.7846 8.32353 23.0277 8.34591 23.2488 8.36829C23.9782 8.39066 24.4866 8.83822 24.5529 9.59906C24.7961 11.7026 25.0171 13.8061 25.194 15.9096C25.2382 16.29 25.194 16.6928 25.0835 17.0732C24.9508 17.5655 24.5751 17.6774 24.1993 17.3194C23.8677 16.9613 23.6246 16.5138 23.4035 16.0662C22.9835 15.2382 22.6962 14.3655 22.232 13.5823C21.0825 11.6354 19.3805 10.3823 17.17 9.91235C16.3521 9.73333 15.49 9.64382 14.6722 9.66619C11.7102 9.73333 9.16812 12.7991 9.45548 15.7753C9.63232 17.6774 10.4944 19.2215 11.7765 20.5641C12.8596 21.7054 14.1196 22.69 15.4016 23.5851C16.5732 24.4131 17.7889 25.1963 18.9605 26.0243C20.7288 27.2998 22.3867 28.7096 23.7572 30.4103C24.9729 31.8873 25.9234 33.4985 26.2992 35.3782C27.1171 39.4286 25.835 42.7628 22.873 45.5153C21.1709 47.1041 19.071 47.9097 16.8384 48.3797C12.108 49.3867 7.53238 48.7825 3.04514 47.1265C2.33779 46.858 2.09464 46.2761 1.98411 45.6496C1.63044 43.7475 1.32097 41.8454 1.03361 39.9209C0.945195 39.3614 0.9673 38.7796 0.9673 38.1978C0.9673 37.9516 1.03361 37.6831 1.14414 37.4593C1.34308 37.0565 1.78517 36.967 2.11674 37.2803C2.4041 37.5712 2.64725 37.9069 2.84619 38.2873C3.57565 39.6747 4.3051 41.0621 4.99034 42.4496C5.85242 44.1503 7.11239 45.4258 8.88076 46.1643C10.406 46.7908 11.9754 47.0817 13.6112 46.8132C13.8101 46.7908 14.009 46.7237 14.208 46.6566C16.6616 45.8957 18.651 43.1656 18.6068 40.6593C18.6068 39.6747 18.2752 38.7572 17.8331 37.8845C17.1258 36.5195 16.1532 35.3558 15.0037 34.3712C14.009 33.5208 12.9701 32.7376 11.9091 31.9768C10.1407 30.7236 8.37235 29.4705 6.78082 27.9712C5.7419 27.0089 4.7914 25.9348 4.03984 24.7264C2.80198 22.7124 2.4041 20.5418 2.53673 18.1921C2.82409 13.4257 6.31662 9.71095 10.8039 8.52493C12.6385 8.055 14.5174 7.87598 17.1037 7.87598H17.1258Z" fill="white"/>
<path d="M100.528 25.9786C100.948 25.6653 101.235 25.4415 101.522 25.2401C103.003 24.166 104.573 23.2261 106.385 22.8009C109.37 22.152 111.934 22.8009 113.923 25.2625C114.785 26.3366 115.183 27.6121 115.382 28.9324C115.581 30.2303 115.714 31.5282 115.78 32.8485C115.89 35.1534 115.89 37.4583 115.957 39.7632C115.979 41.0388 116.023 42.2919 116.089 43.5674C116.156 45.0891 116.775 45.8276 118.189 46.2528C118.477 46.3423 118.764 46.4094 119.007 46.5661C119.516 46.857 119.516 47.4388 119.007 47.7297C118.72 47.8863 118.366 47.9759 118.035 47.9759C117.084 47.9759 116.112 47.9759 115.161 47.9311C112.906 47.7968 110.674 47.7297 108.419 47.9311C107.8 47.9982 107.181 47.9759 106.584 47.9759C105.943 47.9759 105.501 47.6849 105.413 47.3045C105.347 46.9912 105.678 46.6108 106.275 46.3647L106.452 46.2752C107.668 46.029 108.11 45.1563 108.22 44.0374C108.264 43.4779 108.331 42.9409 108.331 42.3814C108.331 39.3604 108.353 36.3394 108.331 33.3408C108.331 31.9982 108.198 30.6779 107.8 29.38C107.358 27.9254 106.474 26.8513 104.949 26.4932C103.711 26.2247 102.495 26.3814 101.39 27.0303C100.837 27.3436 100.572 27.8583 100.506 28.5072V28.6415C100.506 32.9157 100.506 37.2122 100.528 41.4863C100.528 42.4262 100.682 43.366 100.793 44.3059C100.881 45.1115 101.301 45.671 102.031 45.9842C102.274 46.0738 102.495 46.1633 102.738 46.2528L103.225 46.4766C103.512 46.6332 103.755 46.8794 103.689 47.2374C103.645 47.5731 103.379 47.7521 103.07 47.7968C102.694 47.864 102.296 47.9311 101.92 47.9087C100.572 47.8863 99.2457 47.7745 97.8973 47.7745C96.151 47.7745 94.3827 47.8416 92.6364 47.8863C91.9291 47.8863 91.2217 47.9535 90.5144 47.9087C90.1828 47.9087 89.8291 47.7745 89.5639 47.6178C89.1218 47.3717 89.0997 46.9912 89.4976 46.678C89.7407 46.4766 90.0281 46.3423 90.3154 46.208C90.6912 46.0514 91.0891 45.9171 91.4649 45.7605C92.0617 45.5143 92.4596 45.0891 92.5259 44.4178C92.6143 43.5674 92.7248 42.7171 92.7469 41.8667C92.8132 37.7492 92.8575 33.6317 92.9238 29.4919C92.9238 28.9772 92.8132 28.5296 92.5038 28.1268C92.1501 27.6569 91.7522 27.2093 91.3764 26.7394C91.1996 26.5156 91.0007 26.3366 90.8238 26.1128C90.4038 25.5534 90.4701 25.1058 91.0891 24.7478C91.3322 24.6135 91.6417 24.524 91.907 24.4345C93.6532 23.9198 95.3995 23.4275 97.1458 22.8904C97.8089 22.689 98.4499 22.331 99.1131 22.1072C100.24 21.7044 100.55 21.9729 100.506 23.1813C100.484 23.8527 100.461 24.524 100.439 25.1953C100.439 25.3744 100.461 25.5534 100.484 25.889L100.528 25.9786Z" fill="white"/>
<path d="M64.6071 35.5565C64.7176 31.5062 66.2649 28.2614 69.3154 25.8222C71.8132 23.8306 74.6647 22.667 77.8477 22.5327C83.9707 22.2418 90.2705 26.1579 91.4642 33.4307C92.5252 39.8978 88.5022 45.358 83.9928 47.3048C79.0414 49.4531 74.2447 49.0951 69.8017 45.9846C66.9059 43.9706 65.3365 41.0167 64.7839 37.5258C64.6734 36.8544 64.6513 36.1607 64.585 35.5565H64.6071ZM83.3297 36.8768C83.3297 35.0866 83.0202 32.446 82.6444 30.8348C82.2908 29.3355 81.8487 27.8586 81.0529 26.5159C80.6771 25.8894 80.2129 25.3075 79.594 24.8824C78.2235 23.9649 76.8751 23.9425 75.6594 25.039C75.2173 25.4194 74.8194 25.9117 74.5763 26.4264C74.2226 27.1649 73.9131 27.9481 73.7363 28.7537C72.9405 32.3565 72.9847 35.9817 73.67 39.5845C74.0015 41.2852 74.5542 42.9188 75.4825 44.3957C75.9689 45.179 76.5657 45.8727 77.3614 46.365C78.8203 47.2825 80.3456 46.9692 81.2961 45.537C81.694 44.9104 82.0255 44.2167 82.2687 43.5006C83.0423 41.3076 83.2634 39.0251 83.3297 36.8768Z" fill="white"/>
<path d="M61.313 23.4061C61.3793 28.8216 61.4014 33.5433 61.4898 38.2426C61.5119 39.9433 61.6224 41.644 61.7108 43.3447C61.7772 44.5531 62.3519 45.4258 63.4571 45.9181C63.8108 46.0748 64.1866 46.1867 64.5181 46.3657C64.7171 46.4552 64.9381 46.5671 65.0928 46.7461C65.4023 47.0818 65.336 47.5293 64.9381 47.7084C64.5844 47.865 64.1866 47.9545 63.8108 47.9321C62.2192 47.9098 60.6277 47.7755 59.0362 47.7755C57.1131 47.7755 55.1679 47.865 53.2448 47.9098C52.4932 47.9098 51.7417 47.9545 50.9901 47.9321C50.769 47.9321 50.5259 47.8874 50.327 47.8202C49.7743 47.6188 49.6638 47.0818 50.128 46.7014C50.3712 46.5 50.6806 46.3881 50.968 46.2538C51.2996 46.1195 51.6753 46.03 52.0069 45.8958C52.8027 45.5825 53.3332 45.023 53.51 44.1503C53.6205 43.5909 53.7311 43.009 53.7532 42.4496C54.0184 33.9013 54.0405 25.353 53.8637 16.8047C53.8416 15.2159 53.709 13.6271 53.6205 12.0383C53.5763 11.1879 53.2669 10.4718 52.67 9.89C52.2058 9.44245 51.7416 9.01727 51.2775 8.54734C50.7469 8.01027 50.769 7.65223 51.3659 7.20467C51.5427 7.07041 51.7638 6.95852 51.9627 6.89139C54.4605 6.13054 56.9583 5.3697 59.4783 4.63124C59.8983 4.49697 60.3182 4.45221 60.7603 4.40746C61.2245 4.3627 61.3793 4.47459 61.4677 4.9669C61.534 5.3697 61.5561 5.79488 61.5561 6.19768C61.4898 12.1502 61.4014 18.0803 61.3351 23.339L61.313 23.4061Z" fill="white"/>
<path d="M46.3485 36.0042C46.3485 37.5259 46.3485 39.0476 46.3485 40.5693C46.3485 41.1063 46.3706 41.6882 46.5032 42.2029C46.8127 43.5231 47.7411 44.105 49.0673 43.8364C49.3989 43.7693 49.7084 43.635 50.0399 43.5231C50.4378 43.3889 50.6589 43.5231 50.7252 43.9259C50.7694 44.1721 50.7252 44.4406 50.6589 44.6644C50.3494 45.8057 49.6642 46.6784 48.7137 47.3274C47.9621 47.842 47.1442 48.1777 46.2822 48.3567C45.2211 48.5581 44.1822 48.6924 43.0991 48.5358C41.4412 48.2672 40.2255 47.4169 39.4297 45.9623C39.0539 45.291 39.1203 45.0001 38.1919 45.6938C37.374 46.2756 36.5561 46.8574 35.694 47.3945C34.7656 47.9987 33.7709 48.3791 32.6657 48.5581C31.0963 48.7819 29.77 48.312 28.6648 47.2378C26.9627 45.5819 26.4764 43.5008 26.9848 41.2182C27.2501 40.0098 28.0458 39.1371 29.129 38.5777C29.8363 38.2196 30.5879 37.9287 31.3394 37.6826C33.6162 36.9665 35.9151 36.2951 38.1919 35.6014C39.0981 35.3329 39.2087 35.221 39.2087 34.2588C39.2308 32.7371 39.2971 31.2154 39.2308 29.6937C39.1866 28.5301 38.8992 27.4112 38.3024 26.4042C37.6613 25.3077 36.6887 24.8154 35.4509 24.9049C34.3899 24.972 33.8151 25.4196 33.5941 26.4937C33.4615 27.1426 33.3509 27.814 33.3509 28.4853C33.3509 29.2238 33.0415 29.7161 32.4004 30.007C31.0963 30.6336 29.8142 31.2378 28.51 31.8643C28.09 32.0657 27.6922 32.0881 27.2722 31.8643C26.9185 31.6853 26.7195 31.4168 26.8301 31.0364C26.9627 30.5217 27.0953 29.9399 27.3827 29.5147C27.8911 28.7762 28.4658 28.0825 29.1069 27.4783C30.6321 26.0238 32.3562 24.8825 34.1467 23.8307C35.4509 23.0699 36.8435 22.6 38.3466 22.5552C42.1928 22.4433 45.4201 25.0615 46.1053 28.5972C46.2822 29.4923 46.3485 30.4322 46.3927 31.3273C46.4369 32.8937 46.3927 34.4602 46.3927 36.0266H46.3264L46.3485 36.0042ZM38.9876 36.8993C38.2361 37.0784 37.5066 37.2126 36.8214 37.4588C36.2466 37.6602 35.6719 37.9063 35.1856 38.2644C33.9257 39.1595 33.5941 40.4798 33.8593 41.9343C34.1025 43.277 34.9646 44.1497 36.2466 44.5078C37.595 44.8882 38.6782 44.4406 38.8771 42.8966C39.1424 41.0168 39.1203 39.1371 39.0981 37.2574L38.9655 36.8993H38.9876Z" fill="white"/>
<path d="M132.49 31.6638C130.921 31.619 129.351 31.5743 127.782 31.5295C127.318 31.5295 126.875 31.5072 126.411 31.5295C125.947 31.5295 125.792 31.6638 125.748 32.1337C125.682 32.9169 125.638 33.7002 125.66 34.4834C125.704 35.9603 125.991 37.3701 126.677 38.668C128.025 41.2638 130.103 42.9198 132.998 43.2778C135.408 43.5911 137.685 43.0764 139.365 41.0848L139.453 40.9729C139.652 40.7715 139.829 40.4806 140.182 40.6149C140.426 40.7044 140.602 41.1072 140.47 41.5324C140.293 42.0694 140.094 42.6289 139.785 43.0988C137.64 46.2765 134.701 48.1562 130.876 48.559C127.45 48.917 124.488 47.9324 122.079 45.4261C121.062 44.3743 120.288 43.1659 119.758 41.8009C118.476 38.6009 118.21 35.3337 119.139 31.9995C119.736 29.8736 120.797 28.0162 122.366 26.4722C124.333 24.5253 126.632 23.1826 129.351 22.7127C132.225 22.2204 134.877 22.7351 137.198 24.6148C138.989 26.0694 139.873 27.9939 139.939 30.3211C139.961 31.082 139.564 31.5743 138.812 31.7086C138.547 31.7533 138.259 31.7533 137.994 31.7533H132.468V31.7086L132.49 31.6638ZM128.666 30.0302C129.793 29.9407 130.788 29.896 131.783 29.7841C133.286 29.6274 133.816 28.9785 133.772 27.4792V27.2106C133.507 24.4358 130.81 23.1379 128.578 24.7267C127.097 25.7785 126.279 27.3001 125.969 29.0904C125.859 29.7169 126.102 29.9855 126.743 30.0078C127.428 30.0078 128.113 30.0078 128.666 30.0078V30.0302Z" fill="white"/>
</g>
</g>
<path d="M44.4168 71.667V61.0503H45.4027L49.801 66.8137L54.1993 61.0503H55.1852V71.667H54.0477V63.022L49.801 68.6337L45.5543 63.022V71.667H44.4168ZM63.7986 70.7267C63.0807 71.4547 62.2061 71.8187 61.1748 71.8187C60.1435 71.8187 59.2638 71.4547 58.5358 70.7267C57.8179 69.9885 57.459 69.0887 57.459 68.027C57.459 66.9653 57.8179 66.0705 58.5358 65.3425C59.2638 64.6044 60.1435 64.2353 61.1748 64.2353C62.2061 64.2353 63.0807 64.6044 63.7986 65.3425C64.5266 66.0705 64.8906 66.9653 64.8906 68.027C64.8906 69.0887 64.5266 69.9885 63.7986 70.7267ZM59.2941 70.0138C59.8199 70.5598 60.4468 70.8328 61.1748 70.8328C61.9028 70.8328 62.5246 70.5649 63.0403 70.029C63.5661 69.483 63.829 68.8157 63.829 68.027C63.829 67.2383 63.5661 66.576 63.0403 66.0402C62.5246 65.4942 61.9028 65.2212 61.1748 65.2212C60.4468 65.2212 59.8199 65.4942 59.2941 66.0402C58.7785 66.576 58.5206 67.2383 58.5206 68.027C58.5206 68.8055 58.7785 69.4678 59.2941 70.0138ZM72.1718 69.6195L72.9302 70.302C72.7279 70.5548 72.46 70.8075 72.1263 71.0603C71.4185 71.5659 70.6754 71.8187 69.8968 71.8187C68.8958 71.8187 68.0364 71.4496 67.3185 70.7115C66.6107 69.9734 66.2568 69.0785 66.2568 68.027C66.2568 66.9754 66.6107 66.0806 67.3185 65.3425C68.0364 64.6044 68.8958 64.2353 69.8968 64.2353C70.6855 64.2353 71.4135 64.478 72.0808 64.9633C72.3538 65.1655 72.6117 65.4032 72.8543 65.6762L72.096 66.4345C71.9342 66.212 71.7472 66.0098 71.5348 65.8278C71.0495 65.4234 70.5035 65.2212 69.8968 65.2212C69.1992 65.2212 68.5925 65.4942 68.0768 66.0402C67.5713 66.576 67.3185 67.2383 67.3185 68.027C67.3185 68.8157 67.5713 69.483 68.0768 70.029C68.5925 70.5649 69.1992 70.8328 69.8968 70.8328C70.4732 70.8328 71.0343 70.6306 71.5803 70.2262C71.8129 70.034 72.01 69.8318 72.1718 69.6195ZM74.5932 71.667V64.387H75.6548V68.2545L79.2948 64.387H80.584L77.7782 67.3445L80.8873 71.667H79.674L77.0957 68.1028L75.6548 69.6195V71.667H74.5932ZM82.2505 71.667V64.387H85.5872C86.2647 64.387 86.8006 64.5639 87.1949 64.9178C87.5892 65.2717 87.7864 65.7267 87.7864 66.2828C87.7864 66.7277 87.6347 67.1119 87.3314 67.4355C87.1999 67.5669 87.0483 67.6883 86.8764 67.7995C87.1089 67.8804 87.3112 67.9916 87.4831 68.1332C87.8875 68.4769 88.0897 68.9471 88.0897 69.5437C88.0897 70.2009 87.8824 70.7216 87.4679 71.1058C87.0634 71.4799 86.4871 71.667 85.7389 71.667H82.2505ZM83.3122 67.3445H85.5872C86.3456 67.3445 86.7247 67.0159 86.7247 66.3587C86.7247 65.7014 86.3456 65.3728 85.5872 65.3728H83.3122V67.3445ZM83.3122 70.6812H85.7389C86.5983 70.6812 87.0281 70.2767 87.0281 69.4678C87.0281 68.6589 86.5983 68.2545 85.7389 68.2545H83.3122V70.6812ZM94.4544 71.667V70.6812C94.3027 70.8935 94.1106 71.0856 93.878 71.2575C93.3422 71.6316 92.7507 71.8187 92.1035 71.8187C91.3654 71.8187 90.7487 71.6063 90.2532 71.1817C89.7679 70.7469 89.5252 70.2514 89.5252 69.6953C89.5252 68.4618 90.233 67.7287 91.6485 67.4962L94.4544 67.0412C94.4544 66.5053 94.2825 66.0705 93.9387 65.7368C93.605 65.393 93.1703 65.2212 92.6344 65.2212C92.1086 65.2212 91.6081 65.3981 91.1329 65.752C90.9104 65.9441 90.7284 66.121 90.5869 66.2828L89.9044 65.6003C90.0965 65.3475 90.3341 65.12 90.6172 64.9178C91.234 64.4628 91.9064 64.2353 92.6344 64.2353C93.4635 64.2353 94.151 64.5033 94.697 65.0392C95.243 65.575 95.516 66.2424 95.516 67.0412V71.667H94.4544ZM94.4544 68.4062V67.9512L91.9519 68.4062C91.0419 68.5679 90.5869 68.9977 90.5869 69.6953C90.5869 70.0189 90.7183 70.2919 90.9812 70.5143C91.2542 70.7267 91.6283 70.8328 92.1035 70.8328C92.8012 70.8328 93.3674 70.6104 93.8022 70.1655C94.237 69.7206 94.4544 69.1342 94.4544 68.4062Z" fill="white"/>
<defs>
<clipPath id="clip0_1112_11456">
<rect width="140" height="45.5" fill="white" transform="translate(0 5.33301)"/>
</clipPath>
</defs>
</svg>
