<svg width="190" height="150" viewBox="0 0 190 150" fill="none" xmlns="http://www.w3.org/2000/svg">
<path d="M155.125 112.679L141.479 120.918V98.4316C141.479 95.2178 138.874 92.6123 135.66 92.6123C132.447 92.6126 129.842 95.2181 129.842 98.4316V127.945L117.802 135.217V98.4316C117.802 95.2178 115.196 92.6123 111.982 92.6123C108.769 92.6125 106.163 95.218 106.163 98.4316V142.245L93.3213 150V74.9541H155.125V112.679ZM171.498 53.1953C181.695 53.1956 190 61.3408 190 71.4365C190 79.6809 183.218 86.3252 174.901 86.3252C168.09 86.325 162.529 80.8811 162.529 74.1182C162.529 71.1385 163.838 68.4719 165.912 66.6338H82.1338C84.2075 68.4719 85.5165 71.1386 85.5166 74.1182C85.5164 80.8811 79.9548 86.3251 73.1436 86.3252C64.8269 86.325 58.0461 79.6808 58.0459 71.4365C58.0459 61.3407 66.3508 53.1953 76.5479 53.1953H171.498ZM76.5479 56.1533C67.9409 56.1533 61.0029 63.0171 61.0029 71.4365C61.0032 78.0044 66.417 83.367 73.1436 83.3672C78.3644 83.3671 82.5584 79.2049 82.5586 74.1182C82.5585 70.2166 79.3399 67.0148 75.3223 67.0146C72.2662 67.0148 69.8281 69.4486 69.8281 72.4023C69.8282 74.2791 71.1545 75.8785 72.9668 76.3037C71.5285 75.7867 70.4845 74.4249 70.4844 72.7979C70.4844 70.4055 72.4489 68.5059 74.8203 68.5059C77.5857 68.5061 79.8679 70.7198 79.8682 73.5C79.868 76.7647 77.1872 79.3727 73.9277 79.373C70.053 79.373 66.8712 76.2746 66.8711 72.4023C66.8711 67.8624 70.5293 64.2045 75.0518 64.0635V64.0459H172.651V64.0586C172.675 64.0584 172.7 64.0576 172.724 64.0576C177.37 64.0579 181.175 67.7722 181.175 72.4023C181.175 76.2746 177.993 79.373 174.118 79.373C170.859 79.373 168.177 76.7649 168.177 73.5C168.177 70.7198 170.46 68.5059 173.226 68.5059C175.597 68.506 177.561 70.4056 177.561 72.7979C177.56 74.4236 176.519 75.7839 175.082 76.3018C176.893 75.8754 178.218 74.278 178.218 72.4023C178.218 69.4486 175.78 67.0149 172.724 67.0146C168.706 67.0146 165.486 70.2165 165.486 74.1182C165.486 79.2049 169.681 83.367 174.901 83.3672C181.628 83.3672 187.042 78.0045 187.042 71.4365C187.042 63.0172 180.105 56.1536 171.498 56.1533H76.5479ZM179.545 28C183.05 28 185.171 31.8732 183.283 34.8262L176.376 45.6309C175.561 46.906 174.151 47.6777 172.638 47.6777H76.4814C75.0075 47.6777 73.6296 46.9452 72.8047 45.7236L65.5088 34.9189C63.5193 31.9726 65.6303 28 69.1855 28H179.545Z" fill="white" fill-opacity="0.3"/>
</svg>
