<svg width="185" height="80" viewBox="0 0 185 80" fill="none" xmlns="http://www.w3.org/2000/svg">
<path d="M43.7595 6.89553C43.8657 2.90928 47.2908 1.10528 50.052 2.00728C51.6982 2.58922 52.8664 4.07316 53.2381 5.67348C54.8312 15.0135 43.0957 14.7226 40.9717 14.3152C43.1223 12.6276 43.8126 9.65973 43.733 6.86644" fill="#ffffff"/>
<path d="M2.5 47.9217V47.6889C5.76574 46.6705 6.164 44.9829 6.164 41.6368V9.42669C6.164 6.10966 5.76574 4.42205 2.5 3.40367V3.1709H22.7317C31.9979 3.1709 36.3257 5.84779 36.3257 11.9872C36.3257 16.9627 33.0068 20.1634 27.4046 21.0072V21.1236C34.2282 21.56 39.5383 25.9245 39.5383 33.8971C39.5383 43.1498 34.2813 47.8926 22.9175 47.8926H2.52654L2.5 47.9217ZM16.7312 20.8326H20.6873C24.1389 20.8326 26.4488 17.7193 26.3957 12.4819C26.3426 7.12806 24.192 3.75284 20.1032 3.75284H18.8287C17.1295 3.75284 16.7312 5.17857 16.7312 7.73908V20.8326ZM20.7404 47.3979C25.7585 47.3979 28.5994 42.3933 28.5994 34.4499C28.5994 26.5065 25.6788 21.3563 20.4483 21.3563H16.7312V43.0043C16.7312 45.8849 17.2091 47.3979 19.1739 47.3979H20.7404Z" fill="#ffffff"/>
<path d="M72.1687 25.8961C78.4612 27.5546 82.1252 30.2897 82.1252 36.109C82.1252 43.7032 77.1071 48.8825 68.5312 48.8825C61.0705 48.8825 56.1055 44.6635 56.1055 37.6511C56.1055 34.6542 56.9817 32.2101 58.6012 30.377C57.4861 29.0385 56.902 27.2345 56.902 24.9359C56.902 19.4948 60.566 15.043 66.6461 15.043C68.7967 15.043 71.266 15.7413 72.9918 15.7413C74.3989 15.7413 75.4344 15.6249 76.9478 15.363L79.4171 26.0706L79.0719 26.2452C70.1508 18.069 67.2833 15.5667 65.1327 15.5667C62.9821 15.5667 61.2563 17.2543 61.2563 19.4366C61.2563 21.6188 63.6724 23.7138 67.2833 24.674L72.0625 25.8961H72.1687ZM76.0717 40.7063C76.0717 37.8839 74.0804 36.4873 69.726 35.207L65 33.8686C62.6104 33.1702 60.1678 31.8609 58.8402 30.6388C57.433 32.2973 56.902 34.596 56.902 37.2729C56.902 43.2086 62.0794 47.1658 67.8409 47.1658C73.6024 47.1658 76.0717 44.7216 76.0717 40.7063Z" fill="#ffffff"/>
<path d="M85.6838 37.5057V17.2544H81.064V17.0216C90.3302 15.5667 93.7021 11.115 94.6845 0H95.2155V16.3524H107.801C108.916 20.1931 109.5 25.1978 109.5 29.0967C109.5 41.9284 104.615 48.9116 96.4369 48.9116C89.3213 48.9116 85.6573 45.0127 85.6573 37.5348M109.048 28.8058C109.048 25.0232 108.571 20.0185 107.641 16.9052H95.2421V36.0509C95.2421 40.3281 97.1006 42.6267 100.313 42.6267C105.039 42.6267 109.048 37.7676 109.048 28.8058Z" fill="#ffffff"/>
<path d="M12.9609 68.5508L15.085 61.5967H15.9612L18.1649 67.6779H17.6339L19.8642 61.5967H20.7138L22.8378 68.5508H21.5368L21.2448 67.2124L20.0235 62.7606H20.5014L18.2711 68.5508H17.5011L15.2709 62.7606H15.7753L14.5274 67.2124L14.2619 68.5508H12.9609Z" fill="#ffffff"/>
<path d="M23.7407 68.552L23.7938 66.9807V63.1109L23.7407 61.627H27.1923L27.2985 62.7035L24.9089 62.5289V67.65L27.2985 67.4754L27.1923 68.552H23.7407ZM26.8737 65.4386L24.5638 65.3222V64.5366L26.8737 64.4202V65.4386Z" fill="#ffffff"/>
<path d="M27.8293 68.5508L30.7499 61.5967H31.5995L34.5201 68.5508H33.1925L32.7943 67.2124L30.8826 62.3241H31.4402L29.502 67.2124L29.1037 68.5508H27.8027H27.8293ZM29.502 66.3976L29.8737 65.3793H32.5553L32.927 66.3976H29.5285H29.502Z" fill="#ffffff"/>
<path d="M36.3266 68.5508L36.3797 66.9505V62.586L33.937 62.7606L34.0432 61.5967H39.8313L39.9375 62.7606L37.4948 62.586V66.9505L37.5745 68.5508H36.3266Z" fill="#ffffff"/>
<path d="M44.822 68.7259C44.3175 68.7259 43.8927 68.6386 43.521 68.435C43.1759 68.2604 42.8838 67.9985 42.7245 67.6785C42.5386 67.3584 42.459 66.9801 42.459 66.5146C42.459 66.1072 42.5386 65.729 42.7245 65.4089C42.8838 65.0888 43.1228 64.827 43.4414 64.6524C43.7334 64.4778 44.0786 64.3614 44.4768 64.3614L44.9017 65.1761C44.6362 65.1761 44.3972 65.2343 44.2113 65.3507C44.0255 65.4671 43.8662 65.6126 43.76 65.8163C43.6538 66.0199 43.6007 66.2236 43.6007 66.4855C43.6007 66.8346 43.7069 67.1547 43.9724 67.3875C44.2113 67.6202 44.53 67.7657 44.9017 67.7657C45.4858 67.7657 45.9106 67.533 46.2027 67.0383C46.4947 66.5437 46.6275 65.8454 46.6009 64.9434L47.6895 65.1179C47.6895 66.2818 47.4505 67.1547 46.9461 67.7948C46.4682 68.4059 45.7778 68.7259 44.9017 68.7259M44.2113 65.438C43.8927 65.0597 43.6538 64.7688 43.4945 64.536C43.3352 64.3032 43.2024 64.0995 43.1228 63.8668C43.0431 63.634 42.99 63.3721 42.99 63.0812C42.99 62.7902 43.0696 62.4992 43.2024 62.2374C43.3617 62.0046 43.5741 61.8009 43.8396 61.6263C44.1051 61.4809 44.4503 61.3936 44.8486 61.3936C45.4327 61.3936 45.9106 61.5681 46.2557 61.8882C46.6009 62.2083 46.8133 62.732 46.8399 63.4012L45.7513 63.5758C45.7513 63.1394 45.6716 62.8193 45.4858 62.6447C45.3265 62.441 45.1141 62.3538 44.822 62.3538C44.583 62.3538 44.3972 62.4119 44.2644 62.5574C44.1317 62.7029 44.0786 62.8775 44.0786 63.0812C44.0786 63.3139 44.1582 63.5758 44.291 63.8086C44.4237 64.0414 44.6627 64.3614 44.9813 64.7397L48.2471 68.5222H46.8664L44.2113 65.4089V65.438Z" fill="#ffffff"/>
<path d="M51.3542 68.5508L51.4073 66.9505V63.0806L51.3542 61.5967H52.7879C53.2393 61.5967 53.611 61.684 53.9562 61.8586C54.2748 62.0331 54.5403 62.295 54.7261 62.6151C54.912 62.9351 54.9916 63.2843 54.9916 63.6916C54.9916 64.099 54.912 64.4482 54.7261 64.7682C54.5403 65.0883 54.3013 65.3502 53.9562 65.5247C53.6375 65.6993 53.2393 65.7866 52.7879 65.7866H51.779V64.8264H52.7348C53.08 64.8264 53.3455 64.71 53.5314 64.5064C53.7172 64.3027 53.8234 64.0117 53.8234 63.6625C53.8234 63.3134 53.7172 63.0224 53.5314 62.8187C53.3455 62.6151 53.08 62.4987 52.7348 62.4987H52.4959V65.2338L52.5224 66.8923L52.5755 68.4926H51.3276L51.3542 68.5508Z" fill="#ffffff"/>
<path d="M54.9111 68.5508L57.8317 61.5967H58.6813L61.6285 68.5508H60.3009L59.9027 67.2124L57.991 62.3241H58.5486L56.6104 67.2124L56.2121 68.5508H54.9111ZM56.5838 66.3976L56.9555 65.3793H59.6372L60.0089 66.3976H56.6104H56.5838Z" fill="#ffffff"/>
<path d="M64.0188 68.7259C63.4081 68.7259 62.9036 68.5514 62.5054 68.1731C62.1071 67.7948 61.9213 67.2129 61.9478 66.3691L63.0895 66.1945C63.0629 66.7474 63.116 67.1547 63.3019 67.3875C63.4877 67.6202 63.7267 67.7366 64.0188 67.7366C64.2843 67.7366 64.4967 67.6493 64.6294 67.5039C64.7887 67.3584 64.8684 67.1256 64.8684 66.8928C64.8684 66.6892 64.8153 66.5146 64.7091 66.34C64.6029 66.1654 64.4701 66.0199 64.3374 65.9036C64.1781 65.7872 63.9922 65.6126 63.7267 65.438C63.3815 65.2052 63.116 65.0015 62.9036 64.7979C62.6912 64.6233 62.5054 64.3905 62.3726 64.0996C62.2133 63.8086 62.1602 63.4885 62.1602 63.1103C62.1602 62.7902 62.2398 62.4992 62.3726 62.2374C62.5054 61.9755 62.7178 61.7718 63.0098 61.6263C63.2753 61.4809 63.6205 61.3936 63.9922 61.3936C64.5763 61.3936 65.0542 61.5681 65.4259 61.9173C65.7977 62.2665 65.9835 62.8193 66.0101 63.5758L64.8684 63.7504C64.8684 63.2557 64.7887 62.9066 64.6294 62.7029C64.4701 62.4992 64.2577 62.3829 63.9922 62.3829C63.7798 62.3829 63.594 62.441 63.4878 62.5865C63.355 62.7029 63.3019 62.8775 63.3019 63.0812C63.3019 63.3721 63.4081 63.6049 63.5939 63.8086C63.7798 64.0123 64.0719 64.2741 64.4701 64.5651C64.8153 64.827 65.0808 65.0306 65.2932 65.2343C65.5056 65.438 65.6649 65.6417 65.8242 65.9326C65.9835 66.1945 66.0366 66.5146 66.0366 66.8637C66.0366 67.2129 65.957 67.533 65.7977 67.8239C65.6384 68.1149 65.3994 68.3186 65.1073 68.4932C64.8153 68.6677 64.4436 68.755 64.0453 68.755" fill="#ffffff"/>
<path d="M68.8769 68.5508L68.9565 66.9505V62.586L66.4873 62.7606L66.62 61.5967H72.3816L72.5143 62.7606L70.0717 62.586V66.9505L70.1248 68.5508H68.8769Z" fill="#ffffff"/>
<path d="M71.8765 68.5508L74.797 61.5967H75.6467L78.5938 68.5508H77.2663L76.868 67.2124L74.9564 62.3241H75.5139L73.5757 67.2124L73.1774 68.5508H71.8765ZM73.5492 66.3976L73.9209 65.3793H76.6025L76.9742 66.3976H73.5757H73.5492Z" fill="#ffffff"/>
<path d="M81.4619 68.5508L81.515 66.9505V63.0806L81.4619 61.5967H82.8425C83.2939 61.5967 83.6922 61.684 84.0108 61.8295C84.3294 61.9749 84.5949 62.1786 84.7542 62.4405C84.9135 62.7024 84.9932 62.9642 84.9932 63.2843C84.9932 63.6916 84.887 64.0117 84.6746 64.2736C84.4621 64.5354 84.1435 64.71 83.7453 64.8555V64.5355C84.117 64.5936 84.4356 64.7391 84.7277 64.9428C84.9932 65.1465 85.2056 65.3502 85.3383 65.6411C85.4711 65.903 85.5507 66.194 85.5507 66.4849C85.5507 66.8923 85.4711 67.2415 85.2852 67.5615C85.0994 67.8816 84.8339 68.1144 84.4887 68.2889C84.1435 68.4635 83.7187 68.5508 83.2674 68.5508H81.4885H81.4619ZM83.1612 67.6197C83.5594 67.6197 83.8515 67.5033 84.0639 67.2996C84.2763 67.096 84.3825 66.805 84.3825 66.4558C84.3825 66.1067 84.2763 65.8157 84.0639 65.612C83.8515 65.4083 83.5594 65.292 83.1612 65.292H82.046V64.4773H82.7895C83.1346 64.4773 83.4001 64.39 83.586 64.2154C83.7718 64.0408 83.8515 63.808 83.8515 63.5171C83.8515 63.2261 83.7718 62.9642 83.586 62.8187C83.4001 62.6442 83.1346 62.5569 82.7895 62.5569H82.6036V67.6488H83.1612V67.6197Z" fill="#ffffff"/>
<path d="M85.8159 68.5508L88.7365 61.5967H89.5861L92.5333 68.5508H91.2057L90.8075 67.2124L88.8958 62.3241H89.4534L87.5152 67.2124L87.1169 68.5508H85.8159ZM87.4621 66.3976L87.8338 65.3793H90.5154L90.8871 66.3976H87.4886H87.4621Z" fill="#ffffff"/>
<path d="M93.3568 68.5508L93.4099 66.9505V63.0806L93.3568 61.5967H94.8171C95.2419 61.5967 95.6136 61.684 95.9322 61.8295C96.2508 61.9749 96.4898 62.2077 96.6491 62.4696C96.8084 62.7315 96.8881 63.0224 96.8881 63.3425C96.8881 63.7207 96.7819 64.0408 96.596 64.3027C96.4101 64.5645 96.1181 64.7391 95.7464 64.8846V64.7391C96.0119 64.8264 96.2509 64.9719 96.4633 65.1756C96.6757 65.3793 96.835 65.6411 96.9677 65.903C97.1005 66.1649 97.2598 66.514 97.4456 66.9796C97.6049 67.3578 97.7111 67.6488 97.8173 67.8816C97.9235 68.1144 98.0298 68.318 98.1625 68.5217V68.5799H96.8881C96.7819 68.4053 96.6757 68.2307 96.5695 67.998C96.4633 67.7943 96.3571 67.5324 96.2508 67.2124C96.0915 66.805 95.9588 66.4849 95.8526 66.2522C95.7464 66.0194 95.5871 65.8157 95.4012 65.6411C95.2154 65.4665 95.003 65.4083 94.7375 65.4083H93.994V64.5646H94.7375C95.0295 64.5646 95.2685 64.4773 95.4278 64.3027C95.5871 64.1281 95.6933 63.8662 95.6933 63.5753C95.6933 63.2843 95.6136 63.0224 95.4278 62.8478C95.2419 62.6733 95.0295 62.586 94.7375 62.586H94.472V65.001L94.4985 67.0378L94.5516 68.6381H93.3037L93.3568 68.5508Z" fill="#ffffff"/>
<path d="M39.1136 47.9222V47.6894C42.3793 46.671 42.7776 44.9834 42.7776 41.6664V23.2773C42.7776 20.7168 41.8218 19.8148 39.0339 20.7167L38.9277 20.3385L52.0969 15.7412L52.3359 16.0031V41.6955C52.3359 44.8961 52.681 46.6419 55.4954 47.7185V47.9513H39.1136V47.9222Z" fill="#ffffff"/>
</svg>
