<svg width="90" height="75" viewBox="0 0 90 75" fill="none" xmlns="http://www.w3.org/2000/svg">
<path d="M75.6825 9.41834C72.915 9.41834 70.5428 7.00047 70.5428 4.07658C70.5428 1.32137 72.915 0.0281418 75.6825 0.0281418C78.45 0.0281418 80.6527 1.32137 80.6527 4.07658C80.6527 7.00047 78.45 9.41834 75.6825 9.41834ZM29.0304 0.646662C29.0304 0.646662 11.8607 0.562279 6.07155 0.562279C7.45529 3.57052 7.62472 5.67912 7.62472 7.70336C7.62472 11.9205 6.89049 14.507 6.55162 15.6597L8.33071 17.206C9.06494 14.7039 10.4487 10.571 10.9288 9.10908C11.8325 6.43821 13.4421 6.35388 15.9837 6.35388H19.8807C21.3492 6.35388 21.8293 7.25353 21.8293 8.71548V42.5933C21.8293 48.7504 18.6665 51.7586 13.9222 51.7586C9.17791 51.7586 5.70444 48.7504 5.70444 42.5933H0C0 51.5899 4.71604 57.4377 13.9222 57.4377C23.1283 57.4377 27.5337 51.5899 27.5337 42.5933V10.6554C27.5337 5.79159 27.6185 3.683 29.0022 0.674761L29.0304 0.646662ZM44.2516 58C41.4842 58 39.112 55.5822 39.112 52.6583C39.112 49.9031 41.4842 48.6098 44.2516 48.6098C47.0191 48.6098 49.2219 49.9031 49.2219 52.6583C49.2219 55.5822 47.0191 58 44.2516 58ZM71.1924 12.3141H79.9749C78.5912 15.3224 78.5064 17.4309 78.5064 22.2947V38.095C78.5064 42.9588 78.5912 45.0674 79.9749 48.0756H71.1924C72.5761 45.0674 72.6608 42.9588 72.6608 38.095V22.2947C72.6608 17.4309 72.5761 15.3224 71.1924 12.3141ZM66.4763 10.6272V49.2845C66.4763 50.7465 66.9564 51.6462 68.4248 51.6462H80.0596C82.573 51.6462 84.2109 51.5618 85.1145 48.8909C85.5946 47.429 86.9784 43.2962 87.7126 40.794L89.5199 42.3403C89.181 43.4648 88.4468 46.0795 88.4468 50.2966C88.4468 52.3209 88.6162 54.4295 90 57.4377H59.134C60.5177 54.4295 60.6025 52.3209 60.6025 47.4571V10.6554C60.6025 5.79159 60.5177 3.683 59.134 0.674761H67.9165C66.5328 3.683 66.4481 5.79159 66.4481 10.6554L66.4763 10.6272ZM44.2516 0C53.6272 0 56.7054 7.70334 56.7054 16.8686C56.7054 29.745 52.893 45.0674 44.2516 45.0674C35.1302 45.0674 31.7132 30.3073 31.7979 16.8686C31.8826 6.57877 34.9043 0 44.2516 0ZM44.2516 39.3883C48.2334 39.3883 51.0009 28.4518 51.0009 16.8405C51.0009 11.6394 49.6172 5.90404 44.2516 5.90404C38.8861 5.90404 37.5024 11.6675 37.5024 16.8405C37.5024 28.4237 40.2698 39.3883 44.2516 39.3883Z" fill="#fff"/>
<g transform="translate(-25.7 -15.8)">
<path d="M43.7503 90V78.8H44.7903L49.4303 84.88L54.0703 78.8H55.1103V90H53.9103V80.88L49.4303 86.8L44.9503 80.88V90H43.7503ZM64.1971 89.008C63.4397 89.776 62.5171 90.16 61.4291 90.16C60.3411 90.16 59.4131 89.776 58.6451 89.008C57.8877 88.2293 57.5091 87.28 57.5091 86.16C57.5091 85.04 57.8877 84.096 58.6451 83.328C59.4131 82.5493 60.3411 82.16 61.4291 82.16C62.5171 82.16 63.4397 82.5493 64.1971 83.328C64.9651 84.096 65.3491 85.04 65.3491 86.16C65.3491 87.28 64.9651 88.2293 64.1971 89.008ZM59.4451 88.256C59.9997 88.832 60.6611 89.12 61.4291 89.12C62.1971 89.12 62.8531 88.8373 63.3971 88.272C63.9517 87.696 64.2291 86.992 64.2291 86.16C64.2291 85.328 63.9517 84.6293 63.3971 84.064C62.8531 83.488 62.1971 83.2 61.4291 83.2C60.6611 83.2 59.9997 83.488 59.4451 84.064C58.9011 84.6293 58.6291 85.328 58.6291 86.16C58.6291 86.9813 58.9011 87.68 59.4451 88.256ZM73.0303 87.84L73.8303 88.56C73.617 88.8267 73.3343 89.0933 72.9823 89.36C72.2356 89.8933 71.4516 90.16 70.6303 90.16C69.5743 90.16 68.6676 89.7707 67.9103 88.992C67.1636 88.2133 66.7903 87.2693 66.7903 86.16C66.7903 85.0507 67.1636 84.1067 67.9103 83.328C68.6676 82.5493 69.5743 82.16 70.6303 82.16C71.4623 82.16 72.2303 82.416 72.9343 82.928C73.2223 83.1413 73.4943 83.392 73.7503 83.68L72.9503 84.48C72.7796 84.2453 72.5823 84.032 72.3583 83.84C71.8463 83.4133 71.2703 83.2 70.6303 83.2C69.8943 83.2 69.2543 83.488 68.7103 84.064C68.177 84.6293 67.9103 85.328 67.9103 86.16C67.9103 86.992 68.177 87.696 68.7103 88.272C69.2543 88.8373 69.8943 89.12 70.6303 89.12C71.2383 89.12 71.8303 88.9067 72.4063 88.48C72.6516 88.2773 72.8596 88.064 73.0303 87.84ZM75.5847 90V82.32H76.7047V86.4L80.5447 82.32H81.9047L78.9447 85.44L82.2247 90H80.9447L78.2247 86.24L76.7047 87.84V90H75.5847ZM83.6628 90V82.32H87.1828C87.8975 82.32 88.4628 82.5067 88.8788 82.88C89.2948 83.2533 89.5028 83.7333 89.5028 84.32C89.5028 84.7893 89.3428 85.1947 89.0228 85.536C88.8841 85.6747 88.7241 85.8027 88.5428 85.92C88.7881 86.0053 89.0015 86.1227 89.1828 86.272C89.6095 86.6347 89.8228 87.1307 89.8228 87.76C89.8228 88.4533 89.6041 89.0027 89.1668 89.408C88.7401 89.8027 88.1321 90 87.3428 90H83.6628ZM84.7828 85.44H87.1828C87.9828 85.44 88.3828 85.0933 88.3828 84.4C88.3828 83.7067 87.9828 83.36 87.1828 83.36H84.7828V85.44ZM84.7828 88.96H87.3428C88.2495 88.96 88.7028 88.5333 88.7028 87.68C88.7028 86.8267 88.2495 86.4 87.3428 86.4H84.7828V88.96ZM96.5372 90V88.96C96.3772 89.184 96.1745 89.3867 95.9292 89.568C95.3639 89.9627 94.7399 90.16 94.0572 90.16C93.2785 90.16 92.6279 89.936 92.1052 89.488C91.5932 89.0293 91.3372 88.5067 91.3372 87.92C91.3372 86.6187 92.0839 85.8453 93.5772 85.6L96.5372 85.12C96.5372 84.5547 96.3559 84.096 95.9932 83.744C95.6412 83.3813 95.1825 83.2 94.6172 83.2C94.0625 83.2 93.5345 83.3867 93.0332 83.76C92.7985 83.9627 92.6065 84.1493 92.4572 84.32L91.7372 83.6C91.9399 83.3333 92.1905 83.0933 92.4892 82.88C93.1399 82.4 93.8492 82.16 94.6172 82.16C95.4919 82.16 96.2172 82.4427 96.7932 83.008C97.3692 83.5733 97.6572 84.2773 97.6572 85.12V90H96.5372ZM96.5372 86.56V86.08L93.8972 86.56C92.9372 86.7307 92.4572 87.184 92.4572 87.92C92.4572 88.2613 92.5959 88.5493 92.8732 88.784C93.1612 89.008 93.5559 89.12 94.0572 89.12C94.7932 89.12 95.3905 88.8853 95.8492 88.416C96.3079 87.9467 96.5372 87.328 96.5372 86.56Z" fill="#fff"/>
</g>
</svg>
