<svg width="106" height="76" viewBox="2 2 106 76" fill="none" xmlns="http://www.w3.org/2000/svg">
<path d="M82.3417 11.2319C79.8304 11.2319 77.6779 9.03786 77.6779 6.38468C77.6779 3.88457 79.8304 2.71108 82.3417 2.71108C84.8529 2.71108 86.8517 3.88457 86.8517 6.38468C86.8517 9.03786 84.8529 11.2319 82.3417 11.2319ZM40.0091 3.27234C40.0091 3.27234 24.429 3.19577 19.1759 3.19577C20.4315 5.92548 20.5853 7.83885 20.5853 9.67566C20.5853 13.5024 19.919 15.8494 19.6115 16.8954L21.2259 18.2985C21.8921 16.028 23.1478 12.2778 23.5834 10.9512C24.4034 8.52766 25.864 8.45113 28.1703 8.45113H31.7065C33.039 8.45113 33.4747 9.26749 33.4747 10.5941V41.3352C33.4747 46.9222 30.6047 49.6519 26.2997 49.6519C21.9946 49.6519 18.8428 46.9222 18.8428 41.3352H13.6665C13.6665 49.4989 17.9459 54.8052 26.2997 54.8052C34.6534 54.8052 38.6509 49.4989 38.6509 41.3352V12.3544C38.6509 7.9409 38.7278 6.02755 39.9835 3.29783L40.0091 3.27234ZM53.821 55.3154C51.3097 55.3154 49.1572 53.1215 49.1572 50.4683C49.1572 47.9682 51.3097 46.7947 53.821 46.7947C56.3322 46.7947 58.331 47.9682 58.331 50.4683C58.331 53.1215 56.3322 55.3154 53.821 55.3154ZM78.2673 13.8595H86.2367C84.9811 16.5892 84.9042 18.5026 84.9042 22.9161V37.2534C84.9042 41.6669 84.9811 43.5802 86.2367 46.3099H78.2673C79.5229 43.5802 79.5998 41.6669 79.5998 37.2534V22.9161C79.5998 18.5026 79.5229 16.5892 78.2673 13.8595ZM73.9879 12.3288V47.4069C73.9879 48.7335 74.4235 49.5499 75.756 49.5499H86.3136C88.5942 49.5499 90.0804 49.4733 90.9004 47.0497C91.3361 45.7232 92.5917 41.973 93.2579 39.7025L94.8979 41.1056C94.5904 42.1261 93.9242 44.4986 93.9242 48.3253C93.9242 50.1621 94.0779 52.0755 95.3336 54.8052H67.3254C68.581 52.0755 68.6579 50.1621 68.6579 45.7487V12.3544C68.6579 7.9409 68.581 6.02755 67.3254 3.29783H75.2948C74.0392 6.02755 73.9623 7.9409 73.9623 12.3544L73.9879 12.3288ZM53.821 2.68555C62.3285 2.68555 65.1216 9.67565 65.1216 17.9923C65.1216 29.6765 61.6622 43.5802 53.821 43.5802C45.5441 43.5802 42.4434 30.1868 42.5203 17.9923C42.5972 8.6552 45.3391 2.68555 53.821 2.68555ZM53.821 38.4269C57.4341 38.4269 59.9454 28.503 59.9454 17.9668C59.9454 13.2473 58.6897 8.04294 53.821 8.04294C48.9522 8.04294 47.6966 13.2728 47.6966 17.9668C47.6966 28.4775 50.2078 38.4269 53.821 38.4269Z" fill="#000"/>
<path d="M32.7659 74.3145V65.2145H33.6109L37.3809 70.1545L41.1509 65.2145H41.9959V74.3145H41.0209V66.9045L37.3809 71.7145L33.7409 66.9045V74.3145H32.7659ZM49.3789 73.5085C48.7635 74.1325 48.0139 74.4445 47.1299 74.4445C46.2459 74.4445 45.4919 74.1325 44.8679 73.5085C44.2525 72.8758 43.9449 72.1045 43.9449 71.1945C43.9449 70.2845 44.2525 69.5175 44.8679 68.8935C45.4919 68.2608 46.2459 67.9445 47.1299 67.9445C48.0139 67.9445 48.7635 68.2608 49.3789 68.8935C50.0029 69.5175 50.3149 70.2845 50.3149 71.1945C50.3149 72.1045 50.0029 72.8758 49.3789 73.5085ZM45.5179 72.8975C45.9685 73.3655 46.5059 73.5995 47.1299 73.5995C47.7539 73.5995 48.2869 73.3698 48.7289 72.9105C49.1795 72.4425 49.4049 71.8705 49.4049 71.1945C49.4049 70.5185 49.1795 69.9508 48.7289 69.4915C48.2869 69.0235 47.7539 68.7895 47.1299 68.7895C46.5059 68.7895 45.9685 69.0235 45.5179 69.4915C45.0759 69.9508 44.8549 70.5185 44.8549 71.1945C44.8549 71.8618 45.0759 72.4295 45.5179 72.8975ZM56.5559 72.5595L57.2059 73.1445C57.0325 73.3611 56.8029 73.5778 56.5169 73.7945C55.9102 74.2278 55.2732 74.4445 54.6059 74.4445C53.7479 74.4445 53.0112 74.1281 52.3959 73.4955C51.7892 72.8628 51.4859 72.0958 51.4859 71.1945C51.4859 70.2931 51.7892 69.5261 52.3959 68.8935C53.0112 68.2608 53.7479 67.9445 54.6059 67.9445C55.2819 67.9445 55.9059 68.1525 56.4779 68.5685C56.7119 68.7418 56.9329 68.9455 57.1409 69.1795L56.4909 69.8295C56.3522 69.6388 56.1919 69.4655 56.0099 69.3095C55.5939 68.9628 55.1259 68.7895 54.6059 68.7895C54.0079 68.7895 53.4879 69.0235 53.0459 69.4915C52.6125 69.9508 52.3959 70.5185 52.3959 71.1945C52.3959 71.8705 52.6125 72.4425 53.0459 72.9105C53.4879 73.3698 54.0079 73.5995 54.6059 73.5995C55.0999 73.5995 55.5809 73.4261 56.0489 73.0795C56.2482 72.9148 56.4172 72.7415 56.5559 72.5595ZM58.6313 74.3145V68.0745H59.5413V71.3895L62.6613 68.0745H63.7663L61.3613 70.6095L64.0263 74.3145H62.9863L60.7763 71.2595L59.5413 72.5595V74.3145H58.6313ZM65.1948 74.3145V68.0745H68.0548C68.6355 68.0745 69.0948 68.2261 69.4328 68.5295C69.7708 68.8328 69.9398 69.2228 69.9398 69.6995C69.9398 70.0808 69.8098 70.4101 69.5498 70.6875C69.4371 70.8001 69.3071 70.9041 69.1598 70.9995C69.3591 71.0688 69.5325 71.1641 69.6798 71.2855C70.0265 71.5801 70.1998 71.9831 70.1998 72.4945C70.1998 73.0578 70.0221 73.5041 69.6668 73.8335C69.3201 74.1541 68.8261 74.3145 68.1848 74.3145H65.1948ZM66.1048 70.6095H68.0548C68.7048 70.6095 69.0298 70.3278 69.0298 69.7645C69.0298 69.2011 68.7048 68.9195 68.0548 68.9195H66.1048V70.6095ZM66.1048 73.4695H68.1848C68.9215 73.4695 69.2898 73.1228 69.2898 72.4295C69.2898 71.7361 68.9215 71.3895 68.1848 71.3895H66.1048V73.4695ZM75.6552 74.3145V73.4695C75.5252 73.6515 75.3605 73.8161 75.1612 73.9635C74.7019 74.2841 74.1949 74.4445 73.6402 74.4445C73.0075 74.4445 72.4789 74.2625 72.0542 73.8985C71.6382 73.5258 71.4302 73.1011 71.4302 72.6245C71.4302 71.5671 72.0369 70.9388 73.2502 70.7395L75.6552 70.3495C75.6552 69.8901 75.5079 69.5175 75.2132 69.2315C74.9272 68.9368 74.5545 68.7895 74.0952 68.7895C73.6445 68.7895 73.2155 68.9411 72.8082 69.2445C72.6175 69.4091 72.4615 69.5608 72.3402 69.6995L71.7552 69.1145C71.9199 68.8978 72.1235 68.7028 72.3662 68.5295C72.8949 68.1395 73.4712 67.9445 74.0952 67.9445C74.8059 67.9445 75.3952 68.1741 75.8632 68.6335C76.3312 69.0928 76.5652 69.6648 76.5652 70.3495V74.3145H75.6552ZM75.6552 71.5195V71.1295L73.5102 71.5195C72.7302 71.6581 72.3402 72.0265 72.3402 72.6245C72.3402 72.9018 72.4529 73.1358 72.6782 73.3265C72.9122 73.5085 73.2329 73.5995 73.6402 73.5995C74.2382 73.5995 74.7235 73.4088 75.0962 73.0275C75.4689 72.6461 75.6552 72.1435 75.6552 71.5195Z" fill="#000"/>
</svg>
