<svg width="107.165" height="61.179" viewBox="0 -0 107.165 61.179" fill="none" xmlns="http://www.w3.org/2000/svg">
<g clip-path="url(#clip0_1095_5485)">
<path d="M18.2708 43.3706C23.2919 43.3706 26.152 38.7752 26.152 31.5263C26.152 24.2774 23.2315 19.5513 17.9771 19.5513H14.243V39.3627C14.243 41.9946 14.7095 43.3706 16.6961 43.3706H18.27H18.2708ZM14.243 19.0563H18.2111C21.6525 19.0563 23.9916 16.2064 23.932 11.4102C23.8724 6.49969 21.7121 3.42662 17.6247 3.42662H16.3385C14.6446 3.42662 14.2377 4.7429 14.2377 7.0813V19.0563H14.243ZM0 43.8656V43.6588C3.26769 42.7233 3.67457 41.1733 3.67457 38.1278V8.65815C3.67457 5.61793 3.26769 4.06273 0 3.12722V2.92041H20.2574C29.5396 2.92041 33.8603 5.37827 33.8603 10.9906C33.8603 15.5532 30.533 18.4791 24.9261 19.2347V19.3542C31.7544 19.7618 37.0684 23.7376 37.0684 31.0522C37.0684 39.536 31.814 43.8596 20.4318 43.8596H0V43.8648V43.8656Z" fill="#fff"/>
<path d="M36.6494 43.8651V43.6583C39.9171 42.7228 40.33 41.1728 40.33 38.1274V21.2852C40.33 18.9468 39.3799 18.1255 36.5794 18.9468L36.4766 18.5989L49.6554 14.373L49.8998 14.6232V38.1326C49.8998 41.0586 50.2523 42.6683 53.0535 43.6635V43.8704H36.6502V43.8651H36.6494Z" fill="#fff"/>
<path d="M73.6739 37.2577C73.6739 34.6856 71.6872 33.3962 67.3122 32.227L62.5846 30.9981C60.191 30.356 57.7595 29.1547 56.4181 28.0452C55.0179 29.5683 54.4858 31.6566 54.4858 34.1145C54.4858 39.5528 59.6694 43.1635 65.4447 43.1635C71.22 43.1635 73.6732 40.9445 73.6732 37.2577H73.6739ZM69.7601 23.6895C76.0675 25.2066 79.742 27.7249 79.742 33.0491C79.742 40.0098 74.7209 44.747 66.1392 44.747C58.6649 44.747 53.7041 40.8855 53.7041 34.4527C53.7041 31.7066 54.5782 29.4817 56.2169 27.7854C55.1095 26.5565 54.5231 24.9191 54.5231 22.8144C54.5231 17.8435 58.1976 13.749 64.2717 13.749C66.4321 13.749 68.8853 14.3911 70.6335 14.3911C72.0337 14.3911 73.0867 14.2769 74.6017 14.038L77.0876 23.8321L76.7508 24.0008C67.8219 16.5122 64.9558 14.2284 62.7955 14.2284C60.6352 14.2284 58.9309 15.7783 58.9309 17.7688C58.9309 19.7593 61.3521 21.6953 64.9722 22.5763L69.7594 23.6857V23.691L69.7601 23.6895Z" fill="#fff"/>
<path d="M106.681 26.3595C106.681 22.9117 106.198 18.3215 105.264 15.456H92.8561V32.9888C92.8561 36.904 94.7236 39.0087 97.9368 39.0087C102.664 39.0087 106.681 34.5439 106.681 26.3595ZM83.287 34.3319V15.7927H78.6787V15.5859C87.9609 14.2427 91.3314 10.1744 92.3248 -0.000488281H92.8621V14.9602H105.472C106.579 18.4678 107.165 23.0468 107.165 26.6141C107.165 38.3719 102.264 44.7457 94.0894 44.7457C86.9675 44.7457 83.2878 41.1784 83.2878 34.3371" fill="#fff"/>
<path d="M40.6068 6.48784C40.7096 2.83838 44.1457 1.17492 46.9194 2.02308C48.5752 2.55616 49.7258 3.92097 50.111 5.38957C51.7065 13.9279 39.9719 13.683 37.8384 13.3074C40.0039 11.747 40.6768 9.03828 40.6068 6.48784Z" fill="#fff"/>
<path d="M28.8201 55.209C28.3812 55.7644 28.1621 56.5245 28.1621 57.4869C28.1621 58.4493 28.3812 59.2093 28.8201 59.7648C29.265 60.3203 29.8492 60.5988 30.5713 60.5988C31.2934 60.5988 31.8747 60.321 32.3128 59.7648C32.7577 59.2093 32.9805 58.4493 32.9805 57.4869C32.9805 56.5245 32.7577 55.7644 32.3128 55.209C31.8739 54.6535 31.2934 54.375 30.5713 54.375C29.8492 54.375 29.265 54.6527 28.8201 55.209ZM28.1427 59.9977C27.5235 59.3512 27.2135 58.5142 27.2135 57.4869C27.2135 56.4595 27.5235 55.6256 28.1427 54.9857C28.7687 54.3391 29.578 54.0166 30.5713 54.0166C31.5647 54.0166 32.3807 54.3399 32.9999 54.9857C33.6259 55.6256 33.9389 56.4595 33.9389 57.4869C33.9389 58.5142 33.6259 59.3512 32.9999 59.9977C32.3807 60.6376 31.5714 60.9579 30.5713 60.9579C29.5713 60.9579 28.7679 60.6376 28.1427 59.9977ZM23.1104 54.375C22.3496 54.375 21.7459 54.6497 21.3011 55.1992C20.8562 55.742 20.6334 56.4789 20.6334 57.41C20.6334 58.341 20.8659 59.0966 21.3301 59.6207C21.8011 60.1441 22.4561 60.4061 23.2945 60.4061C23.7006 60.4061 24.0844 60.3449 24.4458 60.2217C24.8132 60.0993 25.0777 59.9761 25.2394 59.8536L25.4816 59.6692L25.656 59.8439C25.6366 59.876 25.6046 59.9186 25.5591 59.9701C25.5204 60.0157 25.4235 60.1023 25.2685 60.2322C25.1135 60.3613 24.9458 60.4748 24.7655 60.5711C24.5851 60.6675 24.34 60.7585 24.03 60.8429C23.7267 60.9206 23.4077 60.9594 23.0717 60.9594C22.0522 60.9594 21.2333 60.6391 20.614 59.9992C19.9947 59.3527 19.6847 58.5127 19.6847 57.4787C19.6847 56.4446 19.9947 55.6106 20.614 54.9775C21.2333 54.3376 22.0686 54.0181 23.1201 54.0181C23.907 54.0181 24.5263 54.1958 24.9779 54.5512C25.4362 54.9066 25.6649 55.3717 25.6649 55.9473C25.6649 56.0571 25.6553 56.1572 25.6359 56.2482C25.6165 56.3326 25.5971 56.3901 25.5778 56.4229L25.5487 56.4715C25.3684 56.5297 25.1195 56.5588 24.8035 56.5588L24.7163 56.4715C24.7811 56.355 24.8132 56.1646 24.8132 55.8996C24.8132 55.421 24.6619 55.0499 24.3586 54.7849C24.0553 54.5131 23.6395 54.378 23.1104 54.378V54.375ZM14.013 55.9847C14.013 56.3662 14.1129 56.6798 14.3133 56.9254C14.5198 57.1711 14.8037 57.3361 15.1651 57.4197L15.1748 57.4003L15.2329 57.4391C15.3685 57.4652 15.5332 57.4779 15.7262 57.4779H16.9648V54.5019H15.7262C15.1972 54.5019 14.7776 54.6311 14.4683 54.8894C14.1651 55.1477 14.0138 55.5128 14.0138 55.9847H14.013ZM14.2254 58.951L14.9125 57.8363C14.3446 57.746 13.9027 57.5421 13.5868 57.2256C13.2708 56.9023 13.1128 56.4886 13.1128 55.9847C13.1128 55.3963 13.3356 54.9342 13.7805 54.5982C14.2254 54.2622 14.829 54.0943 15.5899 54.0943H17.8255V60.8802H16.964V57.8848H15.7255L13.8096 60.8802H12.9191V60.7929C13.2999 60.3277 13.7351 59.7133 14.2254 58.951ZM10.5635 60.8802L9.76988 54.9372L9.73113 54.8984L7.70866 60.6861H7.11847L6.97315 60.5405L4.8635 54.9275L4.82475 54.9566L4.14736 60.8802H3.68311L4.2733 55.7809C4.30535 55.4837 4.32845 55.2022 4.34111 54.9372C4.35378 54.6721 4.35751 54.4817 4.3508 54.3653L4.34111 54.1809L4.41862 54.0935H5.46338L7.56335 59.658L9.52769 54.0935H10.5531L11.4533 60.8795H10.5628L10.5635 60.8802Z" fill="#fff"/>
<path d="M30.5707 54.3755V54.1553C29.783 54.1553 29.1354 54.4621 28.648 55.0713L28.8194 55.2087L28.9908 55.3461C29.3932 54.8429 29.9141 54.595 30.5714 54.595V54.3748L30.5707 54.3755ZM32.3129 55.2095L32.4851 55.0728C32.0037 54.4629 31.3591 54.1553 30.5714 54.1553V54.595C31.2287 54.595 31.7451 54.8436 32.1408 55.3454L32.3129 55.2087V55.2095ZM32.9806 57.4874H33.2005C33.2005 56.4922 32.9702 55.6783 32.4843 55.0713L32.3129 55.2087L32.1415 55.3461C32.5462 55.8508 32.7608 56.5564 32.7608 57.4867H32.9806V57.4874ZM32.3129 59.7661L32.4843 59.9035C32.9702 59.2972 33.2005 58.4834 33.2005 57.4874H32.7615C32.7615 58.4177 32.5469 59.1232 32.1423 59.628L32.3137 59.7653L32.3129 59.7661ZM30.5707 60.5993V60.8195C31.3583 60.8195 32.0029 60.5119 32.4843 59.902L32.3122 59.7653L32.14 59.6287C31.7443 60.1304 31.2279 60.379 30.5707 60.379V60.5993ZM28.8194 59.7661L28.648 59.9035C29.1354 60.5119 29.783 60.8195 30.5707 60.8195V60.3798C29.9134 60.3798 29.3932 60.1312 28.9901 59.6287L28.8187 59.7661H28.8194ZM28.1614 57.4874H27.9416C27.9416 58.4819 28.1681 59.2957 28.6466 59.902L28.8187 59.7653L28.9908 59.6287C28.5922 59.1232 28.3805 58.4177 28.3805 57.4867H28.1607L28.1614 57.4874ZM28.8194 55.2095L28.6473 55.0728C28.1689 55.6791 27.9423 56.4929 27.9423 57.4874H28.3813C28.3813 56.5564 28.5936 55.8508 28.9916 55.3454L28.8194 55.2087V55.2095ZM30.5707 60.9584V60.7382C29.6287 60.7382 28.8783 60.4373 28.2985 59.8445L28.1421 59.9983L27.9856 60.1521C28.657 60.839 29.5259 61.1779 30.5714 61.1779V60.9577L30.5707 60.9584ZM32.9993 59.9983L32.842 59.8452C32.2697 60.4365 31.5193 60.7382 30.5707 60.7382V61.1779C31.6221 61.1779 32.491 60.8397 33.1572 60.1513L33 59.9983H32.9993ZM33.9382 57.4874H33.7184C33.7184 58.467 33.4218 59.2457 32.842 59.8452L32.9993 59.9983L33.1565 60.1513C33.8279 59.4585 34.1573 58.5633 34.1573 57.4874H33.9375H33.9382ZM32.9993 54.9862L32.8428 55.14C33.4225 55.7329 33.7184 56.5078 33.7184 57.4874H34.1573C34.1573 56.4115 33.8279 55.5193 33.1557 54.8324L32.9993 54.9862ZM30.5707 54.0171V54.2374C31.5185 54.2374 32.2682 54.5413 32.8413 55.1393L32.9993 54.987L33.1572 54.8347C32.4918 54.1396 31.6221 53.7976 30.5699 53.7976V54.0179L30.5707 54.0171ZM28.1421 54.9862L28.2993 55.1393C28.8791 54.5405 29.6295 54.2366 30.5707 54.2366V53.7969C29.5244 53.7969 28.6562 54.1396 27.9841 54.8332L28.1413 54.9862H28.1421ZM27.2135 57.4874H27.4334C27.4334 56.5078 27.727 55.7321 28.3 55.1393L28.1428 54.9862L27.9856 54.8332C27.3201 55.5201 26.9945 56.4123 26.9945 57.4874H27.2143H27.2135ZM28.1421 59.9983L28.3 59.846C27.7255 59.2464 27.4326 58.467 27.4326 57.4874H26.9937C26.9937 58.5625 27.3194 59.457 27.9841 60.1506L28.1421 59.9983ZM32.3129 55.2095L32.1408 55.3461V55.3476L32.3129 55.2102V55.2095ZM32.3129 59.7661L32.1415 59.6287V59.6302L32.3129 59.7668V59.7661ZM28.8194 59.7661L28.6473 59.9027V59.9042L28.8194 59.7668V59.7661ZM28.8194 55.2095L28.648 55.0721V55.0736L28.8194 55.2102V55.2095ZM32.9993 54.9862L32.8413 55.1385H32.842L32.8428 55.14L32.9993 54.9862ZM28.1421 59.9983L27.9841 60.1506H27.9848L27.9856 60.1521L28.1421 59.9983ZM24.3579 54.7824L24.504 54.6182C24.15 54.3008 23.6761 54.1553 23.1097 54.1553V54.595C23.6016 54.595 23.96 54.7204 24.2119 54.9459L24.3579 54.7817V54.7824ZM24.8133 55.8979H25.0331C25.0331 55.3692 24.8632 54.9317 24.5033 54.6174L24.3587 54.7832L24.2141 54.9489C24.4608 55.1639 24.5934 55.47 24.5934 55.8979H24.8133ZM24.7164 56.4698L24.9079 56.5765C25.0011 56.4085 25.0323 56.1696 25.0323 55.8979H24.5934C24.5934 56.1554 24.5599 56.298 24.5241 56.363L24.7156 56.4698H24.7164ZM24.8036 56.5571L24.9586 56.4018L24.8714 56.3145L24.7164 56.4698L24.5614 56.6251L24.6486 56.7124L24.8036 56.5571ZM25.5488 56.4698L25.4817 56.2607C25.3327 56.3085 25.1098 56.3376 24.8036 56.3376V56.7774C25.1292 56.7774 25.4035 56.7475 25.6158 56.6796L25.5488 56.4705V56.4698ZM25.5778 56.4212L25.3893 56.3077L25.3602 56.3563L25.5488 56.4698L25.7373 56.5832L25.7664 56.5347L25.5778 56.4212ZM25.6352 56.2465L25.4213 56.1972C25.4124 56.2353 25.4049 56.2637 25.3982 56.2839C25.3908 56.3063 25.3871 56.3115 25.3893 56.3085L25.5778 56.422L25.7664 56.5355C25.8051 56.4705 25.8305 56.3824 25.8498 56.2973L25.636 56.248L25.6352 56.2465ZM25.6643 55.9464H25.4444C25.4444 56.0434 25.4355 56.1278 25.4206 56.201L25.6352 56.2473L25.8498 56.2936C25.8729 56.1853 25.8834 56.0696 25.8834 55.9471H25.6635L25.6643 55.9464ZM24.9772 54.5502L24.8431 54.7242C25.2477 55.0385 25.4452 55.4402 25.4452 55.9464H25.8841C25.8841 55.3028 25.6233 54.7734 25.1121 54.3762L24.9779 54.5502H24.9772ZM23.1194 54.0171V54.2374C23.8751 54.2374 24.4407 54.4084 24.8416 54.7234L24.9772 54.5502L25.1128 54.377C24.6106 53.9813 23.9377 53.7969 23.1194 53.7969V54.0171ZM20.6133 54.9765L20.7706 55.1296C21.3414 54.5405 22.1156 54.2366 23.1194 54.2366V53.7969C22.0203 53.7969 21.1238 54.1329 20.4553 54.8235L20.6126 54.9765H20.6133ZM19.6848 57.4777H19.9046C19.9046 56.4907 20.1983 55.7157 20.7706 55.1303L20.6141 54.9765L20.4576 54.8227C19.7914 55.5044 19.4657 56.3966 19.4657 57.4777H19.6856H19.6848ZM20.6133 59.9983L20.7713 59.846C20.1975 59.2472 19.9039 58.4647 19.9039 57.4777H19.465C19.465 58.5588 19.7906 59.457 20.4553 60.1506L20.6133 59.9983ZM23.071 60.9584V60.7382C22.1015 60.7382 21.3429 60.4358 20.7706 59.8452L20.6133 59.9983L20.4561 60.1513C21.123 60.8405 22.0024 61.1779 23.0717 61.1779V60.9577L23.071 60.9584ZM24.0293 60.8419L23.9749 60.6292C23.691 60.7016 23.3899 60.7389 23.071 60.7389V61.1787C23.4235 61.1787 23.761 61.1376 24.083 61.0555L24.0286 60.8427L24.0293 60.8419ZM24.7648 60.5702L24.6612 60.3761C24.501 60.4619 24.2737 60.547 23.9719 60.6292L24.0293 60.8412L24.0867 61.0532C24.4041 60.9674 24.6672 60.8711 24.8684 60.7636L24.7648 60.5694V60.5702ZM25.2678 60.2312L25.127 60.0625C24.9839 60.1819 24.8282 60.2872 24.6605 60.3768L24.7641 60.5709L24.8677 60.765C25.0614 60.6613 25.241 60.5396 25.4079 60.4007L25.2671 60.232L25.2678 60.2312ZM25.5585 59.9692L25.3915 59.8258C25.3669 59.8542 25.2857 59.9296 25.1277 60.0617L25.2686 60.2305L25.4094 60.3992C25.5607 60.273 25.6725 60.1737 25.7261 60.1118L25.5592 59.9684L25.5585 59.9692ZM25.6546 59.8437L25.4661 59.7302C25.4571 59.7459 25.4348 59.7758 25.3923 59.8243L25.5577 59.9692L25.7231 60.114C25.7708 60.0587 25.8133 60.0057 25.8431 59.9565L25.6546 59.843V59.8437ZM25.481 59.669L25.326 59.8243L25.5003 59.999L25.6553 59.8437L25.8103 59.6884L25.636 59.5137L25.481 59.669ZM25.2388 59.8527L25.3714 60.0274L25.6136 59.843L25.481 59.6683L25.3483 59.4936L25.1061 59.678L25.2388 59.8527ZM24.4451 60.2215L24.5144 60.4298C24.8878 60.3051 25.1806 60.173 25.3714 60.0281L25.2388 59.8534L25.1061 59.6787C24.9742 59.7788 24.738 59.893 24.3758 60.0139L24.4451 60.2223V60.2215ZM23.2938 60.4059V60.6262C23.7223 60.6262 24.1307 60.5612 24.5159 60.4306L24.4451 60.2223L24.3743 60.0139C24.0375 60.1282 23.6776 60.1864 23.2931 60.1864V60.4067L23.2938 60.4059ZM21.3295 59.6205L21.1663 59.7676C21.6872 60.3462 22.4055 60.6254 23.2938 60.6254V60.1857C22.5046 60.1857 21.9137 59.9415 21.4927 59.4734L21.3295 59.6205ZM20.6327 57.4098H20.4129C20.4129 58.3945 20.6536 59.1897 21.1648 59.7661L21.3287 59.6197L21.4927 59.4734C21.0746 59.0023 20.851 58.3244 20.851 57.409H20.6312L20.6327 57.4098ZM21.3004 55.1998L21.1305 55.0602C20.6439 55.6537 20.4129 56.4451 20.4129 57.4098H20.8518C20.8518 56.5131 21.0657 55.8314 21.4696 55.3386L21.2997 55.199L21.3004 55.1998ZM23.1097 54.3755V54.1553C22.2885 54.1553 21.6201 54.4554 21.1297 55.0609L21.3004 55.1998L21.4711 55.3386C21.8712 54.8451 22.4093 54.5958 23.1097 54.5958V54.3755ZM24.3579 54.7824L24.2119 54.9467H24.2126L24.2134 54.9482L24.3579 54.7824ZM24.7164 56.4698L24.5249 56.363L24.4444 56.5078L24.5614 56.6251L24.7164 56.4698ZM24.8036 56.5571L24.6486 56.7124L24.7127 56.7766H24.8036V56.5564V56.5571ZM25.5488 56.4698L25.6158 56.6788L25.6941 56.6534L25.7366 56.5825L25.548 56.469L25.5488 56.4698ZM25.6352 56.2465L25.8491 56.2958V56.2943L25.8498 56.2928L25.6352 56.2465ZM24.9772 54.5502L24.8416 54.7234H24.8431L24.9772 54.5502ZM20.6133 54.9765L20.7698 55.1303H20.7706L20.6133 54.9765ZM20.6133 59.9983L20.4553 60.1506H20.4561L20.6133 59.9983ZM24.0293 60.8419L24.0837 61.0547H24.0852L24.0867 61.054L24.0293 60.8419ZM25.5585 59.9692L25.393 59.8243V59.8258L25.5599 59.9692H25.5585ZM25.6546 59.8437L25.8431 59.9572L25.9311 59.8101L25.8096 59.6884L25.6546 59.8437ZM25.481 59.669L25.636 59.5137L25.5003 59.3778L25.3476 59.4943L25.4802 59.669H25.481ZM24.4451 60.2215L24.3758 60.0132H24.3751L24.4459 60.2215H24.4451ZM21.3295 59.6205L21.1655 59.7668H21.1663L21.3295 59.6205ZM21.3004 55.1998L21.4703 55.3394H21.4711L21.3004 55.1998ZM14.4669 54.8892L14.3246 54.7219C13.9632 55.0303 13.7925 55.4618 13.7925 55.9852H14.2315C14.2315 55.5649 14.3641 55.2662 14.6093 55.0572L14.4669 54.8899V54.8892ZM15.7248 54.5017V54.2814C15.1607 54.2814 14.686 54.4196 14.3261 54.7204L14.4669 54.8892L14.6078 55.0579C14.8671 54.8414 15.2315 54.7212 15.7248 54.7212V54.5009V54.5017ZM16.9633 54.5017V54.2814H15.7248V54.7212H16.9633V54.5009V54.5017ZM16.9633 57.4777H17.1832V54.5017H16.7443V57.4777H16.9641H16.9633ZM15.7248 57.4777V57.6979H16.9633V57.2582H15.7248V57.4784V57.4777ZM15.2315 57.4389L15.1905 57.6546C15.344 57.6838 15.5229 57.6972 15.7248 57.6972V57.2574C15.54 57.2574 15.3902 57.2447 15.2725 57.2224L15.2315 57.4381V57.4389ZM15.1734 57.4L15.0519 57.583L15.11 57.6218L15.2315 57.4389L15.353 57.2559L15.2949 57.2171L15.1734 57.4ZM15.1637 57.4195L15.3597 57.518L15.3694 57.4986L15.1734 57.4L14.9774 57.3015L14.9677 57.3209L15.1637 57.4195ZM14.3119 56.9252L14.1443 57.0671C14.3857 57.3545 14.7143 57.5412 15.1138 57.6337L15.1637 57.4195L15.2136 57.2052C14.891 57.1305 14.6517 56.9872 14.4804 56.7833L14.3127 56.9252H14.3119ZM14.0124 55.9852H13.7925C13.7925 56.4063 13.9036 56.7721 14.142 57.0648L14.3119 56.9259L14.4818 56.7871C14.3201 56.5885 14.2315 56.3272 14.2315 55.986H14.0116L14.0124 55.9852ZM12.9184 60.7934L13.0883 60.933C13.4758 60.4589 13.917 59.837 14.4096 59.071L14.2247 58.9523L14.0399 58.8335C13.5518 59.5921 13.1219 60.1984 12.7485 60.6553L12.9184 60.7949V60.7934ZM12.9184 60.8808H13.1383V60.7934H12.6993V60.8808H12.9192H12.9184ZM13.8089 60.8808V60.6605H12.9184V61.1003H13.8089V60.88V60.8808ZM15.7248 57.8853L15.54 57.7666L13.6241 60.7621L13.8089 60.8808L13.9937 60.9995L15.9096 58.0041L15.7248 57.8853ZM16.9633 57.8853V57.6651H15.7248V58.1049H16.9633V57.8846V57.8853ZM16.9633 60.8808H17.1832V57.8853H16.7443V60.8808H16.9641H16.9633ZM17.8248 60.8808V60.6605H16.9633V61.1003H17.8248V60.88V60.8808ZM17.8248 54.094H17.605V60.88H18.0439V54.094H17.8241H17.8248ZM15.5892 54.094V54.3143H17.8248V53.8745H15.5892V54.0948V54.094ZM13.7799 54.5987L13.9118 54.7742C14.3067 54.4756 14.8582 54.3143 15.5892 54.3143V53.8745C14.7978 53.8745 14.1428 54.0492 13.648 54.4233L13.7799 54.5987ZM13.1122 55.9852H13.332C13.332 55.4618 13.5258 55.0661 13.9125 54.7742L13.7806 54.5987L13.6487 54.4233C13.145 54.8033 12.8938 55.3327 12.8938 55.9852H13.1137H13.1122ZM13.5861 57.2261L13.7426 57.0723C13.4714 56.7953 13.3313 56.4391 13.3313 55.9852H12.8923C12.8923 56.5399 13.0682 57.0111 13.4289 57.3799L13.5854 57.2261H13.5861ZM14.9118 57.8368L14.9461 57.6196C14.411 57.5344 14.0161 57.3463 13.7411 57.0708L13.5861 57.2261L13.4311 57.3814C13.7881 57.739 14.2769 57.9578 14.8775 58.0541L14.9118 57.8368ZM14.2247 58.9515L14.4118 59.0672L15.0989 57.9525L14.9118 57.8368L14.7248 57.7211L14.0377 58.8358L14.2247 58.9515ZM14.4669 54.8892L14.3261 54.7204H14.3254L14.3246 54.7219L14.4669 54.8892ZM16.9633 54.5017H17.1832V54.2814H16.9633V54.5017ZM16.9633 57.4777V57.6979H17.1832V57.4777H16.9633ZM15.2315 57.4389L15.11 57.6218L15.1473 57.6464L15.1913 57.6546L15.2323 57.4389H15.2315ZM15.1734 57.4L15.2949 57.2171L15.0877 57.079L14.9767 57.3015L15.1726 57.4H15.1734ZM15.1637 57.4195L15.1138 57.6337L15.2822 57.6733L15.3597 57.518L15.1637 57.4195ZM14.3119 56.9252L14.142 57.0641V57.0656L14.1443 57.0671L14.3119 56.9252ZM12.9184 60.7934L12.7485 60.6538L12.6986 60.7143V60.7927H12.9184V60.7934ZM12.9184 60.8808H12.6986V61.101H12.9184V60.8808ZM13.8089 60.8808V61.101H13.9289L13.9937 60.9995L13.8089 60.8808ZM15.7248 57.8853V57.6651H15.6049L15.54 57.7666L15.7248 57.8853ZM16.9633 57.8853H17.1832V57.6651H16.9633V57.8853ZM16.9633 60.8808H16.7435V61.101H16.9633V60.8808ZM17.8248 60.8808V61.101H18.0446V60.8808H17.8248ZM17.8248 54.094H18.0446V53.8738H17.8248V54.094ZM13.5861 57.2261L13.4296 57.3799H13.4304L13.4311 57.3814L13.5861 57.2261ZM14.9118 57.8368L15.0989 57.9525L15.2718 57.6718L14.9461 57.6203L14.9118 57.8376V57.8368ZM14.2247 58.9515L14.4096 59.0702L14.411 59.0687V59.0672L14.2255 58.9515H14.2247ZM11.4534 60.8808V60.6605H10.5628V61.1003H11.4534V60.88V60.8808ZM10.5539 54.094L10.3363 54.1231L11.2365 60.9091L11.4541 60.88L11.6717 60.8509L10.7715 54.0649L10.5539 54.094ZM9.52777 54.094V54.3143H10.5532V53.8745H9.52777V54.0948V54.094ZM7.56343 59.6593L7.77059 59.7325L9.73493 54.1679L9.52777 54.0948L9.3206 54.0216L7.35626 59.5861L7.56343 59.6593ZM5.46346 54.094L5.25853 54.1717L7.3585 59.7362L7.56343 59.6586L7.76836 59.5809L5.66839 54.0164L5.46346 54.094ZM4.41869 54.094V54.3143H5.46346V53.8745H4.41869V54.0948V54.094ZM4.34119 54.1814L4.50514 54.3277L4.58264 54.2404L4.41869 54.094L4.25475 53.9477L4.17725 54.035L4.34119 54.1814ZM4.35088 54.3658L4.56997 54.3546L4.56028 54.1702L4.34119 54.1814L4.12211 54.1926L4.13179 54.377L4.35088 54.3658ZM4.34119 54.9377L4.56028 54.9482C4.57295 54.6824 4.57668 54.4823 4.56997 54.3531L4.35088 54.3651L4.13179 54.377C4.13775 54.4808 4.13477 54.6615 4.12211 54.9258L4.34119 54.9362V54.9377ZM4.27338 55.7814L4.49172 55.8053C4.52451 55.5044 4.54761 55.2184 4.56028 54.9489L4.34119 54.9385L4.12211 54.928C4.10944 55.1878 4.08708 55.4648 4.05504 55.7582L4.27338 55.7821V55.7814ZM3.68318 60.8808L3.90153 60.9062L4.49172 55.8068L4.27338 55.7814L4.05504 55.756L3.46484 60.8554L3.68318 60.8808ZM4.14819 60.8808V60.6605H3.68393V61.1003H4.14819V60.88V60.8808ZM4.82483 54.9571L4.60648 54.9317L3.9291 60.8554L4.14744 60.8808L4.36578 60.9062L5.04317 54.9825L4.82483 54.9571ZM4.86358 54.928L4.73168 54.7518L4.69293 54.7809L4.82483 54.9571L4.95673 55.1333L4.99548 55.1042L4.86358 54.928ZM6.97323 60.5411L7.17891 60.4634L5.06925 54.8504L4.86358 54.928L4.6579 55.0056L6.76756 60.6187L6.97323 60.5411ZM7.11854 60.6867L7.27355 60.5314L7.12823 60.3858L6.97323 60.5411L6.81823 60.6964L6.96354 60.8419L7.11854 60.6867ZM7.70874 60.6867V60.4664H7.11854V60.9062H7.70874V60.6859V60.6867ZM9.73121 54.8989L9.52404 54.8265L7.50158 60.6142L7.70874 60.6867L7.91591 60.7591L9.93837 54.9713L9.73121 54.8989ZM9.76996 54.9377L9.92496 54.7824L9.88621 54.7436L9.73121 54.8989L9.57621 55.0542L9.61496 55.093L9.76996 54.9377ZM10.5628 60.8808L10.7804 60.8517L9.98681 54.9086L9.76921 54.9377L9.55161 54.9668L10.3453 60.9099L10.5628 60.8808ZM11.4534 60.8808V61.101H11.7037L11.671 60.8524L11.4534 60.8815V60.8808ZM10.5539 54.094L10.7715 54.0649L10.7462 53.8738H10.5539V54.094ZM9.52777 54.094V53.8738H9.37277L9.32135 54.0201L9.52851 54.0933L9.52777 54.094ZM7.56343 59.6593L7.3585 59.737L7.57088 60.2992L7.77059 59.7325L7.56343 59.6593ZM5.46346 54.094L5.66839 54.0164L5.61474 53.8745H5.46272V54.0948L5.46346 54.094ZM4.41869 54.094V53.8738H4.32033L4.25475 53.9477L4.41869 54.094ZM4.34119 54.1814L4.17725 54.035L4.11763 54.1022L4.12211 54.1926L4.34119 54.1814ZM4.27338 55.7814L4.49172 55.8068V55.8053L4.27338 55.7814ZM3.68318 60.8808L3.46484 60.8554L3.43652 61.1003H3.68318V60.88V60.8808ZM4.14819 60.8808V61.101H4.34417L4.36653 60.9062L4.14819 60.8808ZM4.82483 54.9571L4.69293 54.7809L4.61766 54.8377L4.60723 54.9317L4.82557 54.9571H4.82483ZM4.86358 54.928L5.06925 54.8504L4.96641 54.5763L4.73242 54.7525L4.86432 54.9287L4.86358 54.928ZM6.97323 60.5411L6.76756 60.6187L6.78395 60.6635L6.81748 60.6971L6.97249 60.5418L6.97323 60.5411ZM7.11854 60.6867L6.96354 60.8419L7.02763 60.9062H7.11854V60.6859V60.6867ZM7.70874 60.6867V60.9069H7.86449L7.91591 60.7598L7.70874 60.6874V60.6867ZM9.73121 54.8989L9.88621 54.7436L9.63955 54.4965L9.52404 54.8265L9.73121 54.8989ZM9.76996 54.9377L9.98756 54.9086L9.97787 54.8347L9.9257 54.7824L9.7707 54.9377H9.76996ZM10.5628 60.8808L10.3453 60.9099L10.3706 61.1003H10.5628V60.88V60.8808Z" fill="#fff"/>
<path d="M74.4983 55.7813C74.3046 55.3483 74.166 55.0474 74.0825 54.8794L72.5727 58.4953H75.64L74.4983 55.7806V55.7813ZM72.408 58.8932L71.5756 60.8807H71.0823L73.8306 54.3754L73.7144 54.1813V54.094H74.663L77.5559 60.88H76.6557L75.8136 58.8925H72.4073L72.408 58.8932ZM68.2267 54.4919V60.8807H67.3653V54.4919H66.5232C66.1879 54.4919 65.8846 54.5083 65.6133 54.5404C65.3488 54.5666 65.1684 54.5957 65.0716 54.6278L64.9263 54.6763L64.8391 54.5987V54.0947H70.7611V54.5987L70.674 54.6763C70.358 54.5539 69.8259 54.4919 69.077 54.4919H68.2252H68.2267ZM61.0177 54.3754C60.2568 54.3754 59.6532 54.6502 59.2084 55.1997C58.7635 55.7425 58.5407 56.4794 58.5407 57.4104C58.5407 58.3415 58.7732 59.097 59.2374 59.6212C59.7084 60.1445 60.3634 60.4066 61.2018 60.4066C61.6079 60.4066 61.9917 60.3454 62.3531 60.2222C62.7205 60.0997 62.985 59.9766 63.1467 59.8541L63.3889 59.6697L63.5633 59.8444C63.5439 59.8765 63.5119 59.9191 63.4664 59.9706C63.4277 60.0161 63.3308 60.1027 63.1758 60.2326C63.0208 60.3626 62.8531 60.4753 62.6728 60.5716C62.4924 60.6687 62.2473 60.759 61.9373 60.8434C61.634 60.921 61.315 60.9598 60.9789 60.9598C59.9595 60.9598 59.1405 60.6395 58.5213 59.9997C57.902 59.3531 57.592 58.5132 57.592 57.4791C57.592 56.4451 57.902 55.6111 58.5213 54.978C59.1405 54.3381 59.9759 54.0186 61.0274 54.0186C61.8143 54.0186 62.4336 54.1963 62.8852 54.5516C63.3435 54.907 63.5722 55.3722 63.5722 55.9478C63.5722 56.0576 63.5625 56.1576 63.5432 56.2487C63.5238 56.3331 63.5044 56.3906 63.485 56.4234L63.456 56.4719C63.2756 56.5302 63.0267 56.5593 62.7108 56.5593L62.6236 56.4719C62.6884 56.3555 62.7205 56.1651 62.7205 55.9C62.7205 55.4214 62.5692 55.0504 62.2659 54.7853C61.9626 54.5136 61.5468 54.3784 61.0177 54.3784V54.3754ZM53.6507 55.7813C53.4569 55.3483 53.3183 55.0474 53.2348 54.8794L51.7251 58.4953H54.7923L53.6507 55.7806V55.7813ZM51.5611 58.8932L50.7287 60.8807H50.2354L52.9837 54.3754L52.8675 54.1813V54.094H53.8161L56.709 60.88H55.8088L54.9667 58.8925H51.5604L51.5611 58.8932ZM47.8068 60.8807V54.5016H43.8297V60.8807H42.9683V54.0947H48.6772V60.8807H47.8061H47.8068Z" fill="#fff"/>
<path d="M75.6398 58.4961L75.8418 58.411L74.7001 55.6963L74.4982 55.7814L74.2962 55.8665L75.4379 58.5812L75.6398 58.4961ZM72.5726 58.4961V58.7163H75.6398V58.2766H72.5726V58.4968V58.4961ZM74.0816 54.8795L73.8789 54.7944L72.3691 58.4102L72.5718 58.4953L72.7745 58.5804L74.2843 54.9646L74.0816 54.8795ZM74.4982 55.7814L74.6986 55.6918C74.5049 55.2587 74.3648 54.9541 74.2783 54.7817L74.0823 54.8802L73.8864 54.9788C73.9676 55.1423 74.1047 55.4387 74.2985 55.8717L74.4989 55.7821L74.4982 55.7814ZM75.8134 58.8933V58.673H72.4071V59.1128H75.8134V58.8925V58.8933ZM76.6555 60.8808L76.8575 60.7949L76.0154 58.8074L75.8134 58.8933L75.6115 58.9791L76.4536 60.9666L76.6555 60.8808ZM77.5557 60.8808V60.6605H76.6555V61.1003H77.5557V60.88V60.8808ZM74.6621 54.094L74.4602 54.1806L77.353 60.9666L77.555 60.88L77.7569 60.7934L74.8641 54.0074L74.6621 54.094ZM73.7142 54.094V54.3143H74.6629V53.8745H73.7142V54.0948V54.094ZM73.7142 54.1814H73.9341V54.094H73.4951V54.1814H73.715H73.7142ZM73.8305 54.3755L74.019 54.262L73.9028 54.0679L73.7142 54.1814L73.5257 54.2949L73.6419 54.489L73.8305 54.3755ZM71.0822 60.8808L71.2841 60.9666L74.0324 54.4614L73.8305 54.3755L73.6285 54.2896L70.8802 60.7949L71.0822 60.8808ZM71.5755 60.8808V60.6605H71.0822V61.1003H71.5755V60.88V60.8808ZM72.4079 58.8933L72.2052 58.8082L71.3728 60.7957L71.5755 60.8808L71.7782 60.9659L72.6106 58.9784L72.4079 58.8933ZM75.6398 58.4961V58.7163H75.9707L75.8425 58.411L75.6406 58.4961H75.6398ZM72.5726 58.4961L72.3699 58.411L72.2425 58.7156H72.5718V58.4953L72.5726 58.4961ZM74.0816 54.8795L74.2776 54.7809L74.0637 54.3516L73.8789 54.7944L74.0816 54.8795ZM74.4982 55.7814L74.7001 55.6963V55.694L74.6979 55.6918L74.4974 55.7814H74.4982ZM75.8134 58.8933L76.0154 58.8074L75.9588 58.6738H75.8134V58.894V58.8933ZM76.6555 60.8808L76.4536 60.9666L76.5102 61.1003H76.6555V60.88V60.8808ZM77.5557 60.8808V61.101H77.8881L77.7577 60.7949L77.5557 60.8815V60.8808ZM74.6621 54.094L74.8641 54.0074L74.8074 53.8738H74.6629V54.094H74.6621ZM73.7142 54.094V53.8738H73.4944V54.094H73.7142ZM73.7142 54.1814H73.4944V54.2426L73.5257 54.2949L73.7142 54.1814ZM73.8305 54.3755L74.0324 54.4614L74.0756 54.3583L74.0183 54.2628L73.8297 54.3762L73.8305 54.3755ZM71.0822 60.8808L70.8802 60.7949L70.7513 61.1003H71.0822V60.88V60.8808ZM71.5755 60.8808V61.101H71.7216L71.7782 60.9659L71.5755 60.8808ZM72.4079 58.8933V58.673H72.2618L72.2052 58.8082L72.4079 58.8933ZM69.0783 54.492V54.2717H68.2266V54.7115H69.0783V54.4912V54.492ZM70.6753 54.6764L70.7543 54.4711C70.3973 54.3322 69.8288 54.2717 69.0783 54.2717V54.7115C69.8243 54.7115 70.3206 54.7742 70.5956 54.881L70.6746 54.6756L70.6753 54.6764ZM70.7617 54.5987L70.6157 54.4345L70.5285 54.5121L70.6746 54.6764L70.8206 54.8406L70.9078 54.763L70.7617 54.5987ZM70.7617 54.094H70.5419V54.598H70.9808V54.094H70.761H70.7617ZM64.8404 54.094V54.3143H70.7625V53.8745H64.8404V54.0948V54.094ZM64.8404 54.5987H65.0602V54.0948H64.6213V54.5987H64.8412H64.8404ZM64.9276 54.6764L65.0737 54.5121L64.9865 54.4345L64.8404 54.5987L64.6943 54.763L64.7815 54.8406L64.9276 54.6764ZM65.0722 54.6279L65.0029 54.4196L64.8575 54.4681L64.9269 54.6764L64.9962 54.8847L65.1415 54.8362L65.0722 54.6279ZM65.6147 54.5405L65.5931 54.3217C65.33 54.3471 65.1266 54.3777 65.0029 54.4196L65.0722 54.6279L65.1415 54.8362C65.2115 54.813 65.3695 54.7854 65.6355 54.7593L65.6139 54.5405H65.6147ZM66.5238 54.492V54.2717C66.1818 54.2717 65.8695 54.2882 65.5886 54.3217L65.6147 54.5398L65.6407 54.7578C65.9016 54.7264 66.1959 54.7107 66.5246 54.7107V54.4905L66.5238 54.492ZM67.3659 54.492V54.2717H66.5238V54.7115H67.3659V54.4912V54.492ZM67.3659 60.8808H67.5857V54.492H67.1468V60.8808H67.3666H67.3659ZM68.2266 60.8808V60.6605H67.3651V61.1003H68.2266V60.88V60.8808ZM68.2266 54.492H68.0067V60.8808H68.4457V54.492H68.2258H68.2266ZM70.6753 54.6764L70.5963 54.8817L70.7215 54.9302L70.8214 54.8406L70.6753 54.6764ZM70.7617 54.5987L70.9078 54.763L70.9816 54.6973V54.5987H70.7617ZM70.7617 54.094H70.9816V53.8738H70.7617V54.094ZM64.8404 54.094V53.8738H64.6206V54.094H64.8404ZM64.8404 54.5987H64.6206V54.6973L64.6943 54.763L64.8404 54.5987ZM64.9276 54.6764L64.7815 54.8406L64.8762 54.925L64.9969 54.8847L64.9276 54.6764ZM65.6147 54.5405L65.6363 54.7593H65.6385H65.6407L65.6147 54.5413V54.5405ZM67.3659 54.492H67.5857V54.2717H67.3659V54.492ZM67.3659 60.8808H67.146V61.101H67.3659V60.8808ZM68.2266 60.8808V61.101H68.4464V60.8808H68.2266ZM68.2266 54.492V54.2717H68.0067V54.492H68.2266ZM62.2657 54.7824L62.4118 54.6182C62.0578 54.3008 61.5839 54.1553 61.0175 54.1553V54.595C61.5094 54.595 61.8678 54.7204 62.1197 54.9459L62.2657 54.7817V54.7824ZM62.7203 55.8979H62.9402C62.9402 55.3692 62.7702 54.9317 62.4103 54.6174L62.2657 54.7832L62.1212 54.9489C62.3678 55.1639 62.5005 55.47 62.5005 55.8979H62.7203ZM62.6242 56.4698L62.8157 56.5765C62.9089 56.4085 62.9402 56.1696 62.9402 55.8979H62.5012C62.5012 56.1554 62.4677 56.298 62.4319 56.363L62.6234 56.4698H62.6242ZM62.7106 56.5571L62.8656 56.4018L62.7784 56.3145L62.6234 56.4698L62.4684 56.6251L62.5556 56.7124L62.7106 56.5571ZM63.4558 56.4698L63.3888 56.2607C63.2397 56.3085 63.0169 56.3376 62.7106 56.3376V56.7774C63.0363 56.7774 63.3105 56.7475 63.5229 56.6796L63.4558 56.4705V56.4698ZM63.4849 56.4212L63.2964 56.3077L63.2673 56.3563L63.4558 56.4698L63.6444 56.5832L63.6734 56.5347L63.4849 56.4212ZM63.543 56.2465L63.3291 56.1972C63.3202 56.2353 63.3128 56.2637 63.306 56.2839C63.2986 56.3063 63.2949 56.3115 63.2971 56.3085L63.4856 56.422L63.6742 56.5355C63.7129 56.4705 63.7383 56.3824 63.7576 56.2973L63.5438 56.248L63.543 56.2465ZM63.5721 55.9464H63.3522C63.3522 56.0434 63.344 56.1278 63.3284 56.201L63.543 56.2473L63.7576 56.2936C63.7807 56.1853 63.7912 56.0696 63.7912 55.9471H63.5713L63.5721 55.9464ZM62.885 54.5502L62.7509 54.7242C63.1555 55.0385 63.353 55.4402 63.353 55.9464H63.7919C63.7919 55.3028 63.5311 54.7734 63.0199 54.3762L62.8858 54.5502H62.885ZM61.0272 54.0171V54.2374C61.7829 54.2374 62.3485 54.4084 62.7494 54.7234L62.885 54.5502L63.0206 54.377C62.5184 53.9813 61.8455 53.7969 61.0272 53.7969V54.0171ZM58.5211 54.9765L58.6784 55.1296C59.2492 54.5405 60.0234 54.2366 61.0272 54.2366V53.7969C59.9281 53.7969 59.0316 54.1329 58.3631 54.8235L58.5204 54.9765H58.5211ZM57.5919 57.4777H57.8117C57.8117 56.4907 58.1053 55.7157 58.6776 55.1303L58.5211 54.9765L58.3646 54.8227C57.6984 55.5044 57.3728 56.3966 57.3728 57.4777H57.5926H57.5919ZM58.5211 59.9983L58.6791 59.846C58.1053 59.2472 57.8117 58.4647 57.8117 57.4777H57.3728C57.3728 58.5588 57.6984 59.457 58.3631 60.1506L58.5211 59.9983ZM60.9788 60.9584V60.7382C60.0093 60.7382 59.2507 60.4358 58.6784 59.8452L58.5211 59.9983L58.3639 60.1513C59.0308 60.8405 59.9102 61.1779 60.9795 61.1779V60.9577L60.9788 60.9584ZM61.9371 60.8419L61.8827 60.6292C61.5988 60.7016 61.2977 60.7389 60.9788 60.7389V61.1787C61.3313 61.1787 61.6688 61.1376 61.9908 61.0555L61.9364 60.8427L61.9371 60.8419ZM62.6726 60.5702L62.569 60.3761C62.4088 60.4619 62.1815 60.547 61.8797 60.6292L61.9371 60.8412L61.9945 61.0532C62.312 60.9674 62.575 60.8711 62.7762 60.7636L62.6726 60.5694V60.5702ZM63.1756 60.2312L63.0348 60.0625C62.8917 60.1819 62.736 60.2872 62.5683 60.3768L62.6719 60.5709L62.7755 60.765C62.9692 60.6613 63.1488 60.5396 63.3157 60.4007L63.1749 60.232L63.1756 60.2312ZM63.4655 59.9692L63.2986 59.8258C63.274 59.8542 63.1928 59.9296 63.0348 60.0617L63.1756 60.2305L63.3165 60.3992C63.4678 60.273 63.5795 60.1737 63.6332 60.1118L63.4663 59.9684L63.4655 59.9692ZM63.5624 59.8437L63.3739 59.7302C63.3649 59.7459 63.3426 59.7758 63.3001 59.8243L63.4655 59.9692L63.631 60.114C63.6786 60.0587 63.7211 60.0057 63.7509 59.9565L63.5624 59.843V59.8437ZM63.388 59.669L63.233 59.8243L63.4074 59.999L63.5624 59.8437L63.7174 59.6884L63.543 59.5137L63.388 59.669ZM63.1466 59.8527L63.2792 60.0274L63.5214 59.843L63.3888 59.6683L63.2561 59.4936L63.0139 59.678L63.1466 59.8527ZM62.3529 60.2215L62.4222 60.4298C62.7956 60.3051 63.0884 60.173 63.2792 60.0281L63.1466 59.8534L63.0139 59.6787C62.882 59.7788 62.6458 59.893 62.2836 60.0139L62.3529 60.2223V60.2215ZM61.2016 60.4059V60.6262C61.6301 60.6262 62.0385 60.5612 62.4237 60.4306L62.3529 60.2223L62.2821 60.0139C61.9453 60.1282 61.5854 60.1864 61.2009 60.1864V60.4067L61.2016 60.4059ZM59.2373 59.6205L59.0741 59.7676C59.595 60.3462 60.3133 60.6254 61.2016 60.6254V60.1857C60.4124 60.1857 59.8215 59.9415 59.4005 59.4734L59.2373 59.6205ZM58.5405 57.4098H58.3207C58.3207 58.3945 58.5614 59.1897 59.0726 59.7661L59.2365 59.6197L59.4005 59.4734C58.9824 59.0023 58.7589 58.3244 58.7589 57.409H58.539L58.5405 57.4098ZM59.2082 55.1998L59.0383 55.0602C58.5517 55.6537 58.3207 56.4451 58.3207 57.4098H58.7596C58.7596 56.5131 58.9735 55.8314 59.3774 55.3386L59.2075 55.199L59.2082 55.1998ZM61.0175 54.3755V54.1553C60.1963 54.1553 59.5279 54.4554 59.0376 55.0609L59.2082 55.1998L59.3789 55.3386C59.779 54.8451 60.3171 54.5958 61.0175 54.5958V54.3755ZM62.2657 54.7824L62.1197 54.9467H62.1204L62.1212 54.9482L62.2657 54.7824ZM62.6242 56.4698L62.4327 56.363L62.3522 56.5078L62.4692 56.6251L62.6242 56.4698ZM62.7106 56.5571L62.5556 56.7124L62.6197 56.7766H62.7106V56.5564V56.5571ZM63.4558 56.4698L63.5229 56.6788L63.6011 56.6534L63.6436 56.5825L63.4551 56.469L63.4558 56.4698ZM63.543 56.2465L63.7569 56.2958V56.2943L63.7576 56.2928L63.543 56.2465ZM62.885 54.5502L62.7494 54.7234H62.7509L62.885 54.5502ZM58.5211 54.9765L58.6776 55.1303H58.6784L58.5211 54.9765ZM58.5211 59.9983L58.3631 60.1506H58.3639L58.5211 59.9983ZM61.9371 60.8419L61.9915 61.0547H61.993L61.9945 61.054L61.9371 60.8419ZM63.4655 59.9692L63.3001 59.8243V59.8258L63.467 59.9692H63.4655ZM63.5624 59.8437L63.7509 59.9572L63.8389 59.8101L63.7174 59.6884L63.5624 59.8437ZM63.388 59.669L63.543 59.5137L63.4074 59.3778L63.2546 59.4943L63.3873 59.669H63.388ZM62.3529 60.2215L62.2836 60.0132H62.2829L62.3537 60.2215H62.3529ZM59.2373 59.6205L59.0733 59.7668H59.0741L59.2373 59.6205ZM59.2082 55.1998L59.3781 55.3394H59.3789L59.2082 55.1998ZM54.7922 58.4961L54.9941 58.411L53.8525 55.6963L53.6505 55.7814L53.4486 55.8665L54.5902 58.5812L54.7922 58.4961ZM51.7249 58.4961V58.7163H54.7922V58.2766H51.7249V58.4968V58.4961ZM53.2347 54.8795L53.032 54.7944L51.5222 58.4102L51.7249 58.4953L51.9276 58.5804L53.4374 54.9646L53.2347 54.8795ZM53.6505 55.7814L53.851 55.6918C53.6572 55.2587 53.5171 54.9541 53.4307 54.7817L53.2347 54.8802L53.0387 54.9788C53.1199 55.1423 53.2571 55.4387 53.4508 55.8717L53.6513 55.7821L53.6505 55.7814ZM54.9665 58.8933V58.673H51.5602V59.1128H54.9665V58.8925V58.8933ZM55.8086 60.8808L56.0106 60.7949L55.1685 58.8074L54.9665 58.8933L54.7646 58.9791L55.6067 60.9666L55.8086 60.8808ZM56.7081 60.8808V60.6605H55.8079V61.1003H56.7081V60.88V60.8808ZM53.8152 54.094L53.6133 54.1806L56.5061 60.9666L56.7081 60.88L56.91 60.7934L54.0172 54.0074L53.8152 54.094ZM52.8666 54.094V54.3143H53.8152V53.8745H52.8666V54.0948V54.094ZM52.8666 54.1814H53.0864V54.094H52.6475V54.1814H52.8673H52.8666ZM52.9828 54.3755L53.1714 54.262L53.0551 54.0679L52.8666 54.1814L52.678 54.2949L52.7943 54.489L52.9828 54.3755ZM50.2353 60.8808L50.4372 60.9666L53.1855 54.4614L52.9836 54.3755L52.7816 54.2896L50.0333 60.7949L50.2353 60.8808ZM50.7286 60.8808V60.6605H50.2353V61.1003H50.7286V60.88V60.8808ZM51.561 58.8933L51.3583 58.8082L50.5259 60.7957L50.7286 60.8808L50.9313 60.9659L51.7637 58.9784L51.561 58.8933ZM54.7922 58.4961V58.7163H55.123L54.9949 58.411L54.7929 58.4961H54.7922ZM51.7249 58.4961L51.5222 58.411L51.3948 58.7156H51.7242V58.4953L51.7249 58.4961ZM53.2347 54.8795L53.4307 54.7809L53.2168 54.3516L53.032 54.7944L53.2347 54.8795ZM53.6505 55.7814L53.8525 55.6963V55.694L53.8502 55.6918L53.6498 55.7814H53.6505ZM54.9665 58.8933L55.1685 58.8074L55.1119 58.6738H54.9665V58.894V58.8933ZM55.8086 60.8808L55.6067 60.9666L55.6633 61.1003H55.8086V60.88V60.8808ZM56.7081 60.8808V61.101H57.0404L56.91 60.7949L56.7081 60.8815V60.8808ZM53.8152 54.094L54.0172 54.0074L53.9605 53.8738H53.816V54.094H53.8152ZM52.8666 54.094V53.8738H52.6467V54.094H52.8666ZM52.8666 54.1814H52.6467V54.2426L52.678 54.2949L52.8666 54.1814ZM52.9828 54.3755L53.1848 54.4614L53.228 54.3583L53.1706 54.2628L52.9821 54.3762L52.9828 54.3755ZM50.2353 60.8808L50.0333 60.7949L49.9044 61.1003H50.2353V60.88V60.8808ZM50.7286 60.8808V61.101H50.8747L50.9313 60.9659L50.7286 60.8808ZM51.561 58.8933V58.673H51.4149L51.3583 58.8082L51.561 58.8933ZM48.6778 60.8808V60.6605H47.8067V61.1003H48.6778V60.88V60.8808ZM48.6778 54.094H48.458V60.88H48.8969V54.094H48.6771H48.6778ZM42.9689 54.094V54.3143H48.6778V53.8745H42.9689V54.0948V54.094ZM42.9689 60.8808H43.1887V54.0948H42.7498V60.8808H42.9696H42.9689ZM43.8303 60.8808V60.6605H42.9689V61.1003H43.8303V60.88V60.8808ZM43.8303 54.5017H43.6105V60.8808H44.0494V54.5017H43.8296H43.8303ZM47.8067 54.5017V54.2814H43.8296V54.7212H47.8067V54.5009V54.5017ZM47.8067 60.8808H48.0265V54.5017H47.5876V60.8808H47.8074H47.8067ZM48.6778 60.8808V61.101H48.8976V60.8808H48.6778ZM48.6778 54.094H48.8976V53.8738H48.6778V54.094ZM42.9689 54.094V53.8738H42.749V54.094H42.9689ZM42.9689 60.8808H42.749V61.101H42.9689V60.8808ZM43.8303 60.8808V61.101H44.0501V60.8808H43.8303ZM43.8303 54.5017V54.2814H43.6105V54.5017H43.8303ZM47.8067 54.5017H48.0265V54.2814H47.8067V54.5017ZM47.8067 60.8808H47.5868V61.101H47.8067V60.8808Z" fill="#fff"/>
<path d="M102.238 54.5014H100.951V57.5745H102.238C102.767 57.5745 103.183 57.4423 103.486 57.1773C103.796 56.9055 103.95 56.5247 103.95 56.0335C103.95 55.5422 103.795 55.1741 103.486 54.9091C103.183 54.6373 102.767 54.5021 102.238 54.5021V54.5014ZM100.089 60.8805V54.0945H102.373C103.134 54.0945 103.737 54.2655 104.182 54.6082C104.627 54.9509 104.85 55.4257 104.85 56.0335C104.85 56.6412 104.627 57.119 104.182 57.4685C103.737 57.8111 103.134 57.9821 102.373 57.9821H100.95V60.8805H100.089H100.089ZM95.4684 55.7811C95.2747 55.3481 95.1361 55.0472 95.0526 54.8792L93.5428 58.495H96.6101L95.4684 55.7804V55.7811ZM93.3781 58.893L92.5458 60.8805H92.0524L94.8007 54.3752L94.6845 54.1811V54.0938H95.6331L98.526 60.8797H97.6258L96.7837 58.8922H93.3774L93.3781 58.893ZM90.2632 58.9415C90.2632 58.4503 90.1082 58.0725 89.799 57.8074C89.4957 57.5357 89.0798 57.4005 88.5508 57.4005H87.2638V60.4736H88.5508C89.0798 60.4736 89.4957 60.3414 89.799 60.0764C90.109 59.8046 90.2632 59.4268 90.2632 58.9423V58.9415ZM86.4023 60.8805V54.0945H90.5725V54.5985L90.495 54.6761C90.179 54.5537 89.6469 54.4917 88.898 54.4917H87.2631V56.9929H88.6856C89.4465 56.9929 90.0501 57.1638 90.495 57.5065C90.9399 57.8492 91.1627 58.3271 91.1627 58.9415C91.1627 59.556 90.9399 60.0241 90.495 60.3668C90.0501 60.7095 89.4465 60.8805 88.6856 60.8805H86.4023Z" fill="#fff"/>
<path d="M103.486 54.9088L103.632 54.7446C103.278 54.4273 102.804 54.2817 102.238 54.2817V54.7214C102.73 54.7214 103.088 54.8469 103.34 55.0723L103.486 54.9081V54.9088ZM103.95 56.0332H104.17C104.17 55.4972 103.997 55.0559 103.628 54.7416L103.486 54.9088L103.344 55.0761C103.596 55.2911 103.731 55.5995 103.731 56.0332H103.951H103.95ZM103.486 57.1778L103.631 57.3435C103.997 57.0225 104.17 56.5753 104.17 56.034H103.731C103.731 56.4752 103.595 56.7911 103.342 57.0128L103.486 57.1785V57.1778ZM102.238 57.575V57.7953C102.803 57.7953 103.276 57.6534 103.631 57.3435L103.486 57.1778L103.342 57.012C103.09 57.2323 102.73 57.3555 102.238 57.3555V57.5757V57.575ZM100.951 57.575V57.7953H102.238V57.3555H100.951V57.5757V57.575ZM100.951 54.5019H100.731V57.575H101.17V54.5019H100.95H100.951ZM102.238 54.5019V54.2817H100.951V54.7214H102.238V54.5012V54.5019ZM100.951 60.881V60.6608H100.089V61.1005H100.951V60.8803V60.881ZM100.951 57.9819H100.731V60.8803H101.17V57.9819H100.95H100.951ZM102.374 57.9819V57.7617H100.951V58.2014H102.374V57.9812V57.9819ZM104.183 57.4682L104.049 57.2935C103.655 57.5974 103.104 57.7617 102.374 57.7617V58.2014C103.166 58.2014 103.821 58.023 104.317 57.6422L104.184 57.4675L104.183 57.4682ZM104.851 56.0332H104.631C104.631 56.579 104.435 56.9911 104.047 57.295L104.183 57.4682L104.318 57.6415C104.821 57.2472 105.07 56.703 105.07 56.0332H104.851ZM104.183 54.6087L104.049 54.7834C104.435 55.0806 104.631 55.489 104.631 56.034H105.07C105.07 55.3643 104.821 54.8222 104.317 54.4347L104.184 54.6094L104.183 54.6087ZM102.374 54.0943V54.3145C103.103 54.3145 103.655 54.4788 104.049 54.7827L104.183 54.6079L104.316 54.4332C103.821 54.0525 103.166 53.874 102.373 53.874V54.0943H102.374ZM100.089 54.0943V54.3145H102.373V53.8748H100.089V54.095V54.0943ZM100.089 60.881H100.309V54.095H99.8704V60.881H100.09H100.089ZM103.486 54.9088L103.34 55.0731L103.342 55.0746L103.344 55.0761L103.486 54.9088ZM100.951 57.575H100.731V57.7953H100.951V57.575ZM100.951 54.5019V54.2817H100.731V54.5019H100.951ZM100.951 60.881V61.1013H101.171V60.881H100.951ZM100.951 57.9819V57.7617H100.731V57.9819H100.951ZM104.183 57.4682L104.316 57.6429H104.317L104.318 57.6415L104.182 57.4682H104.183ZM100.089 54.0943V53.874H99.8697V54.0943H100.089ZM100.089 60.881H99.8697V61.1013H100.089V60.881ZM96.6102 58.4963L96.8121 58.4112L95.6705 55.6965L95.4685 55.7816L95.2666 55.8667L96.4082 58.5814L96.6102 58.4963ZM93.5429 58.4963V58.7166H96.6102V58.2768H93.5429V58.4971V58.4963ZM95.0527 54.8797L94.85 54.7946L93.3402 58.4105L93.5429 58.4956L93.7456 58.5807L95.2554 54.9648L95.0527 54.8797ZM95.4685 55.7816L95.669 55.692C95.4752 55.259 95.3351 54.9544 95.2487 54.7819L95.0527 54.8805L94.8567 54.979C94.9379 55.1425 95.0751 55.4389 95.2688 55.872L95.4693 55.7824L95.4685 55.7816ZM96.7845 58.8935V58.6733H93.3782V59.113H96.7845V58.8928V58.8935ZM97.6266 60.881L97.8286 60.7952L96.9865 58.8077L96.7845 58.8935L96.5826 58.9794L97.4247 60.9669L97.6266 60.881ZM98.5261 60.881V60.6608H97.6259V61.1005H98.5261V60.8803V60.881ZM95.6332 54.0943L95.4313 54.1809L98.3241 60.9669L98.5261 60.8803L98.728 60.7937L95.8352 54.0077L95.6332 54.0943ZM94.6846 54.0943V54.3145H95.6332V53.8748H94.6846V54.095V54.0943ZM94.6846 54.1816H94.9044V54.0943H94.4655V54.1816H94.6853H94.6846ZM94.8008 54.3757L94.9894 54.2623L94.8731 54.0681L94.6846 54.1816L94.496 54.2951L94.6123 54.4892L94.8008 54.3757ZM92.0533 60.881L92.2552 60.9669L95.0035 54.4616L94.8016 54.3757L94.5996 54.2899L91.8513 60.7952L92.0533 60.881ZM92.5466 60.881V60.6608H92.0533V61.1005H92.5466V60.8803V60.881ZM93.3782 58.8935L93.1755 58.8084L92.3432 60.7959L92.5459 60.881L92.7486 60.9661L93.5809 58.9786L93.3782 58.8935ZM96.6102 58.4963V58.7166H96.941L96.8129 58.4112L96.6109 58.4963H96.6102ZM93.5429 58.4963L93.3402 58.4112L93.2128 58.7158H93.5422V58.4956L93.5429 58.4963ZM95.0527 54.8797L95.2487 54.7812L95.0348 54.3519L94.85 54.7946L95.0527 54.8797ZM95.4685 55.7816L95.6705 55.6965V55.6943L95.6682 55.692L95.4678 55.7816H95.4685ZM96.7845 58.8935L96.9865 58.8077L96.9299 58.674H96.7845V58.8943V58.8935ZM97.6266 60.881L97.4247 60.9669L97.4813 61.1005H97.6266V60.8803V60.881ZM98.5261 60.881V61.1013H98.8584L98.728 60.7952L98.5261 60.8818V60.881ZM95.6332 54.0943L95.8352 54.0077L95.7785 53.874H95.634V54.0943H95.6332ZM94.6846 54.0943V53.874H94.4647V54.0943H94.6846ZM94.6846 54.1816H94.4647V54.2429L94.496 54.2951L94.6846 54.1816ZM94.8008 54.3757L95.0028 54.4616L95.046 54.3586L94.9886 54.263L94.8001 54.3765L94.8008 54.3757ZM92.0533 60.881L91.8513 60.7952L91.7224 61.1005H92.0533V60.8803V60.881ZM92.5466 60.881V61.1013H92.6927L92.7493 60.9661L92.5466 60.881ZM93.3782 58.8935V58.6733H93.2322L93.1755 58.8084L93.3782 58.8935ZM89.7991 60.0762L89.9436 60.2419C90.3095 59.9216 90.4831 59.4781 90.4831 58.9421H90.0442C90.0442 59.3758 89.9079 59.6887 89.6545 59.9112L89.7991 60.0769V60.0762ZM88.5509 60.4741V60.6944C89.1157 60.6944 89.5889 60.5525 89.9436 60.2427L89.7991 60.0769L89.6545 59.9112C89.4026 60.1314 89.0434 60.2546 88.5509 60.2546V60.4749V60.4741ZM87.2639 60.4741V60.6944H88.5509V60.2546H87.2639V60.4749V60.4741ZM87.2639 57.4003H87.0441V60.4734H87.483V57.4003H87.2632H87.2639ZM88.5509 57.4003V57.18H87.2639V57.6198H88.5509V57.3995V57.4003ZM89.7991 57.8079L89.9451 57.6437C89.5911 57.3264 89.1172 57.1808 88.5509 57.1808V57.6205C89.0427 57.6205 89.4011 57.746 89.653 57.9715L89.7991 57.8072V57.8079ZM90.2633 58.9421H90.4831C90.4831 58.4008 90.3103 57.9558 89.9414 57.6407L89.7991 57.8079L89.6567 57.9752C89.9079 58.1902 90.0442 58.5008 90.0442 58.9421H90.2641H90.2633ZM88.6865 60.881V60.6608H86.4032V61.1005H88.6865V60.8803V60.881ZM90.4958 60.3673L90.3624 60.1926C89.9675 60.4965 89.4168 60.6608 88.6865 60.6608V61.1005C89.4786 61.1005 90.1344 60.9221 90.63 60.5413L90.4966 60.3666L90.4958 60.3673ZM91.1635 58.9421H90.9437C90.9437 59.4878 90.7477 59.8955 90.3617 60.1926L90.4951 60.3673L90.6285 60.5421C91.1322 60.1538 91.3819 59.6118 91.3819 58.9428H91.162L91.1635 58.9421ZM90.4958 57.5071L90.3624 57.6818C90.7477 57.9782 90.9444 58.3896 90.9444 58.9421H91.3834C91.3834 58.2671 91.1345 57.7213 90.63 57.3331L90.4966 57.5078L90.4958 57.5071ZM88.6865 56.9934V57.2136C89.416 57.2136 89.9667 57.3779 90.3624 57.6818L90.4958 57.5071L90.6292 57.3324C90.1344 56.9516 89.4786 56.7731 88.6857 56.7731V56.9934H88.6865ZM87.2639 56.9934V57.2136H88.6865V56.7739H87.2639V56.9941V56.9934ZM87.2639 54.4922H87.0441V56.9934H87.483V54.4922H87.2632H87.2639ZM88.8989 54.4922V54.272H87.2639V54.7117H88.8989V54.4915V54.4922ZM90.4958 54.6766L90.5748 54.4713C90.2179 54.3324 89.6493 54.272 88.8989 54.272V54.7117C89.6448 54.7117 90.1411 54.7744 90.4161 54.8812L90.4951 54.6759L90.4958 54.6766ZM90.5733 54.599L90.4183 54.4437L90.3408 54.5213L90.4958 54.6766L90.6508 54.8319L90.7283 54.7543L90.5733 54.599ZM90.5733 54.0943H90.3535V54.5982H90.7924V54.0943H90.5726H90.5733ZM86.4024 54.0943V54.3145H90.5726V53.8748H86.4024V54.095V54.0943ZM86.4024 60.881H86.6223V54.095H86.1834V60.881H86.4032H86.4024ZM87.2639 60.4741H87.0441V60.6944H87.2639V60.4741ZM87.2639 57.4003V57.18H87.0441V57.4003H87.2639ZM89.7991 57.8079L89.653 57.9722L89.6545 57.9737L89.656 57.9752L89.7983 57.8079H89.7991ZM87.2639 56.9934H87.0441V57.2136H87.2639V56.9934ZM87.2639 54.4922V54.272H87.0441V54.4922H87.2639ZM90.4958 54.6766L90.4168 54.882L90.5502 54.9335L90.6516 54.8319L90.4966 54.6766H90.4958ZM90.5733 54.599L90.7283 54.7543L90.7924 54.6901V54.599H90.5726H90.5733ZM90.5733 54.0943H90.7932V53.874H90.5733V54.0943ZM86.4024 54.0943V53.874H86.1826V54.0943H86.4024ZM86.4024 60.881H86.1826V61.1013H86.4024V60.881Z" fill="#fff"/>
<path d="M39.4437 58.1042C39.5346 57.5433 39.1544 57.0148 38.5946 56.9238C38.0348 56.8328 37.5074 57.2136 37.4165 57.7745C37.3256 58.3354 37.7058 58.8638 38.2656 58.9549C38.8254 59.0459 39.3528 58.6651 39.4437 58.1042Z" fill="#fff"/>
<path d="M82.4795 57.937C82.4795 58.5052 82.0198 58.9659 81.4527 58.9659C80.8856 58.9659 80.4258 58.5052 80.4258 57.937C80.4258 57.3689 80.8856 56.9082 81.4527 56.9082C82.0198 56.9082 82.4795 57.3689 82.4795 57.937Z" fill="#fff"/>
</g>
<defs>
<clipPath id="clip0_1095_5485">
<rect width="107.165" height="61.1777" fill="white"/>
</clipPath>
</defs>
</svg>
