<svg width="190" height="150" viewBox="0 0 190 150" fill="none" xmlns="http://www.w3.org/2000/svg">
<path d="M179.657 53.2988C180.133 53.2988 180.588 53.5003 180.908 53.8532C181.227 54.2063 181.384 54.6783 181.337 55.1524L172.335 146.331C172.259 147.097 171.679 147.699 170.944 147.827L170.945 147.828C163.849 149.087 155.203 150.062 145.357 149.997C136.296 149.937 128.295 149.012 121.613 147.828C120.869 147.696 120.302 147.084 120.228 146.331C117.226 115.939 114.224 85.5455 111.227 55.1524C111.18 54.6783 111.335 54.2062 111.655 53.8532C111.975 53.5001 112.43 53.2988 112.906 53.2988H179.657ZM123.461 144.721C129.721 145.772 137.096 146.566 145.379 146.621C154.416 146.681 162.418 145.841 169.101 144.719L177.794 56.6745H114.768C117.663 86.0233 120.561 115.372 123.461 144.721Z" fill="white" fill-opacity="0.3"/>
<path d="M141.996 83.653C140.233 80.5174 140.179 76.1918 142.776 73.3919C144.499 71.5353 149.418 68.612 151.25 71.9056C151.541 72.434 152.331 72.3352 152.474 71.7525C153.091 69.1996 151.566 66.1233 149.329 64.4543C144.751 61.0422 137.779 62.405 133.132 64.9826C128.392 67.6146 125.039 72.4093 123.429 77.5151C120.768 85.959 122.506 94.6596 123.38 103.222C123.953 108.841 124.521 114.461 125.093 120.08C125.794 126.973 126.496 133.867 127.197 140.76C127.197 140.78 127.197 140.805 127.202 140.824C132.199 141.866 138.431 142.735 145.606 142.79C153.378 142.844 160.079 141.926 165.352 140.824C165.382 140.508 165.417 140.192 165.446 139.876C166.039 133.877 166.631 127.877 167.224 121.882C168.034 113.671 168.843 105.464 169.658 97.2521C169.925 94.551 170.192 91.8549 170.458 89.1538C170.493 88.7835 170.838 87.3219 170.498 87.0898C170.177 86.8725 147.038 92.6302 141.996 83.653Z" fill="white" fill-opacity="0.3"/>
<path d="M154.572 82.2256C153.279 82.2256 152.034 83.3663 152.099 84.6995C152.158 86.0426 153.185 87.1734 154.572 87.1734C155.866 87.1734 157.111 86.0327 157.046 84.6995C156.987 83.3564 155.96 82.2256 154.572 82.2256Z" fill="white" fill-opacity="0.3"/>
<path d="M165.352 80.4277C164.059 80.4277 162.814 81.5684 162.878 82.9016C162.938 84.2448 163.965 85.3755 165.352 85.3755C166.646 85.3755 167.89 84.2349 167.826 82.9016C167.767 81.5585 166.74 80.4277 165.352 80.4277Z" fill="white" fill-opacity="0.3"/>
<path d="M161.16 70.2451C159.866 70.2451 158.622 71.3858 158.686 72.719C158.745 74.0621 159.772 75.1929 161.16 75.1929C162.454 75.1929 163.698 74.0523 163.634 72.719C163.575 71.3759 162.547 70.2451 161.16 70.2451Z" fill="white" fill-opacity="0.3"/>
<path d="M187.973 8.60352C189.093 8.60365 190 9.51085 190 10.6304C190 11.75 189.093 12.6572 187.973 12.6574H172.704L161.46 50.679C161.142 51.7527 160.014 52.3657 158.941 52.0482C157.867 51.7307 157.254 50.6031 157.572 49.5294L169.244 10.0556C169.499 9.19441 170.29 8.60372 171.188 8.60352H187.973Z" fill="white" fill-opacity="0.3"/>
<path d="M133.076 28.897C134.123 31.922 135.374 34.8822 136.178 37.9927C136.534 39.3607 136.803 40.7514 137.032 42.1528C135.255 42.3302 132.215 39.4856 131.115 38.3733C129.424 36.6617 127.981 34.7391 126.774 32.6679C123.911 27.7432 122.405 21.9914 122.127 16.2987C121.929 12.1816 122.353 8.02423 123.448 4.06776C123.824 2.70113 124.05 1.6921 124.65 1.31822C125.519 4.22289 126.391 7.12119 127.26 10.0259C129.15 16.3291 130.927 22.6782 133.075 28.892L133.076 28.897Z" fill="white" fill-opacity="0.3"/>
<path d="M133.699 27.503C132.65 24.387 131.705 21.2378 130.761 18.0887C129.074 12.471 127.392 6.85196 125.705 1.23425C126.029 1.31585 126.416 1.46746 126.879 1.70659C133.068 4.91803 138.267 11.6809 140.578 18.2669C141.968 22.226 142.511 26.4789 142.187 30.6476C141.931 33.989 139.542 39.8295 137.98 41.6008C137.698 39.9383 137.356 38.2917 136.891 36.6721C135.994 33.5591 134.729 30.57 133.699 27.503Z" fill="white" fill-opacity="0.3"/>
<path d="M116.946 37.2863C118.987 38.0763 121.092 38.7328 123.065 39.6772C123.936 40.0936 124.772 40.5631 125.599 41.0554C124.862 42.02 121.978 42.3032 120.897 42.3717C119.229 42.4745 117.568 42.3627 115.944 42.0649C112.077 41.3591 108.425 39.6178 105.376 37.2921C103.168 35.6073 101.236 33.593 99.7137 31.334C99.1897 30.5533 98.7753 30.0046 98.8632 29.544C100.76 30.3681 102.655 31.1883 104.551 32.0124C108.667 33.8001 112.757 35.6624 116.949 37.2815L116.946 37.2863Z" fill="white" fill-opacity="0.3"/>
<path d="M116.524 36.3705C114.434 35.5454 112.378 34.651 110.318 33.7577C106.649 32.1653 102.98 30.573 99.3057 28.9779C99.4978 28.851 99.7577 28.7222 100.099 28.5961C104.636 26.8981 110.535 27.2362 114.993 28.9335C117.673 29.952 120.106 31.5255 122.098 33.4919C123.694 35.0694 125.577 38.79 125.755 40.336C124.773 39.7564 123.765 39.2158 122.718 38.7453C120.701 37.8448 118.577 37.1811 116.523 36.3668L116.524 36.3705Z" fill="white" fill-opacity="0.3"/>
</svg>
