<svg width="190" height="150" viewBox="0 0 190 150" fill="none" xmlns="http://www.w3.org/2000/svg">
<g clip-path="url(#clip0_1121_3873)">
<path d="M90.8252 125.572C92.6252 125.106 94.4447 125.353 96.1641 126.002C99.5378 127.276 102.849 130.22 105.687 133.366C108.561 136.553 111.109 140.128 112.929 142.888C113.841 144.271 114.576 145.459 115.084 146.302C115.338 146.723 115.536 147.06 115.671 147.292C115.738 147.408 115.79 147.498 115.825 147.56C115.843 147.59 115.857 147.614 115.866 147.631C115.871 147.639 115.874 147.645 115.877 147.649L115.881 147.657C115.879 147.659 115.825 147.689 114.517 148.427L115.881 147.658C116.013 147.893 116.082 148.157 116.082 148.427V148.433C116.082 149.298 115.381 150 114.517 150H96.1895C85.6341 150 79.4169 137.96 85.707 129.416L85.708 129.414C85.8069 129.28 85.9118 129.141 86.0117 129.008L86.0186 128.999C87.3983 127.188 89.0129 126.042 90.8252 125.572ZM136.558 40.2549C140.225 40.2549 143.808 40.6244 147.266 41.3281C152.684 42.4313 157.804 44.3557 162.491 46.9629L163.424 47.4932L163.571 47.5908C163.587 47.6029 163.603 47.6163 163.618 47.6289C170.773 51.8413 176.865 57.6778 181.385 64.624L181.751 65.1943C185.485 71.0948 188.091 77.7821 189.279 84.9482C189.291 85.0058 189.299 85.0645 189.305 85.124C189.758 87.9328 190 90.815 190 93.7539V96.4971C190 126.046 166.067 150 136.546 150H118.191C117.327 150 116.625 149.298 116.625 148.433C116.625 147.567 117.327 146.866 118.191 146.866C135.15 146.866 148.9 133.103 148.9 116.129V115.255C148.9 114.445 148.868 113.642 148.805 112.851C148.803 112.825 148.803 112.799 148.802 112.773C148.008 102.814 142.464 94.1892 134.436 89.1719C134.391 89.1442 134.349 89.1135 134.309 89.082C129.622 86.1853 124.109 84.5107 118.196 84.5107H105.753C104.962 84.5107 104.295 83.9211 104.198 83.1357C104.107 82.3924 104.554 81.6946 105.252 81.459C105.264 81.4545 105.278 81.4514 105.29 81.4473C105.286 81.4484 105.282 81.4499 105.278 81.4512C105.284 81.4494 105.289 81.448 105.295 81.4463L105.298 81.4453C105.322 81.4374 105.346 81.4305 105.37 81.4238L105.361 81.4258C105.358 81.4267 105.354 81.4286 105.35 81.4297C105.342 81.4318 105.33 81.4346 105.317 81.4385C119.364 76.6781 129.015 62.6561 127.57 47.2021V47.2002C127.432 45.6915 127.181 44.1613 126.822 42.6211L126.82 42.6133L126.72 42.1709C126.614 41.7061 126.726 41.2184 127.022 40.8457C127.32 40.473 127.77 40.255 128.246 40.2549H136.558ZM186.86 93.0742C181.023 106.09 167.655 115.254 152.021 114.42C152.027 114.698 152.031 114.976 152.031 115.255V116.129C152.031 129.746 144.001 141.486 132.422 146.866H136.546C164.337 146.866 186.868 124.314 186.868 96.4971V93.7539C186.868 93.527 186.863 93.3004 186.86 93.0742ZM143.165 112.669C143.884 112.188 144.857 112.383 145.337 113.103C145.817 113.822 145.623 114.796 144.904 115.276C139.222 119.074 132.879 121.013 126.562 121.282C125.699 121.319 124.969 120.648 124.932 119.783C124.895 118.918 125.566 118.186 126.43 118.149C132.193 117.904 137.976 116.137 143.165 112.669ZM138.507 103.606C139.226 103.126 140.199 103.32 140.679 104.04C141.159 104.76 140.964 105.733 140.245 106.214C134.563 110.012 128.221 111.95 121.904 112.22C121.04 112.256 120.309 111.585 120.272 110.721C120.236 109.856 120.907 109.125 121.771 109.088C127.534 108.842 133.317 107.075 138.507 103.606ZM164.527 51.9023C164.795 56.4249 164.2 60.8172 162.886 64.9141C162.869 64.9665 162.852 65.0189 162.835 65.0713C162.783 65.2306 162.73 65.3894 162.676 65.5479C162.658 65.6 162.64 65.6521 162.622 65.7041C162.501 66.0524 162.376 66.3986 162.245 66.7422C162.197 66.8683 162.147 66.9936 162.098 67.1191C162.055 67.2263 162.014 67.3337 161.971 67.4404C161.897 67.6218 161.822 67.8024 161.746 67.9824C161.724 68.0342 161.702 68.086 161.68 68.1377C161.225 69.1962 160.722 70.2312 160.172 71.2373L159.744 71.998C155.224 79.8004 147.853 85.8338 138.975 88.5273C145.93 93.9499 150.717 102.036 151.8 111.261C168.749 112.354 182.876 100.573 186.147 85.2129C184.973 78.3444 182.415 71.9498 178.761 66.335C175.04 60.6176 170.188 55.699 164.527 51.9023ZM133.512 94.5488C134.231 94.0683 135.203 94.2627 135.684 94.9824C136.164 95.7023 135.97 96.6756 135.251 97.1562C129.568 100.954 123.227 102.893 116.91 103.162C116.046 103.199 115.315 102.528 115.278 101.663C115.242 100.798 115.912 100.066 116.776 100.029C122.54 99.7836 128.322 98.0169 133.512 94.5488ZM130.187 43.3896C130.413 44.5665 130.582 45.7416 130.689 46.9102L130.755 47.7041C131.76 61.7803 124.402 74.6459 112.942 81.377H118.196C124.541 81.377 130.474 83.1273 135.552 86.1689C145.033 84.1096 152.928 77.9311 157.426 69.7188C157.433 69.7054 157.441 69.6918 157.448 69.6787C158.434 67.8727 159.255 65.9685 159.893 63.9893C161.316 59.5598 161.818 54.7555 161.183 49.8232C156.713 47.3082 151.822 45.4541 146.642 44.3994C143.389 43.7374 140.015 43.3897 136.558 43.3896H130.187ZM84.334 27C85.1986 27.0002 85.8994 27.7019 85.8994 28.5674C85.8994 29.4329 85.1986 30.1345 84.334 30.1348H51.3936C46.2974 30.1349 42.171 34.2689 42.1709 39.3652V39.8359H120.523C121.388 39.8361 122.089 40.5378 122.089 41.4033V47.9414C122.089 48.2819 122.084 48.6203 122.078 48.9375C122.078 48.9413 122.078 48.9454 122.078 48.9492C121.866 57.4468 119.075 65.6042 114.52 71.8359C109.965 78.0665 103.568 82.4614 96.1504 83.1777C82.4918 84.4964 70.1949 77.4827 60.4492 68.6816C50.7227 59.8977 43.3023 49.1263 39.2715 42.2842C39.1006 42.0331 39 41.7301 39 41.4033V41.3975C39 41.2054 39.035 41.0199 39.0996 40.8477C39.0607 40.7111 39.0391 40.567 39.0391 40.418V39.3652C39.0392 32.5387 44.5667 27.0001 51.3936 27H84.334ZM105.298 81.4453C105.295 81.4461 105.293 81.4465 105.29 81.4473C105.298 81.4446 105.305 81.4422 105.311 81.4404C105.306 81.4419 105.302 81.4438 105.298 81.4453ZM105.315 81.4395C105.314 81.4399 105.312 81.44 105.311 81.4404C105.313 81.4397 105.315 81.4392 105.317 81.4385L105.315 81.4395ZM43.3506 42.9697C47.4841 49.6018 54.1479 58.7685 62.5469 66.3535C72.0243 74.9124 83.4749 81.2523 95.8496 80.0576C102.172 79.4471 107.829 75.6805 111.992 69.9854C116.153 64.2939 118.748 56.7645 118.946 48.8818C118.952 48.5612 118.957 48.25 118.957 47.9414V42.9697H43.3506ZM98.8906 50.5781C100.993 50.5781 102.532 52.1454 102.678 54.127C102.689 54.2277 102.688 54.3231 102.688 54.4238L102.694 54.4297C102.694 56.5511 100.993 58.2754 98.8906 58.2754C97.2859 58.2752 95.916 57.2731 95.3623 55.8516C95.1834 55.4094 95.0879 54.9334 95.0879 54.4297C95.0879 52.3027 96.788 50.5784 98.8906 50.5781Z" fill="#000000" fill-opacity="0.3"/>
</g>
<defs>
<clipPath id="clip0_1121_3873">
<rect width="151" height="123" fill="#000000" transform="translate(39 27)"/>
</clipPath>
</defs>
</svg>
