<svg width="169.093" height="54.261" viewBox="0 0.899 169.093 54.261" fill="none" xmlns="http://www.w3.org/2000/svg">
<path d="M164.088 21.8209V1.46508H156.211V16.2953C156.211 20.6371 152.722 23.3429 149.967 23.3429C146.815 23.3429 144.507 21.1444 144.507 16.8578V1.46508H131.677V8.11922H136.63V18.3247C136.63 19.4533 136.744 20.5231 136.968 21.4826C135.955 22.8355 134.719 23.3429 133.592 23.3429C131.285 23.3429 129.204 21.4826 128.078 17.196L123.859 1.46508H105.852V8.17436H110.974L108.273 17.196C106.978 21.5378 104.898 23.3429 103.151 23.3429C101.97 23.3429 101.126 22.3833 101.126 20.6371V13.3616C101.126 4.33996 95.9494 0.898926 87.7347 0.898926C83.6255 0.898926 79.7438 1.57537 77.326 2.75914V9.69636C79.9162 8.51258 83.0641 7.55306 86.9495 7.55306C90.5524 7.55306 93.2527 9.46843 93.2527 12.1779V13.1374C91.3962 12.7992 89.0335 12.347 86.7257 12.347C81.9415 12.347 77.0471 14.1521 75.3594 18.9423C74.2918 21.9311 73.1654 23.3392 71.8703 23.3392C70.8027 23.3392 69.9001 22.6627 69.9001 20.0673V14.1484C69.9001 4.61936 64.892 0.898926 59.6602 0.898926C55.551 0.898926 53.0781 1.68933 49.644 6.47958C48.8002 4.33628 46.1549 0.898926 40.923 0.898926C36.8139 0.898926 33.776 2.30696 31.6957 5.74799H31.527L31.3032 1.4614H24.5524V16.2917C24.5524 20.6334 21.0632 23.3392 18.3079 23.3392C15.1563 23.3392 12.8485 20.5746 12.8485 16.2917V1.46508H0V8.11922H4.95303V18.3247C4.95303 25.6553 10.1299 30.2212 15.4755 30.2212C19.6397 30.2212 22.3987 28.2471 24.534 25.3722H24.7028L24.9266 29.6588H32.4112V16.5196C32.4112 10.4868 35.394 7.78099 38.1493 7.78099C40.9047 7.78099 43.2711 9.97943 43.2711 14.266V29.6588H51.1483V16.5196C51.1483 10.4868 54.1311 7.78099 56.8865 7.78099C59.6418 7.78099 62.0083 9.97943 62.0083 14.266V22.273C62.0083 28.5301 65.2149 30.2249 68.5353 30.2249C72.0244 30.2249 73.9946 28.986 76.3574 26.2766H76.4711C78.1588 28.5338 81.0279 30.2249 84.407 30.2249C88.4575 30.2249 91.554 28.7581 94.1993 26.5596C95.3807 28.5338 98.2498 30.2249 102.414 30.2249C108.266 30.2249 112.768 26.953 114.624 20.979L118.337 8.96845L121.657 20.9238C123.459 27.464 127.847 30.2286 132.011 30.2286C134.88 30.2286 137.074 29.1588 139.496 26.6185C141.466 28.9309 144.28 30.2286 147.149 30.2286C151.313 30.2286 154.072 28.2544 156.208 25.3795H156.376C158.347 28.4823 161.608 30.2286 164.929 30.2286C166.616 30.2286 167.798 30.0595 169.093 29.6661V21.8282H164.085L164.088 21.8209ZM93.1867 21.9348C91.3302 23.6811 89.1362 24.3024 87.0523 24.3024C84.9683 24.3024 82.833 22.9495 82.833 21.1444C82.833 18.8908 85.7608 17.196 88.5712 17.196C90.3726 17.196 91.499 17.31 93.1867 17.7585V21.9311V21.9348Z" fill="#000"/>
<path d="M1.28 55V47.32H2.4V50.6H6.8V47.32H7.92V55H6.8V51.64H2.4V55H1.28ZM15.1231 55V53.96C14.9631 54.184 14.7605 54.3867 14.5151 54.568C13.9498 54.9627 13.3258 55.16 12.6431 55.16C11.8645 55.16 11.2138 54.936 10.6911 54.488C10.1791 54.0293 9.92313 53.5067 9.92313 52.92C9.92313 51.6187 10.6698 50.8453 12.1631 50.6L15.1231 50.12C15.1231 49.5547 14.9418 49.096 14.5791 48.744C14.2271 48.3813 13.7685 48.2 13.2031 48.2C12.6485 48.2 12.1205 48.3867 11.6191 48.76C11.3845 48.9627 11.1925 49.1493 11.0431 49.32L10.3231 48.6C10.5258 48.3333 10.7765 48.0933 11.0751 47.88C11.7258 47.4 12.4351 47.16 13.2031 47.16C14.0778 47.16 14.8031 47.4427 15.3791 48.008C15.9551 48.5733 16.2431 49.2773 16.2431 50.12V55H15.1231ZM15.1231 51.56V51.08L12.4831 51.56C11.5231 51.7307 11.0431 52.184 11.0431 52.92C11.0431 53.2613 11.1818 53.5493 11.4591 53.784C11.7471 54.008 12.1418 54.12 12.6431 54.12C13.3791 54.12 13.9765 53.8853 14.4351 53.416C14.8938 52.9467 15.1231 52.328 15.1231 51.56ZM22.555 55V43.8H23.595L28.235 49.88L32.875 43.8H33.915V55H32.715V45.88L28.235 51.8L23.755 45.88V55H22.555ZM43.0018 54.008C42.2444 54.776 41.3218 55.16 40.2338 55.16C39.1458 55.16 38.2178 54.776 37.4498 54.008C36.6924 53.2293 36.3138 52.28 36.3138 51.16C36.3138 50.04 36.6924 49.096 37.4498 48.328C38.2178 47.5493 39.1458 47.16 40.2338 47.16C41.3218 47.16 42.2444 47.5493 43.0018 48.328C43.7698 49.096 44.1538 50.04 44.1538 51.16C44.1538 52.28 43.7698 53.2293 43.0018 54.008ZM38.2498 53.256C38.8044 53.832 39.4658 54.12 40.2338 54.12C41.0018 54.12 41.6578 53.8373 42.2018 53.272C42.7564 52.696 43.0338 51.992 43.0338 51.16C43.0338 50.328 42.7564 49.6293 42.2018 49.064C41.6578 48.488 41.0018 48.2 40.2338 48.2C39.4658 48.2 38.8044 48.488 38.2498 49.064C37.7058 49.6293 37.4338 50.328 37.4338 51.16C37.4338 51.9813 37.7058 52.68 38.2498 53.256ZM51.835 52.84L52.635 53.56C52.4217 53.8267 52.139 54.0933 51.787 54.36C51.0403 54.8933 50.2563 55.16 49.435 55.16C48.379 55.16 47.4723 54.7707 46.715 53.992C45.9683 53.2133 45.595 52.2693 45.595 51.16C45.595 50.0507 45.9683 49.1067 46.715 48.328C47.4723 47.5493 48.379 47.16 49.435 47.16C50.267 47.16 51.035 47.416 51.739 47.928C52.027 48.1413 52.299 48.392 52.555 48.68L51.755 49.48C51.5843 49.2453 51.387 49.032 51.163 48.84C50.651 48.4133 50.075 48.2 49.435 48.2C48.699 48.2 48.059 48.488 47.515 49.064C46.9817 49.6293 46.715 50.328 46.715 51.16C46.715 51.992 46.9817 52.696 47.515 53.272C48.059 53.8373 48.699 54.12 49.435 54.12C50.043 54.12 50.635 53.9067 51.211 53.48C51.4563 53.2773 51.6643 53.064 51.835 52.84ZM54.3894 55V47.32H55.5094V51.4L59.3494 47.32H60.7094L57.7494 50.44L61.0294 55H59.7494L57.0294 51.24L55.5094 52.84V55H54.3894ZM68.4393 54.008C67.6819 54.776 66.7593 55.16 65.6713 55.16C64.5833 55.16 63.6553 54.776 62.8873 54.008C62.1299 53.2293 61.7513 52.28 61.7513 51.16C61.7513 50.04 62.1299 49.096 62.8873 48.328C63.6553 47.5493 64.5833 47.16 65.6713 47.16C66.7593 47.16 67.6819 47.5493 68.4393 48.328C69.2073 49.096 69.5913 50.04 69.5913 51.16C69.5913 52.28 69.2073 53.2293 68.4393 54.008ZM63.6873 53.256C64.2419 53.832 64.9033 54.12 65.6713 54.12C66.4393 54.12 67.0953 53.8373 67.6393 53.272C68.1939 52.696 68.4713 51.992 68.4713 51.16C68.4713 50.328 68.1939 49.6293 67.6393 49.064C67.0953 48.488 66.4393 48.2 65.6713 48.2C64.9033 48.2 64.2419 48.488 63.6873 49.064C63.1433 49.6293 62.8713 50.328 62.8713 51.16C62.8713 51.9813 63.1433 52.68 63.6873 53.256ZM71.5925 55V47.32H75.1125C75.8272 47.32 76.3925 47.5067 76.8085 47.88C77.2245 48.2533 77.4325 48.7333 77.4325 49.32C77.4325 49.7893 77.2725 50.1947 76.9525 50.536C76.8138 50.6747 76.6538 50.8027 76.4725 50.92C76.7178 51.0053 76.9312 51.1227 77.1125 51.272C77.5392 51.6347 77.7525 52.1307 77.7525 52.76C77.7525 53.4533 77.5338 54.0027 77.0965 54.408C76.6698 54.8027 76.0618 55 75.2725 55H71.5925ZM72.7125 50.44H75.1125C75.9125 50.44 76.3125 50.0933 76.3125 49.4C76.3125 48.7067 75.9125 48.36 75.1125 48.36H72.7125V50.44ZM72.7125 53.96H75.2725C76.1792 53.96 76.6325 53.5333 76.6325 52.68C76.6325 51.8267 76.1792 51.4 75.2725 51.4H72.7125V53.96ZM85.5069 52.84L86.3069 53.56C86.0935 53.8267 85.8109 54.0933 85.4589 54.36C84.7122 54.8933 83.9282 55.16 83.1069 55.16C82.0509 55.16 81.1442 54.7707 80.3869 53.992C79.6402 53.2133 79.2669 52.2693 79.2669 51.16C79.2669 50.0507 79.6402 49.1067 80.3869 48.328C81.1442 47.5493 82.0509 47.16 83.1069 47.16C83.9389 47.16 84.7069 47.416 85.4109 47.928C85.6989 48.1413 85.9709 48.392 86.2269 48.68L85.4269 49.48C85.2562 49.2453 85.0589 49.032 84.8349 48.84C84.3229 48.4133 83.7469 48.2 83.1069 48.2C82.3709 48.2 81.7309 48.488 81.1869 49.064C80.6535 49.6293 80.3869 50.328 80.3869 51.16C80.3869 51.992 80.6535 52.696 81.1869 53.272C81.7309 53.8373 82.3709 54.12 83.1069 54.12C83.7149 54.12 84.3069 53.9067 84.8829 53.48C85.1282 53.2773 85.3362 53.064 85.5069 52.84ZM88.0613 55V47.32H89.1813V51.4L93.0213 47.32H94.3813L91.4213 50.44L94.7013 55H93.4213L90.7013 51.24L89.1813 52.84V55H88.0613ZM102.111 54.008C101.354 54.776 100.431 55.16 99.3431 55.16C98.2551 55.16 97.3271 54.776 96.5591 54.008C95.8018 53.2293 95.4231 52.28 95.4231 51.16C95.4231 50.04 95.8018 49.096 96.5591 48.328C97.3271 47.5493 98.2551 47.16 99.3431 47.16C100.431 47.16 101.354 47.5493 102.111 48.328C102.879 49.096 103.263 50.04 103.263 51.16C103.263 52.28 102.879 53.2293 102.111 54.008ZM97.3591 53.256C97.9138 53.832 98.5751 54.12 99.3431 54.12C100.111 54.12 100.767 53.8373 101.311 53.272C101.866 52.696 102.143 51.992 102.143 51.16C102.143 50.328 101.866 49.6293 101.311 49.064C100.767 48.488 100.111 48.2 99.3431 48.2C98.5751 48.2 97.9138 48.488 97.3591 49.064C96.8151 49.6293 96.5431 50.328 96.5431 51.16C96.5431 51.9813 96.8151 52.68 97.3591 53.256ZM105.264 55V47.32H106.144L109.184 51.16L112.224 47.32H113.104V55H111.984V49.32L109.184 52.84L106.384 49.32V55H105.264Z" fill="#000"/>
</svg>
