<svg width="185" height="80" viewBox="0 0 185 80" fill="none" xmlns="http://www.w3.org/2000/svg">
<path d="M82.3417 11.2319C79.8304 11.2319 77.6779 9.03786 77.6779 6.38468C77.6779 3.88457 79.8304 2.71108 82.3417 2.71108C84.8529 2.71108 86.8517 3.88457 86.8517 6.38468C86.8517 9.03786 84.8529 11.2319 82.3417 11.2319ZM40.0091 3.27234C40.0091 3.27234 24.429 3.19577 19.1759 3.19577C20.4315 5.92548 20.5853 7.83885 20.5853 9.67566C20.5853 13.5024 19.919 15.8494 19.6115 16.8954L21.2259 18.2985C21.8921 16.028 23.1478 12.2778 23.5834 10.9512C24.4034 8.52766 25.864 8.45113 28.1703 8.45113H31.7065C33.039 8.45113 33.4747 9.26749 33.4747 10.5941V41.3352C33.4747 46.9222 30.6047 49.6519 26.2997 49.6519C21.9946 49.6519 18.8428 46.9222 18.8428 41.3352H13.6665C13.6665 49.4989 17.9459 54.8052 26.2997 54.8052C34.6534 54.8052 38.6509 49.4989 38.6509 41.3352V12.3544C38.6509 7.9409 38.7278 6.02755 39.9835 3.29783L40.0091 3.27234ZM53.821 55.3154C51.3097 55.3154 49.1572 53.1215 49.1572 50.4683C49.1572 47.9682 51.3097 46.7947 53.821 46.7947C56.3322 46.7947 58.331 47.9682 58.331 50.4683C58.331 53.1215 56.3322 55.3154 53.821 55.3154ZM78.2673 13.8595H86.2367C84.9811 16.5892 84.9042 18.5026 84.9042 22.9161V37.2534C84.9042 41.6669 84.9811 43.5802 86.2367 46.3099H78.2673C79.5229 43.5802 79.5998 41.6669 79.5998 37.2534V22.9161C79.5998 18.5026 79.5229 16.5892 78.2673 13.8595ZM73.9879 12.3288V47.4069C73.9879 48.7335 74.4235 49.5499 75.756 49.5499H86.3136C88.5942 49.5499 90.0804 49.4733 90.9004 47.0497C91.3361 45.7232 92.5917 41.973 93.2579 39.7025L94.8979 41.1056C94.5904 42.1261 93.9242 44.4986 93.9242 48.3253C93.9242 50.1621 94.0779 52.0755 95.3336 54.8052H67.3254C68.581 52.0755 68.6579 50.1621 68.6579 45.7487V12.3544C68.6579 7.9409 68.581 6.02755 67.3254 3.29783H75.2948C74.0392 6.02755 73.9623 7.9409 73.9623 12.3544L73.9879 12.3288ZM53.821 2.68555C62.3285 2.68555 65.1216 9.67565 65.1216 17.9923C65.1216 29.6765 61.6622 43.5802 53.821 43.5802C45.5441 43.5802 42.4434 30.1868 42.5203 17.9923C42.5972 8.6552 45.3391 2.68555 53.821 2.68555ZM53.821 38.4269C57.4341 38.4269 59.9454 28.503 59.9454 17.9668C59.9454 13.2473 58.6897 8.04294 53.821 8.04294C48.9522 8.04294 47.6966 13.2728 47.6966 17.9668C47.6966 28.4775 50.2078 38.4269 53.821 38.4269Z" fill="#fff"/>
<path d="M10.1723 71.9745L10.8223 72.5595C10.519 72.9408 10.1983 73.2571 9.86029 73.5085C9.01095 74.1325 8.07495 74.4445 7.05229 74.4445C5.75229 74.4445 4.64729 73.9895 3.73729 73.0795C2.82729 72.1695 2.37229 71.0645 2.37229 69.7645C2.37229 68.4645 2.82729 67.3595 3.73729 66.4495C4.64729 65.5395 5.75229 65.0845 7.05229 65.0845C8.06629 65.0845 8.99362 65.4008 9.83429 66.0335C10.1983 66.3108 10.506 66.6228 10.7573 66.9695L10.1073 67.5545C9.89062 67.2511 9.63929 66.9911 9.35329 66.7745C8.70329 66.2545 7.93629 65.9945 7.05229 65.9945C6.01229 65.9945 5.13262 66.3585 4.41329 67.0865C3.70262 67.8058 3.34729 68.6985 3.34729 69.7645C3.34729 70.8305 3.70262 71.7275 4.41329 72.4555C5.13262 73.1748 6.01229 73.5345 7.05229 73.5345C7.94495 73.5345 8.72495 73.2745 9.39229 72.7545C9.68695 72.5291 9.94695 72.2691 10.1723 71.9745ZM16.0253 74.3145V73.4695C15.8953 73.6515 15.7307 73.8161 15.5313 73.9635C15.072 74.2841 14.565 74.4445 14.0103 74.4445C13.3777 74.4445 12.849 74.2625 12.4243 73.8985C12.0083 73.5258 11.8003 73.1011 11.8003 72.6245C11.8003 71.5671 12.407 70.9388 13.6203 70.7395L16.0253 70.3495C16.0253 69.8901 15.878 69.5175 15.5833 69.2315C15.2973 68.9368 14.9247 68.7895 14.4653 68.7895C14.0147 68.7895 13.5857 68.9411 13.1783 69.2445C12.9877 69.4091 12.8317 69.5608 12.7103 69.6995L12.1253 69.1145C12.29 68.8978 12.4937 68.7028 12.7363 68.5295C13.265 68.1395 13.8413 67.9445 14.4653 67.9445C15.176 67.9445 15.7653 68.1741 16.2333 68.6335C16.7013 69.0928 16.9353 69.6648 16.9353 70.3495V74.3145H16.0253ZM16.0253 71.5195V71.1295L13.8803 71.5195C13.1003 71.6581 12.7103 72.0265 12.7103 72.6245C12.7103 72.9018 12.823 73.1358 13.0483 73.3265C13.2823 73.5085 13.603 73.5995 14.0103 73.5995C14.6083 73.5995 15.0937 73.4088 15.4663 73.0275C15.839 72.6461 16.0253 72.1435 16.0253 71.5195ZM19.0092 74.3145V68.0745H19.9192V70.7395H23.4942V68.0745H24.4042V74.3145H23.4942V71.5845H19.9192V74.3145H19.0092ZM26.4868 74.3145V68.0745H27.3968V71.3895L30.5168 68.0745H31.6218L29.2168 70.6095L31.8818 74.3145H30.8418L28.6318 71.2595L27.3968 72.5595V74.3145H26.4868ZM34.3533 74.3145V68.9195H32.1433V68.0745H37.4733V68.9195H35.2633V74.3145H34.3533ZM38.3208 70.8695V70.0245H42.2858V70.8695H38.3208ZM44.2297 74.3145V65.2145H51.2497V74.3145H50.2747V66.1245H45.2047V74.3145H44.2297ZM58.3347 72.5595L58.9197 73.1445C58.7551 73.3698 58.5341 73.5865 58.2567 73.7945C57.6501 74.2278 57.0044 74.4445 56.3197 74.4445C55.4617 74.4445 54.7251 74.1281 54.1097 73.4955C53.5031 72.8628 53.1997 72.0958 53.1997 71.1945C53.1997 70.2931 53.5031 69.5261 54.1097 68.8935C54.7164 68.2608 55.4314 67.9445 56.2547 67.9445C57.1127 67.9445 57.8234 68.2391 58.3867 68.8285C58.9587 69.4178 59.2447 70.1631 59.2447 71.0645C59.2447 71.1078 59.2317 71.2205 59.2057 71.4025L59.1797 71.5325L54.1097 71.5195C54.1444 72.0828 54.3741 72.5725 54.7987 72.9885C55.2321 73.3958 55.7391 73.5995 56.3197 73.5995C56.8484 73.5995 57.3467 73.4261 57.8147 73.0795C58.0401 72.8975 58.2134 72.7241 58.3347 72.5595ZM54.1097 70.7395H58.3347C58.2654 70.1761 58.0357 69.7125 57.6457 69.3485C57.2644 68.9758 56.8007 68.7895 56.2547 68.7895C55.7087 68.7895 55.2321 68.9801 54.8247 69.3615C54.4174 69.7428 54.1791 70.2021 54.1097 70.7395ZM62.1687 74.3145V68.9195H59.9587V68.0745H65.2887V68.9195H63.0787V74.3145H62.1687ZM71.1443 72.5595L71.7293 73.1445C71.5646 73.3698 71.3436 73.5865 71.0663 73.7945C70.4596 74.2278 69.814 74.4445 69.1293 74.4445C68.2713 74.4445 67.5346 74.1281 66.9193 73.4955C66.3126 72.8628 66.0093 72.0958 66.0093 71.1945C66.0093 70.2931 66.3126 69.5261 66.9193 68.8935C67.526 68.2608 68.241 67.9445 69.0643 67.9445C69.9223 67.9445 70.633 68.2391 71.1963 68.8285C71.7683 69.4178 72.0543 70.1631 72.0543 71.0645C72.0543 71.1078 72.0413 71.2205 72.0153 71.4025L71.9893 71.5325L66.9193 71.5195C66.954 72.0828 67.1836 72.5725 67.6083 72.9885C68.0416 73.3958 68.5486 73.5995 69.1293 73.5995C69.658 73.5995 70.1563 73.4261 70.6243 73.0795C70.8497 72.8975 71.023 72.7241 71.1443 72.5595ZM66.9193 70.7395H71.1443C71.075 70.1761 70.8453 69.7125 70.4553 69.3485C70.074 68.9758 69.6103 68.7895 69.0643 68.7895C68.5183 68.7895 68.0416 68.9801 67.6343 69.3615C67.227 69.7428 66.9886 70.2021 66.9193 70.7395ZM73.6753 77.0445V68.0745H74.5853V68.9845C74.7326 68.7851 74.9103 68.6118 75.1183 68.4645C75.5863 68.1178 76.1236 67.9445 76.7303 67.9445C77.5883 67.9445 78.3119 68.2521 78.9013 68.8675C79.4906 69.4828 79.7853 70.2585 79.7853 71.1945C79.7853 72.1305 79.4906 72.9061 78.9013 73.5215C78.3119 74.1368 77.5883 74.4445 76.7303 74.4445C76.1236 74.4445 75.5863 74.2711 75.1183 73.9245C74.9103 73.7771 74.7326 73.6038 74.5853 73.4045V77.0445H73.6753ZM76.7303 73.5995C77.3283 73.5995 77.8353 73.3741 78.2513 72.9235C78.6673 72.4728 78.8753 71.8965 78.8753 71.1945C78.8753 70.4925 78.6673 69.9161 78.2513 69.4655C77.8353 69.0148 77.3283 68.7895 76.7303 68.7895C76.1669 68.7895 75.6686 69.0235 75.2353 69.4915C74.8019 69.9595 74.5853 70.5271 74.5853 71.1945C74.5853 71.8618 74.8019 72.4295 75.2353 72.8975C75.6686 73.3655 76.1669 73.5995 76.7303 73.5995ZM86.4767 64.8245L86.9317 65.5395C86.819 65.6348 86.65 65.7258 86.4247 65.8125C85.9307 66.0291 85.2764 66.2198 84.4617 66.3845C83.7684 66.5318 83.2137 66.8611 82.7977 67.3725C82.3817 67.8751 82.1564 68.5641 82.1217 69.4395C82.269 69.2055 82.451 69.0018 82.6677 68.8285C83.153 68.4125 83.7077 68.2045 84.3317 68.2045C85.1464 68.2045 85.8484 68.5078 86.4377 69.1145C87.027 69.7211 87.3217 70.4578 87.3217 71.3245C87.3217 72.1998 87.0227 72.9408 86.4247 73.5475C85.8354 74.1455 85.116 74.4445 84.2667 74.4445C83.348 74.4445 82.5984 74.0935 82.0177 73.3915C81.437 72.6895 81.1467 71.6971 81.1467 70.4145C81.1467 68.9065 81.4327 67.7581 82.0047 66.9695C82.5767 66.1808 83.3524 65.7041 84.3317 65.5395C84.9817 65.4181 85.532 65.2665 85.9827 65.0845C86.2254 64.9718 86.39 64.8851 86.4767 64.8245ZM82.7457 72.9495C83.1617 73.3828 83.6687 73.5995 84.2667 73.5995C84.8647 73.5995 85.3717 73.3828 85.7877 72.9495C86.2037 72.5075 86.4117 71.9658 86.4117 71.3245C86.4117 70.6831 86.2037 70.1458 85.7877 69.7125C85.3717 69.2705 84.8647 69.0495 84.2667 69.0495C83.6687 69.0495 83.1617 69.2705 82.7457 69.7125C82.3297 70.1458 82.1217 70.6831 82.1217 71.3245C82.1217 71.9658 82.3297 72.5075 82.7457 72.9495ZM88.5562 76.9145V76.0695C88.6342 76.1041 88.7035 76.1258 88.7642 76.1345C88.9115 76.1778 89.0589 76.1995 89.2062 76.1995C89.7435 76.1995 90.1335 75.8745 90.3762 75.2245L90.7012 74.3145L88.1662 68.0745H89.1412L91.1562 73.1445L93.1712 68.0745H94.1462L91.2862 75.2245C91.0262 75.8831 90.7445 76.3511 90.4412 76.6285C90.1465 76.9058 89.7782 77.0445 89.3362 77.0445C89.1369 77.0445 88.9505 77.0228 88.7772 76.9795C88.7165 76.9708 88.6429 76.9491 88.5562 76.9145ZM95.3842 77.0445V68.0745H96.2942V68.9845C96.4416 68.7851 96.6192 68.6118 96.8272 68.4645C97.2952 68.1178 97.8326 67.9445 98.4392 67.9445C99.2972 67.9445 100.021 68.2521 100.61 68.8675C101.2 69.4828 101.494 70.2585 101.494 71.1945C101.494 72.1305 101.2 72.9061 100.61 73.5215C100.021 74.1368 99.2972 74.4445 98.4392 74.4445C97.8326 74.4445 97.2952 74.2711 96.8272 73.9245C96.6192 73.7771 96.4416 73.6038 96.2942 73.4045V77.0445H95.3842ZM98.4392 73.5995C99.0372 73.5995 99.5442 73.3741 99.9602 72.9235C100.376 72.4728 100.584 71.8965 100.584 71.1945C100.584 70.4925 100.376 69.9161 99.9602 69.4655C99.5442 69.0148 99.0372 68.7895 98.4392 68.7895C97.8759 68.7895 97.3776 69.0235 96.9442 69.4915C96.5109 69.9595 96.2942 70.5271 96.2942 71.1945C96.2942 71.8618 96.5109 72.4295 96.9442 72.8975C97.3776 73.3655 97.8759 73.5995 98.4392 73.5995ZM103.116 74.3145V68.0745H107.276V68.9195H104.026V74.3145H103.116Z" fill="#fff"/>
</svg>
