<svg width="129.998" height="50.159" viewBox="0 0 129.998 50.159" fill="none" xmlns="http://www.w3.org/2000/svg">
<path d="M121.44 0.547506L121.489 0.611632C122.367 1.7978 122.87 3.52923 122.87 5.36394V15.1297H118.739C116.992 15.1297 115.317 14.436 114.083 13.2012C112.848 11.9664 112.154 10.2916 112.154 8.54531V5.36394C112.154 3.52923 112.657 1.7978 113.538 0.611632L113.587 0.545083V0H105.029V0.545083L105.079 0.611632C105.957 1.7978 106.462 3.52923 106.462 5.36394V7.46559C106.462 10.1181 107.51 12.6631 109.378 14.5462C111.246 16.4293 113.783 17.4978 116.435 17.519L122.871 17.5787V25.4827C122.871 27.3176 122.368 29.0489 121.49 30.235L121.441 30.2991V30.8442H129.998V30.2991L129.949 30.235C129.071 29.0489 128.568 27.3176 128.568 25.4827V5.36394C128.568 3.52923 129.071 1.7978 129.949 0.611632L129.998 0.547506V0.0024235H121.44V0.547506Z" fill="#000"/>
<path d="M90.3954 1.4936C94.422 1.4936 96.92 3.4739 99.0147 8.32725L99.0788 8.47526H99.9518L98.9383 0.00488281H72.269L71.2109 8.47619H72.0841L72.1482 8.32817C73.7167 4.77937 75.8523 1.49453 80.8119 1.49453H82.7329V25.4863C82.7329 27.321 82.2296 29.0522 81.352 30.2386L81.3026 30.3027V30.8476H89.8604V30.3027L89.811 30.2386C88.933 29.0522 88.4298 27.321 88.4298 25.4863V1.49453L90.3954 1.4936Z" fill="#000"/>
<path d="M64.6455 0.613159L64.6947 0.549033V0.00488281H56.1371V0.549963L56.1865 0.616515C57.0645 1.80268 57.57 3.53392 57.57 5.36882V7.67796L44.0577 20.3543V5.36789C44.0577 3.533 44.561 1.80175 45.4413 0.615582L45.4907 0.549033V0.00488281H36.9336V0.549963L36.983 0.616515C37.861 1.80268 38.3666 3.53392 38.3666 5.36882V25.488C38.3666 27.3229 37.8633 29.0541 36.983 30.2403L36.9336 30.3068V30.8519H45.4901V30.3068L45.4407 30.2403C44.5627 29.0541 44.0571 27.3229 44.0571 25.488V22.8036L57.5695 10.1273V25.488C57.5695 27.3229 57.0662 29.0541 56.1859 30.2403L56.1365 30.3068V30.8519H64.6947V30.3068L64.6455 30.2427C63.7675 29.0565 63.2643 27.3253 63.2643 25.4904V5.37031C63.2643 3.53561 63.7676 1.80417 64.6455 0.618006V0.613159Z" fill="#000"/>
<path d="M17.9032 13.8742L23.4025 5.35773C24.8752 3.07134 26.849 1.10745 28.201 0.581566L28.3241 0.533656V0.00367494H20.25V0.53086L20.3682 0.580445C20.5535 0.658367 20.9146 1.09514 21.1374 1.82235C21.3085 2.36211 21.3575 2.93317 21.2807 3.49419C21.2039 4.0552 21.0032 4.5921 20.6933 5.06599L16.4622 11.6733L12.1933 5.1098C11.8629 4.60177 11.6459 4.02844 11.5573 3.42893C11.4687 2.82942 11.5104 2.21784 11.6797 1.63594C11.8721 0.992615 12.1605 0.629287 12.2723 0.576904L12.3842 0.524895V0.00292969H1.65593V0.519303L1.76033 0.573175C4.6276 2.05537 11.6887 13.7576 12.4286 14.993L5.59771 25.1769C2.44839 29.6643 0 30.2898 0 30.2898V30.849H9.25314V30.3157L9.1508 30.2612C8.42593 29.7949 7.90011 29.0759 7.67531 28.2439C7.45068 27.3328 7.67531 26.3747 8.34175 25.3949L13.8673 17.1877L19.1874 25.351C20.162 26.8571 20.042 28.0435 19.7696 28.7736C19.4426 29.6498 18.7816 30.1904 18.5846 30.2463L18.4455 30.2868V30.849H30.4171V30.2842C30.4185 30.2853 26.8711 29.1219 17.9032 13.8742Z" fill="#000"/>
<path d="M12.9951 50.0636L13.7525 44.5977H14.6973L16.4777 48.6658H16.1497L17.9378 44.5977H18.8592L19.6166 50.0636H18.4843L17.9926 46.3233H18.2502L16.5948 50.0636H16.0169L14.3615 46.3233H14.6113L14.1196 50.0636H12.9951Z" fill="#000"/>
<path d="M21.9043 50.0644L23.6926 47.5267H25.0199L23.2553 50.0644H21.9043ZM25.1293 50.0644V45.6292H24.4265C24.2521 45.6235 24.0787 45.6569 23.9189 45.7269C23.792 45.7846 23.6848 45.8783 23.6106 45.9963C23.5416 46.1091 23.5051 46.2388 23.5051 46.3711C23.5051 46.5033 23.5416 46.633 23.6106 46.7458C23.6847 46.8639 23.7919 46.9576 23.9189 47.0152C24.0787 47.0853 24.2521 47.1187 24.4265 47.1129H25.4026V48.1436H24.4109C24.0309 48.1537 23.6539 48.0748 23.3099 47.9132C23.0967 47.803 22.9083 47.6504 22.7562 47.4648C22.6042 47.2792 22.4916 47.0644 22.4254 46.8338C22.3593 46.6031 22.3409 46.3614 22.3715 46.1234C22.4021 45.8854 22.481 45.6561 22.6034 45.4497C22.7741 45.178 23.0194 44.9612 23.3099 44.825C23.6546 44.666 24.0313 44.5885 24.4109 44.5985H26.2538V50.0644H25.1293Z" fill="#000"/>
<path d="M31.8519 50.1582C31.3516 50.1619 30.8585 50.0383 30.4191 49.7989C29.9851 49.5651 29.6222 49.2184 29.3689 48.7955C29.1131 48.3499 28.9785 47.8452 28.9785 47.3314C28.9785 46.8177 29.1131 46.3129 29.3689 45.8674C29.6223 45.4445 29.9851 45.0978 30.4191 44.8639C30.8214 44.6498 31.2664 44.5282 31.7216 44.5079C32.1769 44.4877 32.6309 44.5693 33.0506 44.7469C33.4157 44.9068 33.741 45.1455 34.0032 45.4457C34.2755 45.7581 34.4743 46.1276 34.585 46.527H33.4059C33.2761 46.2316 33.0614 45.9816 32.789 45.8087C32.5093 45.6306 32.1835 45.5383 31.8519 45.543C31.5444 45.539 31.2417 45.6201 30.9775 45.7774C30.7179 45.9327 30.5038 46.1535 30.3567 46.4177C30.2056 46.6985 30.1265 47.0123 30.1265 47.3312C30.1265 47.65 30.2056 47.9638 30.3567 48.2446C30.5038 48.5088 30.7179 48.7297 30.9775 48.8849C31.2417 49.0422 31.5444 49.1233 31.8519 49.1193C32.1874 49.1259 32.5175 49.0336 32.8008 48.8538C33.0705 48.681 33.2814 48.4305 33.4059 48.1353H34.5772C34.4717 48.5344 34.2768 48.9041 34.0071 49.2166C33.746 49.518 33.4204 49.7569 33.0545 49.9154C32.6749 50.079 32.2653 50.1617 31.8519 50.1582Z" fill="#000"/>
<path d="M37.2236 50.0636V44.5977H38.3559V50.0636H37.2236ZM38.0439 47.7757V46.7372H40.9251V47.7757H38.0439ZM40.6205 50.0636V44.5977H41.745V50.0636H40.6205Z" fill="#000"/>
<path d="M47.3595 50.1581C46.8524 50.1628 46.3525 50.0378 45.9072 49.795C45.4649 49.5534 45.0958 49.1971 44.8386 48.7636C44.5815 48.3301 44.4458 47.8354 44.4458 47.3314C44.4458 46.8274 44.5815 46.3327 44.8386 45.8992C45.0958 45.4657 45.4649 45.1095 45.9072 44.8678C46.3542 44.6295 46.853 44.5049 47.3595 44.5049C47.8661 44.5049 48.3649 44.6295 48.8119 44.8678C49.2543 45.1094 49.6234 45.4657 49.8806 45.8991C50.1378 46.3326 50.2735 46.8274 50.2735 47.3314C50.2735 47.8354 50.1378 48.3302 49.8806 48.7637C49.6234 49.1971 49.2543 49.5534 48.8119 49.795C48.3666 50.0377 47.8667 50.1627 47.3595 50.1581ZM47.3595 49.1196C47.6677 49.1251 47.9716 49.047 48.239 48.8937C48.5064 48.7404 48.7273 48.5176 48.8783 48.2489C49.0295 47.9667 49.1087 47.6515 49.1087 47.3314C49.1087 47.0113 49.0295 46.6961 48.8783 46.414C48.7249 46.1467 48.5037 45.9246 48.2371 45.7702C47.9704 45.6158 47.6677 45.5344 47.3595 45.5344C47.0514 45.5344 46.7487 45.6158 46.482 45.7702C46.2154 45.9246 45.9942 46.1467 45.8408 46.414C45.6897 46.6961 45.6106 47.0113 45.6106 47.3314C45.6106 47.6515 45.6897 47.9667 45.8408 48.2489C45.9928 48.5167 46.2139 48.7388 46.4811 48.892C46.7482 49.0452 47.0516 49.1238 47.3595 49.1196Z" fill="#000"/>
<path d="M52.9741 50.0637V44.5977H54.0986V48.541L53.7861 48.4786L57.136 44.5977H57.9003V50.0637H56.7761V46.1282L57.096 46.1907L53.7464 50.0637H52.9741ZM55.528 44.1528C55.35 44.164 55.1715 44.1393 55.0031 44.0803C54.8348 44.0213 54.6799 43.9291 54.5478 43.8092C54.3168 43.5816 54.1813 43.2743 54.1692 42.9502H54.9815C54.9896 43.0999 55.052 43.2414 55.157 43.3484C55.2588 43.439 55.3918 43.4866 55.528 43.4811C55.6616 43.4855 55.7917 43.438 55.891 43.3484C55.996 43.2414 56.0584 43.0999 56.0666 42.9502H56.8788C56.8663 43.275 56.7293 43.5826 56.4963 43.8092C56.3658 43.9281 56.2129 44.0197 56.0466 44.0787C55.8803 44.1377 55.7038 44.1629 55.5276 44.1528H55.528Z" fill="#000"/>
<path d="M64.959 50.0644V44.5985H66.8095C67.1891 44.5885 67.5658 44.666 67.9105 44.825C68.2011 44.9613 68.4464 45.1781 68.6174 45.4497C68.7785 45.73 68.8633 46.0477 68.8633 46.3711C68.8633 46.6944 68.7785 47.0121 68.6174 47.2924C68.4464 47.564 68.2011 47.7808 67.9105 47.9171C67.5658 48.0761 67.1891 48.1536 66.8095 48.1436H65.8102V47.1138H66.7941C66.967 47.1188 67.1389 47.0855 67.2974 47.0162C67.4253 46.9599 67.533 46.8659 67.6059 46.7468C67.6723 46.633 67.7073 46.5037 67.7073 46.372C67.7073 46.2403 67.6723 46.1109 67.6059 45.9972C67.5329 45.8781 67.4253 45.7841 67.2974 45.7278C67.1389 45.6586 66.967 45.6252 66.7941 45.6301H66.0913V50.0654L64.959 50.0644Z" fill="#000"/>
<path d="M71.4639 50.0636V44.5977H74.7901V45.6283H72.596V49.0331H74.8682V50.0637L71.4639 50.0636ZM72.4705 47.7679V46.7372H74.7114V47.7679H72.4705Z" fill="#000"/>
<path d="M80.2328 50.1585C79.7324 50.1623 79.2393 50.0387 78.8 49.7992C78.3659 49.5654 78.0029 49.2187 77.7495 48.7958C77.4939 48.3502 77.3594 47.8454 77.3594 47.3317C77.3594 46.818 77.4939 46.3133 77.7495 45.8677C78.003 45.4448 78.3659 45.0981 78.8 44.8642C79.2022 44.65 79.6471 44.5283 80.1023 44.5079C80.5575 44.4876 81.0116 44.5691 81.4313 44.7466C81.7964 44.9066 82.1218 45.1452 82.384 45.4455C82.6562 45.7579 82.8551 46.1274 82.9658 46.5267H81.7866C81.6568 46.2317 81.4423 45.9819 81.1703 45.8092C80.8906 45.6311 80.5649 45.5387 80.2333 45.5435C79.9258 45.5394 79.6231 45.6205 79.3589 45.7779C79.0993 45.9332 78.8852 46.154 78.7381 46.4182C78.5869 46.6989 78.5077 47.0128 78.5077 47.3316C78.5077 47.6505 78.5869 47.9644 78.7381 48.2451C78.8852 48.5093 79.0993 48.7302 79.3589 48.8854C79.6231 49.0428 79.9258 49.1239 80.2333 49.1197C80.5688 49.1264 80.8989 49.0341 81.1822 48.8543C81.4518 48.6814 81.6627 48.431 81.7871 48.1358H82.9584C82.8531 48.5349 82.6582 48.9047 82.3885 49.2171C82.1273 49.5185 81.8017 49.7573 81.4357 49.9159C81.056 50.0795 80.6463 50.1621 80.2328 50.1585Z" fill="#000"/>
<path d="M86.2297 50.0636V45.6362H84.8711V44.5977H88.7128V45.6362H87.3618V50.0636H86.2297Z" fill="#000"/>
<path d="M93.5929 50.1581C93.0858 50.1628 92.5859 50.0378 92.1406 49.795C91.6983 49.5534 91.3292 49.1971 91.072 48.7636C90.8149 48.3301 90.6792 47.8354 90.6792 47.3314C90.6792 46.8274 90.8149 46.3327 91.072 45.8992C91.3292 45.4657 91.6983 45.1095 92.1406 44.8678C92.5876 44.6295 93.0864 44.5049 93.5929 44.5049C94.0995 44.5049 94.5983 44.6295 95.0453 44.8678C95.4877 45.1094 95.8568 45.4657 96.114 45.8991C96.3712 46.3326 96.5069 46.8274 96.5069 47.3314C96.5069 47.8354 96.3712 48.3302 96.114 48.7637C95.8568 49.1971 95.4877 49.5534 95.0453 49.795C94.6 50.0377 94.1001 50.1627 93.5929 50.1581ZM93.5929 49.1196C93.9011 49.1251 94.205 49.047 94.4724 48.8937C94.7398 48.7404 94.9607 48.5176 95.1117 48.2489C95.2629 47.9667 95.3421 47.6515 95.3421 47.3314C95.3421 47.0113 95.2629 46.6961 95.1117 46.414C94.9583 46.1467 94.7371 45.9246 94.4704 45.7702C94.2038 45.6158 93.9011 45.5344 93.5929 45.5344C93.2848 45.5344 92.9821 45.6158 92.7154 45.7702C92.4488 45.9246 92.2276 46.1467 92.0742 46.414C91.9231 46.6961 91.844 47.0113 91.844 47.3314C91.844 47.6515 91.9231 47.9667 92.0742 48.2489C92.2262 48.5167 92.4473 48.7388 92.7144 48.892C92.9816 49.0452 93.285 49.1238 93.5929 49.1196Z" fill="#000"/>
<path d="M99.207 50.0644V44.5985H101.058C101.437 44.5885 101.814 44.666 102.159 44.825C102.449 44.9613 102.695 45.1781 102.865 45.4497C103.027 45.73 103.111 46.0477 103.111 46.3711C103.111 46.6944 103.027 47.0121 102.865 47.2924C102.695 47.564 102.449 47.7809 102.159 47.9171C101.814 48.0761 101.437 48.1536 101.058 48.1436H100.058V47.1138H101.042C101.215 47.1189 101.387 47.0855 101.546 47.0162C101.674 46.96 101.781 46.866 101.854 46.7468C101.921 46.633 101.956 46.5037 101.956 46.372C101.956 46.2403 101.921 46.1109 101.854 45.9972C101.781 45.878 101.674 45.7841 101.546 45.7278C101.387 45.6586 101.215 45.6252 101.042 45.6301H100.34V50.0654L99.207 50.0644Z" fill="#000"/>
<path d="M104.657 50.0636L106.789 44.5977H107.906L110.03 50.0636H108.834L108.257 48.4706L108.217 48.2676L107.195 45.4714H107.492L106.469 48.2676L106.423 48.4706L105.845 50.0636H104.657ZM105.946 48.9313V47.9006H108.726V48.9313H105.946Z" fill="#000"/>
<path d="M112.481 50.0636V44.5977H113.614V50.0636H112.481ZM113.302 47.7757V46.7372H116.183V47.7757H113.302ZM115.878 50.0636V44.5977H117.003V50.0636H115.878Z" fill="#000"/>
</svg>
