<svg width="167" height="46.089" viewBox="0 0 167 46.089" fill="none" xmlns="http://www.w3.org/2000/svg">
<g clip-path="url(#clip0_1121_4528)">
<path d="M165.766 26.6072C166.59 26.6072 167 26.004 167 25.4009C167 24.7977 166.59 24.167 165.766 24.167H164.748V15.1014H165.766C166.59 15.1014 167 14.4983 167 13.8951C167 13.292 166.59 12.6612 165.766 12.6612H161.367C160.542 12.6612 160.132 13.2644 160.132 13.8951C160.132 14.5259 160.519 15.1014 161.316 15.1014L156.866 21.4183V15.1014H157.718C158.543 15.1014 158.953 14.4983 158.953 13.8951C158.953 13.292 158.543 12.6612 157.718 12.6612H153.458C152.633 12.6612 152.246 13.292 152.246 13.8951C152.246 14.4983 152.633 15.1014 153.458 15.1014H154.42V24.167H153.458C152.633 24.167 152.246 24.7977 152.246 25.4009C152.246 26.004 152.633 26.6072 153.458 26.6072H157.608C158.432 26.6072 158.842 25.9764 158.842 25.3733C158.842 24.7701 158.432 24.167 157.658 24.167L162.302 17.6291V24.167H161.367C160.542 24.167 160.132 24.7977 160.132 25.4009C160.132 26.004 160.542 26.6072 161.367 26.6072H165.766ZM144.107 26.6072C144.931 26.6072 145.341 26.004 145.341 25.4009C145.341 24.7977 144.931 24.167 144.107 24.167H143.255V15.1014H144.107C144.931 15.1014 145.341 14.4983 145.341 13.8951C145.341 13.292 144.931 12.6612 144.107 12.6612H139.984C139.16 12.6612 138.777 13.292 138.777 13.8951C138.777 14.4983 139.164 15.1014 139.984 15.1014H140.809V18.2046H135.037V15.1014H135.917C136.714 15.1014 137.124 14.4983 137.124 13.8951C137.124 13.292 136.714 12.6612 135.917 12.6612H131.794C130.97 12.6612 130.583 13.292 130.583 13.8951C130.583 14.4983 130.97 15.1014 131.794 15.1014H132.591V24.167H131.794C130.97 24.167 130.583 24.7977 130.583 25.4009C130.583 26.004 130.97 26.6072 131.794 26.6072H135.917C136.714 26.6072 137.124 26.004 137.124 25.4009C137.124 24.7977 136.714 24.167 135.917 24.167H135.037V20.6494H140.809V24.167H139.984C139.16 24.167 138.777 24.7977 138.777 25.4009C138.777 26.004 139.164 26.6072 139.984 26.6072H144.107ZM119.095 22.0491C117.86 23.7526 115.963 24.3281 114.148 24.3281C113.185 24.3281 112.278 24.1071 112.278 23.0113C112.278 21.3631 113.512 21.1144 114.972 20.9257C116.4 20.7599 118.16 20.7323 119.095 20.0463V22.0491ZM122.831 26.7453C123.655 26.7453 124.065 26.1421 124.065 25.539C124.065 24.9359 123.655 24.3327 122.831 24.3327C122.061 24.3327 121.541 24.2222 121.541 23.481V16.6945C121.541 13.5636 118.846 12.4909 116.267 12.4909C113.079 12.4909 110.744 13.5913 110.744 16.5287C110.744 17.491 111.375 18.2046 112.476 18.2046C113.273 18.2046 114.097 17.712 114.097 16.6945C114.097 16.1742 113.904 15.8703 113.549 15.5664C114.097 14.9909 115.143 14.9357 116.271 14.9357C117.533 14.9357 119.099 15.1567 119.099 16.6945V17.491C118.137 18.6466 116.432 18.3427 114.595 18.6466C111.983 19.0564 109.841 19.9358 109.841 23.0159C109.841 25.6817 111.845 26.7499 114.157 26.7499C116.188 26.7499 118.086 26.1467 119.459 25.1292C120.007 26.202 121.163 26.7499 122.84 26.7499L122.831 26.7453ZM100.79 26.6072C101.614 26.6072 102.024 26.004 102.024 25.4009C102.024 24.7977 101.614 24.167 100.79 24.167H99.7716V15.1014H100.79C101.614 15.1014 102.024 14.4983 102.024 13.8951C102.024 13.292 101.614 12.6612 100.79 12.6612H96.3906C95.5661 12.6612 95.1561 13.2644 95.1561 13.8951C95.1561 14.5259 95.5431 15.1014 96.34 15.1014L91.8903 21.4183V15.1014H92.7425C93.567 15.1014 93.9769 14.4983 93.9769 13.8951C93.9769 13.292 93.567 12.6612 92.7425 12.6612H88.4817C87.6572 12.6612 87.2702 13.292 87.2702 13.8951C87.2702 14.4983 87.6572 15.1014 88.4817 15.1014H89.4444V24.167H88.4817C87.6572 24.167 87.2702 24.7977 87.2702 25.4009C87.2702 26.004 87.6572 26.6072 88.4817 26.6072H92.6319C93.4564 26.6072 93.8664 25.9764 93.8664 25.3733C93.8664 24.7701 93.4564 24.167 92.6826 24.167L97.3257 17.6291V24.167H96.3906C95.5661 24.167 95.1561 24.7977 95.1561 25.4009C95.1561 26.004 95.5661 26.6072 96.3906 26.6072H100.79ZM79.4304 26.6072C80.2273 26.6072 80.6372 26.004 80.6372 25.4009C80.6372 24.7977 80.2273 24.167 79.4304 24.167H78.3848V15.1014H79.4304C80.2273 15.1014 80.6372 14.4983 80.6372 13.8951C80.6372 13.292 80.2273 12.6612 79.4304 12.6612H68.7945C67.97 12.6612 67.56 13.292 67.56 13.8951C67.56 14.4983 67.97 15.1014 68.7945 15.1014H70.3054V20.677C70.3054 23.1495 70.2501 24.4386 68.3523 24.4386C68.7116 24.1624 68.9281 23.725 68.9281 23.2047C68.9281 22.2977 68.2141 21.5841 67.3343 21.5841C66.1505 21.5841 65.2477 22.4911 65.2477 24.0288C65.2477 25.5666 66.1275 26.8558 68.7116 26.8558C71.8162 26.8558 72.7513 24.1624 72.7513 19.0564V15.1014H75.9665V24.167H75.0038C74.1792 24.167 73.7969 24.7977 73.7969 25.4009C73.7969 26.004 74.1838 26.6072 75.0038 26.6072H79.4258H79.4304ZM54.119 22.0491C52.8845 23.7526 50.9867 24.3281 49.1718 24.3281C48.2091 24.3281 47.3017 24.1071 47.3017 23.0113C47.3017 21.3631 48.5362 21.1144 49.9964 20.9257C51.4243 20.7599 53.1839 20.7323 54.119 20.0463V22.0491ZM57.8546 26.7453C58.6792 26.7453 59.0891 26.1421 59.0891 25.539C59.0891 24.9359 58.6792 24.3327 57.8546 24.3327C57.0854 24.3327 56.5649 24.2222 56.5649 23.481V16.6945C56.5649 13.5636 53.8702 12.4909 51.2907 12.4909C48.1032 12.4909 45.7678 13.5913 45.7678 16.5287C45.7678 17.491 46.3989 18.2046 47.4998 18.2046C48.2966 18.2046 49.1212 17.712 49.1212 16.6945C49.1212 16.1742 48.9277 15.8703 48.573 15.5664C49.1212 14.9909 50.1668 14.9357 51.2953 14.9357C52.5574 14.9357 54.1236 15.1567 54.1236 16.6945V17.491C53.1609 18.6466 51.4565 18.3427 49.6186 18.6466C47.0069 19.0564 44.865 19.9358 44.865 23.0159C44.865 25.6817 46.8687 26.7499 49.181 26.7499C51.2124 26.7499 53.1102 26.1467 54.4829 25.1292C55.031 26.202 56.1872 26.7499 57.8639 26.7499L57.8546 26.7453ZM36.3618 14.3325C36.1407 12.9881 35.7031 12.6566 34.3811 12.6566H25.0949C23.7499 12.6566 23.3353 12.9881 23.1142 14.3325L22.4279 18.4809C22.4279 19.2221 23.0589 19.6641 23.6624 19.6641C24.1829 19.6641 24.7356 19.3603 24.8462 18.6466L25.4496 15.1014H28.5266V24.167H25.9977C25.1732 24.167 24.7909 24.7977 24.7909 25.4009C24.7909 26.004 25.1778 26.6072 25.9977 26.6072H33.4737C34.2706 26.6072 34.6805 26.004 34.6805 25.4009C34.6805 24.7977 34.2706 24.167 33.4737 24.167H30.9725V15.1014H34.0218L34.5976 18.6466C34.7082 19.3603 35.2563 19.6641 35.8045 19.6641C36.4355 19.6641 37.0389 19.2544 37.0389 18.5085L36.3526 14.3325H36.3618ZM14.6755 26.6072C15.4724 26.6072 15.887 26.004 15.887 25.4009C15.887 24.7977 15.477 24.167 14.6755 24.167H13.6852V9.94019H14.6755C15.4724 9.94019 15.887 9.33705 15.887 8.73391C15.887 8.13077 15.477 7.5 14.6755 7.5H10.2535C9.42902 7.5 9.01906 8.13077 9.01906 8.73391C9.01906 9.33705 9.35071 9.94019 10.3917 9.94019L4.64772 20.7875V9.94019H5.63806C6.46258 9.94019 6.87254 9.33705 6.87254 8.73391C6.87254 8.13077 6.46258 7.5 5.63806 7.5H1.20684C0.38232 7.5 0 8.13077 0 8.73391C0 9.33705 0.386926 9.94019 1.20684 9.94019H2.19719V24.167H1.20684C0.38232 24.167 0 24.7977 0 25.4009C0 26.004 0.386926 26.6072 1.20684 26.6072H5.62885C6.45337 26.6072 6.86333 26.004 6.86333 25.4009C6.86333 24.7977 6.53168 24.167 5.43539 24.167L11.2347 13.1815V24.167H10.2443C9.4198 24.167 9.00985 24.7977 9.00985 25.4009C9.00985 26.004 9.4198 26.6072 10.2443 26.6072H14.6663H14.6755Z" fill="#000"/>
<path d="M124.728 42.8521C124.272 43.4783 123.577 43.6901 122.913 43.6901C122.559 43.6901 122.227 43.6072 122.227 43.2066C122.227 42.6035 122.683 42.5114 123.217 42.4377C123.742 42.3779 124.387 42.3687 124.733 42.1154V42.8521H124.728ZM126.101 44.5787C126.405 44.5787 126.557 44.3577 126.557 44.1367C126.557 43.9157 126.405 43.6947 126.101 43.6947C125.82 43.6947 125.626 43.6532 125.626 43.3816V40.8907C125.626 39.7397 124.636 39.3484 123.687 39.3484C122.517 39.3484 121.66 39.7535 121.66 40.8309C121.66 41.1854 121.891 41.4478 122.296 41.4478C122.591 41.4478 122.89 41.2683 122.89 40.8907C122.89 40.6974 122.821 40.5869 122.688 40.4764C122.89 40.2646 123.273 40.2462 123.687 40.2462C124.152 40.2462 124.728 40.329 124.728 40.8907V41.1854C124.374 41.609 123.747 41.4985 123.075 41.609C122.116 41.7609 121.329 42.0832 121.329 43.2112C121.329 44.1919 122.066 44.5833 122.913 44.5833C123.66 44.5833 124.355 44.3623 124.862 43.9893C125.064 44.3807 125.488 44.5833 126.105 44.5833L126.101 44.5787ZM119.265 45.6468V44.284C119.265 43.7775 119.113 43.6302 118.611 43.6302H118.146V40.3014H118.459C118.763 40.3014 118.915 40.0804 118.915 39.8594C118.915 39.6384 118.763 39.4036 118.459 39.4036H116.944C116.64 39.4036 116.501 39.6338 116.501 39.8594C116.501 40.085 116.644 40.3014 116.944 40.3014H117.248V43.6302H115.129V40.3014H115.451C115.746 40.3014 115.893 40.0804 115.893 39.8594C115.893 39.6384 115.741 39.4036 115.451 39.4036H113.936C113.632 39.4036 113.494 39.6338 113.494 39.8594C113.494 40.085 113.636 40.3014 113.936 40.3014H114.231V43.6302H113.936C113.632 43.6302 113.494 43.8604 113.494 44.086C113.494 44.3116 113.636 44.528 113.936 44.528H118.367V45.6468C118.367 45.9507 118.588 46.0888 118.809 46.0888C119.03 46.0888 119.265 45.9461 119.265 45.6468ZM111.766 45.6468V44.284C111.766 43.7775 111.614 43.6302 111.112 43.6302H110.647V40.3014H110.96C111.264 40.3014 111.416 40.0804 111.416 39.8594C111.416 39.6384 111.264 39.4036 110.96 39.4036H109.445C109.141 39.4036 109.002 39.6338 109.002 39.8594C109.002 40.085 109.145 40.3014 109.445 40.3014H109.749V43.6302H107.63V40.3014H107.952C108.247 40.3014 108.394 40.0804 108.394 39.8594C108.394 39.6384 108.242 39.4036 107.952 39.4036H106.437C106.133 39.4036 105.995 39.6338 105.995 39.8594C105.995 40.085 106.137 40.3014 106.437 40.3014H106.732V43.6302H106.437C106.133 43.6302 105.995 43.8604 105.995 44.086C105.995 44.3116 106.137 44.528 106.437 44.528H110.868V45.6468C110.868 45.9507 111.089 46.0888 111.31 46.0888C111.531 46.0888 111.766 45.9461 111.766 45.6468ZM103.456 44.528C103.761 44.528 103.913 44.307 103.913 44.086C103.913 43.865 103.761 43.6302 103.456 43.6302H103.083V40.3014H103.456C103.761 40.3014 103.913 40.0804 103.913 39.8594C103.913 39.6384 103.761 39.4036 103.456 39.4036H101.84C101.536 39.4036 101.384 39.6246 101.384 39.8594C101.384 40.0942 101.526 40.3014 101.817 40.3014L100.181 42.6219V40.3014H100.495C100.799 40.3014 100.951 40.0804 100.951 39.8594C100.951 39.6384 100.799 39.4036 100.495 39.4036H98.9285C98.6245 39.4036 98.4863 39.6338 98.4863 39.8594C98.4863 40.085 98.6291 40.3014 98.9285 40.3014H99.2832V43.6302H98.9285C98.6245 43.6302 98.4863 43.8604 98.4863 44.086C98.4863 44.3116 98.6291 44.528 98.9285 44.528H100.453C100.757 44.528 100.909 44.2978 100.909 44.0722C100.909 43.8466 100.757 43.6302 100.476 43.6302L102.181 41.2314V43.6302H101.84C101.536 43.6302 101.384 43.8604 101.384 44.086C101.384 44.3116 101.536 44.528 101.84 44.528H103.456ZM95.9529 44.528C96.2569 44.528 96.4089 44.307 96.4089 44.086C96.4089 43.865 96.2569 43.6302 95.9529 43.6302H95.6397V40.3014H95.9529C96.2569 40.3014 96.4089 40.0804 96.4089 39.8594C96.4089 39.6384 96.2569 39.4036 95.9529 39.4036H91.4295C91.1255 39.4036 90.9873 39.6338 90.9873 39.8594C90.9873 40.085 91.1301 40.3014 91.4295 40.3014H91.7243V43.6302H91.4295C91.1255 43.6302 90.9873 43.8604 90.9873 44.086C90.9873 44.3116 91.1301 44.528 91.4295 44.528H92.945C93.2398 44.528 93.3872 44.307 93.3872 44.086C93.3872 43.865 93.2352 43.6302 92.945 43.6302H92.6226V40.3014H94.7414V43.6302H94.4374C94.1334 43.6302 93.9952 43.8604 93.9952 44.086C93.9952 44.3116 94.138 44.528 94.4374 44.528H95.9529ZM74.9069 42.8521C74.4509 43.4783 73.7553 43.6901 73.092 43.6901C72.7373 43.6901 72.4057 43.6072 72.4057 43.2066C72.4057 42.6035 72.8617 42.5114 73.396 42.4377C73.9211 42.3779 74.566 42.3687 74.9115 42.1154V42.8521H74.9069ZM76.2795 44.5787C76.5836 44.5787 76.7356 44.3577 76.7356 44.1367C76.7356 43.9157 76.5836 43.6947 76.2795 43.6947C75.9986 43.6947 75.8051 43.6532 75.8051 43.3816V40.8907C75.8051 39.7397 74.8148 39.3484 73.8659 39.3484C72.6959 39.3484 71.8391 39.7535 71.8391 40.8309C71.8391 41.1854 72.0694 41.4478 72.4748 41.4478C72.7696 41.4478 73.069 41.2683 73.069 40.8907C73.069 40.6974 72.9999 40.5869 72.8663 40.4764C73.069 40.2646 73.4513 40.2462 73.8659 40.2462C74.3311 40.2462 74.9069 40.329 74.9069 40.8907V41.1854C74.5522 41.609 73.9257 41.4985 73.2532 41.609C72.2951 41.7609 71.5075 42.0832 71.5075 43.2112C71.5075 44.1919 72.2445 44.5833 73.092 44.5833C73.8382 44.5833 74.5338 44.3623 75.0405 43.9893C75.2431 44.3807 75.6669 44.5833 76.2841 44.5833L76.2795 44.5787ZM68.8404 40.0206C68.7575 39.5279 68.5963 39.4036 68.1126 39.4036H64.6994C64.2065 39.4036 64.0545 39.5233 63.9716 40.0206L63.7183 41.5445C63.7183 41.8162 63.9486 41.9773 64.1743 41.9773C64.3678 41.9773 64.5658 41.8668 64.6073 41.6044L64.8284 40.3014H65.9569V43.6302H65.0264C64.7224 43.6302 64.5842 43.8604 64.5842 44.086C64.5842 44.3116 64.727 44.528 65.0264 44.528H67.7718C68.0666 44.528 68.214 44.307 68.214 44.086C68.214 43.865 68.062 43.6302 67.7718 43.6302H66.8551V40.3014H67.9745L68.1863 41.6044C68.2278 41.8668 68.4305 41.9773 68.6285 41.9773C68.8589 41.9773 69.0846 41.8254 69.0846 41.5537L68.8312 40.0206H68.8404ZM61.1342 43.0225C61.1342 42.76 60.89 42.5805 60.6597 42.5805C60.4893 42.5805 60.3281 42.6725 60.2544 42.8935C60.1116 43.3171 59.5496 43.6808 58.9922 43.6808C58.1263 43.6808 57.3893 42.9948 57.3893 41.9037C57.3893 40.702 58.246 40.2508 59.0061 40.2508C59.3469 40.2508 59.6233 40.3336 59.8122 40.4718C59.7108 40.5823 59.6602 40.725 59.6602 40.8769C59.6602 41.2683 59.9319 41.5445 60.3142 41.5445C60.6459 41.5445 60.9683 41.2729 60.9683 40.8769C60.9683 39.9883 59.9688 39.3438 59.0015 39.3438C57.6702 39.3438 56.4864 40.2508 56.4864 41.9083C56.4864 43.4322 57.5551 44.5833 59.0015 44.5833C60.1945 44.5833 61.1296 43.5335 61.1296 43.0317L61.1342 43.0225ZM52.4007 42.8521C51.9447 43.4783 51.2491 43.6901 50.5858 43.6901C50.2311 43.6901 49.8995 43.6072 49.8995 43.2066C49.8995 42.6035 50.3555 42.5114 50.8898 42.4377C51.4149 42.3779 52.0598 42.3687 52.4053 42.1154V42.8521H52.4007ZM53.7733 44.5787C54.0774 44.5787 54.2294 44.3577 54.2294 44.1367C54.2294 43.9157 54.0774 43.6947 53.7733 43.6947C53.4924 43.6947 53.2989 43.6532 53.2989 43.3816V40.8907C53.2989 39.7397 52.3086 39.3484 51.3597 39.3484C50.1897 39.3484 49.3329 39.7535 49.3329 40.8309C49.3329 41.1854 49.5632 41.4478 49.9686 41.4478C50.2634 41.4478 50.5628 41.2683 50.5628 40.8907C50.5628 40.6974 50.4937 40.5869 50.3601 40.4764C50.5628 40.2646 50.9451 40.2462 51.3597 40.2462C51.8249 40.2462 52.4007 40.329 52.4007 40.8907V41.1854C52.046 41.609 51.4196 41.4985 50.747 41.609C49.7889 41.7609 49.0013 42.0832 49.0013 43.2112C49.0013 44.1919 49.7383 44.5833 50.5858 44.5833C51.332 44.5833 52.0276 44.3623 52.5343 43.9893C52.7369 44.3807 53.1607 44.5833 53.778 44.5833L53.7733 44.5787ZM46.1316 44.528C46.4356 44.528 46.5876 44.307 46.5876 44.086C46.5876 43.865 46.4356 43.6302 46.1316 43.6302H45.8183V40.3014H46.1316C46.4356 40.3014 46.5876 40.0804 46.5876 39.8594C46.5876 39.6384 46.4356 39.4036 46.1316 39.4036H41.6082C41.3042 39.4036 41.166 39.6338 41.166 39.8594C41.166 40.085 41.3088 40.3014 41.6082 40.3014H41.903V43.6302H41.6082C41.3042 43.6302 41.166 43.8604 41.166 44.086C41.166 44.3116 41.3088 44.528 41.6082 44.528H43.1237C43.4185 44.528 43.5659 44.307 43.5659 44.086C43.5659 43.865 43.4139 43.6302 43.1237 43.6302H42.8012V40.3014H44.9201V43.6302H44.6161C44.3121 43.6302 44.1739 43.8604 44.1739 44.086C44.1739 44.3116 44.3167 44.528 44.6161 44.528H46.1316Z" fill="#000"/>
<path d="M94.4463 0C93.6264 0 92.8249 0.244019 92.1432 0.699829C91.4614 1.15564 90.9317 1.80022 90.6185 2.55529C90.3053 3.31037 90.2224 4.14372 90.3836 4.94484C90.5448 5.74596 90.9409 6.48262 91.5213 7.06274C92.1017 7.63826 92.8433 8.03422 93.6494 8.19076C94.4555 8.3519 95.2892 8.26903 96.0447 7.95595C96.8047 7.64286 97.4496 7.11339 97.9056 6.43198C98.3616 5.75057 98.6058 4.95405 98.6058 4.13451C98.6058 3.59123 98.4952 3.05254 98.2879 2.55069C98.0806 2.04884 97.772 1.59303 97.3897 1.21089C97.0028 0.828744 96.5468 0.524871 96.0401 0.317685C95.5334 0.105895 94.9898 0 94.4463 0ZM94.9852 4.12991C94.9852 4.16214 94.9944 4.19897 95.0129 4.2266C95.0313 4.25422 95.0589 4.27264 95.0912 4.28185C95.8005 4.50745 96.6896 4.79751 96.8416 4.88499C96.9429 4.94484 97.0212 5.03692 97.0673 5.14282C97.1133 5.25332 97.1179 5.37303 97.0903 5.48813C97.058 5.59863 96.9936 5.69992 96.8968 5.77359C96.8047 5.84725 96.6895 5.88408 96.5698 5.88869C96.4777 5.88869 96.3855 5.86106 96.3026 5.81963C96.1506 5.73215 95.4551 5.11059 94.8977 4.60874C94.8701 4.58572 94.8332 4.57191 94.7964 4.57191C94.7687 4.57191 94.7411 4.58111 94.7135 4.59953C94.6858 4.61334 94.6628 4.64097 94.649 4.6732C94.6352 4.70543 94.6305 4.73765 94.6352 4.76988C94.7964 5.49734 94.9898 6.40896 94.9898 6.57931C95.0037 6.65758 94.9991 6.73585 94.976 6.80952C94.9576 6.88318 94.9161 6.95224 94.8701 7.0121C94.8194 7.07195 94.7549 7.11799 94.6858 7.15022C94.6167 7.18245 94.5384 7.20087 94.4601 7.20087C94.3818 7.20087 94.3035 7.18245 94.2344 7.15022C94.1607 7.11799 94.1008 7.07195 94.0502 7.0121C93.9995 6.95224 93.9626 6.88318 93.9396 6.80952C93.9166 6.73585 93.912 6.65298 93.9258 6.57931C93.9258 6.40435 94.1146 5.49734 94.2805 4.76988C94.2897 4.73765 94.2805 4.70082 94.2713 4.6732C94.2574 4.64097 94.2344 4.61795 94.2068 4.59953C94.1837 4.58111 94.1561 4.57191 94.1239 4.57191C94.0824 4.57191 94.0456 4.58572 94.0179 4.60874C93.4652 5.11519 92.7696 5.73215 92.6176 5.81963C92.5347 5.86567 92.4426 5.88869 92.3458 5.88869C92.2261 5.88869 92.1155 5.84725 92.0188 5.77359C91.9221 5.69992 91.8576 5.59863 91.8253 5.48813C91.7931 5.37303 91.8023 5.25332 91.8484 5.14282C91.8944 5.03232 91.9727 4.94484 92.0741 4.88499C92.2215 4.79751 93.1059 4.50745 93.8245 4.28185C93.8567 4.27264 93.8843 4.24962 93.9028 4.2266C93.9212 4.19897 93.9304 4.16674 93.9304 4.12991C93.9304 4.09308 93.9212 4.06545 93.9028 4.03783C93.8843 4.0102 93.8567 3.99179 93.8245 3.97797C93.1151 3.74777 92.2215 3.45771 92.0741 3.37483C91.9727 3.31498 91.8944 3.22289 91.8484 3.117C91.8023 3.0065 91.7977 2.88679 91.8253 2.77629C91.8576 2.66119 91.9221 2.5599 92.0188 2.49084C92.1109 2.41717 92.2261 2.38034 92.3458 2.38034C92.4426 2.38034 92.5347 2.40336 92.6176 2.4494C92.765 2.53688 93.4606 3.15844 94.0179 3.65568C94.0317 3.6695 94.0502 3.6787 94.0686 3.68791C94.087 3.69712 94.1054 3.69712 94.1239 3.69712C94.1515 3.69712 94.1791 3.68791 94.2068 3.6695C94.2344 3.65108 94.2574 3.62806 94.2713 3.59583C94.2851 3.5682 94.2851 3.53137 94.2805 3.49914C94.1239 2.76709 93.9258 1.86007 93.9258 1.68972C93.912 1.61145 93.9166 1.53318 93.9396 1.45951C93.958 1.38124 93.9995 1.31218 94.0502 1.25232C94.1008 1.19247 94.1607 1.14643 94.2344 1.1142C94.3035 1.08197 94.3818 1.06356 94.4601 1.06356C94.5384 1.06356 94.6167 1.08197 94.6858 1.1142C94.7549 1.14643 94.8194 1.19708 94.8701 1.25232C94.9207 1.31218 94.9576 1.38124 94.976 1.45951C94.9991 1.53318 94.9991 1.61145 94.9898 1.68972C94.9898 1.86467 94.801 2.76709 94.6352 3.49914C94.6305 3.53137 94.6352 3.5636 94.649 3.59583C94.6628 3.62806 94.6858 3.65108 94.7135 3.6695C94.7365 3.68331 94.7687 3.69252 94.7964 3.69712C94.8148 3.69712 94.8378 3.69712 94.8516 3.68791C94.8701 3.6787 94.8839 3.6695 94.8977 3.65568C95.4551 3.15383 96.1506 2.53688 96.3026 2.4494C96.3855 2.40336 96.4777 2.38034 96.5698 2.38034C96.6895 2.38034 96.8047 2.42178 96.8968 2.49084C96.989 2.5645 97.058 2.66119 97.0903 2.77629C97.1225 2.88679 97.1133 3.0111 97.0673 3.117C97.0212 3.2275 96.9429 3.31498 96.8416 3.37483C96.6896 3.45771 95.8051 3.74777 95.0912 3.97797C95.0589 3.98718 95.0313 4.0102 95.0129 4.03322C94.9944 4.06085 94.9852 4.09308 94.9852 4.12531V4.12991Z" fill="#000"/>
<path d="M159.583 0C158.764 0 157.957 0.239415 157.276 0.695224C156.594 1.15103 156.06 1.79561 155.746 2.55069C155.433 3.30577 155.35 4.13912 155.512 4.94024C155.673 5.74136 156.069 6.47802 156.649 7.05814C157.23 7.63826 157.971 8.02961 158.777 8.19076C159.583 8.3519 160.417 8.26903 161.177 7.95595C161.937 7.64286 162.582 7.11339 163.038 6.43198C163.494 5.75057 163.738 4.94945 163.734 4.13451C163.734 3.03873 163.296 1.98899 162.518 1.21549C161.739 0.432789 160.684 0 159.583 0ZM160.122 4.12991C160.122 4.16214 160.132 4.19437 160.15 4.2266C160.168 4.25422 160.196 4.27264 160.228 4.28185C160.938 4.50745 161.827 4.79751 161.979 4.88499C162.08 4.94484 162.158 5.03692 162.204 5.14282C162.25 5.25332 162.26 5.37303 162.227 5.48813C162.195 5.59863 162.131 5.69992 162.034 5.77359C161.942 5.84725 161.827 5.88408 161.707 5.88869C161.615 5.88869 161.518 5.86106 161.435 5.81963C161.288 5.73215 160.592 5.11059 160.035 4.60874C160.003 4.58572 159.966 4.57191 159.929 4.57191C159.901 4.57191 159.874 4.58111 159.846 4.59953C159.818 4.61334 159.795 4.64097 159.782 4.6732C159.768 4.70543 159.763 4.73765 159.772 4.76988C159.929 5.49734 160.127 6.40896 160.127 6.57931C160.141 6.65758 160.136 6.73585 160.113 6.80952C160.095 6.88318 160.058 6.95224 160.007 7.0121C159.957 7.07195 159.892 7.11799 159.823 7.15022C159.754 7.18245 159.676 7.20087 159.597 7.20087C159.519 7.20087 159.441 7.18245 159.372 7.15022C159.302 7.11799 159.238 7.07195 159.187 7.0121C159.137 6.95224 159.1 6.88318 159.077 6.80952C159.058 6.73585 159.054 6.65298 159.063 6.57931C159.063 6.40435 159.256 5.49734 159.418 4.76988C159.427 4.73765 159.418 4.70082 159.408 4.6732C159.395 4.64097 159.372 4.61795 159.344 4.59953C159.321 4.58111 159.293 4.57191 159.261 4.57191C159.224 4.57191 159.183 4.58572 159.155 4.60874C158.602 5.11519 157.907 5.73215 157.755 5.81963C157.672 5.86567 157.58 5.88869 157.488 5.88869C157.368 5.88869 157.253 5.84725 157.161 5.77359C157.068 5.69992 156.999 5.59863 156.972 5.48813C156.939 5.37303 156.949 5.25332 156.995 5.14282C157.041 5.03232 157.119 4.94484 157.22 4.88499C157.372 4.79751 158.252 4.50745 158.971 4.28185C159.003 4.27264 159.031 4.24962 159.049 4.2266C159.068 4.19897 159.077 4.16674 159.077 4.12991C159.077 4.09768 159.068 4.06545 159.049 4.03783C159.031 4.0102 159.003 3.99179 158.971 3.97797C158.261 3.74777 157.372 3.45771 157.22 3.37483C157.119 3.31498 157.041 3.22289 156.995 3.117C156.949 3.0065 156.944 2.88679 156.972 2.77629C156.999 2.66119 157.068 2.5599 157.161 2.49084C157.253 2.41717 157.368 2.38034 157.488 2.38034C157.584 2.38034 157.676 2.40336 157.755 2.4494C157.907 2.53688 158.598 3.15844 159.155 3.65568C159.169 3.6695 159.187 3.6787 159.206 3.68791C159.224 3.69712 159.243 3.69712 159.261 3.69712C159.289 3.69712 159.321 3.68791 159.344 3.6695C159.372 3.65108 159.395 3.62806 159.408 3.59583C159.422 3.5682 159.427 3.53137 159.418 3.49914C159.261 2.76709 159.063 1.86007 159.063 1.68972C159.081 1.56541 159.15 1.4503 159.247 1.36743C159.344 1.28455 159.468 1.23851 159.597 1.23851C159.726 1.23851 159.851 1.28455 159.947 1.36743C160.044 1.4503 160.109 1.56541 160.132 1.68972C160.132 1.86467 159.938 2.76709 159.777 3.49914C159.768 3.53137 159.772 3.5636 159.786 3.59583C159.8 3.62806 159.823 3.65108 159.851 3.6695C159.874 3.68331 159.901 3.69252 159.934 3.69712C159.952 3.69712 159.975 3.69712 159.989 3.68791C160.007 3.6787 160.026 3.6695 160.039 3.65568C160.592 3.15383 161.288 2.53688 161.44 2.4494C161.523 2.40336 161.615 2.38034 161.712 2.38034C161.831 2.38034 161.942 2.42178 162.039 2.49084C162.131 2.5645 162.2 2.66119 162.232 2.77629C162.264 2.88679 162.255 3.0111 162.209 3.117C162.163 3.2275 162.085 3.31498 161.983 3.37483C161.831 3.45771 160.947 3.74777 160.233 3.97797C160.201 3.98718 160.173 4.0102 160.155 4.03783C160.136 4.06545 160.127 4.09768 160.127 4.12991H160.122Z" fill="#000"/>
</g>
<defs>
<clipPath id="clip0_1121_4528">
<rect width="167" height="46.092" fill="white"/>
</clipPath>
</defs>
</svg>
