<svg width="185" height="80" viewBox="0 0 185 80" fill="none" xmlns="http://www.w3.org/2000/svg">
<path d="M9.05578 35.3799C3.27226 35.3799 0 31.838 0 25.6593H4.18544C4.18544 29.6341 6.16402 31.7199 9.05578 31.7199C11.6051 31.7199 13.7359 30.1064 13.7359 25.5019V6.33611H18.0735V25.5412C18.0735 31.7199 14.8013 35.3799 9.05578 35.3799ZM19.6836 34.8683L29.9189 6.33611H34.7132L45.1007 34.8683H40.3825L38.2137 28.6109H26.2281L24.0973 34.8683H19.6836ZM32.1638 11.2161L27.5218 24.8328H36.882L32.1638 11.2161ZM64.2375 34.8683H59.7477L52.4042 10.8619V34.8683H48.1426V6.33611H55.1057L61.9926 29.6341L68.8796 6.33611H75.8426V34.8683H71.5811V10.8619L64.2375 34.8683ZM109.939 25.5806H114.124C112.907 31.8773 108.379 35.3799 102.215 35.3799C94.2246 35.3799 89.5825 29.3193 89.5825 20.5432C89.5825 11.7671 94.567 5.8245 102.481 5.8245C108.379 5.8245 112.907 9.36642 114.01 15.6238H109.825C108.95 11.8851 106.362 9.56319 102.291 9.56319C97.611 9.56319 94.0343 13.42 94.0343 20.5432C94.0343 27.6664 97.5729 31.6412 102.329 31.6412C106.438 31.6412 109.064 29.3586 109.939 25.5806ZM114.994 34.8683L125.229 6.33611H130.023L140.411 34.8683H135.692L133.524 28.6109H121.538L119.407 34.8683H114.994ZM127.474 11.2161L122.832 24.8328H132.192L127.474 11.2161ZM143.453 34.8683V6.33611H162.021V10.1535H147.79V18.2999H161.184V22.078H147.79V34.8683H143.453ZM165.153 34.8683V6.33611H184.254V10.1535H169.49V18.2999H183.417V22.078H169.49V31.0509H184.254V34.8683H165.153ZM182.123 0L176.339 4.44708H172.649L176.758 0H182.123Z" fill="#000000"/>
</svg>
