<svg width="529" height="139" viewBox="0 0 529 139" fill="none" xmlns="http://www.w3.org/2000/svg">
<g clip-path="url(#clip0_2709_7785)">
<path d="M6.09283 41.8983H20.8799V85.9857H21.4618L51.7548 41.8983H64.7277V112H49.9064V67.8783H49.393L18.9288 112H6.09283V41.8983ZM74.3034 54.1181V41.8983H131.877V54.1181H110.415V112H95.7652V54.1181H74.3034ZM144.876 112H128.993L153.194 41.8983H172.294L196.459 112H180.577L163.017 57.9176H162.47L144.876 112ZM143.883 84.4454H181.399V96.0149H143.883V84.4454ZM201.098 112V100.088L203.083 99.917C205.639 99.7117 207.704 98.7418 209.278 97.0075C210.853 95.2504 212.028 92.455 212.804 88.6213C213.603 84.7648 214.116 79.5848 214.344 73.0812L215.508 41.8983H263.087V112H248.676V53.7759H229.268L228.173 78.1814C227.808 86.0313 226.872 92.4436 225.366 97.4183C223.883 102.393 221.51 106.067 218.246 108.44C215.006 110.813 210.568 112 204.931 112H201.098ZM275.307 41.8983H290.094V85.9857H290.676L320.969 41.8983H333.942V112H319.12V67.8783H318.607L288.143 112H275.307V41.8983Z" fill="white"/>
<path d="M449.031 -0.000488281C487.319 -0.000297515 518.364 31.1086 518.364 69.4946C518.364 107.871 487.319 138.99 449.031 138.99C410.744 138.99 379.697 107.872 379.697 69.4946C379.697 31.1178 410.744 -0.000488281 449.031 -0.000488281Z" fill="#C72229"/>
<path d="M442.799 61.0747C442.307 75.4893 430.692 87.1215 416.32 87.6147V102.123C429.309 101.825 441.573 95.3756 449.279 84.7671L450.041 83.7065L450.812 84.7671C458.508 95.3756 470.781 101.825 483.77 102.123L483.779 87.6147C469.398 87.1215 457.793 75.4893 457.301 61.0747H442.799Z" fill="white"/>
<path d="M450.035 28.7739C444.845 28.774 440.631 33.0179 440.631 38.2104C440.631 43.4029 444.836 47.6459 450.035 47.646C455.234 47.646 459.449 43.4029 459.449 38.2104C459.449 33.0178 455.225 28.7739 450.035 28.7739Z" fill="white"/>
</g>
<defs>
<clipPath id="clip0_2709_7785">
<rect width="529" height="139" fill="white"/>
</clipPath>
</defs>
</svg>
