<svg width="426" height="163" viewBox="0 0 426 163" fill="none" xmlns="http://www.w3.org/2000/svg">
<g clip-path="url(#clip0_1179_11086)">
<path d="M168.181 27.0771H151.613C150.861 27.0771 150.252 27.6781 150.252 28.4195V117.83C150.252 118.572 150.861 119.172 151.613 119.172H168.181C168.933 119.172 169.543 118.572 169.543 117.83V28.4195C169.543 27.6781 168.933 27.0771 168.181 27.0771Z" fill="#ffffff"/>
<path d="M18.395 54.0645H1.83788C1.08528 54.0645 0.476562 54.6647 0.476562 55.4068V117.808C0.476562 118.55 1.08528 119.15 1.83788 119.15H18.395C19.1476 119.15 19.7563 118.55 19.7563 117.808V55.4068C19.7563 54.6647 19.1476 54.0645 18.395 54.0645Z" fill="#ffffff"/>
<path d="M136.674 53.7664H121.036C120.283 53.7664 119.675 54.3666 119.675 55.1087V59.4957C116.531 56.2218 111.042 52.9697 101.978 52.9697C84.856 52.9697 70.5898 68.0625 70.5898 86.6256C70.5898 105.189 84.7232 120.282 101.978 120.282C110.123 120.282 115.823 118.033 119.675 114.334V118.088C119.675 118.83 120.283 119.43 121.036 119.43H136.674C137.427 119.43 138.036 118.83 138.036 118.088V55.1196C138.036 54.3775 137.427 53.7773 136.674 53.7773M104.545 102.308C95.8461 102.362 88.7407 95.4652 88.6632 86.8875C88.6632 78.2444 95.7686 71.2382 104.545 71.2382C113.322 71.2382 120.416 78.2444 120.416 86.8875C120.339 95.4652 113.244 102.362 104.545 102.308Z" fill="#ffffff"/>
<path d="M30.6801 88.2642C30.6469 92.4657 31.2113 96.6454 32.3513 100.694C34.919 110.45 43.8063 117.566 53.7228 119.203C57.1759 119.868 60.6954 120.218 64.2149 120.239C64.9675 120.25 65.5873 119.661 65.5983 118.919C65.5983 118.919 65.5983 118.908 65.5983 118.897V103.532C65.5983 102.789 65.0007 102.2 64.2481 102.189C62.2227 102.178 60.2084 102.004 58.2162 101.676C51.3543 100.421 50.0926 94.6592 49.9598 88.2751V68.5224H64.2259C64.9785 68.5224 65.5873 67.9222 65.5873 67.1801V55.4268C65.5873 54.6847 64.9785 54.0845 64.2259 54.0845H49.9598V37.0601C49.9598 36.318 49.3511 35.7178 48.5985 35.7178H32.0414C31.2888 35.7178 30.6801 36.318 30.6801 37.0601V88.286V88.2642Z" fill="#ffffff"/>
<path d="M20.2315 35.6933C20.2315 41.2044 15.7049 45.6678 10.1158 45.6678C4.52664 45.6678 0 41.2044 0 35.6933C0 30.1822 4.52664 25.7188 10.1158 25.7188C15.7049 25.7188 20.2315 30.1822 20.2315 35.6933Z" fill="#ffffff"/>
<path d="M198.487 109.742C195.952 116.388 192.366 119.018 185.184 119.291C184.453 119.323 183.866 119.924 183.878 120.655V134.176C183.878 134.896 184.464 135.486 185.195 135.507C200.866 136.009 209.886 131.328 216.25 113.714L237.334 55.5147C237.533 54.9582 237.245 54.3361 236.67 54.1397C236.548 54.096 236.426 54.0742 236.305 54.0742H219.648C218.94 54.0742 218.309 54.5217 218.087 55.1874L207.75 86.4096L195.078 55.0891C194.823 54.478 194.226 54.0742 193.551 54.0742H177.204C176.673 54.0742 176.252 54.4998 176.252 55.0127C176.252 55.1328 176.274 55.2528 176.318 55.362L198.487 109.742Z" fill="#ffffff"/>
<path d="M342.864 0C388.507 1.10199e-05 425.517 36.4827 425.517 81.499C425.516 126.504 388.507 162.997 342.864 162.997C297.222 162.997 260.212 126.504 260.212 81.499C260.212 36.4936 297.222 0 342.864 0ZM335.437 71.6348C334.85 88.5389 321.005 102.18 303.872 102.759V119.772C319.356 119.423 333.976 111.86 343.162 99.4189L344.069 98.1748L344.988 99.4189C354.163 111.86 368.795 119.423 384.278 119.772L384.289 102.759C367.145 102.18 353.311 88.539 352.725 71.6348H335.437ZM344.06 33.7441C337.873 33.7442 332.849 38.7201 332.849 44.8096C332.849 50.899 337.862 55.8749 344.06 55.875C350.257 55.875 355.282 50.8991 355.282 44.8096C355.282 38.7201 350.246 33.7441 344.06 33.7441Z" fill="#ffffff"/>
</g>
<defs>
<clipPath id="clip0_1179_11086">
<rect width="425.516" height="163.008" fill="#ffffff"/>
</clipPath>
</defs>
</svg>
