<svg width="139" height="54" viewBox="0 0 139 54" fill="none" xmlns="http://www.w3.org/2000/svg">
<g clip-path="url(#clip0_5_152)">
<path d="M54.9389 8.96875H49.5267C49.2811 8.96875 49.082 9.16783 49.082 9.41342V39.0326C49.082 39.2782 49.2811 39.4773 49.5267 39.4773H54.9389C55.1845 39.4773 55.3836 39.2782 55.3836 39.0326V9.41342C55.3836 9.16783 55.1845 8.96875 54.9389 8.96875Z" fill="white"/>
<path d="M6.00855 17.9102H0.599964C0.354119 17.9102 0.155273 18.109 0.155273 18.3548V39.0264C0.155273 39.2723 0.354119 39.4711 0.599964 39.4711H6.00855C6.2544 39.4711 6.45324 39.2723 6.45324 39.0264V18.3548C6.45324 18.109 6.2544 17.9102 6.00855 17.9102Z" fill="white"/>
<path d="M44.6469 17.8127H39.5384C39.2926 17.8127 39.0937 18.0116 39.0937 18.2574V19.7107C38.067 18.6262 36.2737 17.5488 33.3127 17.5488C27.7198 17.5488 23.0596 22.5486 23.0596 28.6981C23.0596 34.8475 27.6764 39.8473 33.3127 39.8473C35.9737 39.8473 37.8356 39.1026 39.0937 37.877V39.1206C39.0937 39.3665 39.2926 39.5653 39.5384 39.5653H44.6469C44.8928 39.5653 45.0916 39.3665 45.0916 39.1206V18.261C45.0916 18.0152 44.8928 17.8164 44.6469 17.8164M34.1515 33.8931C31.3098 33.9111 28.9888 31.6264 28.9635 28.7848C28.9635 25.9216 31.2845 23.6006 34.1515 23.6006C37.0185 23.6006 39.3359 25.9216 39.3359 28.7848C39.3106 31.6264 36.9932 33.9111 34.1515 33.8931Z" fill="white"/>
<path d="M10.0219 29.2391C10.0111 30.631 10.1955 32.0156 10.5679 33.3568C11.4066 36.5888 14.3098 38.9459 17.5491 39.4882C18.6771 39.7087 19.8268 39.8244 20.9765 39.8316C21.2223 39.8352 21.4248 39.64 21.4284 39.3942C21.4284 39.3942 21.4284 39.3906 21.4284 39.387V34.2968C21.4284 34.051 21.2332 33.8557 20.9873 33.8521C20.3257 33.8485 19.6677 33.7907 19.017 33.6822C16.7754 33.2665 16.3633 31.3576 16.3199 29.2428V22.6993H20.9801C21.226 22.6993 21.4248 22.5004 21.4248 22.2546V18.3611C21.4248 18.1152 21.226 17.9164 20.9801 17.9164H16.3199V12.2767C16.3199 12.0309 16.1211 11.832 15.8752 11.832H10.4666C10.2208 11.832 10.0219 12.0309 10.0219 12.2767V29.2464V29.2391Z" fill="white"/>
<path d="M6.60889 11.8248C6.60889 13.6505 5.1302 15.1291 3.30444 15.1291C1.47868 15.1291 0 13.6505 0 11.8248C0 9.99912 1.47868 8.52051 3.30444 8.52051C5.1302 8.52051 6.60889 9.99912 6.60889 11.8248Z" fill="white"/>
<path d="M64.8385 36.3541C64.0105 38.5558 62.8392 39.427 60.4928 39.5174C60.2542 39.5283 60.0626 39.7271 60.0662 39.9693V44.4485C60.0662 44.6871 60.2578 44.8824 60.4964 44.8896C65.6158 45.0559 68.5623 43.505 70.6411 37.6701L77.5284 18.3903C77.5935 18.2059 77.4995 17.9999 77.3115 17.9348C77.2717 17.9203 77.2319 17.9131 77.1922 17.9131H71.7511C71.5197 17.9131 71.3136 18.0613 71.2413 18.2818L67.8645 28.6249L63.7249 18.2493C63.6418 18.0468 63.4466 17.9131 63.226 17.9131H57.8861C57.7126 17.9131 57.5752 18.0541 57.5752 18.224C57.5752 18.2638 57.5824 18.3035 57.5969 18.3397L64.8385 36.3541Z" fill="white"/>
<path d="M139.001 26.9982C139.001 12.0856 126.911 0 112.002 0C97.0917 0 85.002 12.0892 85.002 26.9982C85.002 41.9072 97.0917 53.9964 112.002 53.9964C126.911 53.9964 139.001 41.9072 139.001 26.9982Z" fill="#C72229"/>
<path d="M125.529 34.04V39.6761C120.471 39.5604 115.692 37.0551 112.695 32.9337L112.395 32.5216L112.098 32.9337C109.097 37.0551 104.322 39.5604 99.2637 39.6761V34.04C104.86 33.8484 109.383 29.3294 109.575 23.7295H115.222C115.414 29.3294 119.933 33.8484 125.533 34.04" fill="white"/>
<path d="M116.058 14.8435C116.058 16.8608 114.416 18.5093 112.392 18.5093C110.367 18.5093 108.729 16.8608 108.729 14.8435C108.729 12.8263 110.371 11.1777 112.392 11.1777C114.413 11.1777 116.058 12.8263 116.058 14.8435Z" fill="white"/>
</g>
<defs>
<clipPath id="clip0_5_152">
<rect width="139" height="54" fill="white"/>
</clipPath>
</defs>
</svg>
