<svg width="190" height="150" viewBox="0 0 190 150" fill="none" xmlns="http://www.w3.org/2000/svg">
<path d="M87.0723 20.2998C87.4507 19.9782 87.9869 19.9069 88.4395 20.126C112.054 31.5666 134.308 49.3392 152.194 67.958C170.07 86.5654 183.67 106.109 189.904 121.151C190.066 121.541 190.021 121.985 189.787 122.336C189.553 122.686 189.16 122.896 188.738 122.896H180.576C181.936 128.46 182.823 133.024 182.424 138.418C182.319 139.839 182.075 142.641 180.978 145.109C180.423 146.356 179.624 147.583 178.455 148.502C177.266 149.436 175.76 150 173.908 150C172.329 150 170.961 149.564 169.879 148.729C168.801 147.899 168.092 146.738 167.713 145.43C166.964 142.844 167.461 139.593 168.99 136.503C170.276 133.906 170.519 130.343 169.956 127.408C169.676 125.948 169.214 124.742 168.668 123.937C168.114 123.119 167.613 122.897 167.247 122.896H154.263L154.658 129.335C154.66 129.361 154.66 129.386 154.66 129.412C154.66 130.998 154.669 134.126 153.814 136.872C153.384 138.255 152.706 139.642 151.609 140.692C150.481 141.773 148.983 142.427 147.088 142.427C145.761 142.427 144.552 142.081 143.556 141.38C142.559 140.678 141.847 139.67 141.437 138.468C140.626 136.096 140.971 132.972 142.459 129.541C143.063 128.147 143.091 126.986 142.851 126.021C142.605 125.034 142.056 124.167 141.383 123.429C140.71 122.691 139.946 122.12 139.34 121.73C139.04 121.538 138.784 121.393 138.608 121.299C138.521 121.252 138.453 121.219 138.41 121.197C138.389 121.187 138.372 121.178 138.363 121.174L138.358 121.172L138.355 121.17H138.354C137.514 120.782 135.883 120.386 133.415 120.053C130.986 119.724 127.862 119.469 124.119 119.312C116.639 118.999 106.746 119.077 95.1064 119.706L46.1982 122.894C45.8503 122.916 45.5084 122.794 45.2539 122.556C44.9993 122.317 44.8546 121.984 44.8545 121.635C44.8545 83.6512 60.0151 47.2238 86.999 20.3672L87.0723 20.2998ZM101.119 29.8701C78.5415 49.0964 60.5928 84.3012 63.7168 119.221L94.9424 117.187H94.9561C97.7202 117.037 100.388 116.918 102.951 116.828C103.006 115.907 103.168 114.995 103.437 114.113C103.545 113.758 103.669 113.407 103.812 113.062C103.881 112.894 103.955 112.727 104.032 112.562C104.062 112.498 104.094 112.436 104.125 112.373C104.179 112.263 104.233 112.153 104.29 112.045C104.322 111.984 104.358 111.925 104.392 111.864C104.448 111.763 104.503 111.662 104.562 111.562C104.592 111.512 104.623 111.462 104.654 111.412C104.721 111.303 104.788 111.195 104.858 111.088C104.9 111.025 104.943 110.963 104.986 110.9C105.043 110.818 105.1 110.736 105.159 110.655C105.214 110.58 105.269 110.506 105.325 110.433C105.383 110.357 105.441 110.281 105.501 110.207C105.555 110.14 105.61 110.073 105.666 110.007C105.732 109.929 105.799 109.852 105.866 109.775C105.92 109.715 105.974 109.656 106.028 109.597C106.065 109.557 106.1 109.516 106.137 109.478L106.337 109.272C106.35 109.259 106.364 109.247 106.377 109.234C107.18 108.437 108.091 107.761 109.085 107.228C109.253 107.137 109.423 107.052 109.596 106.97C109.769 106.888 109.944 106.81 110.121 106.736C110.829 106.442 111.562 106.218 112.31 106.068C112.871 105.956 113.44 105.885 114.014 105.856C114.205 105.847 114.396 105.841 114.588 105.841L114.875 105.845C114.92 105.846 114.965 105.849 115.011 105.851C115.102 105.854 115.193 105.858 115.284 105.863C115.379 105.869 115.473 105.875 115.567 105.883C115.664 105.891 115.76 105.9 115.855 105.91C115.936 105.919 116.016 105.929 116.097 105.939C116.201 105.953 116.305 105.967 116.409 105.983C116.497 105.997 116.585 106.013 116.673 106.028C116.758 106.044 116.842 106.059 116.927 106.076C117.023 106.096 117.118 106.118 117.213 106.14C117.305 106.161 117.398 106.182 117.49 106.205C117.594 106.231 117.696 106.261 117.799 106.29C117.865 106.309 117.931 106.326 117.996 106.346C118.115 106.382 118.233 106.422 118.351 106.462C118.415 106.484 118.481 106.503 118.545 106.526C118.627 106.556 118.708 106.59 118.79 106.621C118.879 106.655 118.969 106.687 119.057 106.724C120.474 107.308 121.762 108.166 122.848 109.249C122.983 109.384 123.115 109.523 123.244 109.665C123.373 109.807 123.498 109.951 123.619 110.099C124.347 110.983 124.942 111.972 125.384 113.033C125.457 113.21 125.526 113.389 125.591 113.568C125.655 113.748 125.716 113.93 125.771 114.112C125.827 114.295 125.878 114.479 125.925 114.664C126.108 115.393 126.22 116.138 126.261 116.891C129.174 117.05 131.688 117.272 133.753 117.551C136.243 117.887 138.202 118.319 139.412 118.878L139.415 118.879C139.417 118.88 139.42 118.881 139.423 118.883C139.429 118.886 139.437 118.89 139.447 118.895C139.467 118.904 139.493 118.916 139.526 118.933C139.593 118.965 139.684 119.013 139.798 119.073C140.025 119.194 140.34 119.372 140.705 119.606C141.43 120.072 142.382 120.779 143.247 121.728C144.112 122.676 144.924 123.904 145.3 125.41C145.68 126.937 145.59 128.666 144.774 130.546C143.423 133.663 143.295 136.1 143.825 137.651C144.085 138.411 144.497 138.956 145.009 139.316C145.521 139.677 146.206 139.902 147.088 139.902C148.348 139.902 149.216 139.49 149.862 138.87C150.54 138.221 151.046 137.274 151.404 136.122C152.122 133.814 152.136 131.088 152.136 129.448L151.66 121.712C151.639 121.364 151.762 121.023 152 120.77C152.239 120.516 152.572 120.372 152.92 120.372H167.247C168.792 120.372 169.965 121.352 170.757 122.52C171.557 123.7 172.114 125.263 172.435 126.934C173.072 130.261 172.841 134.412 171.252 137.622C169.907 140.339 169.616 142.927 170.138 144.727C170.394 145.61 170.836 146.28 171.42 146.73C172 147.178 172.805 147.476 173.908 147.476C175.212 147.476 176.164 147.092 176.895 146.518C177.645 145.928 178.226 145.085 178.671 144.084C179.572 142.056 179.802 139.651 179.907 138.232C180.311 132.775 179.309 128.218 177.731 121.908C177.562 121.232 177.974 120.546 178.65 120.377C178.85 120.327 179.051 120.329 179.238 120.372H186.823C184.394 114.883 181.002 108.804 176.793 102.398C175.582 103.235 174.227 103.846 172.79 104.201C171.182 104.599 169.504 104.67 167.853 104.412C166.201 104.154 164.608 103.571 163.164 102.7C161.721 101.83 160.452 100.688 159.432 99.3389C158.411 97.9898 157.655 96.458 157.21 94.832C156.765 93.2063 156.638 91.5156 156.838 89.8564C157.038 88.1971 157.562 86.601 158.382 85.1611C159.124 83.8574 160.097 82.7055 161.251 81.7598C157.849 77.7412 154.214 73.705 150.373 69.707C148.255 67.5026 146.076 65.3112 143.842 63.1416C142.729 64.2408 141.453 65.164 140.054 65.874C138.281 66.7736 136.349 67.316 134.367 67.4688C132.385 67.6215 130.393 67.3818 128.504 66.7646C126.615 66.1474 124.865 65.1643 123.355 63.8711C121.846 62.5778 120.606 60.9991 119.706 59.2266C118.807 57.4542 118.265 55.5217 118.112 53.54C117.96 51.5583 118.199 49.5661 118.816 47.6768C119.316 46.1465 120.055 44.7076 121.006 43.4141C114.601 38.5248 107.945 33.9606 101.119 29.8701ZM88.1455 22.791C62.3502 48.793 47.737 83.7612 47.3857 120.286L61.1982 119.386C58.0471 83.9002 76.0384 48.3039 98.8252 28.5166C95.3037 26.4727 91.7401 24.5571 88.1455 22.791ZM79.1631 107.78C80.6238 104.144 84.7553 102.38 88.3916 103.841C92.0278 105.301 93.7914 109.433 92.3311 113.069L92.0898 113.672C91.8299 114.318 91.0949 114.632 90.4482 114.372C89.8014 114.112 89.4873 113.377 89.7471 112.73L89.9893 112.129C90.9301 109.786 89.7929 107.125 87.4502 106.184C85.1076 105.243 82.4459 106.379 81.5049 108.722L81.2637 109.323C81.0038 109.97 80.2687 110.283 79.6221 110.023C78.9752 109.764 78.6611 109.029 78.9209 108.382L79.1631 107.78ZM144.989 96.7773C145.473 96.2752 146.272 96.2598 146.774 96.7432L148.236 98.1504C150.51 100.339 150.579 103.956 148.391 106.229C146.271 108.432 142.81 108.566 140.528 106.583L140.311 106.384L138.849 104.977C138.346 104.493 138.331 103.695 138.814 103.192C139.298 102.69 140.096 102.675 140.599 103.158L142.062 104.565L142.183 104.677C143.456 105.784 145.388 105.709 146.571 104.479C147.793 103.21 147.755 101.19 146.485 99.9688L145.023 98.5615C144.521 98.0782 144.506 97.2795 144.989 96.7773ZM71.9004 100.155C73.0141 100.252 73.8835 101.058 73.8838 102.038C73.8838 103.084 72.8947 103.932 71.6748 103.932C70.455 103.932 69.4658 103.084 69.4658 102.038C69.4661 101.058 70.3355 100.252 71.4492 100.155C71.5234 100.149 71.5986 100.146 71.6748 100.146L71.9004 100.155ZM162.872 83.6973C161.949 84.4492 161.17 85.3666 160.575 86.4102C159.923 87.5545 159.504 88.8287 159.344 90.1592C159.183 91.4896 159.285 92.8516 159.645 94.166C160.005 95.4805 160.616 96.7212 161.444 97.8154C162.272 98.9097 163.3 99.8353 164.468 100.539C165.635 101.243 166.918 101.711 168.242 101.918C169.566 102.125 170.906 102.067 172.185 101.751C173.339 101.465 174.423 100.971 175.39 100.298C171.744 94.9178 167.544 89.3335 162.872 83.6973ZM93.4463 76.7959C98.6742 76.7959 102.913 80.8927 102.913 85.9463C102.913 91 98.6742 95.0967 93.4463 95.0967C88.2185 95.0965 83.9805 90.9998 83.9805 85.9463C83.9805 80.8928 88.2185 76.7961 93.4463 76.7959ZM114.813 89.4287C115.927 89.5418 116.796 90.4824 116.796 91.626C116.796 92.7695 115.927 93.7102 114.813 93.8232C114.739 93.8308 114.664 93.834 114.588 93.834L114.361 93.8232C113.248 93.7099 112.379 92.7693 112.379 91.626C112.379 90.4825 113.248 89.5421 114.361 89.4287C114.436 89.4211 114.511 89.417 114.588 89.417L114.813 89.4287ZM93.4463 79.3203C89.5313 79.3205 86.5049 82.3669 86.5049 85.9463C86.5049 89.5258 89.5313 92.5721 93.4463 92.5723C97.3615 92.5723 100.389 89.5259 100.389 85.9463C100.389 82.3667 97.3614 79.3203 93.4463 79.3203ZM138.446 83.7471C139.401 83.8441 140.146 84.6507 140.146 85.6309C140.145 86.6109 139.401 87.4167 138.446 87.5137C138.383 87.5201 138.318 87.5234 138.253 87.5234L138.059 87.5137C137.104 87.4165 136.36 86.6108 136.359 85.6309C136.359 84.6508 137.104 83.8442 138.059 83.7471C138.122 83.7406 138.187 83.7373 138.253 83.7373L138.446 83.7471ZM80.8252 69.2236C81.8708 69.2236 82.7188 70.0716 82.7188 71.1172C82.7186 72.1626 81.8707 73.0098 80.8252 73.0098C79.7798 73.0096 78.9328 72.1625 78.9326 71.1172C78.9326 70.0717 79.7797 69.2238 80.8252 69.2236ZM99.1943 47.8086C100.612 47.5545 102.066 47.5871 103.475 47.9033C104.883 48.2196 106.218 48.8138 107.403 49.6523C108.588 50.491 109.601 51.5577 110.382 52.791C111.163 54.0241 111.698 55.3999 111.956 56.8398L105.495 57.998L106.388 62.9824C106.793 65.246 105.316 67.4043 103.088 67.8037C100.86 68.2031 98.7241 66.6923 98.3184 64.4287L97.4248 59.4453L90.3643 60.7109C90.1061 59.2708 90.1296 57.794 90.4336 56.3662C90.7376 54.9387 91.3161 53.5875 92.1357 52.3896C92.9556 51.1916 94.001 50.1697 95.2119 49.3838C96.4229 48.5979 97.7766 48.0627 99.1943 47.8086ZM123.005 44.957C122.23 46.0224 121.625 47.2048 121.215 48.4609C120.701 50.0351 120.502 51.6955 120.629 53.3467C120.756 54.9978 121.208 56.6082 121.957 58.085C122.707 59.5616 123.74 60.8766 124.997 61.9541C126.255 63.0317 127.713 63.8509 129.287 64.3652C130.861 64.8795 132.522 65.0794 134.173 64.9521C135.824 64.8249 137.434 64.3734 138.911 63.624C140.058 63.0421 141.106 62.2879 142.022 61.3916C136.033 55.6856 129.662 50.1512 123.005 44.957Z" fill="#000000" fill-opacity="0.3"/>
</svg>
