<svg width="169.093" height="54.261" viewBox="0 0.899 169.093 54.261" fill="none" xmlns="http://www.w3.org/2000/svg">
<path d="M164.088 21.8209V1.46508H156.211V16.2953C156.211 20.6371 152.722 23.3429 149.967 23.3429C146.815 23.3429 144.507 21.1444 144.507 16.8578V1.46508H131.677V8.11922H136.63V18.3247C136.63 19.4533 136.744 20.5231 136.968 21.4826C135.955 22.8355 134.719 23.3429 133.592 23.3429C131.285 23.3429 129.204 21.4826 128.078 17.196L123.859 1.46508H105.852V8.17436H110.974L108.273 17.196C106.978 21.5378 104.898 23.3429 103.151 23.3429C101.97 23.3429 101.126 22.3833 101.126 20.6371V13.3616C101.126 4.33996 95.9494 0.898926 87.7347 0.898926C83.6255 0.898926 79.7438 1.57537 77.326 2.75914V9.69636C79.9162 8.51258 83.0641 7.55306 86.9495 7.55306C90.5524 7.55306 93.2527 9.46843 93.2527 12.1779V13.1374C91.3962 12.7992 89.0335 12.347 86.7257 12.347C81.9415 12.347 77.0471 14.1521 75.3594 18.9423C74.2918 21.9311 73.1654 23.3392 71.8703 23.3392C70.8027 23.3392 69.9001 22.6627 69.9001 20.0673V14.1484C69.9001 4.61936 64.892 0.898926 59.6602 0.898926C55.551 0.898926 53.0781 1.68933 49.644 6.47958C48.8002 4.33628 46.1549 0.898926 40.923 0.898926C36.8139 0.898926 33.776 2.30696 31.6957 5.74799H31.527L31.3032 1.4614H24.5524V16.2917C24.5524 20.6334 21.0632 23.3392 18.3079 23.3392C15.1563 23.3392 12.8485 20.5746 12.8485 16.2917V1.46508H0V8.11922H4.95303V18.3247C4.95303 25.6553 10.1299 30.2212 15.4755 30.2212C19.6397 30.2212 22.3987 28.2471 24.534 25.3722H24.7028L24.9266 29.6588H32.4112V16.5196C32.4112 10.4868 35.394 7.78099 38.1493 7.78099C40.9047 7.78099 43.2711 9.97943 43.2711 14.266V29.6588H51.1483V16.5196C51.1483 10.4868 54.1311 7.78099 56.8865 7.78099C59.6418 7.78099 62.0083 9.97943 62.0083 14.266V22.273C62.0083 28.5301 65.2149 30.2249 68.5353 30.2249C72.0244 30.2249 73.9946 28.986 76.3574 26.2766H76.4711C78.1588 28.5338 81.0279 30.2249 84.407 30.2249C88.4575 30.2249 91.554 28.7581 94.1993 26.5596C95.3807 28.5338 98.2498 30.2249 102.414 30.2249C108.266 30.2249 112.768 26.953 114.624 20.979L118.337 8.96845L121.657 20.9238C123.459 27.464 127.847 30.2286 132.011 30.2286C134.88 30.2286 137.074 29.1588 139.496 26.6185C141.466 28.9309 144.28 30.2286 147.149 30.2286C151.313 30.2286 154.072 28.2544 156.208 25.3795H156.376C158.347 28.4823 161.608 30.2286 164.929 30.2286C166.616 30.2286 167.798 30.0595 169.093 29.6661V21.8282H164.085L164.088 21.8209ZM93.1867 21.9348C91.3302 23.6811 89.1362 24.3024 87.0523 24.3024C84.9683 24.3024 82.833 22.9495 82.833 21.1444C82.833 18.8908 85.7608 17.196 88.5712 17.196C90.3726 17.196 91.499 17.31 93.1867 17.7585V21.9311V21.9348Z" fill="#000"/>
<path d="M1.28 55V47.32H4.8C5.51467 47.32 6.08 47.5067 6.496 47.88C6.912 48.2533 7.12 48.7333 7.12 49.32C7.12 49.7893 6.96 50.1947 6.64 50.536C6.50133 50.6747 6.34133 50.8027 6.16 50.92C6.40533 51.0053 6.61867 51.1227 6.8 51.272C7.22667 51.6347 7.44 52.1307 7.44 52.76C7.44 53.4533 7.22133 54.0027 6.784 54.408C6.35733 54.8027 5.74933 55 4.96 55H1.28ZM2.4 50.44H4.8C5.6 50.44 6 50.0933 6 49.4C6 48.7067 5.6 48.36 4.8 48.36H2.4V50.44ZM2.4 53.96H4.96C5.86667 53.96 6.32 53.5333 6.32 52.68C6.32 51.8267 5.86667 51.4 4.96 51.4H2.4V53.96ZM13.2738 55V43.8H17.5938C18.5004 43.8 19.2471 44.0773 19.8338 44.632C20.4204 45.1867 20.7138 45.8693 20.7138 46.68C20.7138 47.4053 20.5004 48.0133 20.0738 48.504C19.8604 48.7387 19.6471 48.904 19.4338 49C19.7751 49.16 20.0791 49.368 20.3458 49.624C20.9644 50.2213 21.2738 50.9467 21.2738 51.8C21.2738 52.728 20.9538 53.496 20.3138 54.104C19.6844 54.7013 18.8578 55 17.8338 55H13.2738ZM14.4738 48.504H17.5938C18.2018 48.504 18.6711 48.344 19.0018 48.024C19.3431 47.6933 19.5138 47.2453 19.5138 46.68C19.5138 46.1467 19.3431 45.72 19.0018 45.4C18.6604 45.08 18.1911 44.92 17.5938 44.92H14.4738V48.504ZM14.4738 53.88H17.8338C18.5058 53.88 19.0444 53.688 19.4498 53.304C19.8658 52.92 20.0738 52.4187 20.0738 51.8C20.0738 51.1813 19.8658 50.6533 19.4498 50.216C19.0338 49.7787 18.4951 49.56 17.8338 49.56H14.4738V53.88ZM23.5144 55V47.32H24.6344V53.08L29.2744 47.32H30.2344V55H29.1144V49.24L24.4744 55H23.5144ZM31.5156 55V53.88C31.5796 53.9227 31.6436 53.9493 31.7076 53.96C31.8463 54.0133 31.9956 54.04 32.1556 54.04C32.4863 54.04 32.7423 53.944 32.9236 53.752C33.1156 53.56 33.2756 53.128 33.4036 52.456C33.5316 51.7733 33.5956 50.808 33.5956 49.56V47.32H39.1956V55H38.0756V48.36H34.7156V49.56C34.7156 50.6907 34.657 51.6347 34.5396 52.392C34.433 53.1387 34.2676 53.7093 34.0436 54.104C33.8196 54.4987 33.569 54.776 33.2916 54.936C33.025 55.0853 32.6996 55.16 32.3156 55.16C32.1236 55.16 31.937 55.1333 31.7556 55.08C31.7023 55.0693 31.6223 55.0427 31.5156 55ZM47.5088 52.84L48.2288 53.56C48.0261 53.8373 47.7541 54.104 47.4128 54.36C46.6661 54.8933 45.8714 55.16 45.0288 55.16C43.9728 55.16 43.0661 54.7707 42.3088 53.992C41.5621 53.2133 41.1888 52.2693 41.1888 51.16C41.1888 50.0507 41.5621 49.1067 42.3088 48.328C43.0554 47.5493 43.9354 47.16 44.9488 47.16C46.0048 47.16 46.8794 47.5227 47.5728 48.248C48.2768 48.9733 48.6288 49.8907 48.6288 51C48.6288 51.0533 48.6128 51.192 48.5808 51.416L48.5487 51.576L42.3088 51.56C42.3514 52.2533 42.6341 52.856 43.1568 53.368C43.6901 53.8693 44.3141 54.12 45.0288 54.12C45.6794 54.12 46.2928 53.9067 46.8688 53.48C47.1461 53.256 47.3594 53.0427 47.5088 52.84ZM42.3088 50.6H47.5088C47.4234 49.9067 47.1408 49.336 46.6608 48.888C46.1914 48.4293 45.6208 48.2 44.9488 48.2C44.2768 48.2 43.6901 48.4347 43.1888 48.904C42.6874 49.3733 42.3941 49.9387 42.3088 50.6ZM50.6238 55V47.32H51.7438V50.6H56.1438V47.32H57.2638V55H56.1438V51.64H51.7438V55H50.6238ZM65.5069 52.84L66.3069 53.56C66.0935 53.8267 65.8109 54.0933 65.4589 54.36C64.7122 54.8933 63.9282 55.16 63.1069 55.16C62.0509 55.16 61.1442 54.7707 60.3869 53.992C59.6402 53.2133 59.2669 52.2693 59.2669 51.16C59.2669 50.0507 59.6402 49.1067 60.3869 48.328C61.1442 47.5493 62.0509 47.16 63.1069 47.16C63.9389 47.16 64.7069 47.416 65.4109 47.928C65.6989 48.1413 65.9709 48.392 66.2269 48.68L65.4269 49.48C65.2562 49.2453 65.0589 49.032 64.8349 48.84C64.3229 48.4133 63.7469 48.2 63.1069 48.2C62.3709 48.2 61.7309 48.488 61.1869 49.064C60.6535 49.6293 60.3869 50.328 60.3869 51.16C60.3869 51.992 60.6535 52.696 61.1869 53.272C61.7309 53.8373 62.3709 54.12 63.1069 54.12C63.7149 54.12 64.3069 53.9067 64.8829 53.48C65.1282 53.2773 65.3362 53.064 65.5069 52.84ZM68.0613 55V47.32H69.1813V51.4L73.0213 47.32H74.3813L71.4213 50.44L74.7013 55H73.4213L70.7013 51.24L69.1813 52.84V55H68.0613ZM82.1111 54.008C81.3538 54.776 80.4311 55.16 79.3431 55.16C78.2551 55.16 77.3271 54.776 76.5591 54.008C75.8018 53.2293 75.4231 52.28 75.4231 51.16C75.4231 50.04 75.8018 49.096 76.5591 48.328C77.3271 47.5493 78.2551 47.16 79.3431 47.16C80.4311 47.16 81.3538 47.5493 82.1111 48.328C82.8791 49.096 83.2631 50.04 83.2631 51.16C83.2631 52.28 82.8791 53.2293 82.1111 54.008ZM77.3591 53.256C77.9138 53.832 78.5751 54.12 79.3431 54.12C80.1111 54.12 80.7671 53.8373 81.3111 53.272C81.8658 52.696 82.1431 51.992 82.1431 51.16C82.1431 50.328 81.8658 49.6293 81.3111 49.064C80.7671 48.488 80.1111 48.2 79.3431 48.2C78.5751 48.2 77.9138 48.488 77.3591 49.064C76.8151 49.6293 76.5431 50.328 76.5431 51.16C76.5431 51.9813 76.8151 52.68 77.3591 53.256ZM85.2644 55V47.32H86.1444L89.1844 51.16L92.2244 47.32H93.1044V55H91.9844V49.32L89.1844 52.84L86.3844 49.32V55H85.2644Z" fill="#000"/>
</svg>
