<svg width="185" height="80" viewBox="0 0 185 80" fill="none" xmlns="http://www.w3.org/2000/svg">
<path d="M112.429 13.392L105.731 31.8553L97.8462 13.392H89.5714L97.3824 30.3339C95.861 34.4473 93.4491 34.8605 90.9814 34.8605C88.05 34.8605 86.0277 32.1183 86.0277 28.775V0H73.7082V6.66783H78.2723V30.2024C78.1981 35.255 76.083 35.5743 74.9884 35.5743C73.9494 35.5743 72.2239 35.0108 72.2239 32.3437V24.9621C72.2239 15.9652 67.0475 12.6031 58.9396 12.6031C54.7837 12.6031 50.6648 13.6925 48.4755 14.425V21.2619C50.9987 20.2289 54.3198 19.2146 58.0491 19.2146C62.2792 19.2146 64.4129 21.0929 64.4129 23.8351V24.8118C62.3164 24.3235 60.1642 24.0793 57.9934 24.0793C53.1881 24.0793 47.7519 25.7885 46.416 31.0477C44.8575 34.2595 41.6664 34.8981 39.8667 34.8981C36.9352 34.8981 34.8758 32.4 34.8758 29.545V20.0786H43.4289V13.392H34.8758V6.46122L27.1019 6.48V13.4108H22.5377V20.0786H27.1019V28.7937C27.139 33.0762 23.484 35.2925 20.8308 35.2925C17.2129 35.2925 15.3761 32.1746 15.3761 29.3197V13.392H2.5V20.0598H7.58365V30.841C7.58365 37.6216 12.7601 41.5283 17.9921 41.5283C20.6267 41.5283 25.1538 41.5283 28.6789 36.6637C30.7384 39.8379 34.4862 41.5283 38.0113 41.5283C40.516 41.5283 44.0969 41.1151 47.455 37.7906C49.1434 40.1009 52.1862 41.4157 55.5443 41.5283C59.5333 41.641 62.6318 40.2699 65.2849 38.1663C66.4167 40.2136 68.8843 41.5283 72.9475 41.5283C76.955 41.5283 79.2928 40.5517 80.9626 37.7155C83.0777 40.1384 86.2318 41.5283 89.5714 41.5283C93.3006 41.5283 96.8815 40.8334 100.128 36.3256L102.336 41.1339L102.281 41.2466C100.815 45.2849 98.6811 47.2195 95.861 47.2195C94.7849 47.2007 93.7088 47.0692 92.6513 46.825V53.3802C94.0613 53.7183 95.4714 54 96.8629 54C101.26 54 105.472 51.671 108.514 44.0264L120.5 13.3732L112.429 13.392ZM64.3943 33.6772C62.5947 35.2737 60.5167 35.8936 58.3088 35.8936C55.9525 35.8936 54.0786 34.5788 54.0786 32.5315C54.0786 29.7329 56.8987 28.775 59.756 28.775C61.3887 28.775 63.1884 29.113 64.3758 29.3948L64.3943 33.6772ZM11.4613 10.2177C12.389 10.2177 13.2796 9.936 14.0588 9.42887C14.8195 8.90296 15.4318 8.17043 15.7843 7.30644C16.1368 6.44243 16.2296 5.5033 16.044 4.58296C15.8585 3.66261 15.4132 2.81739 14.7638 2.16C14.1145 1.50261 13.2796 1.05183 12.3704 0.864C11.4613 0.676174 10.5336 0.770087 9.68019 1.12696C8.82673 1.48383 8.10314 2.08487 7.58365 2.87374C7.06415 3.64383 6.8044 4.56417 6.8044 5.5033C6.8044 6.12313 6.93428 6.74296 7.15692 7.30644C7.39811 7.86991 7.73208 8.39583 8.15881 8.84661C8.58553 9.27861 9.10503 9.63548 9.68019 9.86087C10.2553 10.105 10.8491 10.2177 11.4613 10.2177Z" fill="#ffffff"/>
<path d="M1.28 69V61.32H4.8C5.51467 61.32 6.08 61.5067 6.496 61.88C6.912 62.2533 7.12 62.7333 7.12 63.32C7.12 63.7893 6.96 64.1947 6.64 64.536C6.50133 64.6747 6.34133 64.8027 6.16 64.92C6.40533 65.0053 6.61867 65.1227 6.8 65.272C7.22667 65.6347 7.44 66.1307 7.44 66.76C7.44 67.4533 7.22133 68.0027 6.784 68.408C6.35733 68.8027 5.74933 69 4.96 69H1.28ZM2.4 64.44H4.8C5.6 64.44 6 64.0933 6 63.4C6 62.7067 5.6 62.36 4.8 62.36H2.4V64.44ZM2.4 67.96H4.96C5.86667 67.96 6.32 67.5333 6.32 66.68C6.32 65.8267 5.86667 65.4 4.96 65.4H2.4V67.96ZM13.2738 69V57.8H17.5938C18.5004 57.8 19.2471 58.0773 19.8338 58.632C20.4204 59.1867 20.7138 59.8693 20.7138 60.68C20.7138 61.4053 20.5004 62.0133 20.0738 62.504C19.8604 62.7387 19.6471 62.904 19.4338 63C19.7751 63.16 20.0791 63.368 20.3458 63.624C20.9644 64.2213 21.2738 64.9467 21.2738 65.8C21.2738 66.728 20.9538 67.496 20.3138 68.104C19.6844 68.7013 18.8578 69 17.8338 69H13.2738ZM14.4738 62.504H17.5938C18.2018 62.504 18.6711 62.344 19.0018 62.024C19.3431 61.6933 19.5138 61.2453 19.5138 60.68C19.5138 60.1467 19.3431 59.72 19.0018 59.4C18.6604 59.08 18.1911 58.92 17.5938 58.92H14.4738V62.504ZM14.4738 67.88H17.8338C18.5058 67.88 19.0444 67.688 19.4498 67.304C19.8658 66.92 20.0738 66.4187 20.0738 65.8C20.0738 65.1813 19.8658 64.6533 19.4498 64.216C19.0338 63.7787 18.4951 63.56 17.8338 63.56H14.4738V67.88ZM23.5144 69V61.32H24.6344V67.08L29.2744 61.32H30.2344V69H29.1144V63.24L24.4744 69H23.5144ZM31.5156 69V67.88C31.5796 67.9227 31.6436 67.9493 31.7076 67.96C31.8463 68.0133 31.9956 68.04 32.1556 68.04C32.4863 68.04 32.7423 67.944 32.9236 67.752C33.1156 67.56 33.2756 67.128 33.4036 66.456C33.5316 65.7733 33.5956 64.808 33.5956 63.56V61.32H39.1956V69H38.0756V62.36H34.7156V63.56C34.7156 64.6907 34.657 65.6347 34.5396 66.392C34.433 67.1387 34.2676 67.7093 34.0436 68.104C33.8196 68.4987 33.569 68.776 33.2916 68.936C33.025 69.0853 32.6996 69.16 32.3156 69.16C32.1236 69.16 31.937 69.1333 31.7556 69.08C31.7023 69.0693 31.6223 69.0427 31.5156 69ZM47.5088 66.84L48.2288 67.56C48.0261 67.8373 47.7541 68.104 47.4128 68.36C46.6661 68.8933 45.8714 69.16 45.0288 69.16C43.9728 69.16 43.0661 68.7707 42.3088 67.992C41.5621 67.2133 41.1888 66.2693 41.1888 65.16C41.1888 64.0507 41.5621 63.1067 42.3088 62.328C43.0554 61.5493 43.9354 61.16 44.9488 61.16C46.0048 61.16 46.8794 61.5227 47.5728 62.248C48.2768 62.9733 48.6288 63.8907 48.6288 65C48.6288 65.0533 48.6128 65.192 48.5808 65.416L48.5487 65.576L42.3088 65.56C42.3514 66.2533 42.6341 66.856 43.1568 67.368C43.6901 67.8693 44.3141 68.12 45.0288 68.12C45.6794 68.12 46.2928 67.9067 46.8688 67.48C47.1461 67.256 47.3594 67.0427 47.5088 66.84ZM42.3088 64.6H47.5088C47.4234 63.9067 47.1408 63.336 46.6608 62.888C46.1914 62.4293 45.6208 62.2 44.9488 62.2C44.2768 62.2 43.6901 62.4347 43.1888 62.904C42.6874 63.3733 42.3941 63.9387 42.3088 64.6ZM50.6238 69V61.32H51.7438V64.6H56.1438V61.32H57.2638V69H56.1438V65.64H51.7438V69H50.6238ZM65.5069 66.84L66.3069 67.56C66.0935 67.8267 65.8109 68.0933 65.4589 68.36C64.7122 68.8933 63.9282 69.16 63.1069 69.16C62.0509 69.16 61.1442 68.7707 60.3869 67.992C59.6402 67.2133 59.2669 66.2693 59.2669 65.16C59.2669 64.0507 59.6402 63.1067 60.3869 62.328C61.1442 61.5493 62.0509 61.16 63.1069 61.16C63.9389 61.16 64.7069 61.416 65.4109 61.928C65.6989 62.1413 65.9709 62.392 66.2269 62.68L65.4269 63.48C65.2562 63.2453 65.0589 63.032 64.8349 62.84C64.3229 62.4133 63.7469 62.2 63.1069 62.2C62.3709 62.2 61.7309 62.488 61.1869 63.064C60.6535 63.6293 60.3869 64.328 60.3869 65.16C60.3869 65.992 60.6535 66.696 61.1869 67.272C61.7309 67.8373 62.3709 68.12 63.1069 68.12C63.7149 68.12 64.3069 67.9067 64.8829 67.48C65.1282 67.2773 65.3362 67.064 65.5069 66.84ZM68.0613 69V61.32H69.1813V65.4L73.0213 61.32H74.3813L71.4213 64.44L74.7013 69H73.4213L70.7013 65.24L69.1813 66.84V69H68.0613ZM82.1111 68.008C81.3538 68.776 80.4311 69.16 79.3431 69.16C78.2551 69.16 77.3271 68.776 76.5591 68.008C75.8018 67.2293 75.4231 66.28 75.4231 65.16C75.4231 64.04 75.8018 63.096 76.5591 62.328C77.3271 61.5493 78.2551 61.16 79.3431 61.16C80.4311 61.16 81.3538 61.5493 82.1111 62.328C82.8791 63.096 83.2631 64.04 83.2631 65.16C83.2631 66.28 82.8791 67.2293 82.1111 68.008ZM77.3591 67.256C77.9138 67.832 78.5751 68.12 79.3431 68.12C80.1111 68.12 80.7671 67.8373 81.3111 67.272C81.8658 66.696 82.1431 65.992 82.1431 65.16C82.1431 64.328 81.8658 63.6293 81.3111 63.064C80.7671 62.488 80.1111 62.2 79.3431 62.2C78.5751 62.2 77.9138 62.488 77.3591 63.064C76.8151 63.6293 76.5431 64.328 76.5431 65.16C76.5431 65.9813 76.8151 66.68 77.3591 67.256ZM85.2644 69V61.32H86.1444L89.1844 65.16L92.2244 61.32H93.1044V69H91.9844V63.32L89.1844 66.84L86.3844 63.32V69H85.2644Z" fill="#ffffff"/>
</svg>
