<svg width="185" height="80" viewBox="0 0 185 80" fill="none" xmlns="http://www.w3.org/2000/svg">
<path d="M92.3514 0.0391579C92.2778 0.052228 92.0506 0.0979729 91.8502 0.137182C91.6497 0.176392 91.2019 0.339766 90.8544 0.503139C89.7451 1.0194 88.843 2.07806 88.4821 3.26743C87.9809 4.91423 88.6425 6.94007 90.0325 8.00527C91.4759 9.11621 93.4406 9.28612 95.0913 8.44311C95.6526 8.15557 96.5147 7.3387 96.8488 6.78323C97.4101 5.85527 97.6106 4.56788 97.3634 3.50268C97.0092 1.92776 95.686 0.581559 94.0889 0.163322C93.6879 0.0587626 92.6053 -0.0196571 92.3514 0.0391579ZM93.1466 1.30694C93.2402 1.33961 93.3604 1.45724 93.4206 1.57487C93.5275 1.76439 93.5208 1.82974 93.3203 2.82305C93.033 4.26727 93.053 4.28034 94.2025 3.27396C94.9576 2.61393 95.1648 2.50937 95.4788 2.64007C95.8464 2.79037 95.9533 3.22168 95.7061 3.55496C95.6526 3.62685 95.2049 3.80983 94.5834 4.01895C93.1733 4.48293 93.1733 4.50907 94.5566 4.96651C95.666 5.33901 95.8598 5.46317 95.8598 5.82259C95.8598 5.92062 95.7796 6.09053 95.686 6.20162C95.5524 6.36499 95.4588 6.4042 95.2583 6.4042C95.0378 6.4042 94.9242 6.33232 94.2559 5.76378C93.3137 4.96651 93.307 4.95998 93.1934 5.02533C93.1199 5.07107 93.1399 5.26059 93.3137 6.1232C93.4674 6.87472 93.5075 7.208 93.4674 7.32563C93.2936 7.75694 92.7657 7.8811 92.4783 7.55436C92.2712 7.32563 92.2712 7.0773 92.4917 6.07092C92.6654 5.26712 92.6721 5.02533 92.5452 4.98612C92.5051 4.97305 92.2645 5.14296 92.0105 5.36515C90.9814 6.26697 90.7809 6.4042 90.5604 6.4042C89.8988 6.4042 89.705 5.59387 90.2998 5.2998C90.4401 5.23445 90.9279 5.058 91.3957 4.9077C92.2043 4.6463 92.4048 4.52214 92.2311 4.39144C92.1843 4.35876 91.7232 4.19539 91.2019 4.01895C90.1528 3.67259 89.9523 3.54189 89.9523 3.1694C89.9523 2.7773 90.3733 2.4767 90.7275 2.6074C90.8143 2.64007 91.2287 2.96028 91.6497 3.32624C92.0707 3.68566 92.4716 3.98627 92.5385 3.98627C92.6922 3.98627 92.6855 3.86211 92.485 2.908C92.2578 1.82974 92.2645 1.62715 92.5251 1.4115C92.7456 1.22852 92.8793 1.20238 93.1466 1.30694Z" fill="#ffffff"/>
<path d="M157.24 0.0397301C157.167 0.0528002 156.94 0.0985451 156.739 0.137754C156.539 0.176964 156.091 0.340338 155.743 0.503712C155.215 0.75204 155.015 0.889275 154.561 1.33365C154.106 1.77803 153.959 1.98061 153.712 2.49034C153.318 3.28107 153.164 3.99991 153.217 4.77757C153.364 6.7642 154.781 8.41101 156.726 8.86192C157.307 8.99915 158.33 8.99915 158.878 8.86192C160.141 8.55478 161.337 7.62681 161.871 6.53547C162.226 5.82316 162.353 5.2873 162.353 4.5031C162.353 2.45113 160.983 0.68669 158.978 0.163895C158.577 0.0593348 157.494 -0.019084 157.24 0.0397301ZM158.216 1.41207C158.423 1.59505 158.423 1.84338 158.209 2.8759C158.102 3.4183 158.022 3.89535 158.042 3.92803C158.136 4.06526 158.316 3.95417 158.998 3.35949C159.847 2.60797 160.047 2.50341 160.374 2.64064C160.635 2.7452 160.749 2.91511 160.749 3.18958C160.749 3.54247 160.575 3.65356 159.472 4.01952C158.062 4.4835 158.062 4.51617 159.439 4.96709C160.555 5.32651 160.749 5.45721 160.749 5.82316C160.749 5.92119 160.668 6.0911 160.575 6.20219C160.441 6.35903 160.348 6.40478 160.154 6.40478C159.887 6.40478 159.847 6.37864 158.764 5.44414C158.41 5.13699 158.176 4.98016 158.109 5.0063C158.056 5.0259 158.009 5.06511 158.009 5.08471C158.009 5.10432 158.102 5.58791 158.216 6.15645C158.457 7.34581 158.43 7.52225 158.029 7.68563C157.755 7.80326 157.514 7.74444 157.341 7.53532C157.167 7.31967 157.173 7.11709 157.381 6.11724C157.548 5.2873 157.568 5.0259 157.441 4.98669C157.401 4.97362 157.133 5.1762 156.839 5.43107C155.91 6.23487 155.67 6.40478 155.456 6.40478C155.175 6.40478 155.002 6.29368 154.895 6.03882C154.808 5.83623 154.808 5.78395 154.908 5.58791C155.022 5.34611 155.296 5.22195 156.585 4.80371C156.893 4.71222 157.16 4.60113 157.18 4.56192C157.26 4.43775 157.04 4.3332 156.091 4.01952C155.489 3.82347 155.088 3.65356 155.002 3.56207C154.661 3.20918 154.935 2.58836 155.429 2.58836C155.663 2.58836 156.004 2.83016 156.94 3.66009C157.347 4.01952 157.541 4.07833 157.541 3.83C157.541 3.74505 157.467 3.32028 157.374 2.8759C157.147 1.78456 157.153 1.62772 157.421 1.40554C157.594 1.26177 157.681 1.23563 157.862 1.2683C157.989 1.28791 158.149 1.35326 158.216 1.41207Z" fill="#ffffff"/>
<path d="M2.97051 4.87505C2.91705 4.90119 2.66311 5.03842 2.40917 5.17566C2.00821 5.41092 1.9347 5.4828 1.781 5.80955C1.64066 6.11016 1.60056 6.29313 1.58052 6.829C1.56047 7.43022 1.56715 7.5021 1.71417 7.70468C1.79436 7.82885 1.98816 7.99222 2.13518 8.06411C2.38912 8.19481 2.51609 8.20134 4.77483 8.22095L7.14718 8.23401L7.16723 15.5205L7.1806 22.8004L7.03358 22.8788C6.92666 22.9377 6.53906 22.9442 5.51661 22.8985C3.41157 22.807 3.33138 22.8135 2.92373 23.0292C1.95475 23.552 1.45355 24.4864 1.72754 25.2706C1.87455 25.6823 2.15523 26.0744 2.41585 26.2247C2.77672 26.4273 3.2445 26.4339 4.40729 26.2378L5.46983 26.0614L9.01165 26.1006C10.963 26.1267 12.9678 26.1594 13.4623 26.179C14.5783 26.2247 14.9793 26.1529 15.3335 25.8326C15.681 25.532 15.8347 25.1203 15.8347 24.5061C15.8347 23.8395 15.6275 23.4801 15.0929 23.2252C14.7253 23.0488 14.6986 23.0488 12.48 22.9638C11.0298 22.905 10.2078 22.8462 10.1477 22.8004C10.0675 22.7351 10.0541 21.5196 10.0541 15.3833V8.03797H10.3081C10.4417 8.03797 11.1969 8.09678 11.9854 8.16866C14.037 8.35818 14.6986 8.36471 15.0327 8.18827C15.3736 8.01183 15.554 7.81578 15.6943 7.45636C16.0151 6.63949 15.7745 6.18857 14.6318 5.45666C13.8299 4.9404 14.2976 4.99268 9.60641 4.9404C7.30089 4.92079 4.88176 4.88812 4.24022 4.86851C3.59868 4.84891 3.02397 4.85544 2.97051 4.87505Z" fill="#ffffff"/>
<path d="M27.9104 5.64598C27.603 5.75054 27.3891 5.97272 27.329 6.22105C27.3089 6.33868 27.2688 7.56072 27.2421 8.93306C27.2087 10.7171 27.1753 11.449 27.1151 11.5078C27.055 11.5666 26.7676 11.5601 25.8655 11.4686C25.1103 11.3967 24.3284 11.3641 23.6401 11.3771C22.6711 11.4033 22.5575 11.4163 22.2501 11.5666C21.8091 11.7823 21.7356 11.9718 21.8559 12.5469C21.9695 13.0697 22.2234 13.4422 22.6177 13.6578L22.9184 13.8212H24.9098C26.7208 13.8212 26.9146 13.8343 26.9881 13.9323C27.055 14.0173 27.0884 14.9191 27.1218 17.6834C27.1552 20.3562 27.1953 21.4671 27.2621 21.8527C27.5294 23.3426 28.3848 24.8522 29.2469 25.3554C30.9242 26.3356 31.2383 26.4402 32.3744 26.3814C33.5104 26.3226 34.7801 25.9828 35.836 25.46C36.1701 25.2901 36.8317 24.6562 37.1659 24.1791C37.4532 23.7674 37.8141 23.042 37.9544 22.5976C38.068 22.2578 38.0747 22.0879 38.0146 20.6698C37.9411 18.9185 37.9344 18.8793 37.4131 18.5852C36.8986 18.2911 36.1434 18.4087 35.8293 18.827C35.6689 19.0426 35.6088 19.3171 35.4818 20.3562C35.3081 21.8069 35.0876 22.284 34.2856 22.9571C33.6708 23.4668 33.2365 23.7021 32.7352 23.7935C31.793 23.9635 30.5567 23.4014 30.0689 22.578C29.7481 22.0487 29.7147 21.6632 29.6345 17.6442C29.5543 13.3638 29.5008 13.7232 30.1624 13.7232C30.3696 13.7232 31.499 13.6905 32.6751 13.6578C34.6198 13.5925 34.8403 13.5729 35.1009 13.4552C35.4751 13.2723 35.5353 13.1416 35.5019 12.5796C35.4618 12.0306 35.3148 11.73 34.994 11.547C34.7467 11.4033 34.0651 11.3902 32.8422 11.5013C31.7729 11.5928 29.7347 11.5863 29.6545 11.4817C29.6144 11.4359 29.6078 11.0569 29.6412 10.4884C29.8417 6.88108 29.855 6.50859 29.7481 6.26026C29.5209 5.7244 28.5719 5.41072 27.9104 5.64598Z" fill="#ffffff"/>
<path d="M67.6519 5.90165C66.7831 6.18919 66.5025 6.54861 66.4958 7.35895C66.4891 7.90135 66.6094 8.13007 66.9636 8.27384C67.3712 8.43722 68.4404 8.54831 70.0911 8.59405C70.9732 8.61366 71.7216 8.65287 71.755 8.67247C71.8219 8.71168 71.755 22.984 71.6882 23.082C71.6748 23.1147 70.7059 23.1343 69.5364 23.1343C67.2309 23.1343 66.9903 23.1605 66.5492 23.4937C66.2752 23.6963 66.0814 24.0427 66.0213 24.4413C65.9211 25.0948 66.4891 25.9574 67.1373 26.1339C67.5984 26.258 80.8836 26.1535 81.044 26.0228C81.1041 25.9705 81.2177 25.7679 81.2979 25.5653C81.5852 24.8334 81.4249 23.5199 81.0039 23.2324C80.8903 23.1539 80.5695 23.1343 79.2864 23.1278C78.4243 23.1213 76.9809 23.0951 76.0787 23.0755L74.4415 23.0363L74.4081 15.227L74.3746 7.41776L74.2143 7.07795C74.0271 6.67278 73.5259 6.18919 73.0983 6.00621C72.8443 5.89512 72.5636 5.86244 71.4142 5.8167C69.0018 5.71214 68.1598 5.73174 67.6519 5.90165Z" fill="#ffffff"/>
<path d="M48.3725 11.3708C47.4302 11.4884 46.3543 11.972 45.6927 12.5732C44.971 13.2267 44.5901 14.024 44.4297 15.2003C44.3294 15.9518 44.7839 16.6772 45.5925 17.0431C45.9132 17.1934 46.0669 17.2196 46.5414 17.2196C47.0292 17.2196 47.1562 17.1934 47.4569 17.0366C47.8779 16.8275 48.2522 16.5138 48.3791 16.2785C48.4259 16.1805 48.5195 15.9126 48.5796 15.6839C48.6398 15.4486 48.8135 15.0042 48.9605 14.684C49.2613 14.0501 49.3615 13.9652 50.1033 13.6907C51.1391 13.3117 51.9343 13.3443 52.8766 13.7953C53.752 14.2135 54.1196 14.6513 54.3267 15.5009C54.4537 16.0237 54.4604 16.8602 54.3334 17.0235C54.2666 17.115 53.7921 17.2326 52.215 17.5529C49.9629 18.0103 48.7734 18.2325 47.7911 18.3893C47.0827 18.5004 46.0937 18.8664 45.5256 19.2193C44.824 19.6636 44.2827 20.4348 44.0287 21.3693C43.8817 21.9182 43.8817 23.1141 44.0287 23.7872C44.1691 24.4015 44.5099 25.1269 44.8373 25.4798C45.1514 25.8196 45.8197 26.1398 46.7085 26.3816C47.3433 26.558 47.4502 26.5646 48.7133 26.558C50.3639 26.5515 52.1415 26.3228 52.7296 26.0418C53.1238 25.8522 53.5114 25.4602 53.8723 24.8851C54.006 24.676 54.1463 24.506 54.1864 24.506C54.2332 24.506 54.3735 24.6433 54.5072 24.8197C54.868 25.2772 55.69 26.0352 55.9974 26.1921C56.6723 26.5253 57.775 26.4796 58.8175 26.0744C59.7865 25.6954 60.2208 25.2706 60.448 24.4603C60.6017 23.9179 60.6084 23.6434 60.4681 23.3559C60.2877 22.9769 60.0137 22.8396 59.4724 22.8396C58.8442 22.8396 58.4432 23.0553 58.1826 23.5389C57.8953 24.0747 57.7416 24.1989 57.4275 24.1597C57.08 24.114 56.7124 23.8329 56.5654 23.4997C56.3449 23.003 56.1711 19.7029 56.2914 18.3371C56.3315 17.8731 56.385 16.8798 56.4117 16.1348C56.4585 14.6056 56.4518 14.5533 55.9239 13.4816C55.5496 12.717 54.9415 12.057 54.3468 11.7629C54.0126 11.606 53.8523 11.5668 53.4981 11.5668C53.2575 11.5668 52.636 11.5211 52.1214 11.4688C50.9386 11.3447 48.9939 11.2924 48.3725 11.3708ZM54.0594 19.4219C54.046 19.5395 54.0193 19.9316 53.9993 20.291C53.9659 21.0229 53.8188 21.8006 53.6117 22.3299C53.2909 23.1795 52.2952 23.8526 50.9854 24.127C50.0899 24.31 48.6264 24.3296 48.0584 24.1597C47.3366 23.944 46.8087 23.284 46.7553 22.526C46.6951 21.7418 47.0226 21.2255 47.9114 20.6831C48.9071 20.0753 49.562 19.8924 52.3887 19.448C54.1931 19.1605 54.0928 19.1605 54.0594 19.4219Z" fill="#ffffff"/>
<path d="M113.408 11.3774C112.446 11.5081 111.31 12.0374 110.675 12.6517C110.14 13.1679 109.726 13.9521 109.599 14.671C109.452 15.4879 109.465 15.7362 109.666 16.1283C110.08 16.9386 111.15 17.4091 112.092 17.1869C112.54 17.0824 113.188 16.6707 113.388 16.357C113.482 16.2198 113.609 15.8865 113.676 15.6186C113.749 15.3506 113.923 14.8932 114.07 14.6056C114.304 14.1417 114.377 14.0632 114.671 13.9064C116.061 13.1745 117.525 13.3117 118.768 14.292C119.122 14.573 119.215 14.7494 119.389 15.4682C119.536 16.076 119.55 16.919 119.409 17.0562C119.316 17.1477 115.012 18.0365 113.422 18.2913C112.245 18.4874 111.891 18.592 110.822 19.069C110.074 19.4088 109.405 20.2845 109.118 21.304C108.951 21.8921 108.951 23.2514 109.118 23.8853C109.419 25.0027 109.873 25.6236 110.675 25.9895C112.179 26.6692 113.689 26.7607 116.596 26.3293C117.07 26.264 117.585 26.1529 117.745 26.081C118.113 25.9242 118.507 25.5321 118.888 24.957C119.055 24.7087 119.229 24.5061 119.276 24.5061C119.322 24.5061 119.443 24.6237 119.543 24.7675C119.81 25.1596 120.746 26.0287 121.073 26.1921C121.568 26.4339 121.989 26.4796 122.731 26.3686C124.187 26.1594 125.217 25.5059 125.464 24.6368C125.551 24.3296 125.551 23.6827 125.457 23.5062C125.237 23.0945 124.849 22.8593 124.395 22.8593C123.827 22.8593 123.412 23.1664 123.065 23.833C122.911 24.1336 122.757 24.212 122.416 24.1467C122.122 24.0944 121.688 23.7154 121.595 23.4409C121.401 22.8789 121.26 19.3631 121.381 18.2979C121.501 17.2392 121.548 15.1284 121.461 14.6775C121.421 14.4684 121.22 13.9587 121.013 13.5404C120.706 12.9196 120.559 12.704 120.191 12.3445C119.55 11.7172 119.322 11.6257 118.313 11.5603C117.852 11.5277 117.211 11.4754 116.877 11.4362C115.994 11.3382 113.936 11.3055 113.408 11.3774ZM119.115 19.6833C119.115 20.8008 118.868 22.0163 118.527 22.6306C118.173 23.2644 117.291 23.8395 116.309 24.0748C116.068 24.1271 115.52 24.212 115.092 24.2578C113.696 24.395 112.693 24.1663 112.259 23.6108C111.55 22.6959 111.671 21.5915 112.566 20.9511C113.114 20.559 113.93 20.1603 114.504 20.0035C115.146 19.8271 118.467 19.252 119.002 19.2193C119.102 19.2128 119.115 19.2781 119.115 19.6833Z" fill="#ffffff"/>
<path d="M88.9896 11.5671C88.6822 11.7501 88.4818 12.201 88.5219 12.6258C88.5686 13.0767 88.7424 13.2727 89.2169 13.4165C89.5577 13.5276 89.7916 13.5407 90.9811 13.521C91.7362 13.508 92.6384 13.5014 92.9859 13.5014L93.6207 13.4949L93.6675 14.0504C93.721 14.7758 93.7343 22.4739 93.6742 22.9248L93.6341 23.2712L91.088 23.2581C89.6846 23.2516 88.4283 23.2647 88.288 23.2973C87.6197 23.428 87.2856 24.2318 87.5261 25.1467C87.6397 25.5584 87.9204 25.9636 88.2211 26.1466C88.5686 26.3557 89.6111 26.3949 95.4251 26.3949C100.357 26.4014 101.834 26.3557 102.455 26.1989C102.85 26.0943 103.204 25.7741 103.277 25.4539C103.478 24.6043 103.177 23.8136 102.535 23.4869C102.235 23.3365 101.246 23.2712 98.6996 23.2385C97.3764 23.2189 96.2738 23.1993 96.247 23.1993C96.1468 23.1993 96.1201 22.5916 96.0599 17.8407C96.0265 14.9457 95.9664 12.665 95.9263 12.4232C95.8461 11.9592 95.6523 11.541 95.4919 11.4756C95.4317 11.456 93.995 11.4364 92.2976 11.4364C89.3171 11.4364 89.2035 11.4429 88.9896 11.5671Z" fill="#ffffff"/>
<path d="M154.059 11.5871C153.765 11.7766 153.598 12.1099 153.598 12.502C153.598 12.9594 153.752 13.2339 154.086 13.3777C154.333 13.4822 154.627 13.5018 156.539 13.528L158.711 13.5607L158.751 14.7043C158.811 16.24 158.811 22.4939 158.757 22.9056L158.711 23.2324H156.104C153.531 23.2389 153.491 23.2389 153.184 23.3892C152.696 23.618 152.562 23.8794 152.562 24.6047C152.569 25.1079 152.596 25.2386 152.743 25.5262C152.843 25.7091 153.024 25.9509 153.157 26.0555C153.351 26.2319 153.465 26.2646 153.912 26.3169C154.748 26.4018 166.436 26.3822 167.017 26.2908C167.652 26.1927 168.093 25.9771 168.267 25.683C168.447 25.3693 168.454 24.5132 168.273 24.18C168.12 23.8859 167.846 23.6049 167.619 23.4873C167.331 23.3435 166.309 23.2781 163.729 23.2389C162.406 23.2193 161.297 23.1736 161.27 23.1474C161.237 23.1148 161.183 20.8733 161.143 18.1613C161.11 15.4493 161.049 13.0052 161.016 12.7307C160.943 12.1426 160.722 11.6329 160.481 11.5218C160.354 11.4564 159.559 11.4368 157.301 11.4368H154.287L154.059 11.5871Z" fill="#ffffff"/>
<path d="M139.591 11.567C139.083 11.6388 138.622 11.8022 137.713 12.2205C136.664 12.7106 136.003 13.1615 135.394 13.8019C135.127 14.0829 134.893 14.3116 134.873 14.3116C134.853 14.3116 134.82 13.9195 134.806 13.4425C134.773 12.5015 134.693 12.2401 134.305 11.8806C133.998 11.5996 133.824 11.567 132.454 11.567C130.904 11.567 130.65 11.6258 130.135 12.0702C129.674 12.4819 129.474 12.9001 129.474 13.4752C129.474 13.8738 129.494 13.9391 129.667 14.1287L129.861 14.3443L131.131 14.3509C132.08 14.3509 132.427 14.377 132.508 14.4358C132.601 14.5142 132.614 14.9913 132.614 18.8796V23.2384L131.585 23.4083C130.91 23.5129 130.443 23.624 130.235 23.7285L129.908 23.8854L129.888 24.5062C129.848 25.6825 129.975 25.9569 130.697 26.2118C131.084 26.349 131.238 26.3621 133.203 26.3882C135.374 26.4144 136.43 26.349 136.878 26.1726C137.426 25.9439 137.82 25.3819 137.827 24.8198C137.827 24.4343 137.76 24.2578 137.493 23.9572C137.226 23.6632 136.831 23.5455 135.889 23.4736L135.187 23.4279L135.167 20.6571C135.161 18.9319 135.181 17.8013 135.221 17.6445C135.328 17.2654 135.896 16.4616 136.484 15.8604C137.593 14.7364 139.177 13.8542 140.092 13.8542C140.54 13.8542 141.228 14.0306 141.509 14.2136C141.91 14.4685 142.03 14.8083 142.171 16.0565C142.238 16.6577 142.298 17.4354 142.304 17.7752C142.331 18.9449 142.217 23.1665 142.164 23.2776C142.124 23.356 141.977 23.3952 141.656 23.4279C140.58 23.5259 140.173 23.7743 139.912 24.4604C139.725 24.9375 139.725 25.4015 139.905 25.8132C140.019 26.0746 140.106 26.1595 140.353 26.2837C140.66 26.4274 140.68 26.4274 143.607 26.4078C145.225 26.4013 146.762 26.3621 147.016 26.3294C147.844 26.2183 148.172 25.9439 148.319 25.2446C148.459 24.6042 148.332 24.2644 147.838 23.918C147.37 23.5847 146.808 23.454 145.679 23.4148C145.131 23.3952 144.623 23.3495 144.563 23.3168C144.45 23.2645 144.443 23.1012 144.443 21.3498C144.436 18.1542 144.289 15.3703 144.069 14.4489C143.815 13.3641 143.126 12.5211 142.104 12.0375C141.269 11.6454 140.32 11.4624 139.591 11.567Z" fill="#ffffff"/>
<path d="M103.471 33.0604C103.204 33.3218 103.191 33.812 103.451 34.106C103.932 34.668 104.828 34.2433 104.728 33.4983C104.648 32.9036 103.899 32.6487 103.471 33.0604Z" fill="#ffffff"/>
<path d="M67.0574 33.342C66.897 33.4269 66.8903 33.4596 66.8569 34.2111C66.8368 34.6424 66.7967 35.0411 66.77 35.0999C66.7032 35.2371 66.4359 35.3547 66.1953 35.3547C65.9681 35.3547 65.8678 35.4528 65.8144 35.7338C65.7476 36.0671 65.9213 36.2696 66.2755 36.2696C66.4292 36.2696 66.6297 36.3154 66.7099 36.3742C66.8569 36.4722 66.8569 36.4853 66.8569 38.2563C66.8569 40.2756 66.9037 40.5435 67.2979 40.9748C67.7056 41.4192 68.0397 41.5303 68.9285 41.5303C69.9042 41.5303 70.2784 41.4126 70.7195 40.9813C71.1204 40.5827 71.4278 40.0468 71.3744 39.8247C71.2942 39.5175 70.6526 39.2822 70.4655 39.4848C70.4254 39.5306 70.2985 39.7332 70.1782 39.9292C69.8908 40.4063 69.5567 40.5892 68.9753 40.5958C68.4474 40.5958 68.1533 40.4585 68.0197 40.1579C67.8927 39.8573 67.8793 36.4722 68.0063 36.3481C68.0598 36.2958 68.4273 36.2696 69.2292 36.2696C70.5123 36.2696 70.5992 36.2435 70.5992 35.8187C70.5992 35.3547 70.5925 35.3547 69.276 35.3547C68.4407 35.3547 68.0598 35.3286 68.0063 35.2763C67.9528 35.224 67.9261 34.9169 67.9261 34.3353C67.9261 33.6622 67.9061 33.4596 67.8259 33.3943C67.6788 33.2766 67.2445 33.2505 67.0574 33.342Z" fill="#ffffff"/>
<path d="M44.3699 35.2171C44.263 35.2497 44.0024 35.3347 43.8019 35.4131C43.5079 35.5242 43.421 35.5373 43.3675 35.4654C43.2673 35.3412 41.6568 35.3543 41.5097 35.4785C41.3828 35.5765 41.356 36.0405 41.463 36.2038C41.4964 36.2561 41.6701 36.3149 41.8773 36.3345L42.2315 36.3672V39.1773V41.9873L41.8773 42.02C41.6701 42.0396 41.4964 42.0984 41.463 42.1507C41.3627 42.301 41.3828 42.778 41.4897 42.863C41.6233 42.9741 44.8444 42.9741 44.978 42.863C45.0315 42.8238 45.0716 42.6735 45.0716 42.5101C45.0716 42.0853 44.958 42.02 44.1828 42.033C43.3475 42.0461 43.3341 42.033 43.3341 41.3273C43.3341 41.0266 43.3542 40.7783 43.3742 40.7783C43.3942 40.7783 43.4878 40.8371 43.588 40.909C43.6816 40.9809 43.9623 41.1051 44.2162 41.177C45.252 41.4841 46.3814 41.2227 47.0229 40.5235C47.5843 39.9157 47.8315 39.1969 47.8249 38.197C47.8249 36.89 47.2635 35.8771 46.2945 35.4066C45.9003 35.2171 45.78 35.1909 45.2119 35.1779C44.8578 35.1713 44.4835 35.1909 44.3699 35.2171ZM45.8067 36.2888C46.3814 36.5763 46.7423 37.3213 46.7423 38.2297C46.7423 39.125 46.4081 39.8373 45.8334 40.164C45.5594 40.3209 45.4325 40.347 45.0382 40.347C44.6439 40.347 44.5169 40.3209 44.2496 40.1706C43.5814 39.785 43.3007 39.1446 43.3475 38.0728C43.3675 37.5239 43.4076 37.354 43.5613 37.0403C43.9823 36.1777 44.9446 35.8575 45.8067 36.2888Z" fill="#ffffff"/>
<path d="M51.8878 35.2628C51.3933 35.3673 50.725 35.668 50.4644 35.9032C50.2572 36.0927 50.2238 36.4195 50.3909 36.6482C50.5379 36.8508 50.8386 36.8312 51.2262 36.5959C51.7208 36.2822 52.2487 36.1319 52.8568 36.1189C53.3313 36.1058 53.4248 36.1254 53.7055 36.2822C54.0463 36.4848 54.2802 36.7985 54.3404 37.1383L54.3738 37.367L53.3513 37.3344C52.5227 37.3017 52.2353 37.3213 51.8878 37.4063C50.6916 37.7069 50.0835 38.4126 50.0835 39.4974C50.0835 40.3535 50.4444 40.9939 51.1059 41.3272C51.8344 41.6932 53.3313 41.6148 54.0396 41.1769L54.3337 40.9939L54.4473 41.1769L54.5542 41.3664H55.423C56.3919 41.3664 56.432 41.3468 56.432 40.909C56.432 40.543 56.3385 40.4515 55.9375 40.4515C55.7304 40.4515 55.5499 40.4189 55.5098 40.3666C55.463 40.3143 55.4296 39.6216 55.4163 38.4518L55.3962 36.6221L55.1957 36.2365C54.8148 35.5111 54.0664 35.1517 52.9303 35.1648C52.5962 35.1648 52.1284 35.2105 51.8878 35.2628ZM54.18 38.3342L54.3604 38.3734V39.0139V39.6477L54.053 39.9287C53.4983 40.4319 52.6229 40.6999 51.9814 40.5692C51.6339 40.4973 51.2463 40.1117 51.1795 39.7719C51.0391 39.0269 51.5537 38.4584 52.4893 38.3015C52.8368 38.2427 53.779 38.2623 54.18 38.3342Z" fill="#ffffff"/>
<path d="M59.8467 35.2633C59.145 35.4462 58.7106 35.8383 58.5302 36.4461C58.323 37.1388 58.5168 37.8119 59.0448 38.2563C59.4524 38.5895 60.0004 38.7464 61.0295 38.8183C62.2525 38.8967 62.5933 39.0862 62.5933 39.7136C62.5933 40.2429 62.2925 40.4847 61.524 40.5762C60.936 40.6481 60.2744 40.5696 59.9269 40.3932C59.5927 40.2298 59.3722 39.8704 59.3722 39.4848C59.3722 39.1581 59.2787 39.0797 58.871 39.0797C58.323 39.0797 58.2829 39.1385 58.3631 39.8247C58.4099 40.2167 58.4099 40.5631 58.3631 40.8702C58.2829 41.4453 58.3431 41.5303 58.8777 41.5303C59.2252 41.5303 59.3188 41.4845 59.3923 41.2689C59.4056 41.2362 59.6529 41.2819 59.9469 41.3669C60.3746 41.4976 60.6152 41.5303 61.2434 41.5303C62.473 41.5303 63.1479 41.2362 63.5088 40.55C63.6558 40.2756 63.6825 40.1383 63.6759 39.694C63.6759 39.2496 63.6424 39.1058 63.4887 38.7921C63.1613 38.1386 62.6735 37.936 61.2567 37.8446C60.1808 37.7727 59.82 37.6354 59.6128 37.2237C59.4992 36.9885 59.4925 36.9427 59.5794 36.7075C59.6997 36.3677 59.9135 36.2239 60.408 36.1324C61.1498 36.0017 61.9651 36.2043 62.1923 36.5768C62.2525 36.6813 62.3193 36.9035 62.346 37.0734C62.4062 37.4459 62.5398 37.5374 62.9608 37.4917C63.4286 37.4394 63.462 37.374 63.3685 36.7336C63.315 36.3284 63.315 36.0997 63.3685 35.7926C63.4687 35.2894 63.4152 35.224 62.8539 35.1783C62.473 35.1456 62.4329 35.1522 62.3995 35.2829C62.3527 35.4528 62.2591 35.4528 61.7245 35.2894C61.2166 35.1326 60.3813 35.1195 59.8467 35.2633Z" fill="#ffffff"/>
<path d="M75.23 35.2562C74.3947 35.4392 73.6062 35.9359 73.6062 36.2757C73.6062 36.426 73.7264 36.6743 73.8334 36.7397C73.9871 36.8377 74.2477 36.7854 74.5417 36.5959C75.1098 36.2234 76.1589 36.0012 76.6935 36.1384C77.2215 36.2757 77.6826 36.7723 77.6826 37.2102V37.367L76.7336 37.3343C75.3637 37.2821 74.6487 37.452 74.0539 37.9617C73.1517 38.7393 73.2319 40.5626 74.2076 41.1965C74.642 41.4775 75.1499 41.5821 75.8716 41.5428C76.5866 41.5036 77.0811 41.3795 77.4353 41.1442L77.6759 40.9808L77.7628 41.1573L77.8497 41.3337L78.7117 41.3533C79.2864 41.3664 79.6005 41.3468 79.6607 41.2945C79.7743 41.203 79.7876 40.641 79.674 40.5299C79.6272 40.4842 79.4401 40.4515 79.253 40.4515C79.0659 40.4515 78.8788 40.4188 78.832 40.3731C78.7719 40.3143 78.7518 39.8241 78.7518 38.5564C78.7518 36.5893 78.7117 36.3476 78.3174 35.8901C78.1771 35.7333 77.9031 35.5372 77.6358 35.4065C77.2282 35.2105 77.1413 35.1974 76.4196 35.1778C75.925 35.1647 75.4907 35.1974 75.23 35.2562ZM77.5022 38.3342L77.6826 38.3734V39.0465V39.7261L77.4019 39.9483C76.6401 40.5495 75.6243 40.7717 75.0296 40.4646C74.8157 40.3535 74.6152 40.079 74.5417 39.7915C74.3479 39.0857 74.8892 38.4583 75.8248 38.3015C76.1589 38.2427 77.1079 38.2623 77.5022 38.3342Z" fill="#ffffff"/>
<path d="M95.9264 35.3086C95.6858 35.4001 95.4386 35.4916 95.3784 35.5177C95.2982 35.5438 95.2448 35.5308 95.2247 35.472C95.1913 35.3935 95.0176 35.3805 94.3025 35.387C93.8147 35.3935 93.4004 35.4066 93.3803 35.4131C93.3135 35.4262 93.1865 35.7464 93.1865 35.8967C93.1865 36.1712 93.367 36.3346 93.6744 36.3346C93.8281 36.3346 93.9951 36.3607 94.0419 36.3868C94.1087 36.4326 94.1221 37.0403 94.1087 39.2165L94.0887 41.9873L93.7412 42.0069C93.3603 42.0265 93.1865 42.1703 93.1865 42.4578C93.1865 42.6473 93.3202 42.9349 93.4137 42.9349C93.4538 42.9414 94.2223 42.9414 95.1245 42.9414C96.5947 42.9414 96.7684 42.9283 96.8419 42.8238C96.9622 42.6735 96.9489 42.3402 96.8219 42.1637C96.7283 42.033 96.6749 42.02 96.1069 42.033C95.178 42.0461 95.1913 42.0592 95.1913 41.3665V40.7914L95.6658 41.0267C96.1336 41.2619 96.1603 41.2685 96.9221 41.2685C97.6238 41.2685 97.7307 41.2489 98.0849 41.092C98.8067 40.7587 99.4081 39.9615 99.5952 39.0923C99.7021 38.6022 99.6888 37.733 99.5685 37.2821C99.3346 36.3934 98.8067 35.7203 98.0849 35.3805C97.7642 35.2302 97.5904 35.1975 97.0291 35.1779C96.4477 35.1583 96.3073 35.1713 95.9264 35.3086ZM97.5971 36.2692C97.9379 36.4391 98.3055 36.8704 98.4458 37.2756C98.6129 37.7461 98.6062 38.7329 98.4391 39.2099C98.252 39.7393 97.7441 40.2163 97.2429 40.3209C95.9264 40.6084 94.924 39.3864 95.178 37.8049C95.325 36.877 95.766 36.315 96.4944 36.132C96.7818 36.0601 97.3097 36.1254 97.5971 36.2692Z" fill="#ffffff"/>
<path d="M124.889 35.2495C124.375 35.3672 123.78 35.6351 123.486 35.89C123.219 36.1252 123.179 36.4258 123.393 36.648C123.586 36.8506 123.814 36.8245 124.248 36.5696C125.003 36.1187 126.099 35.9684 126.634 36.2429C126.948 36.3997 127.335 36.9225 127.335 37.1839V37.3669L126.353 37.3342C125.224 37.295 124.803 37.3538 124.201 37.6479C123.753 37.8701 123.439 38.1772 123.232 38.615C123.119 38.8568 123.092 39.0398 123.092 39.5365C123.092 40.0854 123.112 40.203 123.279 40.5298C123.519 41.0003 123.84 41.2682 124.388 41.4316C125.177 41.6734 126.406 41.5558 127.015 41.1767L127.309 40.9938L127.422 41.1767L127.529 41.3663H128.398C129.367 41.3663 129.407 41.3467 129.407 40.9088C129.407 40.5429 129.313 40.4514 128.919 40.4514C128.725 40.4514 128.531 40.4187 128.485 40.3729C128.425 40.3141 128.405 39.824 128.405 38.5562C128.405 36.5892 128.364 36.3474 127.97 35.89C127.83 35.7331 127.556 35.5371 127.289 35.4064C126.881 35.2103 126.794 35.1973 126.072 35.1777C125.584 35.1646 125.143 35.1973 124.889 35.2495ZM127.155 38.334L127.335 38.3732V39.0267V39.6868L127.095 39.909C126.446 40.5036 125.284 40.7781 124.696 40.4644C124.335 40.2815 124.081 39.7652 124.148 39.3666C124.241 38.8307 124.742 38.4255 125.471 38.3014C125.812 38.2425 126.754 38.2622 127.155 38.334Z" fill="#ffffff"/>
<path d="M102.368 35.5177C102.241 35.6941 102.248 35.962 102.395 36.1385C102.495 36.2626 102.589 36.2822 103.01 36.2953C103.284 36.3018 103.551 36.328 103.598 36.3541C103.658 36.3933 103.678 36.8639 103.678 38.3277V40.2555L103.511 40.3601C103.364 40.4515 103.23 40.4646 102.696 40.4319C102.148 40.3927 102.028 40.4058 101.927 40.4973C101.774 40.6345 101.76 41.1181 101.914 41.2423C102.001 41.3076 102.475 41.3338 104.099 41.3338C106.031 41.3468 106.184 41.3338 106.298 41.2227C106.371 41.1508 106.418 41.007 106.418 40.8502C106.418 40.4581 106.278 40.3927 105.549 40.4385C105.122 40.4581 104.921 40.445 104.848 40.3862C104.761 40.3143 104.747 39.968 104.747 37.8441V35.387H103.605C102.535 35.387 102.455 35.3935 102.368 35.5177Z" fill="#ffffff"/>
<path d="M108.483 35.3809C108.47 35.394 108.463 35.9037 108.463 36.5049C108.476 37.7335 108.49 37.7727 108.958 37.7727C109.385 37.7727 109.472 37.6551 109.506 37.0473C109.539 36.2958 109.579 36.2697 110.695 36.2697C111.343 36.2697 111.564 36.2893 111.624 36.3611C111.684 36.433 111.39 36.8317 110.107 38.3739C109.232 39.4326 108.463 40.3671 108.403 40.452C108.236 40.6807 108.256 41.0728 108.436 41.2362C108.577 41.3669 108.644 41.3669 110.962 41.3538L113.335 41.3342L113.388 40.2625C113.448 39.0013 113.428 38.949 112.9 38.949C112.433 38.949 112.372 39.0274 112.352 39.6286C112.332 40.1057 112.319 40.1514 112.145 40.2821C111.978 40.3997 111.845 40.4194 111.096 40.439C110.267 40.4651 109.96 40.4128 109.96 40.2494C109.96 40.2168 110.742 39.2431 111.698 38.0929C113.428 36.0017 113.549 35.8253 113.382 35.5769C113.248 35.3744 113.021 35.3548 110.775 35.3548C109.532 35.3548 108.497 35.3678 108.483 35.3809Z" fill="#ffffff"/>
<path d="M115.828 35.3998C115.814 35.4325 115.814 35.9422 115.828 36.5369C115.848 37.6217 115.848 37.6217 116.015 37.7001C116.249 37.7981 116.523 37.7916 116.696 37.6674C116.817 37.589 116.843 37.5041 116.843 37.2296C116.843 36.7852 116.95 36.4193 117.111 36.3343C117.264 36.2559 118.848 36.2493 118.975 36.3278C119.029 36.3604 119.049 36.4258 119.029 36.4715C119.009 36.5238 118.294 37.3995 117.445 38.4255C116.589 39.4515 115.834 40.3729 115.767 40.484C115.594 40.7519 115.607 41.0133 115.808 41.2028L115.968 41.3662H118.3C120.018 41.3662 120.646 41.3466 120.706 41.2878C120.759 41.2355 120.786 40.8892 120.786 40.1442C120.786 38.9417 120.793 38.9483 120.225 38.9483C119.797 38.9483 119.717 39.0528 119.717 39.6279C119.717 39.9089 119.684 40.1442 119.63 40.2161C119.51 40.3794 119.116 40.4448 118.334 40.4513C117.685 40.4513 117.311 40.386 117.311 40.2683C117.311 40.2422 118.08 39.2881 119.022 38.1575C119.958 37.0335 120.759 36.0402 120.8 35.9553C120.9 35.7592 120.779 35.5044 120.546 35.4194C120.345 35.341 115.861 35.3279 115.828 35.3998Z" fill="#ffffff"/>
</svg>
