<svg width="190" height="150" viewBox="0 0 190 150" fill="none" xmlns="http://www.w3.org/2000/svg">
<path d="M175.619 42.5586C176.992 42.4546 178.881 42.4589 180.848 42.9336C182.825 43.4107 184.938 44.3782 186.648 46.2344C188.368 48.101 189.558 50.733 189.909 54.3164C190.656 61.9358 186.686 69.1007 182.808 74.1758C180.843 76.7479 178.838 78.8659 177.327 80.3398C176.57 81.0775 175.934 81.6577 175.484 82.0557C175.298 82.2198 175.141 82.3512 175.023 82.4521C174.123 87.591 171.417 93.73 167.314 100.121C162.834 107.1 156.617 114.495 149.03 121.386C144.686 125.331 139.882 129.119 134.686 132.574C134.569 132.823 134.388 133.045 134.143 133.209C133.888 133.38 133.601 133.464 133.315 133.473C120.666 141.632 105.786 147.774 89.6099 149.422C87.5932 149.627 85.5909 149.776 83.606 149.872C83.4239 149.95 83.2246 149.996 83.0142 150C82.8332 150.003 82.6592 149.973 82.4966 149.92C78.0836 150.089 73.758 149.99 69.5464 149.624C69.4077 149.673 69.2603 149.705 69.106 149.713C68.789 149.73 68.4891 149.651 68.2339 149.502C53.26 147.998 39.7836 143.111 29.0474 135.068C13.3599 123.316 3.67041 104.93 3.67041 80.9463C3.67047 80.079 4.37348 79.3761 5.24072 79.376H58.9165C58.9315 79.376 58.9465 79.3755 58.9614 79.376H97.3257C97.3403 79.3756 97.355 79.376 97.3696 79.376H172.371C172.413 79.1799 172.462 78.9645 172.508 78.7285C172.797 77.2711 173.15 75.0501 173.386 72.0615C173.858 66.0855 173.863 57.0288 171.952 44.8447C171.813 43.9565 172.379 43.1101 173.252 42.8984L173.659 44.5771C173.272 42.98 173.254 42.9015 173.254 42.8975H173.256C173.258 42.8971 173.26 42.896 173.262 42.8955C173.266 42.8947 173.27 42.8937 173.275 42.8926C173.286 42.8901 173.3 42.8876 173.317 42.8838C173.351 42.8761 173.397 42.8647 173.456 42.8525C173.572 42.8283 173.736 42.7965 173.941 42.7617C174.35 42.6922 174.926 42.611 175.619 42.5586ZM110.711 104.648C108.244 104.648 105.827 104.88 103.481 105.32C103.467 105.323 103.452 105.326 103.438 105.328C84.7512 108.86 70.5338 125.751 70.5337 146.13C70.5337 146.282 70.534 146.422 70.5356 146.556C74.085 146.837 77.7232 146.923 81.4341 146.813C82.0257 130.922 95.051 118.265 110.718 118.265C120.091 118.265 128.194 122.552 133.528 129.569C137.026 127.212 140.343 124.698 143.456 122.083C136.163 111.516 124.205 104.648 110.711 104.648ZM60.9497 82.5166C61.807 86.0804 62.2661 89.8065 62.2661 93.6338C62.2661 112.273 51.5009 128.376 35.9136 135.926C44.9269 141.421 55.6278 144.922 67.3921 146.253C67.392 146.213 67.3921 146.172 67.3921 146.13C67.3922 131.179 74.5431 117.916 85.5347 109.813C85.537 109.804 85.539 109.795 85.5415 109.786C87.134 103.951 86.8375 97.5252 84.2759 91.5459L83.9819 90.8838C82.4794 87.6187 80.4257 84.8097 77.9888 82.5166H60.9497ZM6.82764 82.5166C7.23953 104.797 16.4233 121.687 30.9302 132.555C31.5426 133.013 32.1658 133.461 32.7974 133.898C48.2632 127.249 59.1245 111.728 59.1245 93.6338C59.1245 89.793 58.6305 86.0641 57.7124 82.5166H6.82764ZM99.9858 82.5166C100.359 83.2688 100.715 84.0368 101.049 84.8223L101.293 85.4033C103.519 90.7965 104.63 96.3955 104.738 101.931C106.69 101.653 108.684 101.507 110.711 101.507C125.185 101.507 137.987 108.817 145.845 120.018C146.205 119.699 146.564 119.382 146.917 119.061C154.317 112.339 160.352 105.152 164.671 98.4238C168.491 92.4736 170.914 86.9688 171.816 82.5166H99.9858ZM82.3237 82.5166C84.2691 84.7864 85.9123 87.3955 87.1626 90.3076L87.1636 90.3096C89.5438 95.8656 90.1643 101.769 89.2739 107.346C93.0623 105.118 97.2101 103.466 101.607 102.497C101.565 96.994 100.457 91.4146 98.1616 86.0605L98.1606 86.0566C97.6421 84.8381 97.0669 83.6592 96.4468 82.5166H82.3237ZM30.1528 93.4678C32.6663 93.4679 34.7005 95.5268 34.7007 98.0625C34.7005 100.598 32.6664 102.657 30.1528 102.657C27.6392 102.657 25.6042 100.598 25.604 98.0625C25.6042 95.5266 27.6392 93.4678 30.1528 93.4678Z" fill="#000000" fill-opacity="0.3"/>
</svg>
