<svg width="210" height="150" viewBox="0 0 210 150" fill="none" xmlns="http://www.w3.org/2000/svg">
<g clip-path="url(#clip0_1112_10592)">
<path d="M132.883 45.903C132.249 45.7211 131.638 45.3914 131.191 44.8911C130.744 44.3909 130.489 43.7713 130.489 43.1289C130.489 42.4865 130.744 41.8669 131.191 41.3667C131.638 40.8664 132.249 40.5424 132.883 40.3548C135.023 39.7408 137.168 39.1838 139.308 38.6949C142.641 37.9274 145.969 37.3135 149.303 36.8474C148.409 33.4991 146.66 30.4123 144.181 27.9225C140.468 24.1933 135.425 22.0957 130.172 22.0957H124.393C125.955 22.0957 127.223 23.3691 127.223 24.938C127.223 26.507 125.955 27.7804 124.393 27.7804H118.167C119.729 27.7804 120.997 29.0537 120.997 30.6227C120.997 32.1916 119.729 33.465 118.167 33.465H124.393C125.955 33.465 127.223 34.7384 127.223 36.3073C127.223 37.8763 125.955 39.1496 124.393 39.1496H118.167C119.729 39.1496 120.997 40.423 120.997 41.992C120.997 43.5609 119.729 44.8343 118.167 44.8343H124.393C125.955 44.8343 127.223 46.1077 127.223 47.6766C127.223 49.2456 125.955 50.5189 124.393 50.5189H118.167C119.729 50.5189 120.997 51.7923 120.997 53.3613C120.997 54.9302 119.729 56.2036 118.167 56.2036H124.393C125.955 56.2036 127.223 57.4769 127.223 59.0459C127.223 60.6149 125.955 61.8882 124.393 61.8882H130.172C135.425 61.8882 140.462 59.7906 144.181 56.0615C146.117 54.1173 147.605 51.815 148.59 49.3081C145.494 48.8533 142.404 48.2735 139.308 47.5629C137.168 47.0684 135.023 46.5169 132.883 45.903Z" fill="#000000" fill-opacity="0.3"/>
<path d="M118.167 27.7804H124.394C125.956 27.7804 127.224 26.507 127.224 24.938C127.224 23.3691 125.956 22.0957 124.394 22.0957H105.002L106.813 27.7804H118.167Z" fill="#000000" fill-opacity="0.3"/>
<path d="M73.3673 22.0957H63.8301C62.2679 22.0957 61 23.3691 61 24.938C61 26.507 62.2679 27.7804 63.8301 27.7804H75.2182L73.3673 22.0957Z" fill="#000000" fill-opacity="0.3"/>
<path d="M65.5281 56.2031H63.8301C62.2679 56.2031 61 57.4765 61 59.0454C61 60.6144 62.2679 61.8878 63.8301 61.8878H86.3234L84.4725 56.2031H65.5281Z" fill="#000000" fill-opacity="0.3"/>
<path d="M127.223 59.0454C127.223 57.4765 125.955 56.2031 124.393 56.2031H115.869L117.68 61.8878H124.393C125.955 61.8878 127.223 60.6144 127.223 59.0454Z" fill="#000000" fill-opacity="0.3"/>
<path d="M80.7708 44.834H63.8301C62.2679 44.834 61 46.1073 61 47.6763C61 49.2453 62.2679 50.5186 63.8301 50.5186H82.6216L80.7708 44.834Z" fill="#000000" fill-opacity="0.3"/>
<path d="M112.247 44.834L114.058 50.5186H124.393C125.955 50.5186 127.223 49.2453 127.223 47.6763C127.223 46.1073 125.955 44.834 124.393 44.834H112.247Z" fill="#000000" fill-opacity="0.3"/>
<path d="M77.0691 33.4648H63.8301C62.2679 33.4648 61 34.7382 61 36.3072C61 37.8761 62.2679 39.1495 63.8301 39.1495H78.9199L77.0691 33.4648Z" fill="#000000" fill-opacity="0.3"/>
<path d="M108.624 33.4648L110.435 39.1495H124.393C125.955 39.1495 127.223 37.8761 127.223 36.3072C127.223 34.7382 125.955 33.4648 124.393 33.4648H108.624Z" fill="#000000" fill-opacity="0.3"/>
<path d="M263.23 41.241C262.738 40.7294 262.07 40.4281 261.368 40.3599C259.229 40.1553 257.083 39.9563 254.944 39.763C224.962 37.0799 194.986 35.7383 165.005 35.7383C159.769 35.7383 154.539 36.1135 149.303 36.8468C145.97 37.3129 142.642 37.9269 139.308 38.6943C137.168 39.1889 135.023 39.7403 132.883 40.3542C132.25 40.5361 131.638 40.8658 131.191 41.3661C130.744 41.8663 130.489 42.486 130.489 43.1283C130.489 43.7707 130.744 44.3903 131.191 44.8906C131.638 45.3908 132.25 45.7148 132.883 45.9024C135.023 46.5164 137.168 47.0735 139.308 47.5623C142.404 48.2729 145.494 48.8528 148.59 49.3075C154.064 50.1091 159.537 50.5184 165.005 50.5184C194.986 50.5184 224.962 49.1768 254.944 46.4936C257.083 46.3004 259.229 46.1014 261.368 45.8967C262.064 45.8285 262.732 45.5272 263.23 45.0156C263.723 44.504 264 43.8275 264 43.1283C264 42.4291 263.723 41.7526 263.23 41.241Z" fill="#000000" fill-opacity="0.3"/>
<path d="M95.4416 18.1906C95.153 17.2924 95.2039 16.3715 95.5152 15.5529C94.5304 14.0919 92.6739 13.279 90.9192 13.6599C89.1985 14.0351 88.0948 15.4562 88.0835 17.082L104.102 66.2883C104.237 66.7147 104.305 67.141 104.305 67.5503L104.526 68.2325C105.205 70.3245 107.498 71.6433 109.643 71.1771C110.599 70.9668 111.364 70.4325 111.862 69.7219L95.4416 18.1906ZM110.079 67.0217C110.373 67.9198 109.864 68.818 108.941 69.017C108.018 69.2216 107.034 68.6532 106.739 67.7493L90.4834 17.8211C90.1891 16.9229 90.6985 16.0247 91.6211 15.8257C92.5437 15.6268 93.5285 16.1896 93.8229 17.0934L110.079 67.0217Z" fill="#000000" fill-opacity="0.3"/>
<path d="M104.102 66.2882L88.0835 17.0876L88.0099 16.8545C87.2854 14.6261 84.8459 13.222 82.5649 13.7222C80.7933 14.1088 79.6386 15.5356 79.5537 17.1956L95.702 66.7884C95.8548 67.2546 95.9058 67.7207 95.8718 68.1641C96.6246 70.3584 99.0358 71.7341 101.3 71.2395C103.145 70.8359 104.322 69.3067 104.322 67.5559C104.322 67.1409 104.254 66.7202 104.119 66.2939L104.102 66.2882ZM100.581 69.0737C99.5226 69.3067 98.3849 68.653 98.051 67.6184L81.9536 18.179C81.614 17.1444 82.2026 16.1155 83.2667 15.8824C84.3252 15.6493 85.4629 16.3031 85.7968 17.3377L101.894 66.7771C102.234 67.8117 101.645 68.8406 100.587 69.0737H100.581Z" fill="#000000" fill-opacity="0.3"/>
<path d="M95.6908 66.782L79.5425 17.1891L79.2708 16.3591C78.6312 14.4036 76.4917 13.1701 74.488 13.6078C72.4843 14.0455 71.3749 15.9896 72.0145 17.9452L73.3673 22.0893L75.2182 27.7739L77.069 33.4586L78.9199 39.1432L80.7707 44.8279L82.6216 50.5125L84.4724 56.1971L86.3233 61.8818L88.4345 68.368C89.0741 70.3235 91.2136 71.5571 93.2173 71.1193C94.7455 70.784 95.7474 69.5788 95.8606 68.1576C95.8946 67.7142 95.8436 67.2481 95.6908 66.782ZM92.5098 68.9592C91.7287 69.1297 90.891 68.6522 90.642 67.8848L74.2276 17.462C73.9786 16.7002 74.4088 15.9385 75.1955 15.7679C75.9766 15.5974 76.8143 16.0749 77.0634 16.8423L93.4777 67.2652C93.7267 68.0269 93.2966 68.7886 92.5098 68.9592Z" fill="#000000" fill-opacity="0.3"/>
<path d="M114.058 50.5182L112.247 44.8336L110.436 39.1489L108.624 33.4643L106.813 27.7796L105.002 22.095L102.987 15.7679C102.319 13.676 100.089 12.522 98.0059 13.1928C96.8173 13.5737 95.9343 14.4718 95.5155 15.5576C95.2042 16.3762 95.1532 17.2971 95.4419 18.1953L111.862 69.7266L115.807 82.1021V82.1191C117.641 87.9971 119.82 97.1664 120.454 105.506C120.686 108.61 120.697 111.486 120.437 113.97C118.909 109.86 116.814 106.381 114.392 103.63C110.736 99.4744 106.077 96.706 101.396 96.5184C99.0021 96.4217 96.6079 97.0186 94.5476 98.4739C92.4873 99.9235 91.0043 102.055 90.1044 104.619L90.0478 104.79L90.0251 104.858L90.0082 104.926L89.9685 105.102C88.7403 110.815 89.2554 115.801 91.1911 119.922C93.1212 124.026 96.3135 126.954 99.8907 128.807C104.555 131.223 110.158 131.951 115.116 130.979C114.969 135.151 114.233 139.79 112.694 144.855C112.054 146.958 113.232 149.181 115.326 149.823C117.42 150.466 119.633 149.283 120.273 147.18C122.475 139.932 123.273 133.275 123.029 127.329C125.723 124.925 127.116 121.457 127.829 118.023C128.655 114.038 128.706 109.445 128.361 104.898C127.671 95.7794 125.327 85.9904 123.38 79.7373V79.7259L123.375 79.7145L117.692 61.8761L115.881 56.1915L114.069 50.5068L114.058 50.5182ZM121.207 80.4138V80.4251C123.12 86.5702 125.424 96.183 126.091 105.079C126.425 109.525 126.363 113.879 125.599 117.569C124.897 120.945 123.556 124.004 121.15 125.942L120.697 126.306L120.726 126.886C121.031 132.69 120.295 139.273 118.094 146.515C117.822 147.419 116.871 147.925 115.971 147.646C115.077 147.373 114.567 146.418 114.845 145.52L115.009 144.974C116.673 139.335 117.386 134.179 117.397 129.546V128.057L115.971 128.449C111.228 129.739 105.54 129.182 100.921 126.789C97.7172 125.129 94.9211 122.543 93.2288 118.956C91.5364 115.357 91.027 110.895 92.1703 105.585L92.193 105.477L92.2269 105.381C92.9967 103.186 94.225 101.475 95.8324 100.338C97.4456 99.2015 99.336 98.7126 101.294 98.7922C105.16 98.9457 109.287 101.271 112.683 105.136C115.648 108.513 118.145 113.135 119.554 118.848L120.499 122.673L121.727 118.927C121.931 118.302 122.112 117.614 122.271 116.869C122.944 113.618 123.024 109.621 122.701 105.335C122.061 96.8538 119.865 87.5992 118.014 81.6075L97.5984 17.5018C97.3154 16.6036 97.8021 15.6429 98.6964 15.3587C99.5907 15.0744 100.547 15.5633 100.83 16.4615L121.207 80.4081V80.4194V80.4138Z" fill="#000000" fill-opacity="0.3"/>
<path d="M110.147 107.393C107.141 103.971 103.819 102.306 101.17 102.198C99.8681 102.147 98.7304 102.465 97.7965 103.124C96.8965 103.761 96.0815 104.784 95.5098 106.325L95.4815 106.404L95.4645 106.49C94.508 111.1 95.0117 114.721 96.3135 117.489C97.638 120.303 99.8455 122.384 102.489 123.748C106.955 126.062 112.354 126.227 116.288 124.76L117.143 124.442L117.018 123.538C116.033 116.466 113.328 110.998 110.153 107.388L110.147 107.393ZM103.887 121.918L103.519 121.736C101.255 120.565 99.4323 118.825 98.3512 116.529C97.2984 114.289 96.806 111.208 97.6493 107.047C98.0852 105.921 98.6285 105.313 99.087 104.989C99.5738 104.648 100.208 104.437 101.074 104.472C102.913 104.545 105.698 105.773 108.443 108.9C111.166 111.998 113.594 116.716 114.618 122.924C111.471 123.816 107.379 123.606 103.881 121.923L103.887 121.918Z" fill="#000000" fill-opacity="0.3"/>
</g>
<defs>
<clipPath id="clip0_1112_10592">
<rect width="203" height="137" fill="#000000" transform="translate(61 13)"/>
</clipPath>
</defs>
</svg>
