<svg width="210" height="150" viewBox="0 0 210 150" fill="none" xmlns="http://www.w3.org/2000/svg">
<g clip-path="url(#clip0_1121_4556)">
<path d="M92.4902 28.1357C95.1273 23.2117 98.0876 21.3275 99.7436 20.9575L99.7833 20.9461L99.823 20.9347C101.224 20.5135 102.273 20.6102 103.067 20.9461C103.878 21.2877 104.553 21.9309 105.108 22.7961C106.163 24.4583 106.645 26.7638 106.742 28.5228L106.759 28.87L106.861 32.7636L109.112 32.0805L109.027 28.8017L109.01 28.4089C108.897 26.4165 108.364 23.6842 107.02 21.5666C106.294 20.4224 105.296 19.4091 103.946 18.8399C102.591 18.2707 101.008 18.2023 99.2049 18.7374C96.6699 19.3124 93.2842 21.8227 90.4827 27.0484C89.0762 29.6726 87.8059 33.0027 86.8418 37.181C87.5677 37.5681 88.2482 38.0348 88.8607 38.5813C89.8021 34.1583 91.0895 30.7257 92.4789 28.13L92.4902 28.1357Z" fill="#000000" fill-opacity="0.3"/>
<path d="M107.099 41.5246L109.351 40.8415L109.237 36.4697L106.986 37.1528L107.099 41.5246Z" fill="#000000" fill-opacity="0.3"/>
<path d="M108.801 105.764H111.069L109.929 62.7002L107.678 63.3833L108.801 105.764Z" fill="#000000" fill-opacity="0.3"/>
<path d="M107.564 59.0119L109.815 58.3288L109.696 53.957L107.445 54.6401L107.564 59.0119Z" fill="#000000" fill-opacity="0.3"/>
<path d="M107.332 50.2688L109.583 49.5857L109.47 45.2139L107.218 45.897L107.332 50.2688Z" fill="#000000" fill-opacity="0.3"/>
<path d="M49.9398 87.2973C50.093 81.491 50.558 77.0908 51.2612 73.6696C51.9814 70.1574 52.9512 67.6982 54.0684 65.797C55.18 63.9014 56.473 62.5181 57.9191 61.1747C60.5051 58.7725 63.0912 58.0325 65.3823 58.3854C67.6961 58.7383 69.9079 60.2411 71.6319 62.706C72.8115 64.3966 73.872 66.0303 74.8077 67.5958C73.6565 69.2693 72.5506 71.2959 71.5185 73.7095C69.7548 77.8137 68.337 83.7794 68.7113 88.7546C68.8984 91.2422 69.5449 93.6216 70.9627 95.3749C72.4145 97.1794 74.5752 98.1984 77.4618 98.1244C77.4732 98.1244 77.4845 98.1244 77.4902 98.1244C79.1972 98.113 80.7851 97.0314 81.9136 95.318C83.0535 93.5818 83.8021 91.0999 83.8759 87.9804C83.9893 82.9426 82.3333 76.1401 77.5242 67.7324C80.252 64.2657 83.0195 63.1101 85.339 63.0589C85.8607 69.1498 87.0233 73.2711 88.4354 75.9864C90.5451 80.0281 93.4487 81.2292 95.6605 80.4379C95.8873 80.3582 96.4261 80.1533 96.9535 79.6695C97.4979 79.1685 97.9799 78.4228 98.2011 77.3355C98.6208 75.235 98.031 71.9733 95.2521 66.7248C93.9705 64.3112 91.0839 61.6984 87.46 60.9754C87.3636 59.3531 87.3126 57.5884 87.3069 55.6758C86.6037 56.097 85.8437 56.4329 85.0441 56.672C85.0611 58.1235 85.1008 59.4954 85.1745 60.7876C82.2142 60.8844 79.1461 62.3132 76.2879 65.6603C75.4372 64.2828 74.5072 62.8596 73.4863 61.3967C71.5015 58.5562 68.7907 56.6036 65.7226 56.1312C62.6261 55.6587 59.3652 56.7175 56.3766 59.5011C54.8454 60.9242 53.3822 62.4783 52.1175 64.6357C50.8529 66.7931 49.8037 69.497 49.0438 73.2028C48.3066 76.8005 47.8245 81.3658 47.6714 87.3315C48.1194 87.2859 48.5731 87.2575 49.0325 87.2575C49.3387 87.2575 49.6393 87.2746 49.9398 87.2916V87.2973ZM93.2502 67.795C95.9667 72.9239 96.2389 75.588 95.978 76.8858C95.8533 77.5006 95.6094 77.8194 95.4223 77.9902C95.2238 78.1723 95.0253 78.252 94.9062 78.2919C94.203 78.5423 92.2918 78.457 90.4487 74.9276C89.2464 72.6222 88.1689 68.962 87.6472 63.3606C90.2218 64.0892 92.3145 66.0133 93.2559 67.795H93.2502ZM81.6017 87.9349C81.5393 90.7356 80.8702 92.7678 80.0138 94.0657C79.1518 95.3806 78.1764 95.8474 77.4561 95.8474H77.4278C75.148 95.91 73.6905 95.1415 72.7264 93.9404C71.717 92.6881 71.1442 90.8323 70.974 88.5781C70.6338 84.064 71.9438 78.474 73.5998 74.6032C74.4051 72.7304 75.2331 71.1422 76.0724 69.7931C80.3201 77.5006 81.6925 83.5859 81.5961 87.9292L81.6017 87.9349Z" fill="#000000" fill-opacity="0.3"/>
<path d="M99.8175 63.5658C100.158 64.6816 101.326 65.3077 102.443 64.9776L107.683 63.3894L107.57 59.0176L101.23 60.9416C100.112 61.2832 99.4886 62.4558 99.8232 63.5715L99.8175 63.5658Z" fill="#000000" fill-opacity="0.3"/>
<path d="M92.5074 39.3331C92.8477 40.4488 94.016 41.075 95.1332 40.7448L106.986 37.1529L106.872 32.7754L93.9195 36.7032C92.8023 37.0447 92.1785 38.2174 92.5131 39.3331H92.5074Z" fill="#000000" fill-opacity="0.3"/>
<path d="M94.9459 47.4104C95.2862 48.5261 96.4544 49.1523 97.5716 48.8221L107.218 45.8962L107.105 41.5244L96.358 44.7805C95.2408 45.122 94.617 46.2947 94.9516 47.4104H94.9459Z" fill="#000000" fill-opacity="0.3"/>
<path d="M98.7853 52.8586C97.6681 53.2002 97.0442 54.3728 97.3788 55.4885C97.7191 56.6042 98.8874 57.2304 100.005 56.9003L101.213 56.5302L107.451 54.6404L107.337 50.2686L99.9932 52.4943L98.7853 52.8643V52.8586Z" fill="#000000" fill-opacity="0.3"/>
<path d="M240.921 8.43462C240.768 7.93937 240.427 7.52382 239.962 7.26766C239.497 7.0115 238.958 6.94319 238.454 7.04566C236.889 7.36443 235.318 7.68321 233.752 8.01337C211.833 12.5787 190.209 18.0947 168.863 24.5613C165.137 25.6941 161.485 27.0888 157.912 28.7396C156.563 26.5537 154.663 24.7321 152.366 23.4968C148.924 21.6525 144.886 21.2483 141.143 22.3811L137.037 23.6221L109.129 32.0867L109.243 36.4642L131.604 29.6845L133.821 29.0128C134.939 28.6713 136.107 29.3031 136.447 30.4245C136.787 31.5403 136.158 32.7129 135.041 33.0545L132.625 33.7888L109.362 40.836L109.475 45.2078L133.64 37.8817L136.26 37.0904C137.377 36.7489 138.546 37.3807 138.886 38.5021C139.226 39.6178 138.597 40.7905 137.479 41.132L134.655 41.9859L109.594 49.5796L109.708 53.9514L135.665 46.0788L138.693 45.1623C139.81 44.8264 140.978 45.4526 141.319 46.574C141.659 47.6897 141.029 48.8624 139.912 49.2039L136.691 50.183L109.821 58.3232L109.935 62.695L137.706 54.2759L149.678 50.6441C153.421 49.5113 156.557 46.9383 158.4 43.4773C159.364 41.6785 159.914 39.7203 160.084 37.728C164.156 37.1189 168.143 36.2308 172.034 35.0411C193.38 28.5688 214.431 21.1515 235.199 12.7723C236.679 12.1746 238.165 11.5712 239.645 10.9621C240.132 10.7628 240.541 10.4042 240.779 9.93742C241.023 9.46495 241.068 8.92417 240.926 8.42892L240.921 8.43462Z" fill="#000000" fill-opacity="0.3"/>
<path d="M107.564 59.0122L107.677 63.384L109.929 62.7009L109.815 58.3291L107.564 59.0122Z" fill="#000000" fill-opacity="0.3"/>
<path d="M107.445 54.6399L109.696 53.9568L109.583 49.585L107.332 50.2681L107.445 54.6399Z" fill="#000000" fill-opacity="0.3"/>
<path d="M106.986 37.1534L109.237 36.4703L109.118 32.0928L106.867 32.7759L106.986 37.1534Z" fill="#000000" fill-opacity="0.3"/>
<path d="M107.218 45.8967L109.47 45.2136L109.351 40.8418L107.099 41.5249L107.218 45.8967Z" fill="#000000" fill-opacity="0.3"/>
<path d="M61.7923 99.7871C61.7923 93.1725 56.5635 87.7532 49.9396 87.2979C49.8092 92.3072 49.9056 98.3697 50.2912 105.764H60.2497C61.2365 103.988 61.7923 101.95 61.7923 99.7871Z" fill="#000000" fill-opacity="0.3"/>
<path d="M47.6714 87.3379C41.2631 88.0039 36.2725 93.3263 36.2725 99.7873C36.2725 101.95 36.8339 103.988 37.815 105.764H48.0174C47.6431 98.4439 47.5353 92.3871 47.6658 87.3379H47.6714Z" fill="#000000" fill-opacity="0.3"/>
<path d="M48.0173 105.764H50.2858C49.9002 98.3696 49.8037 92.3129 49.9342 87.2978C49.6336 87.2751 49.333 87.2637 49.0268 87.2637C48.5674 87.2637 48.1138 87.2864 47.6657 87.3377C47.5353 92.3926 47.6374 98.4436 48.0173 105.764Z" fill="#000000" fill-opacity="0.3"/>
<path d="M92.4163 46.5622C92.4163 43.3744 91.0382 40.5225 88.8662 38.5928C88.0325 42.4921 87.4711 47.1599 87.3407 52.7385C87.318 53.7575 87.3066 54.7309 87.3066 55.6758C90.3577 53.8542 92.4163 50.4615 92.4163 46.5622Z" fill="#000000" fill-opacity="0.3"/>
<path d="M85.0724 52.6874C85.2142 46.5566 85.8721 41.4391 86.8475 37.1925C85.4524 36.4582 83.8815 36.0312 82.2085 36.0312C76.5714 36.0312 72.0005 40.7446 72.0005 46.5623C72.0005 52.38 76.5714 57.0933 82.2085 57.0933C83.1953 57.0933 84.1424 56.9396 85.0497 56.6721C85.0384 55.4027 85.0441 54.082 85.0724 52.6874Z" fill="#000000" fill-opacity="0.3"/>
<path d="M87.3409 52.7385C87.4714 47.1542 88.0385 42.4864 88.8665 38.5927C88.254 38.0462 87.5791 37.5795 86.8476 37.1924C85.8665 41.4389 85.2143 46.5565 85.0725 52.6872C85.0385 54.0819 85.0328 55.4082 85.0498 56.6719C85.8494 56.4329 86.6037 56.097 87.3126 55.6758C87.3126 54.7308 87.3183 53.7574 87.3466 52.7385H87.3409Z" fill="#000000" fill-opacity="0.3"/>
<path d="M54.5332 144.939C54.5332 147.734 56.7903 150 59.5692 150H100.838C103.622 150 105.88 147.734 105.88 144.939H54.5332Z" fill="#000000" fill-opacity="0.3"/>
<path d="M117.041 140.255H43.3784V142.532H117.041V140.255Z" fill="#000000" fill-opacity="0.3"/>
<path d="M58.6277 108.041H108.863L108.8 105.764H60.244C59.7903 106.583 59.2402 107.346 58.6221 108.041H58.6277Z" fill="#000000" fill-opacity="0.3"/>
<path d="M110.661 108.041H140.156V117.655C139.833 130.179 129.597 140.254 117.046 140.254V142.531C131.054 142.531 142.425 131.112 142.425 117.058V106.965C142.425 106.305 141.892 105.77 141.234 105.77H111.075L111.137 108.035L110.666 108.047L110.661 108.041Z" fill="#000000" fill-opacity="0.3"/>
<path d="M20.2685 117.052V108.041H39.4425C38.8187 107.346 38.2743 106.583 37.8206 105.764H19.1909C18.5331 105.764 18 106.304 18 106.959V117.052C18 131.118 29.3763 142.526 43.3783 142.526V140.249C30.6239 140.249 20.2685 129.854 20.2685 117.052Z" fill="#000000" fill-opacity="0.3"/>
<path d="M108.863 108.041H110.66L111.131 108.029L111.069 105.764H108.8L108.863 108.041Z" fill="#000000" fill-opacity="0.3"/>
<path d="M58.6281 108.041C59.2519 107.346 59.7963 106.583 60.25 105.764H50.2915C50.3312 106.509 50.3709 107.266 50.4163 108.041H58.6281Z" fill="#000000" fill-opacity="0.3"/>
<path d="M48.1421 108.041C48.0967 107.266 48.057 106.509 48.0173 105.764H37.8149C38.2686 106.583 38.8187 107.346 39.4369 108.041H48.1421Z" fill="#000000" fill-opacity="0.3"/>
<path d="M50.2914 105.764H48.0229C48.0626 106.509 48.1023 107.266 48.1477 108.041H50.4218C50.3765 107.266 50.3368 106.509 50.2971 105.764H50.2914Z" fill="#000000" fill-opacity="0.3"/>
</g>
<defs>
<clipPath id="clip0_1121_4556">
<rect width="223" height="143" fill="#000000" transform="translate(18 7)"/>
</clipPath>
</defs>
</svg>
