<svg width="192" height="152" viewBox="0 0 192 152" fill="none" xmlns="http://www.w3.org/2000/svg">
<path d="M72.9761 135.026C68.5989 133.096 66.0055 131.029 64.284 127.399C61.3043 121.121 58.0959 111.195 63.682 105.163C67.7151 100.811 72.0792 97.4825 75.5885 95.165C79.8684 92.3419 82.3665 87.4902 82.1739 82.3676C81.8849 74.8673 87.3025 68.282 94.7425 67.3069C95.9525 67.1504 97.1865 67.0781 98.4024 67.1383C106.426 67.5296 137.987 91.9868 153.848 106.777C169.709 121.567 179.323 124.613 186.052 129.891C189.592 133.096 192.583 136.79 186.528 141.846C180.478 146.897 157.736 152.302 125.49 148.973C110.405 147.414 82.4086 138.096 72.9821 135.032L72.9761 135.026Z" stroke="#000000" stroke-opacity="0.3" stroke-width="4" stroke-miterlimit="10"/>
<path d="M58.1619 40.6577C51.8113 42.2408 46.8874 47.7787 45.214 54.1473C43.5406 60.522 44.8769 67.5347 48.0732 73.4037C50.0657 77.0696 53.0634 81.0725 56.5186 84.1063C57.4576 84.931 57.6864 86.3095 57.0664 87.399C54.9776 91.0829 53.563 93.9964 53.4486 94.2371C53.4486 94.2492 53.4366 94.2612 53.4366 94.2732L52.7865 96.1634C51.2515 100.654 52.028 105.608 54.8692 109.406C55.0438 109.635 55.405 109.521 55.411 109.232C55.4592 106.342 56.1875 97.3191 63.152 93.876C71.5011 89.7466 74.8298 88.4223 76.2384 81.9152C77.5627 75.7934 75.4017 73.2652 78.3332 69.7739C78.5198 69.5512 78.3332 69.2201 78.0503 69.2803C76.0458 69.6836 71.2121 70.7431 69.1474 71.959C67.1429 73.1388 64.994 75.4804 62.9534 78.2133C62.4177 78.9296 61.4365 79.1583 60.6539 78.7189C55.098 75.5948 50.3606 69.9184 49.6985 63.5739C48.946 56.3625 51.6548 49.6207 58.0716 45.9187C59.2574 45.2325 60.5095 44.6004 61.8639 44.3296C63.2905 44.0406 64.9699 44.2152 66.3905 44.5041C68.6659 44.9616 71.2783 46.1956 71.5191 48.802C71.6275 49.9698 71.0015 51.1436 70.0745 51.7817C69.31 52.3054 69.2257 53.413 69.8638 54.1172C70.3754 54.6831 71.3686 54.9901 71.8382 54.4122C79.9223 44.4861 66.6554 38.5388 58.1559 40.6577H58.1619Z" fill="#000000" fill-opacity="0.3"/>
</svg>
