<svg width="185" height="80" viewBox="0 0 185 80" fill="none" xmlns="http://www.w3.org/2000/svg">
<path d="M24.45 26.5368C24.2664 26.8991 24.1287 27.2614 23.9451 27.5783C24.1746 27.6236 24.4041 27.6689 24.6795 27.7142C25.6434 27.8953 26.699 27.9859 27.8006 28.0312C28.2137 28.0312 28.6267 28.0312 28.9939 28.0312C29.3611 27.6689 29.6824 27.2614 30.0037 26.8538C29.3152 26.8991 28.5808 26.8991 27.8006 26.8991C26.7908 26.8991 25.7811 26.8085 24.909 26.6274C24.7713 26.6274 24.6336 26.5821 24.4959 26.5368M9.25775 23.0953C9.16596 22.7331 9.07416 22.3255 9.02826 21.9632C8.0644 22.0538 7.14644 22.1897 6.27438 22.4161C5.12693 22.7331 4.07127 23.1406 3.06151 23.6387C3.19921 24.001 3.3828 24.318 3.56639 24.6802C4.53025 24.2274 5.49411 23.8198 6.54977 23.5029C7.42183 23.2764 8.33979 23.1406 9.25775 23.05V23.0953ZM22.8895 29.2085C22.7059 29.4349 22.4764 29.7066 22.2928 29.8878C23.0272 30.1595 23.7615 30.4312 24.6336 30.567C24.909 30.6123 25.1844 30.6576 25.5057 30.7029C25.9188 30.4765 26.3318 30.2048 26.699 29.9331C26.0565 29.8878 25.368 29.7972 24.8172 29.7066C24.1287 29.5708 23.4862 29.3897 22.8895 29.1632V29.2085ZM10.1298 25.9029C10.038 25.6312 9.90033 25.3142 9.80853 25.0425H9.76263C8.56928 25.0425 7.37593 25.2236 6.27438 25.5406C5.6318 25.7217 4.98923 25.9481 4.39256 26.1746C4.57615 26.401 4.71384 26.6727 4.89744 26.8991C5.40231 26.718 5.90719 26.5368 6.45797 26.3557C7.46773 26.084 8.61518 25.9481 9.71673 25.9029C9.85443 25.9029 9.94623 25.9029 10.0839 25.9029H10.1298ZM21.1454 30.9293C21.1454 30.9293 20.7782 31.201 20.5946 31.2915C21.1454 31.5632 21.6961 31.8349 22.2469 32.0614C22.5223 31.9708 22.8436 31.8802 23.119 31.7897C22.4305 31.518 21.8338 31.2463 21.1454 30.9293ZM11.2773 28.2123C11.2773 28.2123 11.0478 27.8048 10.9101 27.6236C10.5888 27.6236 10.2675 27.6236 9.90033 27.6236C8.70698 27.6236 7.51363 27.8048 6.45797 28.1217C6.32028 28.1217 6.18258 28.2123 6.04489 28.2576C6.18258 28.3934 6.36617 28.5746 6.50387 28.7104H6.59566C7.65132 28.3934 8.75287 28.2576 9.90033 28.2123C10.3134 28.2123 10.7724 28.2123 11.2314 28.2123H11.2773ZM18.8046 31.9708C18.8046 31.9708 18.3915 32.0614 18.2079 32.0614C18.5751 32.2425 18.9881 32.4236 19.3094 32.6048C19.5389 32.6048 19.7225 32.5595 19.952 32.5142L19.7225 32.4236C19.4471 32.2878 19.1258 32.1519 18.8046 31.9708ZM13.0214 30.3406C13.0214 30.3406 12.746 30.0689 12.6083 29.9331C11.6445 29.7972 10.7265 29.7519 9.76263 29.7519C9.16596 29.7519 8.61518 29.7972 8.01851 29.8878C8.1562 29.9783 8.29389 30.0689 8.43159 30.2048C8.84467 30.1595 9.30365 30.1142 9.76263 30.1142C10.8183 30.1142 11.9198 30.1595 13.0214 30.3859V30.3406ZM8.70698 12.5444C9.48724 6.11418 12.4247 0.589656 17.4276 0.589656C23.7157 0.589656 26.6531 9.284 26.3318 17.5255C27.158 17.6161 27.8924 17.6161 28.4891 17.6161C29.1316 17.6161 29.6365 17.5255 30.1414 17.4802C30.5545 17.4349 31.0593 17.3444 31.6101 17.2085C32.115 17.0727 32.6658 16.9368 33.2625 16.7104C33.446 8.42362 28.1219 0.000976562 17.3817 0.000976562C7.51363 0.000976562 2.18945 7.11041 1.54687 14.718H1.63867C2.00586 14.5368 2.32714 14.3557 2.69433 14.2198C4.62205 13.3595 6.32028 12.5897 8.66108 12.5444H8.70698ZM25.5975 23.1859C26.2859 23.2764 27.0203 23.3217 27.7547 23.367C28.9021 23.367 30.0037 23.367 30.8758 23.2312C31.3806 23.1859 31.7937 23.0953 32.115 23.0048C31.8396 23.684 31.5642 24.318 31.197 24.9519H31.0593C30.1414 25.0878 28.948 25.1331 27.7088 25.0878C26.8367 25.0878 25.9188 24.9972 25.0926 24.8614C25.2762 24.318 25.4139 23.7746 25.5975 23.1859ZM2.00586 20.6048C3.291 19.9255 4.62205 19.2915 6.18258 18.884C6.91695 18.7029 7.74312 18.5217 8.56928 18.4764C8.56928 19.0651 8.66108 19.6085 8.75287 20.1972C8.01851 20.2878 7.33003 20.3783 6.64156 20.5595C5.17282 20.967 3.79588 21.601 2.51073 22.3255C2.32714 21.7821 2.14355 21.1934 2.00586 20.6048ZM26.24 19.3821C26.7449 19.4274 27.2498 19.4727 27.7547 19.4727C28.8562 19.4727 29.9578 19.4727 30.8299 19.3368C31.5642 19.2463 32.0691 19.1104 32.4822 18.9746C32.7576 18.884 32.9871 18.7934 33.1707 18.6576C33.0789 19.5632 32.8953 20.4689 32.6199 21.3293C32.2068 21.4651 31.7019 21.5557 31.0593 21.601C30.1414 21.7368 28.9021 21.7821 27.6629 21.7368C27.0662 21.7368 26.4695 21.6915 25.8729 21.6463C26.0106 20.9217 26.1024 20.1519 26.1941 19.3821H26.24ZM1.50098 16.9368C1.95996 16.6651 2.41894 16.4387 2.92382 16.2123C3.88768 15.7142 4.94333 15.3066 6.04489 15.0349C6.82515 14.8538 7.65132 14.6727 8.47749 14.5821C8.47749 15.3519 8.43159 16.1217 8.43159 16.8915C7.83491 16.9821 7.23824 17.0727 6.64156 17.2538C5.6777 17.5255 4.80564 17.8878 3.93358 18.2953C3.19921 18.6576 2.46484 19.0651 1.73047 19.4727C1.59277 18.6576 1.50098 17.7972 1.50098 16.9368Z" fill="#ffffff"/>
<path d="M126.387 18.7039C125.102 17.3001 123.266 16.1228 120.833 15.2171L118.63 14.402C116.611 13.6322 115.004 12.7265 113.857 11.7303C112.618 10.6888 112.067 9.23974 112.067 7.47371C112.067 5.70767 112.709 4.30389 113.857 3.2171C115.05 2.13031 116.748 1.6322 118.906 1.6322C120.283 1.6322 121.522 1.94918 122.623 2.53786C123.725 3.12654 124.597 4.0322 125.377 5.20956C125.882 5.97937 126.249 6.74918 126.617 7.79069L126.433 3.35295C125.79 2.90012 124.918 2.53786 123.725 2.17559C122.394 1.76805 120.833 1.58691 118.997 1.58691C117.162 1.58691 115.463 1.9039 113.995 2.53786C112.526 3.17182 111.333 3.98691 110.46 5.07371C109.588 6.20578 109.175 7.56427 109.175 9.23974C109.175 11.1869 109.818 12.8624 110.965 14.1756C112.205 15.5794 114.086 16.7114 116.473 17.5718L118.722 18.3869C120.925 19.202 122.578 20.153 123.633 21.285C124.735 22.4171 125.286 23.8662 125.286 25.5869C125.286 27.4888 124.597 29.0737 123.266 30.2511C121.935 31.4284 120.237 31.9718 118.217 31.9718C116.703 31.9718 115.234 31.6548 113.903 31.0209C112.572 30.3869 111.47 29.436 110.506 28.168C109.91 27.3982 109.359 26.4473 108.992 25.4058L109.175 29.8888C109.726 30.2511 110.369 30.568 111.149 30.8397C112.067 31.1567 113.031 31.4737 114.224 31.7001C115.417 31.9265 116.703 32.0171 118.171 32.0171C119.548 32.0171 120.833 31.7907 122.073 31.3831C123.312 30.9756 124.322 30.3869 125.286 29.7077C126.203 28.9831 126.892 28.1228 127.443 27.0813C127.948 26.085 128.223 24.953 128.223 23.685C128.223 21.7379 127.626 19.9718 126.433 18.6586" fill="#ffffff"/>
<path d="M113.996 31.3797H113.858C113.169 31.0174 112.573 30.6099 111.976 30.1118C111.379 29.6137 110.829 29.025 110.37 28.391C110.048 27.9835 109.727 27.5306 109.452 27.0325L109.36 26.8514L109.452 29.7948C109.452 29.7948 109.911 30.0665 110.186 30.2023C110.507 30.3382 110.874 30.474 111.242 30.6099C111.701 30.7457 112.16 30.9269 112.665 31.0627C113.078 31.1986 113.491 31.2891 113.95 31.3797M122.533 2.21744L122.716 2.308C123.267 2.62499 123.818 2.98725 124.277 3.48536C124.736 3.93819 125.195 4.48159 125.562 5.07027C125.791 5.43253 126.021 5.84008 126.204 6.20234L126.113 3.48536C125.837 3.30423 125.516 3.1231 125.149 2.98725C124.69 2.80612 124.185 2.62499 123.634 2.44385C123.313 2.35329 122.946 2.26272 122.533 2.17215V2.21744ZM124.185 16.4816C125.149 17.0703 125.975 17.7495 126.618 18.474C127.26 19.1533 127.719 19.9684 128.04 20.8288C128.362 21.7344 128.499 22.6854 128.499 23.7269C128.499 24.3608 128.408 24.9948 128.316 25.5835C128.178 26.1722 127.994 26.7608 127.719 27.2589C127.444 27.8023 127.122 28.3005 126.709 28.7533C126.342 29.2061 125.929 29.6137 125.47 29.9759C124.965 30.3382 124.46 30.7005 123.91 30.9722C123.359 31.2439 122.762 31.5156 122.165 31.742C121.523 31.9684 120.88 32.1042 120.192 32.2401C119.549 32.3306 118.861 32.4212 118.172 32.4212C117.438 32.4212 116.749 32.4212 116.107 32.3306C115.464 32.2854 114.822 32.1948 114.225 32.1042C113.628 32.0137 113.078 31.8778 112.573 31.6967C112.068 31.5608 111.563 31.3797 111.104 31.2439C110.691 31.108 110.324 30.9722 109.957 30.791C109.635 30.6099 109.314 30.474 109.039 30.2476L108.901 30.1571L108.717 25.2212H109.268L109.36 25.4023C109.543 25.9005 109.773 26.3533 110.002 26.7608C110.278 27.2137 110.553 27.6665 110.874 28.074C111.333 28.708 111.838 29.2514 112.435 29.7042C112.986 30.1571 113.537 30.5193 114.179 30.8363C114.822 31.1533 115.464 31.3797 116.153 31.5156C116.841 31.6514 117.576 31.742 118.31 31.742C119.32 31.742 120.192 31.6061 121.018 31.3344C121.844 31.0627 122.533 30.6552 123.175 30.1118C123.818 29.5231 124.323 28.8891 124.644 28.1193C124.965 27.3948 125.149 26.5344 125.149 25.6288C125.149 24.8137 125.011 24.0439 124.736 23.3646C124.46 22.6854 124.047 22.0514 123.542 21.508C122.992 20.9646 122.349 20.4665 121.523 19.9684C120.743 19.5156 119.779 19.0627 118.723 18.7005L116.474 17.8854C115.235 17.4325 114.133 16.9344 113.169 16.3457C112.251 15.7571 111.471 15.1231 110.829 14.3986C110.232 13.7193 109.727 12.9042 109.406 12.0439C109.084 11.1835 108.947 10.2778 108.947 9.28159C108.947 8.42121 109.039 7.6514 109.268 6.92687C109.498 6.20234 109.819 5.56838 110.278 4.9797C110.737 4.39102 111.242 3.89291 111.884 3.48536C112.481 3.03253 113.169 2.67027 113.95 2.35329C114.73 2.03631 115.51 1.80989 116.382 1.62876C117.254 1.44763 118.126 1.40234 119.09 1.40234C120.054 1.40234 120.88 1.44763 121.706 1.53819C122.533 1.62876 123.267 1.76461 123.91 1.99102C124.506 2.17216 125.057 2.35329 125.516 2.53442C125.975 2.71555 126.388 2.94197 126.709 3.16838L126.847 3.25895C126.893 4.88914 126.985 6.51932 127.031 8.14951H126.48V7.96838C126.25 7.47027 126.067 7.01744 125.837 6.60989C125.654 6.20234 125.424 5.84008 125.195 5.47782C124.828 4.93442 124.414 4.39102 123.955 3.98348C123.496 3.53065 123.037 3.16838 122.533 2.89668C122.028 2.62499 121.431 2.39857 120.834 2.26272C120.238 2.12687 119.595 2.03631 118.953 2.03631C117.897 2.03631 116.933 2.17216 116.153 2.44385C115.373 2.71555 114.684 3.07782 114.133 3.57593C113.582 4.07404 113.123 4.66272 112.848 5.34197C112.573 6.02121 112.435 6.74574 112.435 7.56083C112.435 8.37593 112.573 9.19102 112.848 9.87027C113.123 10.5495 113.537 11.0929 114.133 11.591C114.73 12.0891 115.418 12.5872 116.245 13.0401C117.025 13.4476 117.851 13.8552 118.815 14.2174L121.018 15.0325C122.257 15.4854 123.313 15.9835 124.231 16.5722L124.185 16.4816ZM126.159 18.8816C125.516 18.2023 124.736 17.5684 123.818 16.9797C122.9 16.4363 121.89 15.8929 120.697 15.4854L118.494 14.6703C117.484 14.308 116.612 13.9005 115.831 13.4476C114.959 12.9948 114.225 12.4514 113.628 11.9533C112.986 11.4099 112.527 10.7759 112.206 10.0061C111.884 9.23631 111.701 8.37593 111.701 7.47027C111.701 6.56461 111.884 5.74951 112.16 5.02499C112.481 4.25517 112.94 3.62121 113.582 3.03253L113.674 2.94197C113.078 3.21366 112.573 3.48536 112.068 3.84763C111.517 4.25517 111.012 4.708 110.599 5.2514C110.186 5.7948 109.911 6.38348 109.681 7.01744C109.498 7.69668 109.406 8.42121 109.406 9.19102C109.406 10.142 109.543 11.0023 109.819 11.7722C110.094 12.5872 110.553 13.3118 111.104 13.9457C111.701 14.625 112.435 15.2137 113.307 15.7571C114.225 16.3457 115.327 16.7986 116.52 17.2514L118.769 18.0665C119.871 18.474 120.834 18.9269 121.661 19.425C122.533 19.9231 123.221 20.4665 123.772 21.0552C124.323 21.6439 124.782 22.3231 125.103 23.0929C125.378 23.8627 125.562 24.6778 125.562 25.5835C125.562 26.5797 125.378 27.4854 125.011 28.3005C124.644 29.1156 124.139 29.8401 123.405 30.474H123.359H123.496C124.001 30.2023 124.506 29.8854 124.965 29.5231C125.378 29.2061 125.791 28.7986 126.113 28.391C126.48 27.9835 126.755 27.4854 127.031 26.9872C127.26 26.5344 127.444 25.991 127.581 25.4476C127.719 24.9042 127.765 24.3155 127.765 23.7269C127.765 22.7759 127.627 21.8703 127.306 21.0552C127.031 20.2401 126.572 19.5156 126.021 18.8816H126.159Z" fill="#ffffff"/>
<path d="M101.423 1.49743H94.8594V1.8597C96.2822 2.35781 96.3281 3.58045 96.4199 5.12007V28.622C96.3281 30.1616 96.2822 31.3842 94.8594 31.8823V32.2446H101.423V31.8823C100 31.3842 99.9541 30.1616 99.8623 28.622V5.07479C99.9541 3.53517 100 2.31253 101.423 1.81441V1.45215V1.49743Z" fill="#ffffff"/>
<path d="M57.909 22.4159C59.5613 22.3253 60.6629 20.9668 61.5808 19.9253L61.4431 19.6536C60.5252 20.6046 59.0105 20.4234 56.8533 19.88L49.6014 1.49512H47.2147L36.5664 28.7555C35.832 30.2045 34.1338 31.3366 32.5273 31.8347V32.197H39.0908V31.8347C37.9892 31.3819 37.0713 30.2498 37.3925 28.8461L39.458 23.5479C41.6152 18.0687 47.995 19.7895 53.411 21.6913L54.1453 21.963L56.9451 29.0725C57.45 30.3857 57.6336 31.3819 56.4402 31.8347V32.197H63.0496V31.8347C61.489 31.3819 60.8465 30.2951 60.2957 28.8461L57.8172 22.4159H57.909ZM47.1688 3.84983L52.952 18.7027C48.0868 17.4347 43.3593 18.0687 40.5136 20.8762L47.1688 3.80455V3.84983Z" fill="#ffffff"/>
<path d="M86.1346 18.6121C84.8495 17.2083 83.0136 16.031 80.581 15.1253L78.3779 14.3102C76.3583 13.5404 74.7519 12.6347 73.6045 11.6385C72.3652 10.597 71.8144 9.14795 71.8144 7.38191C71.8144 5.61587 72.457 4.2121 73.6045 3.12531C74.7978 2.03851 76.496 1.5404 78.6532 1.5404C80.0302 1.5404 81.2694 1.85738 82.371 2.44606C83.4725 3.03474 84.3446 3.9404 85.1249 5.11776C85.6298 5.88757 85.9969 6.65738 86.3641 7.69889L86.1805 3.26115C85.538 2.80832 84.6659 2.44606 83.4725 2.0838C82.1415 1.67625 80.581 1.49512 78.745 1.49512C76.9091 1.49512 75.2109 1.8121 73.7421 2.44606C72.2734 3.08002 71.0801 3.89512 70.208 4.98191C69.3359 6.11399 68.9228 7.47248 68.9228 9.14795C68.9228 11.0951 69.5654 12.7706 70.7129 14.0838C71.9521 15.4876 73.834 16.6196 76.2207 17.48L78.4697 18.2951C80.6728 19.1102 82.3251 20.0612 83.3807 21.1932C84.4364 22.3253 85.0331 23.7744 85.0331 25.4951C85.0331 27.397 84.3446 28.9819 83.0136 30.1593C81.6825 31.3366 79.9843 31.88 77.9648 31.88C76.4501 31.88 74.9814 31.563 73.6504 30.9291C72.3193 30.2951 71.2178 29.3442 70.2539 28.0762C69.6572 27.3064 69.1064 26.3555 68.7393 25.314L68.9228 29.797C69.4736 30.1593 70.1162 30.4762 70.8965 30.7479C71.8144 31.0649 72.7783 31.3819 73.9716 31.6083C75.165 31.8347 76.4501 31.9253 77.9189 31.9253C79.2958 31.9253 80.581 31.6989 81.8202 31.2913C83.0595 30.8838 84.0692 30.2951 85.0331 29.6159C85.951 28.8913 86.6395 28.031 87.1903 26.9895C87.6952 25.9932 87.9706 24.8612 87.9706 23.5932C87.9706 21.6461 87.3739 19.88 86.1805 18.5668" fill="#ffffff"/>
<path d="M73.6997 31.3381H73.562C72.8735 30.9758 72.2768 30.5683 71.6802 30.0701C71.0835 29.572 70.5327 28.9834 70.0737 28.3494C69.7524 27.9418 69.4311 27.489 69.1558 26.9909L69.064 26.8098L69.1558 29.7532C69.1558 29.7532 69.6147 30.0249 69.8901 30.1607C70.2114 30.2966 70.5786 30.4324 70.9458 30.5683C71.4048 30.7041 71.8637 30.8852 72.3686 31.0211C72.7817 31.1569 73.1948 31.2475 73.6538 31.3381M82.2826 2.13052L82.4662 2.22109C83.017 2.53807 83.5678 2.90034 84.0267 3.39845C84.4857 3.85128 84.9447 4.39468 85.3119 4.98335C85.5414 5.34562 85.7709 5.75317 85.9545 6.11543L85.8627 3.39845C85.5873 3.21732 85.266 3.03618 84.8988 2.90034C84.4398 2.7192 83.9349 2.53807 83.3842 2.35694C83.0629 2.26637 82.6957 2.17581 82.2826 2.08524V2.13052ZM83.889 16.3947C84.8529 16.9834 85.6791 17.6626 86.3216 18.3871C86.9642 19.0664 87.4232 19.8815 87.7445 20.7418C88.0658 21.6475 88.2035 22.5984 88.2035 23.64C88.2035 24.2739 88.1117 24.9079 88.0199 25.4966C87.8822 26.0852 87.6986 26.6739 87.4232 27.172C87.1478 27.7154 86.8265 28.2135 86.4134 28.6664C86.0463 29.1192 85.6332 29.5267 85.1742 29.889C84.6693 30.2513 84.1644 30.6135 83.6137 30.8852C83.0629 31.1569 82.4662 31.4286 81.8695 31.6551C81.227 31.8815 80.5844 32.0173 79.8959 32.1532C79.2533 32.2437 78.5649 32.3343 77.8764 32.3343C77.142 32.3343 76.4536 32.3343 75.811 32.2437C75.1684 32.1984 74.5258 32.1079 73.9292 32.0173C73.3325 31.9268 72.7817 31.7909 72.2768 31.6098C71.7719 31.4739 71.2671 31.2928 70.8081 31.1569C70.395 31.0211 70.0278 30.8852 69.6606 30.7041C69.3394 30.523 69.0181 30.3871 68.7427 30.1607L68.605 30.0701L68.4214 25.1343H68.9722L69.064 25.3154C69.2476 25.8135 69.477 26.2664 69.7065 26.6739C69.9819 27.1267 70.2573 27.5796 70.5786 27.9871C71.0376 28.6211 71.5425 29.1645 72.1391 29.6173C72.6899 30.0701 73.2407 30.4324 73.8833 30.7494C74.5258 31.0664 75.1684 31.2928 75.8569 31.4286C76.5454 31.5645 77.2797 31.6551 78.0141 31.6551C79.0238 31.6551 79.8959 31.5192 80.7221 31.2475C81.5482 30.9758 82.2367 30.5683 82.8793 30.0249C83.5219 29.4362 84.0267 28.8022 84.348 28.0324C84.6693 27.3079 84.8529 26.4475 84.8529 25.5418C84.8529 24.7267 84.7152 23.9569 84.4398 23.2777C84.1644 22.5984 83.7513 21.9645 83.2465 21.4211C82.6957 20.8777 82.0531 20.3796 81.227 19.8815C80.4467 19.4286 79.4828 18.9758 78.4272 18.6135L76.1782 17.7984C74.9389 17.3456 73.8374 16.8475 72.8735 16.2588C71.9555 15.6701 71.1753 15.0362 70.5327 14.3117C69.936 13.6324 69.4311 12.8173 69.1099 11.9569C68.7886 11.0966 68.6509 10.1909 68.6509 9.19467C68.6509 8.3343 68.7427 7.56449 68.9722 6.83996C69.2017 6.11543 69.5229 5.48147 69.9819 4.89279C70.4409 4.30411 70.9458 3.806 71.5884 3.39845C72.185 2.94562 72.8735 2.58335 73.6538 2.26637C74.434 1.94939 75.2143 1.72298 76.0864 1.54184C76.9584 1.36071 77.8305 1.31543 78.7944 1.31543C79.7582 1.31543 80.5844 1.36071 81.4105 1.45128C82.2367 1.54184 82.9711 1.67769 83.6137 1.90411C84.2103 2.08524 84.7611 2.26637 85.2201 2.44751C85.6791 2.62864 86.0921 2.85505 86.4134 3.08147L86.5511 3.17203C86.597 4.80222 86.6888 6.43241 86.7347 8.0626H86.1839V7.88147C85.9545 7.38335 85.7709 6.93052 85.5414 6.52298C85.3578 6.11543 85.1283 5.75317 84.8988 5.3909C84.5316 4.84751 84.1185 4.30411 83.6595 3.89656C83.2006 3.44373 82.7416 3.08147 82.2367 2.80977C81.7318 2.53807 81.1352 2.31166 80.5385 2.17581C79.9418 2.03996 79.2992 1.94939 78.6567 1.94939C77.601 1.94939 76.6371 2.08524 75.8569 2.35694C75.0766 2.62864 74.3881 2.9909 73.8374 3.48901C73.2866 3.98713 72.8276 4.57581 72.5522 5.25505C72.2768 5.9343 72.1391 6.65883 72.1391 7.47392C72.1391 8.28901 72.2768 9.10411 72.5522 9.78335C72.8276 10.4626 73.2407 11.006 73.8374 11.5041C74.434 12.0022 75.1225 12.5003 75.9487 12.9532C76.7289 13.3607 77.5551 13.7683 78.519 14.1305L80.7221 14.9456C81.9613 15.3984 83.017 15.8966 83.9349 16.4852L83.889 16.3947ZM85.9086 18.7947C85.266 18.1154 84.4857 17.4815 83.5678 16.8928C82.6498 16.3494 81.64 15.806 80.4467 15.3984L78.2436 14.5834C77.2338 14.2211 76.3618 13.8135 75.5815 13.3607C74.7094 12.9079 73.9751 12.3645 73.3784 11.8664C72.7358 11.323 72.2768 10.689 71.9555 9.9192C71.6343 9.14939 71.4507 8.28901 71.4507 7.38335C71.4507 6.47769 71.6343 5.6626 71.9096 4.93807C72.2309 4.16826 72.6899 3.5343 73.3325 2.94562L73.4243 2.85505C72.8276 3.12675 72.3227 3.39845 71.8178 3.76071C71.2671 4.16826 70.7622 4.62109 70.3491 5.16449C69.936 5.70788 69.6606 6.29656 69.4311 6.93052C69.2476 7.60977 69.1558 8.3343 69.1558 9.10411C69.1558 10.0551 69.2935 10.9154 69.5688 11.6852C69.8442 12.5003 70.3032 13.2249 70.854 13.8588C71.4507 14.5381 72.185 15.1267 73.0571 15.6701C73.9751 16.2588 75.0766 16.7117 76.27 17.1645L78.519 17.9796C79.6205 18.3871 80.5844 18.84 81.4105 19.3381C82.2826 19.8362 82.9711 20.3796 83.5219 20.9683C84.0726 21.5569 84.5316 22.2362 84.8529 23.006C85.1283 23.7758 85.3119 24.5909 85.3119 25.4966C85.3119 26.4928 85.1283 27.3984 84.7611 28.2135C84.3939 29.0286 83.889 29.7532 83.1547 30.3871H83.1088H83.2465C83.7513 30.1154 84.2562 29.7984 84.7152 29.4362C85.1283 29.1192 85.5414 28.7117 85.8627 28.3041C86.2298 27.8966 86.5052 27.3984 86.7806 26.9003C87.0101 26.4475 87.1937 25.9041 87.3314 25.3607C87.4691 24.8173 87.515 24.2286 87.515 23.64C87.515 22.689 87.3773 21.7834 87.056 20.9683C86.7806 20.1532 86.3216 19.4286 85.7709 18.7947H85.9086Z" fill="#ffffff"/>
<path d="M88.8448 43.2885H87.0089V42.8357H91.1856V43.2885H89.3497V47.9527H88.7989V43.2885H88.8448ZM84.3468 47.4998V47.9527H80.675V42.8357H84.255V43.2885H81.2258V45.0998H83.9337V45.5527H81.2258V47.4546H84.3468V47.4998ZM76.8195 42.8357V47.9527H76.3147V43.8319L74.2951 47.2734H74.0198L72.0002 43.8319V47.9074H71.4954V42.7904H71.9543L74.2033 46.5942L76.4524 42.7904H76.9113L76.8195 42.8357ZM65.804 45.8696C66.3089 45.8696 66.722 45.7791 66.9973 45.5527C67.2727 45.3263 67.4104 45.0093 67.4104 44.6017C67.4104 44.1942 67.2727 43.8772 66.9973 43.6508C66.722 43.4244 66.3548 43.3338 65.804 43.3338H64.4271V45.9149H65.804V45.8696ZM67.4104 47.9527L66.2171 46.3225C66.2171 46.3225 65.9417 46.3225 65.804 46.3225H64.4271V47.9527H63.8763V42.8357H65.804C66.4466 42.8357 66.9973 42.9715 67.3645 43.2885C67.7317 43.6055 67.9153 44.013 67.9153 44.5564C67.9153 44.964 67.8235 45.281 67.594 45.5527C67.4104 45.8244 67.0891 46.0055 66.722 46.1413L68.0071 47.9074H67.4104V47.9527ZM57.8636 47.998C57.1752 47.998 56.6703 47.8168 56.3031 47.4093C55.9359 47.047 55.7523 46.4583 55.7523 45.7338V42.7904H56.3031V45.6885C56.3031 46.2772 56.4408 46.73 56.7162 47.0017C56.9916 47.2734 57.3587 47.4546 57.9095 47.4546C58.4603 47.4546 58.8275 47.3187 59.1029 47.0017C59.3783 46.73 59.516 46.2772 59.516 45.6885V42.7904H60.0667V45.7338C60.0667 46.4583 59.8831 47.0017 59.516 47.4093C59.1488 47.7715 58.598 47.998 57.9554 47.998H57.8636ZM49.6479 47.4998C50.061 47.4998 50.4281 47.4093 50.7494 47.2281C51.0707 47.047 51.3461 46.7753 51.5297 46.4583C51.7133 46.1413 51.8051 45.7791 51.8051 45.3715C51.8051 44.964 51.7133 44.6017 51.5297 44.2847C51.3461 43.9678 51.0707 43.6961 50.7494 43.5149C50.4281 43.3338 50.061 43.2432 49.6479 43.2432C49.2348 43.2432 48.8676 43.3338 48.5463 43.5149C48.225 43.6961 47.9496 43.9678 47.766 44.2847C47.5825 44.6017 47.4907 44.964 47.4907 45.3715C47.4907 45.7791 47.5825 46.1413 47.766 46.4583C47.9496 46.7753 48.225 47.047 48.5463 47.2281C48.8676 47.4093 49.2348 47.4998 49.6479 47.4998ZM49.6479 47.998C49.143 47.998 48.684 47.8621 48.2709 47.6357C47.8578 47.4093 47.5366 47.0923 47.3071 46.6847C47.0776 46.2772 46.9399 45.8244 46.9399 45.3715C46.9399 44.9187 47.0776 44.4206 47.3071 44.0583C47.5366 43.6508 47.8578 43.3338 48.2709 43.1074C48.684 42.881 49.143 42.7451 49.6479 42.7451C50.1527 42.7451 50.6117 42.8357 51.0248 43.0621C51.4379 43.2885 51.7592 43.6055 51.9887 44.013C52.2182 44.4206 52.3559 44.8734 52.3559 45.3263C52.3559 45.7791 52.2182 46.2772 51.9887 46.6847C51.7592 47.0923 51.4379 47.4093 51.0248 47.6357C50.6117 47.8621 50.1527 47.9527 49.6479 47.9527V47.998ZM43.0844 45.4168H43.5893V47.364C43.3598 47.5904 43.0385 47.7263 42.7173 47.8621C42.396 47.9527 42.0288 48.0432 41.6616 48.0432C41.1567 48.0432 40.6977 47.9527 40.2388 47.7263C39.8257 47.4998 39.5044 47.1829 39.2749 46.7753C39.0454 46.3678 38.9077 45.9149 38.9077 45.4168C38.9077 44.9187 39.0454 44.4659 39.2749 44.1036C39.5044 43.6961 39.8257 43.3791 40.2388 43.1527C40.6518 42.9262 41.1108 42.8357 41.6616 42.8357C42.0747 42.8357 42.4419 42.881 42.7632 43.0168C43.0844 43.1527 43.3598 43.3338 43.5893 43.5602L43.268 43.9225C42.855 43.5149 42.3501 43.3338 41.7075 43.3338C41.2944 43.3338 40.9272 43.4244 40.56 43.6055C40.2388 43.7866 39.9634 44.0583 39.7798 44.3753C39.5962 44.6923 39.5044 45.0546 39.5044 45.4621C39.5044 45.8696 39.5962 46.2319 39.7798 46.5489C39.9634 46.8659 40.2388 47.1376 40.56 47.3187C40.8813 47.4998 41.2944 47.5904 41.7075 47.5904C42.2583 47.5904 42.6714 47.4546 43.0844 47.1829V45.4621V45.4168Z" fill="#ffffff"/>
<path d="M109.913 44.7402H95.501V45.3289H109.913V44.7402Z" fill="#ffffff"/>
<path d="M34.1342 44.7402H19.7222V45.3289H34.1342V44.7402Z" fill="#ffffff"/>
</svg>
