<svg width="190" height="150" viewBox="0 0 190 150" fill="none" xmlns="http://www.w3.org/2000/svg">
<path d="M85.1465 20.1748C85.88 19.7865 86.7894 20.0663 87.1777 20.7998L101.831 48.4785C101.95 48.7031 102.005 48.9441 102.005 49.1816H152.603C153.298 39.4743 161.393 31.8145 171.277 31.8145C181.618 31.8147 190 40.1976 190 50.5381C190 60.8785 181.618 69.2605 171.277 69.2607C169.747 69.2607 168.26 69.0752 166.836 68.7285C162.011 74.1125 155.225 77.7029 147.6 78.3721C146.58 87.2952 139.005 94.2265 129.809 94.2266H129.141V146.994H147.989C148.819 146.994 149.492 147.667 149.492 148.497C149.492 149.327 148.819 150 147.989 150H107.558C106.728 150 106.055 149.327 106.055 148.497C106.055 147.667 106.728 146.994 107.558 146.994H126.135V94.2266H125.467C116.271 94.2264 108.694 87.2952 107.675 78.3721C97.9751 77.5205 89.6326 71.9436 84.96 63.958C84.6182 63.7062 84.3872 63.3144 84.3525 62.8662C82.1911 58.7814 80.9648 54.1251 80.9648 49.1816H98.8027L84.5215 22.2061C84.1332 21.4725 84.4129 20.5632 85.1465 20.1748ZM84.1426 52.1875C84.5106 55.4214 85.4654 58.4772 86.8975 61.2461H99.96L100.113 61.2539C100.871 61.3309 101.463 61.9709 101.463 62.749C101.463 63.527 100.871 64.1671 100.113 64.2441L99.96 64.252H88.7178C92.9395 70.279 99.6236 74.4541 107.311 75.3145L107.938 75.3779L110.383 75.5918L110.662 78.0303C111.51 85.4528 117.816 91.2205 125.467 91.2207H129.809C137.459 91.2206 143.765 85.453 144.613 78.0303L144.893 75.5918L147.337 75.3779C159.775 74.2864 169.728 64.5336 171.133 52.1875H84.1426ZM129.809 82.2861C131.008 82.2861 131.979 83.2581 131.979 84.457C131.979 85.6559 131.007 86.6279 129.809 86.6279C128.61 86.6278 127.638 85.6558 127.638 84.457C127.638 83.2582 128.61 82.2863 129.809 82.2861ZM126.553 69.2617C127.752 69.2617 128.724 70.2337 128.724 71.4326C128.723 72.6314 127.752 73.6035 126.553 73.6035C125.354 73.6035 124.382 72.6314 124.382 71.4326C124.382 70.2337 125.354 69.2617 126.553 69.2617ZM142.834 69.2617C144.033 69.2618 145.005 70.2338 145.005 71.4326C145.005 72.6314 144.033 73.6034 142.834 73.6035C141.635 73.6035 140.663 72.6314 140.663 71.4326C140.663 70.2337 141.635 69.2617 142.834 69.2617ZM167.869 53.8154C167.869 58.4987 165.99 62.7422 162.948 65.8379C161.345 65.568 159.858 64.9823 158.557 64.1543C158.392 64.2159 158.215 64.2519 158.029 64.252H107.558C106.728 64.252 106.055 63.579 106.055 62.749C106.055 61.919 106.728 61.2461 107.558 61.2461H155.456C154.179 59.4828 153.43 57.3484 153.43 55.0469C153.43 54.6306 153.455 54.2197 153.503 53.8154H167.869Z" fill="#000000" fill-opacity="0.3"/>
</svg>
