<svg width="136.999" height="38.963" viewBox="1 0 136.999 38.963" fill="none" xmlns="http://www.w3.org/2000/svg">
<g clip-path="url(#clip0_1112_9585)">
<path d="M10.408 0H16.6025L24.6599 38.9631H16.5083L14.4121 28.1303L4.8153 27.6644L2.39154 38.9631H0.999512L10.408 0ZM14.1378 26.7368L9.85117 4.65024L4.9586 27.2027L14.1378 26.7368Z" fill="#000"/>
<path d="M22.29 0H46.888V1.39344L38.7364 0.461755V38.959H30.4457V0.465841L22.2941 1.39752V0H22.29Z" fill="#000"/>
<path d="M48.5625 38.9631V0H66.9168V1.39344L56.8532 0.416805V18.4089L63.9362 17.9431V19.3365L56.8532 18.8706V38.4441L66.9168 37.5615V38.9549H48.5625V38.9631Z" fill="#000"/>
<path d="M68.3521 38.9631L76.5978 0H83.1649L93.1793 38.9631H91.7831L83.4924 3.11378L76.737 38.9631H68.3521Z" fill="#000"/>
<path d="M95.1911 0H103.482V15.9939H105.3C115.642 15.9939 116.993 18.5029 116.993 27.9423C116.993 37.5206 114.991 38.9631 105.111 38.9631H95.187L95.1911 0ZM105.115 38.4973C109.308 38.4973 108.935 31.383 108.935 27.5704C108.935 25.1513 109.124 16.4597 105.115 16.4597H103.486V38.4973H105.115Z" fill="#000"/>
<path d="M119.645 38.9631V0H137.999V1.39344L127.935 0.416805V18.4089L135.018 17.9431V19.3365L127.935 18.8706V38.4441L137.999 37.5615V38.9549H119.645V38.9631Z" fill="#000"/>
</g>
<defs>
<clipPath id="clip0_1112_9585">
<rect width="137" height="64" fill="white" transform="translate(1)"/>
</clipPath>
</defs>
</svg>
