<svg width="185" height="80" viewBox="0 0 185 80" fill="none" xmlns="http://www.w3.org/2000/svg">
<g clip-path="url(#clip0_1112_9585)">
<path d="M10.408 0H16.6025L24.6599 38.9631H16.5083L14.4121 28.1303L4.8153 27.6644L2.39154 38.9631H0.999512L10.408 0ZM14.1378 26.7368L9.85117 4.65024L4.9586 27.2027L14.1378 26.7368Z" fill="#000000"/>
<path d="M22.29 0H46.888V1.39344L38.7364 0.461755V38.959H30.4457V0.465841L22.2941 1.39752V0H22.29Z" fill="#000000"/>
<path d="M48.5625 38.9631V0H66.9168V1.39344L56.8532 0.416805V18.4089L63.9362 17.9431V19.3365L56.8532 18.8706V38.4441L66.9168 37.5615V38.9549H48.5625V38.9631Z" fill="#000000"/>
<path d="M68.3521 38.9631L76.5978 0H83.1649L93.1793 38.9631H91.7831L83.4924 3.11378L76.737 38.9631H68.3521Z" fill="#000000"/>
<path d="M95.1911 0H103.482V15.9939H105.3C115.642 15.9939 116.993 18.5029 116.993 27.9423C116.993 37.5206 114.991 38.9631 105.111 38.9631H95.187L95.1911 0ZM105.115 38.4973C109.308 38.4973 108.935 31.383 108.935 27.5704C108.935 25.1513 109.124 16.4597 105.115 16.4597H103.486V38.4973H105.115Z" fill="#000000"/>
<path d="M119.645 38.9631V0H137.999V1.39344L127.935 0.416805V18.4089L135.018 17.9431V19.3365L127.935 18.8706V38.4441L137.999 37.5615V38.9549H119.645V38.9631Z" fill="#000000"/>
<path d="M33.3463 53.0981V59.722H32.6298V53.0981H31.8232V52.4198H32.6298V49.8086H33.3463V52.4198H34.6196V53.0981H33.3463Z" fill="#000000"/>
<path d="M42.0056 52.4164H42.7221V59.7186H42.0056V58.411C41.2687 59.5388 40.1059 59.9148 39.1561 59.9148C37.2359 59.9148 35.5859 58.4641 35.5859 56.0655C35.5859 53.8098 37.0189 52.2529 39.1561 52.2529C40.3024 52.2529 41.3096 52.7024 42.0056 53.6831V52.4123V52.4164ZM36.3393 56.0123C36.3393 57.6591 37.3628 59.2324 39.2093 59.2324C41.0558 59.2324 42.0425 57.6918 42.0425 56.0123C42.0425 53.8466 40.4457 52.9353 39.1929 52.9353C37.7395 52.9353 36.3434 54.0264 36.3434 56.0123H36.3393Z" fill="#000000"/>
<path d="M46.0236 64.0037H45.3071V52.423H46.0236V53.6939C46.7237 52.7459 47.7268 52.2637 48.8936 52.2637C51.1004 52.2637 52.4433 53.9105 52.4433 56.0231C52.4433 58.1357 51.0799 59.9255 48.8568 59.9255C47.0472 59.9255 46.2406 58.7814 46.0236 58.4218V64.0078V64.0037ZM51.69 56.019C51.69 54.0126 50.3635 52.942 48.8568 52.942C47.3501 52.942 45.9868 53.9636 45.9868 55.9863C45.9868 57.8129 46.9898 59.2431 48.8363 59.2431C50.6828 59.2431 51.6859 57.8129 51.6859 56.0231L51.69 56.019Z" fill="#000000"/>
<path d="M60.5154 52.4164H61.2319V59.7186H60.5154V58.411C59.7785 59.5388 58.6157 59.9148 57.6658 59.9148C55.7457 59.9148 54.0957 58.4641 54.0957 56.0655C54.0957 53.8098 55.5287 52.2529 57.6658 52.2529C58.8122 52.2529 59.8194 52.7024 60.5154 53.6831V52.4123V52.4164ZM54.8449 56.0123C54.8449 57.6591 55.8685 59.2324 57.715 59.2324C59.5615 59.2324 60.5482 57.6918 60.5482 56.0123C60.5482 53.8466 58.9514 52.9353 57.6986 52.9353C56.2452 52.9353 54.849 54.0264 54.849 56.0123H54.8449Z" fill="#000000"/>
<path d="M67.0706 53.7608C66.8208 53.1887 66.3172 52.9353 65.7973 52.9353C64.9702 52.9353 64.5608 53.5606 64.5608 54.0999C64.5608 54.8518 65.2077 55.0684 65.9938 55.3871C66.5874 55.6201 67.2671 55.8162 67.7338 56.4087C68.0368 56.7847 68.1105 57.1769 68.1105 57.5897C68.1105 59.2528 66.8536 59.9148 65.7236 59.9148C64.5035 59.9148 63.5004 59.1997 63.1934 57.982L63.8935 57.7654C64.1432 58.7338 64.917 59.2324 65.7236 59.2324C66.657 59.2324 67.3572 58.5704 67.3572 57.6224C67.3572 56.7969 66.8372 56.4945 65.9569 56.1349C65.1135 55.7753 64.4871 55.5424 64.1268 55.0807C63.9672 54.8641 63.8034 54.5617 63.8034 54.1326C63.8034 53.0212 64.6468 52.2529 65.7563 52.2529C66.6161 52.2529 67.3326 52.6452 67.6765 53.4339L67.0665 53.7567L67.0706 53.7608Z" fill="#000000"/>
<path d="M79.5187 55.4081C78.8186 56.3561 78.1922 57.0017 77.8687 57.3041L79.662 59.7191H78.6589L77.2792 57.8394L77.0622 58.0192C76.1819 58.7548 74.7326 59.9521 72.9557 59.9521C71.1788 59.9521 69.8359 58.6444 69.8359 56.875C69.8359 54.8891 71.2525 53.9043 72.1328 53.3486L73.4061 52.5231L72.923 51.7712C72.5831 51.2359 72.2065 50.5903 72.2065 49.8915C72.2065 48.5839 73.2628 47.5664 74.5565 47.5664C75.8503 47.5664 76.7265 48.5308 76.7265 49.7853C76.7265 50.6434 76.2802 51.2155 76.0264 51.5015C75.7398 51.8244 75.3467 52.1635 74.5033 52.7356L77.4266 56.6748C77.8196 56.2825 78.1799 55.8862 78.8268 55.0812L79.5269 55.404L79.5187 55.4081ZM73.8319 53.1361L72.7019 53.8716C71.2689 54.8033 70.6589 55.6451 70.6589 56.826C70.6589 58.2235 71.6087 59.241 72.9721 59.241C74.4051 59.241 76.0386 58.007 76.8288 57.2183L73.836 53.1361H73.8319ZM74.0489 52.1349C74.5852 51.8325 75.3058 51.2564 75.5924 50.8641C75.879 50.4881 75.9322 50.1285 75.9322 49.773C75.9322 48.7882 75.1625 48.3224 74.4788 48.3224C73.6722 48.3224 72.9885 49.0375 72.9885 49.9528C72.9885 50.4718 73.2914 50.9376 73.5248 51.3136L74.0448 52.139L74.0489 52.1349Z" fill="#000000"/>
<path d="M81.9235 46.6768V53.693C82.6236 52.7449 83.6267 52.2628 84.7935 52.2628C87.0003 52.2628 88.3432 53.9095 88.3432 56.0222C88.3432 58.1348 86.9798 59.9246 84.7567 59.9246C82.9471 59.9246 82.1405 58.7805 81.9235 58.4209V59.7285H81.207V46.6808H81.9235V46.6768ZM87.594 56.0181C87.594 54.0117 86.2675 52.9411 84.7608 52.9411C83.2541 52.9411 81.8908 53.9627 81.8908 55.9854C81.8908 57.812 82.8938 59.2422 84.7403 59.2422C86.5868 59.2422 87.5899 57.812 87.5899 56.0222L87.594 56.0181Z" fill="#000000"/>
<path d="M96.4041 52.4164H97.1206V59.7186H96.4041V58.411C95.6671 59.5388 94.5044 59.9148 93.5545 59.9148C91.6343 59.9148 89.9844 58.4641 89.9844 56.0655C89.9844 53.8098 91.4173 52.2529 93.5545 52.2529C94.7009 52.2529 95.7081 52.7024 96.4041 53.6831V52.4123V52.4164ZM90.7377 56.0123C90.7377 57.6591 91.7613 59.2324 93.6077 59.2324C95.4542 59.2324 96.4409 57.6918 96.4409 56.0123C96.4409 53.8466 94.8442 52.9353 93.5914 52.9353C92.1379 52.9353 90.7418 54.0264 90.7418 56.0123H90.7377Z" fill="#000000"/>
<path d="M99.7038 52.4164H100.42V53.3644C100.691 52.7392 101.243 52.2529 102.033 52.2529C102.23 52.2529 102.537 52.2897 102.803 52.4327L102.443 53.0784C102.369 53.0252 102.226 52.9353 101.906 52.9353C100.437 52.9353 100.416 54.8845 100.416 55.7999V59.7186H99.6997V52.4164H99.7038Z" fill="#000000"/>
</g>
<defs>
<clipPath id="clip0_1112_9585">
<rect width="137" height="64" fill="#000000" transform="translate(1)"/>
</clipPath>
</defs>
</svg>
