<svg width="185" height="80" viewBox="0 0 185 80" fill="none" xmlns="http://www.w3.org/2000/svg">
<g clip-path="url(#clip0_1112_8489)">
<path d="M13.6571 8.16406V8.97043H15.3774L11.9847 29.0347L8.54419 8.97043H9.97773V8.16406H2.47556V8.97043H4.05245L3.09676 40.0866H1.75879V40.8929H6.9673V40.0866H5.24706V14.4252L9.83438 40.8929H11.3157L15.5207 14.4252V40.0866H14.1828V40.8929H21.3982V40.0866H19.7258V8.97043H21.3982V8.16406H13.6571Z" fill="#ffffff"/>
<path d="M27.0835 8.16406V8.97043H28.8037V40.0866H27.0835V40.8929H39.6986V29.1295H39.0774L35.6847 40.0866H32.9132V23.817H34.8724L36.067 29.6039H36.7838V17.5558H36.067L34.8724 23.0581H32.9132V8.97043H35.0635L38.3129 18.5994H38.9818L38.504 8.16406H27.0835Z" fill="#ffffff"/>
<path d="M51.55 8.97043H54.1303V40.134H48.1573L51.55 8.97043ZM49.0174 8.16406V8.97043H50.5943L46.1025 40.134H43.6655V47.5336H44.2867L47.0582 40.9404H57.4275L60.199 47.5336H60.8202V40.134H58.3354V8.97043H60.0078V8.16406H49.0174Z" fill="#ffffff"/>
<path d="M71.7159 23.2952H73.3883C74.2485 23.2952 74.8219 23.485 75.1086 23.8644C75.3953 24.2439 75.5386 24.8131 75.5386 25.572V37.7624C75.5386 38.5213 75.3953 39.0905 75.1086 39.47C74.8219 39.8494 74.2485 40.0392 73.3883 40.0392H71.7159V23.2478V23.2952ZM71.7159 8.97043H73.3883C74.2485 8.97043 74.8219 9.16016 75.1086 9.58706C75.3953 9.96653 75.5386 10.5357 75.5386 11.2947V20.2121C75.5386 20.971 75.3953 21.5402 75.1086 21.9671C74.8219 22.3466 74.2485 22.5838 73.3883 22.5838H71.7159V9.01786V8.97043ZM65.8384 8.16406V8.97043H67.5108V40.134H65.8384V40.9404H71.907C73.8184 40.9404 75.2997 40.9404 76.351 40.7981C77.4022 40.7032 78.1668 40.4186 78.6446 39.9917C79.1225 39.5174 79.4092 38.8059 79.5048 37.8098C79.6003 36.8137 79.6481 35.4381 79.6481 33.5882V28.1334C79.6481 27.3271 79.6481 26.6156 79.5525 25.9989C79.5048 25.3823 79.3136 24.8605 79.0747 24.4336C78.788 24.0067 78.4535 23.6747 77.9279 23.3901C77.45 23.1529 76.781 22.9632 75.9687 22.8683C76.781 22.726 77.45 22.5363 77.9279 22.2991C78.4057 22.062 78.788 21.73 79.0747 21.3505C79.3614 20.971 79.5048 20.4493 79.5525 19.8326C79.6003 19.216 79.6481 18.4571 79.6481 17.6033V15.5636C79.6481 13.7612 79.6481 12.3382 79.5525 11.3421C79.457 10.346 79.1703 9.6345 78.6924 9.16016C78.2146 8.68583 77.45 8.40123 76.3988 8.30637C75.3475 8.2115 73.8662 8.16406 71.907 8.16406H65.8384Z" fill="#ffffff"/>
<path d="M85.2861 8.16406V8.97043H87.0064V40.0866H85.2861V40.8929H97.949V29.1295H97.2801L93.8874 40.0866H91.1636V23.817H93.075L94.3174 29.6039H95.0342V17.5558H94.2696L93.075 23.0581H91.1636V8.97043H93.2662L96.5633 18.5994H97.1845L96.7066 8.16406H85.2861Z" fill="#ffffff"/>
<path d="M109.8 8.97043H112.381V40.134H106.408L109.8 8.97043ZM107.22 8.16406V8.97043H108.797L104.305 40.134H101.868V47.5336H102.489L105.261 40.9404H115.63L118.402 47.5336H119.023V40.134H116.538V8.97043H118.21V8.16406H107.22Z" fill="#ffffff"/>
<path d="M129.295 23.2004H131.016C131.876 23.2004 132.449 23.3901 132.736 23.7696C133.023 24.149 133.166 24.7182 133.166 25.4772V37.8098C133.166 38.5687 133.023 39.1379 132.736 39.5174C132.449 39.8969 131.876 40.134 131.016 40.134H129.295V23.2478V23.2004ZM123.466 8.16406V8.97043H125.138V40.134H123.418V40.9404H129.534C131.494 40.9404 132.975 40.9404 134.026 40.7981C135.077 40.7032 135.842 40.4186 136.32 39.9443C136.798 39.47 137.084 38.7585 137.18 37.7624C137.275 36.7663 137.323 35.3907 137.323 33.5408V29.7936C137.323 28.0386 137.323 26.663 137.18 25.6669C137.084 24.6708 136.845 23.9593 136.415 23.485C135.985 23.0106 135.269 22.7261 134.313 22.6312C133.357 22.5363 131.971 22.4889 130.203 22.4889H129.295V9.01786H131.016V8.2115H123.466V8.16406Z" fill="#ffffff"/>
<path d="M35.7336 59.6769C35.3991 59.8192 35.1124 60.0089 34.8734 60.2461C34.6345 60.4833 34.4434 60.7679 34.3 61.0999C34.1567 61.4319 34.1089 61.764 34.1089 62.1909C34.1089 62.6178 34.1567 62.9498 34.3478 63.2818L34.969 64.0882L35.8291 64.61C36.1636 64.7523 36.4981 64.7997 36.8804 64.7997C37.2627 64.7997 37.6927 64.7048 38.1228 64.5151V63.0447C37.8361 63.2818 37.5494 63.3767 37.2149 63.3767L36.737 63.2818L36.3548 63.0447L36.1158 62.6652L36.0203 62.1909L36.1158 61.7165L36.3548 61.3371L36.737 61.0999L37.2149 61.005L38.1228 61.3371V59.8666C37.7405 59.6769 37.3582 59.582 36.9282 59.582C36.5459 59.582 36.1636 59.6295 35.8291 59.7718" fill="#ffffff"/>
<path d="M42.3753 63.1392L41.993 62.9021L41.7541 62.5226L41.6585 62.0483L41.7541 61.6214L41.993 61.2419L42.3753 61.0047L42.8053 60.9099L43.2354 61.0047L43.6177 61.2419L43.8566 61.6214L43.9522 62.0483L43.8566 62.4752L43.6177 62.8546L43.2354 63.0918L42.8053 63.1867L42.3753 63.0918V63.1392ZM41.6107 59.6766C41.2285 59.8189 40.9418 60.0086 40.655 60.2458C40.3683 60.483 40.1772 60.7676 40.0338 61.0996C39.8905 61.4316 39.7949 61.7637 39.7949 62.1431C39.7949 62.57 39.8905 62.9021 40.0338 63.2341C40.1772 63.5661 40.3683 63.8507 40.655 64.0879C40.894 64.3251 41.2285 64.5148 41.6107 64.6571C41.993 64.7994 42.3753 64.8468 42.8053 64.8468C43.2354 64.8468 43.6655 64.7994 44 64.6571C44.3822 64.5148 44.7167 64.3251 44.9557 64.0879L45.5769 63.2341C45.7202 62.9021 45.8158 62.57 45.8158 62.1431C45.8158 61.7162 45.7202 61.3842 45.5769 61.0522C45.4335 60.7201 45.1946 60.4355 44.9557 60.1984C44.6689 59.9612 44.3822 59.7715 44 59.6292C43.6177 59.4869 43.2354 59.4395 42.8053 59.4395C42.3753 59.4395 41.9452 59.4869 41.6107 59.6292" fill="#ffffff"/>
<path d="M49.3034 59.6769C48.9689 59.8192 48.6822 60.0089 48.4433 60.2461C48.2043 60.4833 48.0132 60.7679 47.8698 61.0999C47.7265 61.4319 47.6787 61.764 47.6787 62.1909C47.6787 62.6178 47.7265 62.9498 47.9176 63.2818L48.5388 64.0882L49.399 64.61C49.7334 64.7523 50.0679 64.7997 50.4502 64.7997C50.8325 64.7997 51.2626 64.7048 51.6926 64.5151V63.0447C51.4059 63.2818 51.0714 63.3767 50.7847 63.3767L50.3069 63.2818L49.9246 63.0447L49.6857 62.6652L49.5901 62.1909L49.6857 61.7165L49.9246 61.3371L50.3069 61.0999L50.7847 61.005L51.6926 61.3371V59.8666C51.3103 59.6769 50.9281 59.582 50.498 59.582C50.1157 59.582 49.7334 59.6295 49.399 59.7718" fill="#ffffff"/>
<path d="M53.8433 56.5469V64.6105H55.6113V62.5709L57.5227 64.6105H60.0075L57.3793 61.9543L59.8641 59.63H57.4271L55.6113 61.4325V56.5469H53.8433Z" fill="#ffffff"/>
<path d="M61.8249 58.1592V59.6296H61.2515V61.1H61.8249V64.6101H63.5929V61.1H64.5964V59.6296H63.5929V58.1592H61.8249Z" fill="#ffffff"/>
<path d="M68.657 63.1392L68.2747 62.9021L68.0358 62.5226L67.9403 62.0957L68.0358 61.6688L68.2747 61.3368L68.657 61.0996L69.0871 61.0047L69.5171 61.0996L69.8994 61.3368L70.1383 61.7162L70.2339 62.1431L70.1383 62.57L69.8994 62.9495L69.5171 63.1867L69.0871 63.2815L68.657 63.1867M67.6058 59.6766L66.7934 60.2458L66.2678 61.0996C66.1244 61.4316 66.0767 61.7637 66.0767 62.0957C66.0767 62.4752 66.1244 62.8072 66.2678 63.1392C66.4112 63.4713 66.5545 63.7559 66.7934 63.993L67.6058 64.5622C67.8925 64.7045 68.227 64.752 68.6092 64.752C69.2304 64.752 69.7561 64.5148 70.1383 64.0405V64.6097H71.9064V59.6292H70.1383V60.1035C69.7083 59.6766 69.2304 59.4395 68.6092 59.4395C68.227 59.4395 67.8925 59.4869 67.6058 59.6292" fill="#ffffff"/>
<path d="M75.9199 59.6299H74.1519V64.6104H75.9199V59.6299Z" fill="#ffffff"/>
<path d="M74.6305 56.8302L74.3438 57.02L74.1048 57.352L74.0093 57.7315L74.1048 58.1109L74.3438 58.4429L74.6305 58.6327L75.0128 58.7275L75.395 58.6327L75.7295 58.4429L75.9684 58.1109L76.0162 57.7315L75.9684 57.352L75.7295 57.02L75.395 56.8302L75.0128 56.7354L74.6305 56.8302Z" fill="#ffffff"/>
<path d="M79.8862 56.5469H78.1182V64.6105H79.8862V56.5469Z" fill="#ffffff"/>
<path d="M88.7754 63.1401L88.3931 62.9029L88.1542 62.5709L88.0586 62.144L88.1542 61.7171L88.3931 61.3376L88.7276 61.1005L89.1577 61.0056L89.5877 61.1005L89.97 61.3376L90.2089 61.7171L90.3045 62.144L90.2089 62.5709L89.97 62.9503L89.6355 63.1875L89.2054 63.2824L88.7754 63.1875M86.3384 56.5469V64.6105H88.1064V64.0413C88.4887 64.5156 89.0143 64.7528 89.6355 64.7528C90.0178 64.7528 90.3045 64.7054 90.639 64.5631L91.4513 63.9939L91.9769 63.1401C92.1203 62.8081 92.1681 62.476 92.1681 62.0965C92.1681 61.7171 92.1203 61.3851 91.9769 61.053L91.4513 60.1992L90.6868 59.63C90.3523 59.4877 90.0178 59.4403 89.6833 59.4403C89.0621 59.4403 88.5365 59.63 88.1064 60.1044V56.5469H86.3384Z" fill="#ffffff"/>
<path d="M96.5154 63.1392L96.1331 62.9021L95.8942 62.5226L95.7987 62.0957L95.8942 61.6688L96.1331 61.3368L96.5154 61.0996L96.9455 61.0047L97.3755 61.0996L97.7578 61.3368L97.9967 61.7162L98.0923 62.1431L97.9967 62.57L97.7578 62.9495L97.3755 63.1867L96.9455 63.2815L96.5154 63.1867M95.4642 59.6766L94.6518 60.2458L94.1262 61.0996C93.9828 61.4316 93.9351 61.7637 93.9351 62.0957C93.9351 62.4752 93.9828 62.8072 94.1262 63.1392C94.2695 63.4713 94.4129 63.7559 94.6518 63.993L95.4642 64.5622C95.7509 64.7045 96.0854 64.752 96.4676 64.752C97.0888 64.752 97.6145 64.5148 97.9967 64.0405V64.6097H99.7648V59.6292H97.9967V60.1035C97.5667 59.6766 97.0888 59.4395 96.4676 59.4395C96.0854 59.4395 95.7509 59.4869 95.4642 59.6292" fill="#ffffff"/>
<path d="M105.403 59.5352C105.021 59.5352 104.734 59.63 104.448 59.7723L103.779 60.4364V59.63H102.011V64.6105H103.779V62.476C103.779 62.0017 103.874 61.6696 104.065 61.4325C104.257 61.1953 104.591 61.053 104.973 61.053L105.738 61.2427V59.5826H105.547H105.403V59.5352Z" fill="#ffffff"/>
</g>
<defs>
<clipPath id="clip0_1112_8489">
<rect width="136" height="65" fill="#ffffff" transform="translate(2)"/>
</clipPath>
</defs>
</svg>
