<svg width="190" height="150" viewBox="0 0 190 150" fill="none" xmlns="http://www.w3.org/2000/svg">
<path d="M79.9941 59.7666C124.288 41.3639 156.926 48.9043 164 59.7666C164.155 60.004 164.3 60.2435 164.439 60.4834C167.398 64.2597 169.218 68.7243 170.222 72.7656C171.223 76.798 171.446 80.5543 171.09 82.9414H171.091C171.023 83.4117 170.937 83.8733 170.836 84.3262H177.646C184.475 84.3262 190 89.8854 190 96.7285C190 103.445 185.231 109.132 178.281 109.132H155.397C152.207 109.132 149.607 109.303 147.754 109.992C146.858 110.325 146.21 110.756 145.758 111.284C145.315 111.802 144.983 112.505 144.856 113.521C144.319 117.843 146.926 119.445 148.405 119.445C152.256 119.445 154.844 120.698 156.399 122.781C157.889 124.776 158.217 127.258 158.217 129.295C158.217 131.655 157.594 133.562 156.518 135.064C155.451 136.553 154.013 137.543 152.538 138.208C149.643 139.514 146.336 139.675 144.688 139.778C144.656 139.78 144.624 139.782 144.592 139.782H126.158C124.495 139.782 122.864 140.396 121.454 141.239C120.045 142.082 118.965 143.089 118.436 143.709C116.176 146.357 113.911 147.963 111.546 148.885C109.197 149.801 106.859 149.999 104.546 149.999H54.3301C49.3853 149.999 45.1545 146.278 45.1543 141.427C45.1544 139.359 45.8233 137.444 47.0117 135.951H44.7949C35.1571 135.951 27.3557 128.104 27.3555 118.439C27.3556 108.775 35.157 100.928 44.7949 100.928H49.0254C49.1235 100.928 49.2195 100.939 49.3125 100.956C49.959 94.0557 52.088 87.6157 54.2061 83.1641C54.2644 83.0415 54.3384 82.9312 54.4219 82.832C57.8882 71.8576 68.5952 64.7037 78.7979 60.2744L79.9941 59.7666ZM169.854 87.4219C168.294 91.1697 165.633 94.2052 162.77 96.5498C158.843 99.7655 154.405 101.799 151.468 102.7C151.397 102.722 151.325 102.739 151.252 102.75C135.37 105.225 124.361 115.361 120.922 120.002C120.867 120.076 120.805 120.146 120.737 120.209C102.869 136.983 80.884 136.835 71.9805 134.615C71.9641 134.611 71.9479 134.606 71.9316 134.602C64.5178 132.489 59.2339 129.021 55.627 124.728C52.0247 120.439 50.173 115.421 49.4648 110.327C49.1734 108.23 49.0763 106.113 49.1299 104.018C49.0954 104.02 49.0605 104.023 49.0254 104.023H44.7949C36.88 104.023 30.4513 110.471 30.4512 118.439C30.4514 126.407 36.8801 132.855 44.7949 132.855H53.6943C54.549 132.856 55.2422 133.549 55.2422 134.403C55.2419 135.258 54.5488 135.951 53.6943 135.951C50.3941 135.951 48.2502 138.344 48.25 141.427C48.2502 144.333 50.8497 146.903 54.3301 146.903H104.546C106.692 146.903 108.589 146.714 110.421 146C112.236 145.292 114.098 144.024 116.081 141.699C116.823 140.83 118.16 139.602 119.865 138.582C121.57 137.563 123.753 136.687 126.158 136.687H144.543C146.288 136.577 148.991 136.412 151.266 135.386C152.386 134.88 153.332 134.194 154 133.262C154.658 132.343 155.121 131.084 155.121 129.295C155.121 127.501 154.813 125.832 153.919 124.634C153.091 123.525 151.547 122.541 148.405 122.541C144.799 122.541 141.051 119.034 141.784 113.14C141.975 111.603 142.518 110.311 143.405 109.272C144.284 108.245 145.424 107.556 146.674 107.091C149.111 106.184 152.232 106.036 155.397 106.036H178.281C183.267 106.036 186.904 102.002 186.904 96.7285C186.904 91.5818 182.752 87.422 177.646 87.4219H169.854ZM82.4043 139.262C83.2592 139.262 83.9521 139.955 83.9521 140.81C83.9519 141.664 83.259 142.357 82.4043 142.357H55.6543C54.7996 142.357 54.1067 141.664 54.1064 140.81C54.1064 139.955 54.7994 139.262 55.6543 139.262H82.4043ZM142.594 129.707C143.448 129.707 144.142 130.4 144.142 131.255C144.141 132.109 143.448 132.803 142.594 132.803H126.764C121.623 132.803 117.622 135.174 116.376 136.248C115.729 136.806 114.752 136.734 114.193 136.087C113.635 135.44 113.707 134.462 114.354 133.903C116.064 132.43 120.76 129.707 126.764 129.707H142.594ZM166.289 70.4121C164.706 80.8135 153.254 90.4384 142.362 90.4385L141.38 90.4414C131.43 90.5096 127.701 91.7119 123.906 98.7451L123.585 99.3174C116.594 111.307 94.7979 120.48 81.9033 119.193C67.4336 119.193 55.4719 108.417 53.54 94.4219C52.3817 99.255 51.8052 104.678 52.5312 109.901C53.176 114.539 54.8413 118.979 57.998 122.736C61.1478 126.486 65.8607 129.649 72.7617 131.619C80.9194 133.64 101.646 133.814 118.528 118.035C122.421 112.862 133.993 102.35 150.65 99.7109C153.258 98.8964 157.274 97.0499 160.809 94.1553C163.563 91.8993 165.945 89.0752 167.211 85.6836C167.239 85.4579 167.315 85.2474 167.429 85.0625C167.696 84.2412 167.901 83.3884 168.027 82.5029L168.028 82.4922C168.309 80.6264 168.157 77.2912 167.218 73.5107C166.965 72.4928 166.655 71.4538 166.289 70.4121ZM135.755 51.8818C122.129 51.0009 104.064 53.4284 83.1152 61.8359L121.021 84.4336C121.754 84.8715 121.994 85.8216 121.557 86.5557C121.119 87.2897 120.169 87.5303 119.435 87.0928L79.5615 63.3213C67.5197 68.6407 56.3614 77.2494 56.3613 90.4385C56.3615 104.621 67.809 116.097 81.9033 116.098C82.0059 116.098 82.1089 116.102 82.2109 116.112C88.0119 116.691 96.2815 114.86 104.028 111.253C104.402 111.079 104.772 110.9 105.14 110.72L66.8076 87.8672C66.0736 87.4294 65.833 86.4793 66.2705 85.7451C66.7082 85.0111 67.6584 84.7707 68.3926 85.208L108.339 109.021C112.05 106.895 115.306 104.447 117.777 101.846L78.7715 79.5762C78.0293 79.1524 77.7708 78.2062 78.1943 77.4639C78.6181 76.7219 79.5634 76.4634 80.3057 76.8867L119.803 99.4375C120.327 98.7225 120.79 98.0015 121.182 97.2754C123.323 93.3064 125.711 90.5604 129.396 89.0146C132.832 87.5738 137.063 87.3428 142.362 87.3428C148.543 87.3427 155.274 83.5955 159.47 78.1895C163.636 72.8213 164.768 66.6222 161.405 61.457C160.108 59.4656 157.374 57.2781 152.943 55.4609C148.568 53.6662 142.782 52.3362 135.755 51.8818ZM138.959 61.5215C145.774 61.7135 151.192 64.8442 151.192 68.6777C151.192 69.3185 151.038 69.9382 150.754 70.5293C150.724 70.5912 150.693 70.6526 150.66 70.7139C150.63 70.7705 150.599 70.8268 150.566 70.8828C150.538 70.932 150.508 70.9806 150.478 71.0293C150.441 71.0884 150.403 71.1476 150.363 71.2061C150.328 71.2578 150.292 71.3092 150.255 71.3604C150.215 71.4155 150.173 71.47 150.131 71.5244C150.093 71.5725 150.055 71.6204 150.016 71.668C149.965 71.7285 149.914 71.789 149.861 71.8486C149.818 71.8969 149.773 71.9436 149.729 71.9912C149.683 72.0395 149.637 72.0881 149.59 72.1357C149.531 72.195 149.47 72.2533 149.408 72.3115C149.364 72.3533 149.319 72.3953 149.273 72.4365C149.22 72.485 149.164 72.5324 149.108 72.5801C149.049 72.631 148.989 72.6824 148.927 72.7324C148.873 72.7754 148.819 72.817 148.764 72.8594C148.698 72.9097 148.633 72.9605 148.565 73.0098C148.506 73.053 148.446 73.0952 148.385 73.1377C148.322 73.1812 148.26 73.2249 148.195 73.2676C148.122 73.3164 148.047 73.3644 147.972 73.4121C147.912 73.4499 147.851 73.4874 147.79 73.5244C147.716 73.5689 147.641 73.6118 147.565 73.6553C147.497 73.6946 147.428 73.735 147.358 73.7734C147.282 73.8155 147.203 73.8555 147.125 73.8965C147.055 73.9331 146.985 73.971 146.913 74.0068C146.846 74.0406 146.777 74.0725 146.708 74.1055C146.614 74.1507 146.519 74.1965 146.422 74.2402C146.362 74.2673 146.301 74.2929 146.24 74.3193C146.149 74.3589 146.058 74.3983 145.965 74.4365C145.871 74.4751 145.776 74.5126 145.681 74.5498C145.608 74.578 145.535 74.6064 145.462 74.6338C145.368 74.6687 145.273 74.7018 145.178 74.7354C145.096 74.7639 145.015 74.7937 144.933 74.8213C144.855 74.8473 144.776 74.8714 144.697 74.8965C144.595 74.9291 144.492 74.9621 144.388 74.9932C144.32 75.0133 144.252 75.0322 144.184 75.0518C144.068 75.0849 143.951 75.1182 143.833 75.1494C143.708 75.1825 143.581 75.2132 143.454 75.2441C143.404 75.2563 143.354 75.2694 143.304 75.2812C143.182 75.3098 143.059 75.3358 142.936 75.3623C142.853 75.38 142.771 75.3983 142.688 75.415C142.597 75.4333 142.505 75.4496 142.413 75.4668C142.31 75.486 142.207 75.5066 142.104 75.5244C141.998 75.5425 141.892 75.5576 141.785 75.5742C141.687 75.5895 141.589 75.6061 141.49 75.6201C141.342 75.641 141.194 75.6597 141.044 75.6777C140.992 75.684 140.939 75.6913 140.887 75.6973C140.777 75.7097 140.666 75.7196 140.556 75.7305C140.24 75.7614 139.921 75.7877 139.599 75.8057C139.55 75.8084 139.5 75.8101 139.451 75.8125C139.07 75.8313 138.685 75.8428 138.295 75.8428C137.905 75.8428 137.519 75.8313 137.138 75.8125C137.088 75.8101 137.039 75.8084 136.99 75.8057C136.668 75.7877 136.348 75.7615 136.033 75.7305C135.922 75.7196 135.812 75.7097 135.702 75.6973C135.65 75.6913 135.597 75.684 135.545 75.6777C135.395 75.6597 135.246 75.641 135.099 75.6201C135 75.6061 134.902 75.5895 134.804 75.5742C134.697 75.5576 134.591 75.5425 134.485 75.5244C134.381 75.5066 134.279 75.486 134.176 75.4668C134.084 75.4496 133.992 75.4333 133.901 75.415C133.818 75.3983 133.736 75.38 133.653 75.3623C133.53 75.3358 133.407 75.3098 133.285 75.2812C133.235 75.2694 133.185 75.2563 133.135 75.2441C133.007 75.2132 132.881 75.1825 132.756 75.1494C132.638 75.1182 132.521 75.0849 132.405 75.0518C132.337 75.0322 132.269 75.0133 132.201 74.9932C132.097 74.9621 131.994 74.9291 131.892 74.8965C131.813 74.8714 131.734 74.8473 131.656 74.8213C131.574 74.7937 131.492 74.7639 131.411 74.7354C131.316 74.7018 131.221 74.6687 131.127 74.6338C131.053 74.6064 130.981 74.578 130.908 74.5498C130.813 74.5126 130.718 74.4751 130.624 74.4365C130.531 74.3983 130.44 74.3589 130.349 74.3193C130.288 74.2929 130.227 74.2673 130.167 74.2402C130.07 74.1965 129.975 74.1507 129.881 74.1055C129.812 74.0725 129.743 74.0406 129.676 74.0068C129.604 73.971 129.534 73.9331 129.464 73.8965C129.385 73.8555 129.307 73.8155 129.23 73.7734C129.16 73.735 129.092 73.6946 129.023 73.6553C128.948 73.6118 128.872 73.5689 128.799 73.5244C128.738 73.4875 128.678 73.4497 128.618 73.4121C128.542 73.3643 128.467 73.3165 128.394 73.2676C128.329 73.2249 128.267 73.1812 128.204 73.1377C128.143 73.0952 128.083 73.053 128.023 73.0098C127.956 72.9605 127.89 72.9097 127.825 72.8594C127.77 72.817 127.715 72.7754 127.662 72.7324C127.6 72.6824 127.54 72.631 127.48 72.5801C127.425 72.5324 127.369 72.485 127.315 72.4365C127.27 72.3953 127.225 72.3533 127.181 72.3115C127.119 72.2533 127.058 72.195 126.999 72.1357C126.952 72.0881 126.906 72.0395 126.86 71.9912C126.816 71.9436 126.77 71.8969 126.728 71.8486C126.675 71.7892 126.624 71.7284 126.574 71.668C126.535 71.6203 126.496 71.5727 126.458 71.5244C126.416 71.4702 126.375 71.4153 126.335 71.3604C126.298 71.3091 126.261 71.2579 126.226 71.2061C126.186 71.1476 126.148 71.0884 126.111 71.0293C126.081 70.9806 126.051 70.932 126.022 70.8828C125.99 70.8268 125.959 70.7704 125.929 70.7139C125.896 70.6526 125.865 70.5912 125.835 70.5293C125.551 69.9383 125.397 69.3184 125.397 68.6777C125.397 64.8442 130.816 61.7135 137.631 61.5215C137.851 61.5153 138.072 61.5127 138.295 61.5127C138.518 61.5127 138.739 61.5153 138.959 61.5215Z" fill="white" fill-opacity="0.3"/>
</svg>
