<svg width="185" height="80" viewBox="0 0 185 80" fill="none" xmlns="http://www.w3.org/2000/svg">
<path d="M75.6825 9.41834C72.915 9.41834 70.5428 7.00047 70.5428 4.07658C70.5428 1.32137 72.915 0.0281418 75.6825 0.0281418C78.45 0.0281418 80.6527 1.32137 80.6527 4.07658C80.6527 7.00047 78.45 9.41834 75.6825 9.41834ZM29.0304 0.646662C29.0304 0.646662 11.8607 0.562279 6.07155 0.562279C7.45529 3.57052 7.62472 5.67912 7.62472 7.70336C7.62472 11.9205 6.89049 14.507 6.55162 15.6597L8.33071 17.206C9.06494 14.7039 10.4487 10.571 10.9288 9.10908C11.8325 6.43821 13.4421 6.35388 15.9837 6.35388H19.8807C21.3492 6.35388 21.8293 7.25353 21.8293 8.71548V42.5933C21.8293 48.7504 18.6665 51.7586 13.9222 51.7586C9.17791 51.7586 5.70444 48.7504 5.70444 42.5933H0C0 51.5899 4.71604 57.4377 13.9222 57.4377C23.1283 57.4377 27.5337 51.5899 27.5337 42.5933V10.6554C27.5337 5.79159 27.6185 3.683 29.0022 0.674761L29.0304 0.646662ZM44.2516 58C41.4842 58 39.112 55.5822 39.112 52.6583C39.112 49.9031 41.4842 48.6098 44.2516 48.6098C47.0191 48.6098 49.2219 49.9031 49.2219 52.6583C49.2219 55.5822 47.0191 58 44.2516 58ZM71.1924 12.3141H79.9749C78.5912 15.3224 78.5064 17.4309 78.5064 22.2947V38.095C78.5064 42.9588 78.5912 45.0674 79.9749 48.0756H71.1924C72.5761 45.0674 72.6608 42.9588 72.6608 38.095V22.2947C72.6608 17.4309 72.5761 15.3224 71.1924 12.3141ZM66.4763 10.6272V49.2845C66.4763 50.7465 66.9564 51.6462 68.4248 51.6462H80.0596C82.573 51.6462 84.2109 51.5618 85.1145 48.8909C85.5946 47.429 86.9784 43.2962 87.7126 40.794L89.5199 42.3403C89.181 43.4648 88.4468 46.0795 88.4468 50.2966C88.4468 52.3209 88.6162 54.4295 90 57.4377H59.134C60.5177 54.4295 60.6025 52.3209 60.6025 47.4571V10.6554C60.6025 5.79159 60.5177 3.683 59.134 0.674761H67.9165C66.5328 3.683 66.4481 5.79159 66.4481 10.6554L66.4763 10.6272ZM44.2516 0C53.6272 0 56.7054 7.70334 56.7054 16.8686C56.7054 29.745 52.893 45.0674 44.2516 45.0674C35.1302 45.0674 31.7132 30.3073 31.7979 16.8686C31.8826 6.57877 34.9043 0 44.2516 0ZM44.2516 39.3883C48.2334 39.3883 51.0009 28.4518 51.0009 16.8405C51.0009 11.6394 49.6172 5.90404 44.2516 5.90404C38.8861 5.90404 37.5024 11.6675 37.5024 16.8405C37.5024 28.4237 40.2698 39.3883 44.2516 39.3883Z" fill="#ffffff"/>
</svg>
