<svg width="185" height="80" viewBox="0 0 185 80" fill="none" xmlns="http://www.w3.org/2000/svg">
<path d="M17.8039 63.3105L19.2734 66.9547H19.8392L21.3003 63.3289L21.7366 66.9547H22.8326L22.0852 60.9805H21.2001L19.5678 65.0605L17.9292 60.9805H17.0273L16.2822 66.9547H17.3697L17.8039 63.3105Z" fill="#ffffff"/>
<path d="M27.1823 64.4366H29.2968V63.3289H27.1823V62.0904H29.3742V60.9805H26.0947V66.9547H29.4513V65.8447H27.1823V64.4366Z" fill="#ffffff"/>
<path d="M34.7904 62.393L35.5354 64.6037H34.0429L34.7881 62.393H34.7904ZM33.6944 65.7137H35.8695L36.2807 66.9618H37.4454L35.3246 60.9854H34.2517L32.1309 66.9618H33.2811L33.6923 65.7137H33.6944Z" fill="#ffffff"/>
<path d="M40.7481 66.9547H41.8357V62.0904H43.1862V60.9805H39.3872V62.0904H40.7481V66.9547Z" fill="#ffffff"/>
<path d="M51.4995 62.0913H52.2218C52.4678 62.0737 52.7112 62.1553 52.9065 62.3206C52.982 62.3948 53.0424 62.4856 53.0838 62.5872C53.1252 62.6887 53.1466 62.7988 53.1466 62.91C53.1466 63.0213 53.1252 63.1313 53.0838 63.2329C53.0424 63.3345 52.982 63.4253 52.9065 63.4994C52.7114 63.6651 52.4679 63.7467 52.2218 63.7288H51.4995V62.0913ZM51.4995 64.8412H51.9728L53.5655 66.9578H54.9181L53.1856 64.6623C53.4157 64.5557 53.6225 64.3965 53.792 64.1951C53.9616 63.9938 54.0901 63.755 54.169 63.4947C54.2478 63.2344 54.2751 62.9586 54.2492 62.6858C54.2232 62.4129 54.1445 62.1493 54.0184 61.9126C53.8507 61.615 53.6077 61.3775 53.3192 61.2291C52.9789 61.0557 52.6067 60.9709 52.2316 60.9813H50.4141V66.9578H51.5017V64.8405L51.4995 64.8412Z" fill="#ffffff"/>
<path d="M61.0368 65.8447H58.7678V64.4366H60.8823V63.3289H58.7678V62.0904H60.9595V60.9805H57.6802V66.9547H61.0368V65.8447Z" fill="#ffffff"/>
<path d="M66.6273 65.8123C66.4362 65.9446 66.2118 66.0072 65.9864 65.9912C65.7438 66.0063 65.5046 65.9231 65.3142 65.7572C65.2326 65.672 65.168 65.569 65.1246 65.455C65.0811 65.3409 65.0597 65.2181 65.0618 65.0944H63.9513C63.948 65.4621 64.04 65.8231 64.2163 66.1356C64.3905 66.4349 64.64 66.6723 64.9344 66.8191C65.27 66.9851 65.6352 67.0667 66.0031 67.0576C66.3587 67.0676 66.7118 66.99 67.0365 66.8305C67.3117 66.6985 67.5485 66.4859 67.7211 66.2158C67.8794 65.9638 67.9631 65.6644 67.9611 65.3583C67.9757 65.0131 67.8918 64.6715 67.7211 64.3813C67.5738 64.1459 67.3749 63.9551 67.1428 63.8265C66.8592 63.6785 66.567 63.5511 66.2682 63.4452C66.0239 63.3604 65.8319 63.2847 65.6901 63.2181C65.5573 63.1611 65.438 63.0717 65.3414 62.9567C65.2506 62.8472 65.2019 62.7034 65.2057 62.5554C65.2033 62.4679 65.2205 62.3812 65.2558 62.3028C65.2911 62.2244 65.3435 62.1568 65.4083 62.1059C65.5709 61.9869 65.7642 61.929 65.9593 61.9408C66.0653 61.9323 66.1718 61.9472 66.2726 61.9846C66.3733 62.022 66.4663 62.0812 66.5459 62.1586C66.6792 62.3085 66.7553 62.5086 66.7588 62.7181H67.8694C67.8714 62.3655 67.7768 62.0203 67.598 61.7274C67.4241 61.4493 67.1836 61.2295 66.903 61.0923C66.6114 60.9465 66.2944 60.8721 65.9741 60.8744C65.639 60.8683 65.3067 60.941 64.9993 61.0876C64.73 61.2123 64.4983 61.4183 64.3312 61.6817C64.1736 61.9308 64.0904 62.2277 64.0933 62.5311C64.0782 62.8727 64.1623 63.2108 64.3334 63.4965C64.4807 63.7289 64.6779 63.9179 64.9074 64.0469C65.1894 64.1953 65.4802 64.3228 65.7778 64.4282C66.0325 64.5177 66.2267 64.598 66.3644 64.6623C66.4942 64.7224 66.6121 64.8096 66.7116 64.919C66.7585 64.9729 66.795 65.0366 66.819 65.1064C66.8431 65.1761 66.854 65.2505 66.8514 65.325C66.8541 65.4198 66.8354 65.5139 66.7968 65.5988C66.7583 65.6837 66.7011 65.7567 66.6305 65.8112L66.6273 65.8123Z" fill="#ffffff"/>
<path d="M71.8848 66.9547H72.9725V62.0904H74.323V60.9805H70.5239V62.0904H71.8848V66.9547Z" fill="#ffffff"/>
<path d="M78.923 62.393L79.6682 64.6037H78.1757L78.921 62.393H78.923ZM77.8272 65.7137H80.0023L80.4135 66.9618H81.5783L79.4574 60.9854H78.3845L76.2642 66.9613H77.4143L77.8256 65.7131L77.8272 65.7137Z" fill="#ffffff"/>
<path d="M88.2584 65.9021C88.4442 65.5143 88.5376 65.0812 88.5298 64.643V60.9805H87.4423V64.5742C87.4571 64.9338 87.3533 65.2871 87.1501 65.5694C87.0465 65.6986 86.9174 65.8001 86.7727 65.8662C86.628 65.9323 86.4715 65.9612 86.3151 65.9508C86.1596 65.9611 86.0041 65.932 85.8604 65.8659C85.7167 65.7998 85.5888 65.6984 85.4864 65.5694C85.2822 65.2877 85.1782 64.9339 85.194 64.5742V60.9805H84.1073V64.643C84.1002 65.0805 84.192 65.5131 84.3745 65.9021C84.5497 66.2638 84.8174 66.5611 85.1448 66.7574C85.5078 66.9566 85.908 67.0602 86.3137 67.0602C86.7195 67.0602 87.1197 66.9566 87.4827 66.7574C87.8115 66.5625 88.0803 66.2649 88.2551 65.9021H88.2584Z" fill="#ffffff"/>
<path d="M93.0353 62.0913H93.7575C94.0035 62.0737 94.2469 62.1553 94.4421 62.3206C94.5176 62.3948 94.5781 62.4856 94.6195 62.5872C94.6608 62.6887 94.6822 62.7988 94.6822 62.91C94.6822 63.0213 94.6608 63.1313 94.6195 63.2329C94.5781 63.3345 94.5176 63.4253 94.4421 63.4994C94.2471 63.6652 94.0035 63.7468 93.7575 63.7288H93.0353V62.0913ZM93.0353 64.8412H93.5086L95.1013 66.9578H96.454L94.7214 64.6623C95.044 64.53 95.3209 64.2901 95.5133 63.9764C95.7057 63.6626 95.8039 63.2906 95.7943 62.9125C95.7996 62.5613 95.7166 62.2153 95.5544 61.9126C95.3865 61.615 95.1436 61.3775 94.855 61.2291C94.5147 61.0557 94.1425 60.9709 93.7674 60.9813H91.9497V66.9578H93.0369V64.8405L93.0353 64.8412Z" fill="#ffffff"/>
<path d="M101.288 62.393L102.033 64.6037H100.541L101.286 62.393H101.288ZM100.192 65.7137H102.368L102.779 66.9618H103.943L101.823 60.9854H100.75L98.6289 66.9618H99.779L100.19 65.7137H100.192Z" fill="#ffffff"/>
<path d="M107.91 63.0284L111.081 66.9547H111.818V60.9805H110.77V64.9159L107.599 60.9805H106.86V66.9547H107.91V63.0284Z" fill="#ffffff"/>
<path d="M116.169 66.9547H117.256V62.0904H118.609V60.9805H114.81V62.0904H116.169V66.9547Z" fill="#ffffff"/>
<path d="M18.7569 19.7015L18.7986 19.7611C19.5418 20.8642 19.9676 22.4741 19.9676 24.1804V31.5282H8.53061V24.1804C8.53061 22.4741 8.95663 20.8642 9.70155 19.7611L9.74336 19.6993V19.1924H2.5V19.6993L2.54166 19.7611C3.28483 20.8642 3.71275 22.4741 3.71275 24.1804V42.8895C3.71275 44.5958 3.28673 46.2057 2.54166 47.3087L2.5 47.3706V47.8775H9.74336V47.3706L9.70155 47.3087C8.95853 46.2057 8.53061 44.5958 8.53061 42.8895V33.8059H19.9676V42.8895C19.9676 44.5958 19.5416 46.2057 18.7986 47.3087L18.7569 47.3683V47.8752H26.0003V47.3683L25.9585 47.3087C25.2155 46.2057 24.7896 44.5958 24.7896 42.8895V24.1804C24.7896 22.4741 25.2156 20.8642 25.9585 19.7611L26.0003 19.7015V19.1945H18.7569V19.7015Z" fill="#ffffff"/>
<path d="M43.1591 47.3758L43.1174 47.3139C42.3742 46.2107 41.9463 44.6008 41.9463 42.8945V24.1854C41.9463 22.4793 42.3723 20.8694 43.1174 19.7662L43.1591 19.7043V19.1973H35.9888V19.7041L36.0306 19.766C36.7738 20.8692 37.2017 22.4791 37.2017 24.1853V42.8943C37.2017 44.6006 36.7757 46.2105 36.0306 47.3138L35.9888 47.3756V47.8823H43.1591V47.3758Z" fill="#ffffff"/>
<path d="M66.5349 20.5823C69.9431 20.5823 72.0584 22.424 73.8305 26.9372L73.8847 27.0749H74.6237L73.7658 19.1973H51.1923L50.2969 27.0749H51.0358L51.0901 26.9372C52.4177 23.6371 54.2253 20.5823 58.4232 20.5823H60.0484V42.8926C60.0484 44.5987 59.6224 46.2086 58.8795 47.3118L58.8377 47.3715V47.8782H66.0812V47.3715L66.0394 47.3118C65.2966 46.2088 64.8705 44.5989 64.8705 42.8926V20.5823H66.5349Z" fill="#ffffff"/>
<path d="M101.101 38.526C99.4962 42.3971 96.9307 44.3603 93.4739 44.3603C87.9381 44.3603 83.9198 38.9457 83.9198 31.4855C83.9198 24.6382 86.8213 20.3857 91.4909 20.3857C95.2378 20.3857 98.5797 23.3831 99.8051 27.8436L99.849 28.0064H100.58V20.6216L100.469 20.5573C99.0037 19.7088 96.1299 18.7158 92.848 18.7158C89.0404 18.7158 85.6067 20.234 83.1747 22.9882C80.7576 25.7272 79.4277 29.5756 79.4277 33.8227C79.4277 37.8108 80.5905 41.4572 82.7009 44.0946C84.9365 46.8878 88.0281 48.3647 91.6393 48.3647C96.9164 48.3647 100.928 44.5555 101.864 38.6593L101.906 38.391H101.156L101.1 38.5264L101.101 38.526Z" fill="#ffffff"/>
<path d="M132.347 19.7638L132.389 19.7041V19.1973H125.145V19.7041L125.187 19.766C125.93 20.8691 126.358 22.479 126.358 24.1853V31.5331H114.921V24.1853C114.921 22.479 115.347 20.8691 116.092 19.766L116.134 19.7041V19.1973H108.891V19.7041L108.932 19.766C109.676 20.8691 110.104 22.479 110.104 24.1853V42.8943C110.104 44.6006 109.678 46.2105 108.932 47.3136L108.891 47.3755V47.8823H116.134V47.3755L116.092 47.3136C115.349 46.2105 114.921 44.6006 114.921 42.8943V33.8108H126.358V42.8943C126.358 44.6006 125.932 46.2105 125.187 47.3136L125.145 47.3755V47.8823H132.389V47.3755L132.347 47.3158C131.604 46.2128 131.178 44.6029 131.178 42.8966V24.1873C131.178 22.4812 131.604 20.8711 132.347 19.7681V19.7638Z" fill="#ffffff"/>
<path d="M18.1504 5.02445C18.3828 5.04064 18.6124 4.9622 18.7955 4.80412C18.8669 4.73645 18.9243 4.65264 18.9636 4.55841C19.0029 4.46417 19.0233 4.36173 19.0233 4.25806C19.0233 4.1544 19.0029 4.05195 18.9636 3.95772C18.9243 3.86348 18.8669 3.77967 18.7955 3.71201C18.6113 3.55665 18.3821 3.48008 18.1504 3.49653H17.3634V5.02393L18.1504 5.02445ZM17.3634 1.1211V2.52005H17.9955C18.21 2.53542 18.4225 2.46661 18.5951 2.32589C18.6637 2.26467 18.7186 2.18693 18.7555 2.09867C18.7924 2.01042 18.8103 1.91402 18.8079 1.81693C18.8105 1.72111 18.7926 1.62595 18.7557 1.53912C18.7187 1.45228 18.6637 1.3762 18.5951 1.31699C18.4227 1.17563 18.2101 1.10648 17.9955 1.12197L17.3634 1.1211ZM19.8768 3.40292C20.0457 3.65937 20.1336 3.96949 20.1272 4.28597C20.1346 4.52693 20.0922 4.7666 20.0033 4.98702C19.9144 5.20743 19.7812 5.40288 19.6137 5.55872C19.2713 5.8823 18.7759 6.04358 18.1274 6.04254H16.2822V0.100586H18.0043C18.5972 0.100586 19.0606 0.243543 19.3946 0.529456C19.5564 0.664266 19.6864 0.83985 19.7736 1.04141C19.8608 1.24296 19.9026 1.46459 19.8955 1.68761C19.8976 1.93603 19.829 2.17895 19.6993 2.38241C19.572 2.58683 19.3978 2.75063 19.1943 2.85721C19.4671 2.95739 19.7053 3.14707 19.8769 3.40067L19.8768 3.40292Z" fill="#ffffff"/>
<path d="M26.0794 4.78982C26.3448 4.62341 26.5632 4.37974 26.7105 4.08567C26.86 3.77465 26.9381 3.42828 26.9381 3.07659C26.9381 2.72491 26.86 2.37853 26.7105 2.06752C26.5637 1.77305 26.3452 1.52929 26.0794 1.36354C25.8054 1.19658 25.4973 1.10898 25.184 1.10898C24.8706 1.10898 24.5625 1.19658 24.2885 1.36354C24.0232 1.52994 23.8048 1.77353 23.6574 2.06752C23.5079 2.37853 23.4298 2.72491 23.4298 3.07659C23.4298 3.42828 23.5079 3.77465 23.6574 4.08567C23.8041 4.38023 24.0227 4.62405 24.2885 4.78982C24.5625 4.95678 24.8706 5.04438 25.184 5.04438C25.4973 5.04438 25.8054 4.95678 26.0794 4.78982ZM23.7498 5.74845C23.3219 5.48842 22.9635 5.10965 22.7103 4.64993C22.4574 4.17217 22.3242 3.62935 22.3242 3.07668C22.3242 2.52401 22.4574 1.98119 22.7103 1.50343C22.9616 1.0421 23.3205 0.662867 23.7498 0.404908C24.1895 0.143022 24.6817 0.00585938 25.1818 0.00585938C25.6819 0.00585938 26.1742 0.143022 26.6138 0.404908C27.0419 0.664772 27.4003 1.04358 27.6533 1.50343C27.9063 1.98116 28.0396 2.52399 28.0396 3.07668C28.0396 3.62937 27.9063 4.1722 27.6533 4.64993C27.4014 5.1107 27.0427 5.48978 26.6138 5.74845C26.1742 6.01034 25.6819 6.1475 25.1818 6.1475C24.6817 6.1475 24.1895 6.01034 23.7498 5.74845Z" fill="#ffffff"/>
<path d="M31.6716 1.2044V2.83268H32.3897C32.6345 2.85038 32.8766 2.76877 33.0703 2.60334C33.1472 2.53154 33.2087 2.44183 33.2502 2.34069C33.2917 2.23956 33.3122 2.12955 33.3103 2.01863C33.3129 1.90757 33.2928 1.79729 33.2512 1.69601C33.2096 1.59473 33.1478 1.50507 33.0703 1.43374C32.8768 1.26805 32.6345 1.18641 32.3897 1.2044H31.6716ZM33.7257 6.04089L32.1434 3.93572H31.6716V6.04089H30.5903V0.101365H32.3984C32.7712 0.0915046 33.141 0.175408 33.4797 0.346658C33.7667 0.493615 34.0083 0.729583 34.1748 1.0255C34.3371 1.32569 34.4202 1.66953 34.4149 2.01863C34.4223 2.39392 34.3254 2.76278 34.1372 3.07607C33.9433 3.38549 33.6691 3.62365 33.3503 3.75959L35.0724 6.04141H33.726L33.7257 6.04089Z" fill="#ffffff"/>
<path d="M41.0796 4.01294V0.100586H42.1234V6.04029H41.3886L38.2366 2.13711V6.04029H37.1929V0.100586H37.9277L41.0796 4.01294Z" fill="#ffffff"/>
<path d="M62.4289 6.04028H61.3476V1.20362H59.9971V0.100586H63.7732V1.20362H62.4289V6.04028Z" fill="#ffffff"/>
<path d="M69.4912 2.4351V0.100586H70.5725V6.04028H69.4912V3.53605H67.2117V6.04028H66.1304V0.100586H67.2117V2.43285H69.4912V2.4351Z" fill="#ffffff"/>
<path d="M74.5491 0.100586H73.4678V6.04028H74.5491V0.100586Z" fill="#ffffff"/>
<path d="M78.0726 5.90812C77.7797 5.76269 77.5317 5.52683 77.3588 5.22928C77.1853 4.91805 77.0942 4.55985 77.0957 4.1949H78.2002C78.1987 4.31769 78.2202 4.43951 78.2633 4.55282C78.3064 4.66613 78.3702 4.76851 78.4508 4.85363C78.6386 5.02079 78.8767 5.1041 79.1179 5.08696C79.3422 5.10479 79.5656 5.042 79.7546 4.90806C79.8247 4.85366 79.8815 4.78097 79.9197 4.69653C79.958 4.61208 79.9765 4.51852 79.9738 4.42424C79.9765 4.35009 79.9655 4.2761 79.9415 4.20674C79.9174 4.13738 79.8809 4.07408 79.834 4.02068C79.7362 3.91079 79.619 3.82411 79.4895 3.76603C79.3538 3.70189 79.1597 3.62394 78.9071 3.53218C78.6116 3.42766 78.3229 3.30123 78.0429 3.15375C77.8146 3.02474 77.6183 2.83661 77.4709 2.60562C77.3008 2.32193 77.2168 1.98635 77.2309 1.64699C77.2288 1.34562 77.3115 1.05089 77.4676 0.803114C77.6344 0.542353 77.8644 0.338165 78.1314 0.213719C78.4366 0.0672527 78.7669 -0.00551655 79.0999 0.000325914C79.4181 -0.00264056 79.7331 0.0709633 80.0227 0.215972C80.3011 0.353949 80.54 0.572776 80.7136 0.848877C80.8925 1.13907 80.9864 1.48237 80.9828 1.83282H79.8783C79.8748 1.62475 79.7986 1.42614 79.6654 1.27809C79.5864 1.20125 79.4941 1.14259 79.3941 1.10558C79.2941 1.06857 79.1883 1.05396 79.083 1.06262C78.8886 1.05073 78.6958 1.10866 78.5339 1.22765C78.4699 1.27813 78.4182 1.34511 78.3832 1.4227C78.3483 1.50029 78.3312 1.58611 78.3336 1.67264C78.3302 1.81981 78.3788 1.96269 78.4692 2.07135C78.5666 2.18517 78.6856 2.27397 78.8178 2.33137C78.9598 2.39551 79.1518 2.47127 79.394 2.55673C79.6906 2.66174 79.9805 2.78815 80.2619 2.93516C80.4929 3.06354 80.691 3.25355 80.8379 3.4878C81.0084 3.77642 81.0924 4.11642 81.0781 4.46012C81.0804 4.765 80.9965 5.06315 80.8379 5.31336C80.6667 5.58177 80.4312 5.7929 80.1576 5.92338C79.8342 6.07963 79.4837 6.15653 79.1305 6.14874C78.7648 6.15522 78.4022 6.07387 78.068 5.91038L78.0726 5.90812Z" fill="#ffffff"/>
<path d="M104.007 4.0533L105.089 0.106445H106.247L104.471 6.04632H103.582L102.409 1.99857L101.235 6.04632H100.354L98.5781 0.106445H99.745L100.826 4.04411L101.985 0.106445H102.843L104.01 4.0533H104.007Z" fill="#ffffff"/>
<path d="M110.917 3.70486L110.175 1.50781L109.434 3.70486H110.917ZM112.817 6.04632H111.658L111.249 4.8079H109.086L108.677 6.04632H107.533L109.642 0.106445H110.708L112.817 6.04632Z" fill="#ffffff"/>
<path d="M116.324 2.41357L117.406 0.106445H118.61L116.848 3.64506V6.04632H115.767V3.64506L114.014 0.106445H115.241L116.322 2.41357H116.324Z" fill="#ffffff"/>
<path d="M51.0615 4.04619C51.5516 4.04619 51.9488 3.60977 51.9488 3.07143C51.9488 2.53309 51.5516 2.09668 51.0615 2.09668C50.5715 2.09668 50.1743 2.53309 50.1743 3.07143C50.1743 3.60977 50.5715 4.04619 51.0615 4.04619Z" fill="#ffffff"/>
<path d="M89.8316 4.04619C90.3216 4.04619 90.7188 3.60977 90.7188 3.07143C90.7188 2.53309 90.3216 2.09668 89.8316 2.09668C89.3416 2.09668 88.9443 2.53309 88.9443 3.07143C88.9443 3.60977 89.3416 4.04619 89.8316 4.04619Z" fill="#ffffff"/>
</svg>
