<svg width="142" height="72" viewBox="0 4 142 72" fill="none" xmlns="http://www.w3.org/2000/svg">
<g clip-path="url(#clip0_1112_10573)">
<mask id="mask0_1112_10573" style="mask-type:luminance" maskUnits="userSpaceOnUse" x="0" y="4" width="141" height="75">
<path d="M0.98877 4.47363H140.535V78.7005H0.98877V4.47363Z" fill="white"/>
</mask>
<g mask="url(#mask0_1112_10573)">
<path d="M17.1258 7.87598C18.4963 7.98787 20.5299 8.14451 22.5635 8.32353C22.7846 8.32353 23.0277 8.34591 23.2488 8.36829C23.9782 8.39066 24.4866 8.83822 24.5529 9.59906C24.7961 11.7026 25.0171 13.8061 25.194 15.9096C25.2382 16.29 25.194 16.6928 25.0835 17.0732C24.9508 17.5655 24.5751 17.6774 24.1993 17.3194C23.8677 16.9613 23.6246 16.5138 23.4035 16.0662C22.9835 15.2382 22.6962 14.3655 22.232 13.5823C21.0825 11.6354 19.3805 10.3823 17.17 9.91235C16.3521 9.73333 15.49 9.64382 14.6722 9.66619C11.7102 9.73333 9.16812 12.7991 9.45548 15.7753C9.63232 17.6774 10.4944 19.2215 11.7765 20.5641C12.8596 21.7054 14.1196 22.69 15.4016 23.5851C16.5732 24.4131 17.7889 25.1963 18.9605 26.0243C20.7288 27.2998 22.3867 28.7096 23.7572 30.4103C24.9729 31.8873 25.9234 33.4985 26.2992 35.3782C27.1171 39.4286 25.835 42.7628 22.873 45.5153C21.1709 47.1041 19.071 47.9097 16.8384 48.3797C12.108 49.3867 7.53238 48.7825 3.04514 47.1265C2.33779 46.858 2.09464 46.2761 1.98411 45.6496C1.63044 43.7475 1.32097 41.8454 1.03361 39.9209C0.945195 39.3614 0.9673 38.7796 0.9673 38.1978C0.9673 37.9516 1.03361 37.6831 1.14414 37.4593C1.34308 37.0565 1.78517 36.967 2.11674 37.2803C2.4041 37.5712 2.64725 37.9069 2.84619 38.2873C3.57565 39.6747 4.3051 41.0621 4.99034 42.4496C5.85242 44.1503 7.11239 45.4258 8.88076 46.1643C10.406 46.7908 11.9754 47.0817 13.6112 46.8132C13.8101 46.7908 14.009 46.7237 14.208 46.6566C16.6616 45.8957 18.651 43.1656 18.6068 40.6593C18.6068 39.6747 18.2752 38.7572 17.8331 37.8845C17.1258 36.5195 16.1532 35.3558 15.0037 34.3712C14.009 33.5208 12.9701 32.7376 11.9091 31.9768C10.1407 30.7236 8.37235 29.4705 6.78082 27.9712C5.7419 27.0089 4.7914 25.9348 4.03984 24.7264C2.80198 22.7124 2.4041 20.5418 2.53673 18.1921C2.82409 13.4257 6.31662 9.71095 10.8039 8.52493C12.6385 8.055 14.5174 7.87598 17.1037 7.87598H17.1258Z" fill="#000"/>
<path d="M100.528 25.9786C100.948 25.6653 101.235 25.4415 101.522 25.2401C103.003 24.166 104.573 23.2261 106.385 22.8009C109.37 22.152 111.934 22.8009 113.923 25.2625C114.785 26.3366 115.183 27.6121 115.382 28.9324C115.581 30.2303 115.714 31.5282 115.78 32.8485C115.89 35.1534 115.89 37.4583 115.957 39.7632C115.979 41.0388 116.023 42.2919 116.089 43.5674C116.156 45.0891 116.775 45.8276 118.189 46.2528C118.477 46.3423 118.764 46.4094 119.007 46.5661C119.516 46.857 119.516 47.4388 119.007 47.7297C118.72 47.8863 118.366 47.9759 118.035 47.9759C117.084 47.9759 116.112 47.9759 115.161 47.9311C112.906 47.7968 110.674 47.7297 108.419 47.9311C107.8 47.9982 107.181 47.9759 106.584 47.9759C105.943 47.9759 105.501 47.6849 105.413 47.3045C105.347 46.9912 105.678 46.6108 106.275 46.3647L106.452 46.2752C107.668 46.029 108.11 45.1563 108.22 44.0374C108.264 43.4779 108.331 42.9409 108.331 42.3814C108.331 39.3604 108.353 36.3394 108.331 33.3408C108.331 31.9982 108.198 30.6779 107.8 29.38C107.358 27.9254 106.474 26.8513 104.949 26.4932C103.711 26.2247 102.495 26.3814 101.39 27.0303C100.837 27.3436 100.572 27.8583 100.506 28.5072V28.6415C100.506 32.9157 100.506 37.2122 100.528 41.4863C100.528 42.4262 100.682 43.366 100.793 44.3059C100.881 45.1115 101.301 45.671 102.031 45.9842C102.274 46.0738 102.495 46.1633 102.738 46.2528L103.225 46.4766C103.512 46.6332 103.755 46.8794 103.689 47.2374C103.645 47.5731 103.379 47.7521 103.07 47.7968C102.694 47.864 102.296 47.9311 101.92 47.9087C100.572 47.8863 99.2457 47.7745 97.8973 47.7745C96.151 47.7745 94.3827 47.8416 92.6364 47.8863C91.9291 47.8863 91.2217 47.9535 90.5144 47.9087C90.1828 47.9087 89.8291 47.7745 89.5639 47.6178C89.1218 47.3717 89.0997 46.9912 89.4976 46.678C89.7407 46.4766 90.0281 46.3423 90.3154 46.208C90.6912 46.0514 91.0891 45.9171 91.4649 45.7605C92.0617 45.5143 92.4596 45.0891 92.5259 44.4178C92.6143 43.5674 92.7248 42.7171 92.7469 41.8667C92.8132 37.7492 92.8575 33.6317 92.9238 29.4919C92.9238 28.9772 92.8132 28.5296 92.5038 28.1268C92.1501 27.6569 91.7522 27.2093 91.3764 26.7394C91.1996 26.5156 91.0007 26.3366 90.8238 26.1128C90.4038 25.5534 90.4701 25.1058 91.0891 24.7478C91.3322 24.6135 91.6417 24.524 91.907 24.4345C93.6532 23.9198 95.3995 23.4275 97.1458 22.8904C97.8089 22.689 98.4499 22.331 99.1131 22.1072C100.24 21.7044 100.55 21.9729 100.506 23.1813C100.484 23.8527 100.461 24.524 100.439 25.1953C100.439 25.3744 100.461 25.5534 100.484 25.889L100.528 25.9786Z" fill="#000"/>
<path d="M64.6071 35.5565C64.7176 31.5062 66.2649 28.2614 69.3154 25.8222C71.8132 23.8306 74.6647 22.667 77.8477 22.5327C83.9707 22.2418 90.2705 26.1579 91.4642 33.4307C92.5252 39.8978 88.5022 45.358 83.9928 47.3048C79.0414 49.4531 74.2447 49.0951 69.8017 45.9846C66.9059 43.9706 65.3365 41.0167 64.7839 37.5258C64.6734 36.8544 64.6513 36.1607 64.585 35.5565H64.6071ZM83.3297 36.8768C83.3297 35.0866 83.0202 32.446 82.6444 30.8348C82.2908 29.3355 81.8487 27.8586 81.0529 26.5159C80.6771 25.8894 80.2129 25.3075 79.594 24.8824C78.2235 23.9649 76.8751 23.9425 75.6594 25.039C75.2173 25.4194 74.8194 25.9117 74.5763 26.4264C74.2226 27.1649 73.9131 27.9481 73.7363 28.7537C72.9405 32.3565 72.9847 35.9817 73.67 39.5845C74.0015 41.2852 74.5542 42.9188 75.4825 44.3957C75.9689 45.179 76.5657 45.8727 77.3614 46.365C78.8203 47.2825 80.3456 46.9692 81.2961 45.537C81.694 44.9104 82.0255 44.2167 82.2687 43.5006C83.0423 41.3076 83.2634 39.0251 83.3297 36.8768Z" fill="#000"/>
<path d="M61.313 23.4061C61.3793 28.8216 61.4014 33.5433 61.4898 38.2426C61.5119 39.9433 61.6224 41.644 61.7108 43.3447C61.7772 44.5531 62.3519 45.4258 63.4571 45.9181C63.8108 46.0748 64.1866 46.1867 64.5181 46.3657C64.7171 46.4552 64.9381 46.5671 65.0928 46.7461C65.4023 47.0818 65.336 47.5293 64.9381 47.7084C64.5844 47.865 64.1866 47.9545 63.8108 47.9321C62.2192 47.9098 60.6277 47.7755 59.0362 47.7755C57.1131 47.7755 55.1679 47.865 53.2448 47.9098C52.4932 47.9098 51.7417 47.9545 50.9901 47.9321C50.769 47.9321 50.5259 47.8874 50.327 47.8202C49.7743 47.6188 49.6638 47.0818 50.128 46.7014C50.3712 46.5 50.6806 46.3881 50.968 46.2538C51.2996 46.1195 51.6753 46.03 52.0069 45.8958C52.8027 45.5825 53.3332 45.023 53.51 44.1503C53.6205 43.5909 53.7311 43.009 53.7532 42.4496C54.0184 33.9013 54.0405 25.353 53.8637 16.8047C53.8416 15.2159 53.709 13.6271 53.6205 12.0383C53.5763 11.1879 53.2669 10.4718 52.67 9.89C52.2058 9.44245 51.7416 9.01727 51.2775 8.54734C50.7469 8.01027 50.769 7.65223 51.3659 7.20467C51.5427 7.07041 51.7638 6.95852 51.9627 6.89139C54.4605 6.13054 56.9583 5.3697 59.4783 4.63124C59.8983 4.49697 60.3182 4.45221 60.7603 4.40746C61.2245 4.3627 61.3793 4.47459 61.4677 4.9669C61.534 5.3697 61.5561 5.79488 61.5561 6.19768C61.4898 12.1502 61.4014 18.0803 61.3351 23.339L61.313 23.4061Z" fill="#000"/>
<path d="M46.3485 36.0042C46.3485 37.5259 46.3485 39.0476 46.3485 40.5693C46.3485 41.1063 46.3706 41.6882 46.5032 42.2029C46.8127 43.5231 47.7411 44.105 49.0673 43.8364C49.3989 43.7693 49.7084 43.635 50.0399 43.5231C50.4378 43.3889 50.6589 43.5231 50.7252 43.9259C50.7694 44.1721 50.7252 44.4406 50.6589 44.6644C50.3494 45.8057 49.6642 46.6784 48.7137 47.3274C47.9621 47.842 47.1442 48.1777 46.2822 48.3567C45.2211 48.5581 44.1822 48.6924 43.0991 48.5358C41.4412 48.2672 40.2255 47.4169 39.4297 45.9623C39.0539 45.291 39.1203 45.0001 38.1919 45.6938C37.374 46.2756 36.5561 46.8574 35.694 47.3945C34.7656 47.9987 33.7709 48.3791 32.6657 48.5581C31.0963 48.7819 29.77 48.312 28.6648 47.2378C26.9627 45.5819 26.4764 43.5008 26.9848 41.2182C27.2501 40.0098 28.0458 39.1371 29.129 38.5777C29.8363 38.2196 30.5879 37.9287 31.3394 37.6826C33.6162 36.9665 35.9151 36.2951 38.1919 35.6014C39.0981 35.3329 39.2087 35.221 39.2087 34.2588C39.2308 32.7371 39.2971 31.2154 39.2308 29.6937C39.1866 28.5301 38.8992 27.4112 38.3024 26.4042C37.6613 25.3077 36.6887 24.8154 35.4509 24.9049C34.3899 24.972 33.8151 25.4196 33.5941 26.4937C33.4615 27.1426 33.3509 27.814 33.3509 28.4853C33.3509 29.2238 33.0415 29.7161 32.4004 30.007C31.0963 30.6336 29.8142 31.2378 28.51 31.8643C28.09 32.0657 27.6922 32.0881 27.2722 31.8643C26.9185 31.6853 26.7195 31.4168 26.8301 31.0364C26.9627 30.5217 27.0953 29.9399 27.3827 29.5147C27.8911 28.7762 28.4658 28.0825 29.1069 27.4783C30.6321 26.0238 32.3562 24.8825 34.1467 23.8307C35.4509 23.0699 36.8435 22.6 38.3466 22.5552C42.1928 22.4433 45.4201 25.0615 46.1053 28.5972C46.2822 29.4923 46.3485 30.4322 46.3927 31.3273C46.4369 32.8937 46.3927 34.4602 46.3927 36.0266H46.3264L46.3485 36.0042ZM38.9876 36.8993C38.2361 37.0784 37.5066 37.2126 36.8214 37.4588C36.2466 37.6602 35.6719 37.9063 35.1856 38.2644C33.9257 39.1595 33.5941 40.4798 33.8593 41.9343C34.1025 43.277 34.9646 44.1497 36.2466 44.5078C37.595 44.8882 38.6782 44.4406 38.8771 42.8966C39.1424 41.0168 39.1203 39.1371 39.0981 37.2574L38.9655 36.8993H38.9876Z" fill="#000"/>
<path d="M132.49 31.6638C130.921 31.619 129.351 31.5743 127.782 31.5295C127.318 31.5295 126.875 31.5072 126.411 31.5295C125.947 31.5295 125.792 31.6638 125.748 32.1337C125.682 32.9169 125.638 33.7002 125.66 34.4834C125.704 35.9603 125.991 37.3701 126.677 38.668C128.025 41.2638 130.103 42.9198 132.998 43.2778C135.408 43.5911 137.685 43.0764 139.365 41.0848L139.453 40.9729C139.652 40.7715 139.829 40.4806 140.182 40.6149C140.426 40.7044 140.602 41.1072 140.47 41.5324C140.293 42.0694 140.094 42.6289 139.785 43.0988C137.64 46.2765 134.701 48.1562 130.876 48.559C127.45 48.917 124.488 47.9324 122.079 45.4261C121.062 44.3743 120.288 43.1659 119.758 41.8009C118.476 38.6009 118.21 35.3337 119.139 31.9995C119.736 29.8736 120.797 28.0162 122.366 26.4722C124.333 24.5253 126.632 23.1826 129.351 22.7127C132.225 22.2204 134.877 22.7351 137.198 24.6148C138.989 26.0694 139.873 27.9939 139.939 30.3211C139.961 31.082 139.564 31.5743 138.812 31.7086C138.547 31.7533 138.259 31.7533 137.994 31.7533H132.468V31.7086L132.49 31.6638ZM128.666 30.0302C129.793 29.9407 130.788 29.896 131.783 29.7841C133.286 29.6274 133.816 28.9785 133.772 27.4792V27.2106C133.507 24.4358 130.81 23.1379 128.578 24.7267C127.097 25.7785 126.279 27.3001 125.969 29.0904C125.859 29.7169 126.102 29.9855 126.743 30.0078C127.428 30.0078 128.113 30.0078 128.666 30.0078V30.0302Z" fill="#000"/>
</g>
</g>
<path d="M18.0576 68.937L18.816 69.6195C18.4621 70.0644 18.088 70.4334 17.6936 70.7267C16.7027 71.4547 15.6107 71.8187 14.4176 71.8187C12.901 71.8187 11.6118 71.2878 10.5501 70.2262C9.48845 69.1645 8.95762 67.8753 8.95762 66.3587C8.95762 64.842 9.48845 63.5528 10.5501 62.4912C11.6118 61.4295 12.901 60.8987 14.4176 60.8987C15.6006 60.8987 16.6825 61.2677 17.6633 62.0058C18.088 62.3294 18.4469 62.6934 18.7401 63.0978L17.9818 63.7803C17.729 63.4264 17.4358 63.1231 17.1021 62.8703C16.3438 62.2637 15.449 61.9603 14.4176 61.9603C13.2043 61.9603 12.178 62.385 11.3388 63.2343C10.5097 64.0735 10.0951 65.115 10.0951 66.3587C10.0951 67.6023 10.5097 68.6488 11.3388 69.4982C12.178 70.3374 13.2043 70.757 14.4176 70.757C15.4591 70.757 16.3691 70.4537 17.1476 69.847C17.4914 69.5841 17.7947 69.2808 18.0576 68.937ZM24.8862 71.667V70.6812C24.7345 70.8935 24.5424 71.0856 24.3098 71.2575C23.774 71.6316 23.1825 71.8187 22.5353 71.8187C21.7972 71.8187 21.1805 71.6063 20.685 71.1817C20.1997 70.7469 19.957 70.2514 19.957 69.6953C19.957 68.4618 20.6648 67.7287 22.0803 67.4962L24.8862 67.0412C24.8862 66.5053 24.7143 66.0705 24.3705 65.7368C24.0368 65.393 23.6021 65.2212 23.0662 65.2212C22.5404 65.2212 22.0399 65.3981 21.5647 65.752C21.3422 65.9441 21.1602 66.121 21.0187 66.2828L20.3362 65.6003C20.5283 65.3475 20.7659 65.12 21.049 64.9178C21.6658 64.4628 22.3382 64.2353 23.0662 64.2353C23.8953 64.2353 24.5828 64.5033 25.1288 65.0392C25.6748 65.575 25.9478 66.2424 25.9478 67.0412V71.667H24.8862ZM24.8862 68.4062V67.9512L22.3837 68.4062C21.4737 68.5679 21.0187 68.9977 21.0187 69.6953C21.0187 70.0189 21.1501 70.2919 21.413 70.5143C21.686 70.7267 22.0601 70.8328 22.5353 70.8328C23.233 70.8328 23.7992 70.6104 24.234 70.1655C24.6688 69.7206 24.8862 69.1342 24.8862 68.4062ZM28.3674 71.667V64.387H29.4291V67.4962H33.5999V64.387H34.6616V71.667H33.5999V68.482H29.4291V71.667H28.3674ZM37.0912 71.667V64.387H38.1529V68.2545L41.7929 64.387H43.082L40.2762 67.3445L43.3854 71.667H42.172L39.5937 68.1028L38.1529 69.6195V71.667H37.0912ZM46.2688 71.667V65.3728H43.6905V64.387H49.9088V65.3728H47.3305V71.667H46.2688ZM50.8976 67.6478V66.662H55.5234V67.6478H50.8976ZM57.7913 71.667V61.0503H65.9813V71.667H64.8438V62.112H58.9288V71.667H57.7913ZM74.2472 69.6195L74.9297 70.302C74.7375 70.5649 74.4797 70.8177 74.1562 71.0603C73.4484 71.5659 72.6951 71.8187 71.8963 71.8187C70.8953 71.8187 70.0359 71.4496 69.318 70.7115C68.6102 69.9734 68.2563 69.0785 68.2563 68.027C68.2563 66.9754 68.6102 66.0806 69.318 65.3425C70.0258 64.6044 70.8599 64.2353 71.8205 64.2353C72.8215 64.2353 73.6506 64.5791 74.3078 65.2667C74.9752 65.9542 75.3088 66.8238 75.3088 67.8753C75.3088 67.9259 75.2937 68.0573 75.2633 68.2697L75.233 68.4213L69.318 68.4062C69.3584 69.0634 69.6264 69.6347 70.1218 70.12C70.6274 70.5952 71.2189 70.8328 71.8963 70.8328C72.5131 70.8328 73.0945 70.6306 73.6405 70.2262C73.9034 70.0138 74.1056 69.8116 74.2472 69.6195ZM69.318 67.4962H74.2472C74.1663 66.8389 73.8983 66.298 73.4433 65.8733C72.9984 65.4385 72.4575 65.2212 71.8205 65.2212C71.1835 65.2212 70.6274 65.4436 70.1522 65.8885C69.6769 66.3334 69.3989 66.8693 69.318 67.4962ZM78.7201 71.667V65.3728H76.1418V64.387H82.3601V65.3728H79.7818V71.667H78.7201ZM89.1917 69.6195L89.8742 70.302C89.682 70.5649 89.4242 70.8177 89.1007 71.0603C88.3929 71.5659 87.6396 71.8187 86.8408 71.8187C85.8398 71.8187 84.9804 71.4496 84.2625 70.7115C83.5547 69.9734 83.2008 69.0785 83.2008 68.027C83.2008 66.9754 83.5547 66.0806 84.2625 65.3425C84.9703 64.6044 85.8044 64.2353 86.765 64.2353C87.766 64.2353 88.5951 64.5791 89.2523 65.2667C89.9197 65.9542 90.2533 66.8238 90.2533 67.8753C90.2533 67.9259 90.2382 68.0573 90.2078 68.2697L90.1775 68.4213L84.2625 68.4062C84.3029 69.0634 84.5709 69.6347 85.0663 70.12C85.5719 70.5952 86.1634 70.8328 86.8408 70.8328C87.4576 70.8328 88.039 70.6306 88.585 70.2262C88.8479 70.0138 89.0501 69.8116 89.1917 69.6195ZM84.2625 67.4962H89.1917C89.1108 66.8389 88.8428 66.298 88.3878 65.8733C87.9429 65.4385 87.402 65.2212 86.765 65.2212C86.128 65.2212 85.5719 65.4436 85.0967 65.8885C84.6214 66.3334 84.3434 66.8693 84.2625 67.4962ZM92.1444 74.852V64.387H93.2061V65.4487C93.378 65.2161 93.5853 65.0139 93.8279 64.842C94.3739 64.4375 95.0008 64.2353 95.7086 64.2353C96.7096 64.2353 97.5539 64.5943 98.2414 65.3122C98.929 66.03 99.2728 66.935 99.2728 68.027C99.2728 69.119 98.929 70.0239 98.2414 70.7418C97.5539 71.4597 96.7096 71.8187 95.7086 71.8187C95.0008 71.8187 94.3739 71.6164 93.8279 71.212C93.5853 71.0401 93.378 70.8379 93.2061 70.6053V74.852H92.1444ZM95.7086 70.8328C96.4063 70.8328 96.9978 70.5699 97.4831 70.0442C97.9684 69.5184 98.2111 68.846 98.2111 68.027C98.2111 67.208 97.9684 66.5356 97.4831 66.0098C96.9978 65.484 96.4063 65.2212 95.7086 65.2212C95.0514 65.2212 94.47 65.4942 93.9644 66.0402C93.4589 66.5862 93.2061 67.2484 93.2061 68.027C93.2061 68.8055 93.4589 69.4678 93.9644 70.0138C94.47 70.5598 95.0514 70.8328 95.7086 70.8328ZM107.079 60.5953L107.61 61.4295C107.479 61.5407 107.282 61.6469 107.019 61.748C106.442 62.0008 105.679 62.2232 104.729 62.4153C103.92 62.5872 103.273 62.9714 102.787 63.568C102.302 64.1544 102.039 64.9583 101.999 65.9795C102.171 65.7065 102.383 65.4689 102.636 65.2667C103.202 64.7813 103.849 64.5387 104.577 64.5387C105.527 64.5387 106.346 64.8925 107.034 65.6003C107.722 66.3081 108.065 67.1675 108.065 68.1787C108.065 69.1999 107.716 70.0644 107.019 70.7722C106.331 71.4698 105.492 71.8187 104.501 71.8187C103.429 71.8187 102.555 71.4092 101.877 70.5902C101.2 69.7712 100.861 68.6134 100.861 67.117C100.861 65.3577 101.195 64.0179 101.862 63.0978C102.529 62.1777 103.434 61.6216 104.577 61.4295C105.335 61.2879 105.977 61.111 106.503 60.8987C106.786 60.7672 106.978 60.6661 107.079 60.5953ZM102.727 70.0745C103.212 70.58 103.803 70.8328 104.501 70.8328C105.199 70.8328 105.79 70.58 106.276 70.0745C106.761 69.5588 107.004 68.9269 107.004 68.1787C107.004 67.4304 106.761 66.8035 106.276 66.298C105.79 65.7823 105.199 65.5245 104.501 65.5245C103.803 65.5245 103.212 65.7823 102.727 66.298C102.241 66.8035 101.999 67.4304 101.999 68.1787C101.999 68.9269 102.241 69.5588 102.727 70.0745ZM109.506 74.7003V73.7145C109.597 73.7549 109.677 73.7802 109.748 73.7903C109.92 73.8409 110.092 73.8662 110.264 73.8662C110.891 73.8662 111.346 73.487 111.629 72.7287L112.008 71.667L109.051 64.387H110.188L112.539 70.302L114.89 64.387H116.027L112.691 72.7287C112.387 73.4971 112.059 74.0431 111.705 74.3667C111.361 74.6902 110.931 74.852 110.416 74.852C110.183 74.852 109.966 74.8267 109.763 74.7762C109.693 74.766 109.607 74.7408 109.506 74.7003ZM117.472 74.852V64.387H118.533V65.4487C118.705 65.2161 118.912 65.0139 119.155 64.842C119.701 64.4375 120.328 64.2353 121.036 64.2353C122.037 64.2353 122.881 64.5943 123.569 65.3122C124.256 66.03 124.6 66.935 124.6 68.027C124.6 69.119 124.256 70.0239 123.569 70.7418C122.881 71.4597 122.037 71.8187 121.036 71.8187C120.328 71.8187 119.701 71.6164 119.155 71.212C118.912 71.0401 118.705 70.8379 118.533 70.6053V74.852H117.472ZM121.036 70.8328C121.733 70.8328 122.325 70.5699 122.81 70.0442C123.296 69.5184 123.538 68.846 123.538 68.027C123.538 67.208 123.296 66.5356 122.81 66.0098C122.325 65.484 121.733 65.2212 121.036 65.2212C120.379 65.2212 119.797 65.4942 119.292 66.0402C118.786 66.5862 118.533 67.2484 118.533 68.027C118.533 68.8055 118.786 69.4678 119.292 70.0138C119.797 70.5598 120.379 70.8328 121.036 70.8328ZM126.492 71.667V64.387H131.345V65.3728H127.553V71.667H126.492Z" fill="#000"/>
<defs>
<clipPath id="clip0_1112_10573">
<rect width="140" height="45.5" fill="#000" transform="translate(0 5.33301)"/>
</clipPath>
</defs>
</svg>
