<svg width="185" height="80" viewBox="0 0 185 80" fill="none" xmlns="http://www.w3.org/2000/svg">
<g clip-path="url(#clip0_1112_10573)">
<mask id="mask0_1112_10573" style="mask-type:luminance" maskUnits="userSpaceOnUse" x="1" y="0" width="142" height="75">
<path d="M1.5 0H142.5V75H1.5V0Z" fill="#ffffff"/>
</mask>
<g mask="url(#mask0_1112_10573)">
<path d="M17.8044 3.43652C19.1891 3.54958 21.2439 3.70785 23.2987 3.88874C23.5221 3.88874 23.7678 3.91135 23.9911 3.93396C24.7282 3.95657 25.2419 4.40879 25.3089 5.17755C25.5546 7.30297 25.7779 9.42838 25.9566 11.5538C26.0013 11.9382 25.9566 12.3452 25.8449 12.7296C25.7109 13.227 25.3312 13.3401 24.9515 12.9783C24.6165 12.6165 24.3708 12.1643 24.1475 11.7121C23.7231 10.8755 23.4328 9.99365 22.9637 9.20228C21.8023 7.23514 20.0825 5.96893 17.849 5.49411C17.0226 5.31322 16.1516 5.22278 15.3252 5.24539C12.3323 5.31322 9.76381 8.4109 10.0542 11.4181C10.2328 13.3401 11.1039 14.9002 12.3993 16.2568C13.4937 17.41 14.7668 18.4049 16.0622 19.3093C17.246 20.1459 18.4744 20.9373 19.6582 21.7739C21.4449 23.0627 23.1201 24.4872 24.5048 26.2056C25.7332 27.6979 26.6936 29.3259 27.0733 31.2252C27.8997 35.3177 26.6043 38.6868 23.6114 41.4679C21.8916 43.0732 19.7698 43.8872 17.514 44.3621C12.7344 45.3796 8.11103 44.7691 3.57706 43.0959C2.86234 42.8245 2.61666 42.2366 2.50498 41.6035C2.14763 39.6816 1.83494 37.7597 1.54458 35.8152C1.45524 35.2499 1.47758 34.662 1.47758 34.0742C1.47758 33.8254 1.54458 33.5541 1.65626 33.328C1.85727 32.921 2.30397 32.8306 2.63899 33.1471C2.92935 33.441 3.17503 33.7802 3.37604 34.1646C4.11309 35.5665 4.85014 36.9683 5.54252 38.3702C6.41358 40.0886 7.68667 41.3774 9.47346 42.1236C11.0146 42.7567 12.6003 43.0506 14.2531 42.7793C14.4541 42.7567 14.6551 42.6889 14.8562 42.621C17.3353 41.8523 19.3455 39.0937 19.3008 36.5613C19.3008 35.5665 18.9658 34.6394 18.5191 33.7576C17.8044 32.3783 16.8216 31.2026 15.6602 30.2077C14.6551 29.3485 13.6054 28.5571 12.5333 27.7884C10.7465 26.5221 8.95976 25.2559 7.35165 23.741C6.30191 22.7688 5.34151 21.6834 4.58213 20.4625C3.33137 18.4275 2.92935 16.2342 3.06335 13.8601C3.35371 9.044 6.88262 5.29061 11.4166 4.09224C13.2704 3.61741 15.1689 3.43652 17.782 3.43652H17.8044Z" fill="#000000"/>
<path d="M102.074 21.7287C102.498 21.4122 102.789 21.186 103.079 20.9825C104.575 19.8972 106.161 18.9476 107.993 18.518C111.008 17.8623 113.599 18.518 115.609 21.0052C116.48 22.0905 116.882 23.3793 117.083 24.7133C117.284 26.0248 117.418 27.3362 117.485 28.6702C117.597 30.9991 117.597 33.328 117.664 35.657C117.686 36.9458 117.731 38.212 117.798 39.5008C117.865 41.0383 118.49 41.7845 119.919 42.2141C120.21 42.3045 120.5 42.3724 120.746 42.5306C121.259 42.8246 121.259 43.4125 120.746 43.7064C120.455 43.8647 120.098 43.9551 119.763 43.9551C118.803 43.9551 117.82 43.9551 116.859 43.9099C114.581 43.7742 112.326 43.7064 110.047 43.9099C109.422 43.9777 108.797 43.9551 108.194 43.9551C107.546 43.9551 107.099 43.6612 107.01 43.2768C106.943 42.9602 107.278 42.5759 107.881 42.3271L108.06 42.2367C109.288 41.988 109.735 41.1062 109.846 39.9756C109.891 39.4103 109.958 38.8677 109.958 38.3024C109.958 35.25 109.98 32.1975 109.958 29.1677C109.958 27.811 109.824 26.477 109.422 25.1655C108.975 23.6958 108.082 22.6105 106.541 22.2488C105.29 21.9774 104.062 22.1357 102.945 22.7914C102.386 23.108 102.118 23.628 102.051 24.2837V24.4194C102.051 28.738 102.051 33.0793 102.074 37.398C102.074 38.3476 102.23 39.2973 102.342 40.2469C102.431 41.0609 102.856 41.6262 103.593 41.9428C103.838 42.0332 104.062 42.1236 104.307 42.2141L104.799 42.4402C105.089 42.5985 105.335 42.8472 105.268 43.209C105.223 43.5481 104.955 43.729 104.642 43.7742C104.263 43.8421 103.861 43.9099 103.481 43.8873C102.118 43.8647 100.778 43.7516 99.416 43.7516C97.6515 43.7516 95.8647 43.8194 94.1003 43.8647C93.3856 43.8647 92.6708 43.9325 91.9561 43.8873C91.6211 43.8873 91.2637 43.7516 90.9957 43.5933C90.549 43.3446 90.5267 42.9602 90.9287 42.6437C91.1744 42.4402 91.4648 42.3045 91.7551 42.1689C92.1348 42.0106 92.5368 41.8749 92.9165 41.7166C93.5196 41.4679 93.9216 41.0383 93.9886 40.36C94.0779 39.5008 94.1896 38.6416 94.2119 37.7824C94.2789 33.622 94.3236 29.4616 94.3906 25.2786C94.3906 24.7586 94.2789 24.3063 93.9663 23.8993C93.6089 23.4245 93.2069 22.9723 92.8272 22.4975C92.6485 22.2714 92.4475 22.0905 92.2688 21.8644C91.8444 21.2991 91.9114 20.8469 92.5368 20.4851C92.7825 20.3494 93.0952 20.259 93.3632 20.1686C95.1277 19.6485 96.8921 19.1511 98.6566 18.6084C99.3266 18.4049 99.9743 18.0431 100.644 17.817C101.783 17.41 102.096 17.6814 102.051 18.9024C102.029 19.5807 102.007 20.259 101.984 20.9373C101.984 21.1182 102.007 21.2991 102.029 21.6383L102.074 21.7287Z" fill="#000000"/>
<path d="M65.7797 31.4062C65.8913 27.3137 67.4548 24.0351 70.537 21.5705C73.0608 19.5582 75.942 18.3824 79.1582 18.2467C85.345 17.9528 91.7104 21.9097 92.9165 29.2582C93.9886 35.7927 89.9236 41.3097 85.3673 43.2769C80.3643 45.4475 75.5177 45.0857 71.0283 41.9428C68.1025 39.9079 66.5167 36.9232 65.9583 33.396C65.8467 32.7176 65.8243 32.0167 65.7573 31.4062H65.7797ZM84.6973 32.7402C84.6973 30.9314 84.3846 28.2633 84.0049 26.6353C83.6475 25.1204 83.2009 23.6281 82.3968 22.2714C82.0171 21.6383 81.5481 21.0505 80.9227 20.6209C79.5379 19.6938 78.1755 19.6712 76.9471 20.7791C76.5004 21.1635 76.0984 21.661 75.8527 22.181C75.4953 22.9272 75.1826 23.7185 75.004 24.5325C74.1999 28.1729 74.2446 31.8358 74.937 35.4761C75.272 37.1946 75.8303 38.8452 76.7684 40.3375C77.2598 41.1288 77.8628 41.8298 78.6669 42.3272C80.141 43.2543 81.6821 42.9377 82.6425 41.4906C83.0445 40.8575 83.3795 40.1566 83.6252 39.433C84.4069 37.2172 84.6303 34.9109 84.6973 32.7402Z" fill="#000000"/>
<path d="M62.4515 19.1285C62.5185 24.6003 62.5409 29.3712 62.6302 34.1195C62.6525 35.8379 62.7642 37.5563 62.8535 39.2748C62.9206 40.4957 63.5013 41.3776 64.618 41.875C64.9754 42.0333 65.3551 42.1463 65.6901 42.3272C65.8911 42.4176 66.1144 42.5307 66.2708 42.7116C66.5835 43.0508 66.5165 43.503 66.1144 43.6839C65.7571 43.8421 65.3551 43.9326 64.9754 43.91C63.3673 43.8874 61.7591 43.7517 60.151 43.7517C58.2079 43.7517 56.2424 43.8421 54.2993 43.8874C53.5399 43.8874 52.7805 43.9326 52.0211 43.91C51.7978 43.91 51.5521 43.8647 51.3511 43.7969C50.7927 43.5934 50.681 43.0508 51.1501 42.6664C51.3958 42.4629 51.7085 42.3498 51.9988 42.2142C52.3338 42.0785 52.7135 41.988 53.0485 41.8524C53.8526 41.5358 54.3886 40.9706 54.5673 40.0887C54.679 39.5235 54.7907 38.9356 54.813 38.3703C55.081 29.733 55.1034 21.0957 54.9247 12.4583C54.9023 10.853 54.7683 9.24761 54.679 7.64225C54.6343 6.78304 54.3216 6.05949 53.7186 5.47161C53.2496 5.0194 52.7805 4.58979 52.3115 4.11496C51.7755 3.5723 51.7978 3.21053 52.4008 2.75832C52.5795 2.62265 52.8029 2.5096 53.0039 2.44177C55.5277 1.673 58.0516 0.904231 60.5977 0.158075C61.0221 0.0224101 61.4465 -0.0228115 61.8932 -0.0680331C62.3622 -0.113255 62.5185 -0.000200689 62.6079 0.497237C62.6749 0.904231 62.6972 1.33384 62.6972 1.74083C62.6302 7.7553 62.5409 13.7472 62.4739 19.0607L62.4515 19.1285Z" fill="#000000"/>
<path d="M47.3309 31.8582C47.3309 33.3957 47.3309 34.9333 47.3309 36.4708C47.3309 37.0135 47.3533 37.6013 47.4873 38.1214C47.8 39.4554 48.738 40.0433 50.0781 39.772C50.4132 39.7042 50.7258 39.5685 51.0609 39.4554C51.4629 39.3198 51.6862 39.4554 51.7533 39.8624C51.7979 40.1111 51.7533 40.3825 51.6862 40.6086C51.3736 41.7617 50.6812 42.6436 49.7208 43.2993C48.9614 43.8193 48.135 44.1585 47.2639 44.3394C46.1919 44.5429 45.1421 44.6785 44.0477 44.5203C42.3726 44.2489 41.1442 43.3897 40.3401 41.92C39.9604 41.2417 40.0274 40.9477 39.0894 41.6487C38.263 42.2366 37.4366 42.8244 36.5655 43.3671C35.6275 43.9776 34.6224 44.362 33.5057 44.5429C31.9199 44.769 30.5798 44.2941 29.4631 43.2088C27.7433 41.5356 27.2519 39.4328 27.7656 37.1265C28.0336 35.9055 28.8377 35.0237 29.9321 34.4584C30.6468 34.0967 31.4062 33.8027 32.1656 33.554C34.4661 32.8305 36.7889 32.1521 39.0894 31.4512C40.0051 31.1799 40.1168 31.0668 40.1168 30.0946C40.1391 28.557 40.2061 27.0195 40.1391 25.482C40.0944 24.3062 39.8041 23.1757 39.2011 22.1582C38.5533 21.0502 37.5706 20.5528 36.3199 20.6432C35.2478 20.7111 34.6671 21.1633 34.4437 22.2486C34.3097 22.9043 34.198 23.5827 34.198 24.261C34.198 25.0071 33.8854 25.5046 33.2376 25.7985C31.9199 26.4316 30.6245 27.0421 29.3067 27.6752C28.8823 27.8787 28.4803 27.9013 28.056 27.6752C27.6986 27.4943 27.4976 27.223 27.6093 26.8386C27.7433 26.3186 27.8773 25.7307 28.1676 25.3011C28.6813 24.5549 29.262 23.854 29.9098 23.2435C31.4509 21.7738 33.193 20.6206 35.0021 19.5579C36.3199 18.7892 37.727 18.3143 39.2457 18.2691C43.132 18.1561 46.3929 20.8015 47.0853 24.374C47.2639 25.2785 47.3309 26.2281 47.3756 27.1325C47.4203 28.7153 47.3756 30.2981 47.3756 31.8808H47.3086L47.3309 31.8582ZM39.8934 32.7626C39.1341 32.9435 38.397 33.0792 37.7046 33.3279C37.1239 33.5314 36.5432 33.7801 36.0518 34.1419C34.7788 35.0463 34.4437 36.3804 34.7117 37.8501C34.9574 39.2067 35.8285 40.0885 37.1239 40.4503C38.4863 40.8347 39.5807 40.3825 39.7818 38.8223C40.0498 36.923 40.0274 35.0237 40.0051 33.1244L39.8711 32.7626H39.8934Z" fill="#000000"/>
<path d="M134.37 27.4717C132.784 27.4265 131.199 27.3813 129.613 27.3361C129.144 27.3361 128.697 27.3135 128.228 27.3361C127.759 27.3361 127.603 27.4717 127.558 27.9466C127.491 28.7379 127.446 29.5293 127.469 30.3207C127.513 31.813 127.804 33.2375 128.496 34.5489C129.859 37.1718 131.958 38.845 134.884 39.2067C137.318 39.5233 139.619 39.0033 141.316 36.9909L141.406 36.8778C141.607 36.6743 141.785 36.3804 142.143 36.5161C142.388 36.6065 142.567 37.0135 142.433 37.4431C142.254 37.9858 142.053 38.551 141.741 39.0259C139.574 42.2366 136.604 44.1359 132.74 44.5429C129.278 44.9047 126.285 43.9098 123.851 41.3774C122.823 40.3147 122.041 39.0937 121.505 37.7144C120.21 34.4811 119.942 31.1799 120.88 27.8109C121.483 25.6629 122.555 23.7862 124.141 22.226C126.129 20.2589 128.451 18.9023 131.199 18.4274C134.102 17.93 136.782 18.45 139.128 20.3493C140.937 21.819 141.83 23.7636 141.897 26.1151C141.919 26.8839 141.517 27.3813 140.758 27.517C140.49 27.5622 140.2 27.5622 139.932 27.5622H134.348V27.517L134.37 27.4717ZM130.506 25.8212C131.645 25.7307 132.65 25.6855 133.656 25.5724C135.174 25.4142 135.71 24.7585 135.666 23.2435V22.9722C135.398 20.1685 132.673 18.857 130.417 20.4624C128.921 21.5251 128.094 23.0626 127.781 24.8715C127.67 25.5046 127.915 25.7759 128.563 25.7985C129.256 25.7985 129.948 25.7985 130.506 25.7985V25.8212Z" fill="#000000"/>
<path d="M34.5111 59.466C34.5557 59.986 34.5781 60.4156 34.6004 60.9357C35.8288 60.28 36.9679 59.6468 38.375 60.0765C39.7598 60.5061 40.4745 61.5914 40.9882 62.948C41.6135 61.7723 42.6186 61.0939 43.6684 60.4834C44.4724 60.0086 45.3211 59.7599 46.2369 60.0765C47.3759 60.4382 48.0683 61.1844 48.247 62.4054C48.314 62.8802 48.3363 63.3776 48.3363 63.8525C48.3363 64.8473 48.3363 65.8648 48.3363 66.8597C48.3363 67.4928 48.448 67.5832 48.9841 67.7641C49.2744 67.425 48.8947 66.8597 49.4307 66.5205L49.8551 67.0858C50.2571 67.5606 50.6368 68.0581 51.0612 68.4877C51.3515 68.7816 51.7759 68.9173 52.2003 68.8721C52.6693 68.8042 53.0267 68.5555 53.183 68.1033C53.3393 67.6737 53.25 67.2667 52.915 66.9501C52.6023 66.6562 52.2226 66.4075 51.8652 66.1588C51.3515 65.7744 50.8155 65.4126 50.3465 64.9604C49.5424 64.1916 49.1851 63.242 49.4531 62.1114C49.6541 61.32 50.1455 60.7548 50.8602 60.393C52.2003 59.7373 53.585 59.873 54.9698 60.2573C55.1708 60.3026 55.3048 60.5965 55.5505 60.8452C56.4662 60.1217 57.4266 59.3529 58.3647 58.5841C58.5434 58.4485 58.7444 58.2224 58.9677 58.4033C59.1241 58.5163 59.2134 58.7876 59.2358 58.9911C59.2804 59.3529 59.2358 59.7373 59.2358 60.1669C59.5708 60.1669 59.8165 60.2121 60.0845 60.2121C60.4195 60.2121 60.7769 60.2121 61.1119 60.2121C61.7373 60.2121 61.8489 60.3252 61.8713 60.9131C61.8936 61.5235 61.7819 61.6592 61.1566 61.6592C60.7545 61.6592 60.3748 61.6366 59.9728 61.614C59.7495 61.614 59.5261 61.614 59.2804 61.614C59.2581 61.8853 59.2134 62.0662 59.2134 62.2245C59.2134 63.5585 59.2134 64.8699 59.2358 66.204C59.2358 66.4753 59.2358 66.7692 59.3251 67.018C59.5261 67.7641 60.4865 68.1711 61.1119 67.7867L61.3129 67.4024C61.3129 66.3849 61.8713 65.8648 62.7423 65.5935C63.5911 65.3222 64.4621 65.0734 65.3108 64.8021C65.8692 64.6212 65.9139 64.6212 65.8915 64.0333C65.8915 63.2872 65.8469 62.541 65.7352 61.8175C65.6682 61.3879 65.3778 61.0035 64.8865 60.9131C64.3058 60.8 64.0154 60.9809 63.8814 61.5462V61.614C63.7697 61.9532 63.7921 62.428 63.5911 62.5636C63.0774 62.9254 62.4743 63.1967 61.8713 63.4229C61.5139 63.5585 61.2682 63.242 61.3799 62.8576L61.6703 62.2923C62.5637 61.2522 63.6134 60.4382 64.9311 60.0312C66.7626 59.4886 68.4601 60.7096 68.5717 62.6541C68.6387 63.8525 68.5717 65.0734 68.5941 66.2718C68.5941 66.5205 68.5941 66.7919 68.6387 67.0406C68.7504 67.6058 68.9961 67.7867 69.5545 67.7415C69.7331 67.7415 69.9118 67.6963 70.1575 67.6737V68.1485C70.0682 68.3746 69.9565 68.6233 69.8001 68.8042C68.8397 69.8895 66.9413 69.8443 66.0479 68.6912L65.8022 68.3972C65.5789 68.5329 65.4002 68.6459 65.1992 68.7816C64.9311 68.9625 64.6631 69.1434 64.3728 69.3017C63.3677 69.8217 62.6083 69.686 61.8266 68.8721L61.6703 68.6007C61.0002 69.0982 60.3302 69.4147 59.5931 69.5278C59.0124 69.6182 58.4317 69.573 57.8957 69.3921C57.0246 69.0982 56.4439 68.4877 56.3546 67.538C56.2876 66.9275 56.3099 66.3396 56.3099 65.7292C56.3099 64.6664 56.3546 63.5811 56.3546 62.5184C56.3546 61.6592 56.5556 61.614 55.4165 61.3879C55.1931 61.7723 55.5505 62.3375 55.0368 62.6315C54.7018 62.6089 54.6124 62.3149 54.5008 62.0888C54.2327 61.5914 53.9201 61.1392 53.4287 60.8226C52.848 60.4382 52.3566 60.5061 51.9546 60.9583C51.5972 61.3879 51.5972 62.021 52.0439 62.4732C52.3343 62.7671 52.6693 63.0159 53.0043 63.242C53.5627 63.649 54.1657 64.0107 54.7018 64.4177C55.3048 64.8926 55.6845 65.5257 55.7292 66.317C55.8185 67.6058 55.1708 68.5103 54.1211 69.0077C52.5576 69.7313 50.9272 69.8217 49.2744 69.0077C48.6937 69.3921 48.0013 69.6408 47.2419 69.5956C46.4379 69.5504 45.8572 69.166 45.4551 68.3746C45.1871 68.5555 44.9638 68.7364 44.6958 68.8721C44.2491 69.1208 43.8247 69.3921 43.3557 69.5278C42.3953 69.8217 41.4125 69.2112 41.0775 68.2163C40.6978 67.1084 41.0105 66.1814 42.0156 65.7744C42.842 65.4352 43.713 65.1865 44.5618 64.9378C45.5222 64.6438 45.5221 64.6438 45.5668 63.6037C45.5892 62.948 45.5668 62.2923 45.3211 61.6818C45.1648 61.2748 44.8968 60.9809 44.4277 60.8904C43.9364 60.8226 43.646 61.0035 43.512 61.5009V61.6366C43.6013 62.4958 43.043 62.835 42.3953 63.0837C41.9486 63.2646 41.5689 63.5811 41.0775 63.4455C41.0105 64.1464 41.0552 64.8021 40.8988 65.4126C40.3628 67.6963 38.8217 69.0755 36.2755 69.4599C35.8735 69.5278 35.4491 69.5278 35.0471 69.5504C34.5781 69.573 34.5111 69.5956 34.4887 70.0704C34.4887 70.9975 34.4887 71.9245 34.5111 72.8516C34.5334 73.5299 34.8237 74.0499 35.5608 74.2082C35.8065 74.2534 36.0298 74.4343 36.2755 74.57C36.0745 74.9996 35.7395 74.977 35.4715 74.977C33.8857 74.977 32.2999 74.9317 30.7141 74.9091H30.5131L30.1558 74.6152L30.4238 74.2534H30.4908C31.3842 74.0951 31.5405 73.4394 31.5405 72.6933C31.5405 69.3469 31.5405 66.0005 31.5852 62.6315C31.5852 62.2471 31.4512 61.9532 31.2055 61.7044L30.8705 61.3653C30.6248 61.0713 30.6695 60.8904 31.0268 60.7322L31.4288 60.5965C32.2329 60.3704 33.0146 60.0991 33.7293 59.6695C33.9304 59.5564 34.176 59.5338 34.4887 59.4207H34.5111V59.466ZM38.1963 65.4804C38.1516 64.4403 37.9506 63.4681 37.4369 62.5863C36.9456 61.7723 36.2308 61.4105 35.2928 61.4783C34.7567 61.5235 34.5557 61.6592 34.5781 62.2019C34.5781 63.7846 34.6451 65.3674 34.7344 66.9501C34.7791 67.7867 35.3375 68.2842 36.0522 68.6007C36.6329 68.8721 37.0126 68.759 37.3699 68.2616C37.5486 68.0128 37.7273 67.6963 37.8166 67.4024C37.973 66.7919 38.0846 66.1361 38.1963 65.503V65.4804ZM65.9809 65.3674C65.3332 65.3674 64.8865 65.5257 64.5068 65.8196C64.0824 66.1588 63.9484 66.7466 64.1048 67.2667C64.2388 67.6963 64.6855 68.0355 65.1322 68.0355C65.5342 68.0355 65.7575 67.8998 65.8022 67.4928C65.8915 66.8145 65.9139 66.1361 65.9809 65.3448V65.3674ZM45.4998 65.4126C44.9191 65.4352 44.5171 65.5483 44.2044 65.797C43.445 66.3623 43.512 67.5154 44.3161 67.945C44.8968 68.2616 45.4105 68.0581 45.4775 67.4024C45.5445 66.7466 45.4775 66.0683 45.4775 65.4126H45.4998Z" fill="#000000"/>
<path d="M103.816 61.1841C104.106 61.0259 104.285 60.8676 104.508 60.7771C105.334 60.438 106.183 60.144 107.01 59.8275C107.568 59.6014 107.791 59.737 107.747 60.3701C107.747 60.6415 107.702 60.9354 107.702 61.2067L107.747 61.4102L108.149 61.0485C108.551 60.7319 108.908 60.3701 109.355 60.144C109.667 59.9858 110.069 59.9405 110.427 59.9858C111.365 60.0762 111.767 60.845 111.41 61.7042C111.298 61.9755 111.097 62.2242 110.896 62.4277C110.427 62.8799 110.159 62.8799 109.623 62.5182C109.399 62.3599 109.176 62.179 108.93 62.0886C108.238 61.7946 107.814 62.066 107.747 62.8121C107.724 63.2417 107.724 63.6939 107.747 64.1462C107.769 65.1862 107.836 66.2263 107.881 67.2891C107.903 67.99 108.238 68.4196 108.886 68.6231L109.332 68.7814L109.623 69.1205L109.198 69.3919H108.796C107.188 69.3919 105.58 69.3919 103.972 69.3919L103.436 69.4823C102.208 69.8215 101.158 69.731 100.421 68.4196C100.175 68.6005 99.9518 68.7587 99.7061 68.8944C99.3041 69.1205 98.9244 69.3919 98.5 69.5275C97.5843 69.8441 96.6909 69.4597 96.2218 68.6005C95.5295 67.3569 95.9538 66.1585 97.2716 65.6611C97.9863 65.3897 98.7233 65.2089 99.4381 64.9827C100.644 64.621 100.51 64.7793 100.51 63.513C100.51 62.9252 100.421 62.3147 100.309 61.7268C100.22 61.2972 99.9294 61.0033 99.4604 60.9128C98.9244 60.8224 98.5223 61.0032 98.5223 61.5459C98.5223 62.5408 97.9193 62.9252 97.1599 63.1965C96.8249 63.3096 96.4899 63.4452 96.1102 63.5583C96.1102 63.92 96.1548 64.3496 96.1102 64.7793C95.8868 67.1534 94.2787 68.9396 91.9559 69.4597C90.6605 69.7536 89.3874 69.5954 88.1366 69.2788C87.6899 69.1657 87.0199 69.1657 86.7295 69.211C86.6625 68.8492 86.5955 68.7814 86.5955 68.5553C86.5955 67.583 86.5955 66.5881 86.5955 65.6159C86.5955 62.8347 86.5955 60.031 86.5955 57.2272C86.5955 57.0011 86.5955 56.7524 86.5955 56.5263C86.5955 55.8254 86.4168 55.2375 85.7691 54.8757L85.5234 54.6496C85.5234 54.3331 85.7691 54.2426 85.9701 54.1748C87.0645 53.8808 88.1366 53.5869 89.231 53.293H89.432C89.7224 53.5417 89.6777 53.8808 89.6777 54.1974C89.6554 55.961 89.6107 57.7247 89.5661 59.4883C89.5661 59.737 89.5661 59.9858 89.5661 60.3023C89.8564 60.2345 90.0351 60.2119 90.1914 60.144C92.4249 59.2622 95.0604 60.3701 95.8198 62.6991L95.9092 62.8573C96.5345 61.5911 97.6513 60.8676 98.8127 60.2571C100.242 59.4883 101.761 59.8275 102.654 61.0259C103.034 61.5233 103.19 62.1112 103.213 62.7217C103.213 63.4 103.213 64.0783 103.213 64.7566C103.213 65.3897 103.213 66.0228 103.213 66.6333C103.235 67.5604 103.525 67.7865 104.419 67.6734C104.575 67.6508 104.731 67.6508 104.932 67.6282V65.2767C104.932 64.5758 104.888 63.8748 104.932 63.1739C104.955 62.4956 104.776 61.9529 104.218 61.5233C104.106 61.4555 104.039 61.3198 103.86 61.0937L103.816 61.1841ZM89.4097 63.9653C89.4767 64.9601 89.5214 65.955 89.6107 66.9499C89.6777 67.5604 89.9681 68.103 90.4148 68.5326C90.9731 69.0527 91.7102 68.9849 92.1346 68.3518C92.2909 68.103 92.4249 67.8317 92.5143 67.5378C92.8046 66.5429 92.9163 65.5254 92.8269 64.5079C92.7376 63.6487 92.5366 62.8121 92.0452 62.066C91.6879 61.5007 91.1965 61.0937 90.5041 61.0032C89.7894 60.9128 89.5214 61.1163 89.499 61.8625C89.4767 62.5634 89.4097 63.2643 89.4097 63.9653ZM100.398 65.4124C99.7061 65.4576 99.3041 65.5932 98.9914 65.842C98.5893 66.1811 98.433 66.769 98.6117 67.2891C98.768 67.7187 99.1924 68.0578 99.6614 68.0578C99.9964 68.0578 100.264 67.9222 100.309 67.583C100.421 66.8821 100.51 66.1811 100.398 65.4124Z" fill="#000000"/>
<path d="M82.8213 67.8777C83.0224 68.2395 82.8437 68.443 82.6873 68.6239C82.263 69.1213 81.6823 69.37 81.0569 69.4605C80.8335 69.5057 80.6102 69.5057 80.3645 69.5283C79.4711 69.5735 78.6671 69.37 78.198 68.5108L77.796 68.036C77.394 68.3978 77.059 68.7369 76.6793 69.0309C75.7412 69.7318 74.7361 69.8223 73.6864 69.3248C72.659 68.85 71.9889 67.6742 72.0783 66.5437C72.1229 65.7749 72.5696 65.2097 73.1504 64.7574C73.463 64.5087 73.8204 64.2826 74.1778 64.0113C73.9991 63.7626 73.8427 63.5365 73.7087 63.3104C73.0834 62.3381 73.2397 61.1171 74.0661 60.3257C74.9148 59.5344 76.2996 59.3987 77.193 60.0544C78.2874 60.8684 78.2874 62.225 77.1706 63.0164C77.0143 63.1295 76.8803 63.2199 76.6569 63.3782C77.461 64.2374 78.2427 65.074 79.0691 65.9332C79.7391 65.187 80.2975 64.3957 80.6772 63.4686C80.3422 63.3104 80.0742 63.1747 79.7391 62.9938L80.0742 62.7677C81.1239 62.7677 82.1736 62.4964 83.2457 62.519C83.2457 62.9034 83 62.926 82.8213 62.9938C82.062 63.2425 81.5036 63.74 81.0346 64.3504C80.5209 65.0288 79.9625 65.6845 79.4264 66.3628C79.8508 66.9733 80.2305 67.5838 80.9005 67.9456C81.5483 68.2847 82.2183 68.1491 82.866 67.9003L82.8213 67.8777ZM74.5574 64.3504C73.6417 65.2323 74.0214 67.0864 74.7808 67.6968C75.6519 68.3978 76.7463 68.3299 77.4163 67.4933C76.6123 66.3176 75.6295 65.3001 74.5351 64.3504H74.5574ZM76.2549 63.1069C76.8133 62.3155 76.8133 61.5467 76.4559 60.7553C76.2326 60.2579 75.8305 60.0318 75.4285 60.1448C75.0711 60.2353 74.8031 60.6197 74.8031 61.1171C74.8031 61.411 74.8701 61.7276 74.9818 61.9763C75.2275 62.4964 75.6295 62.8355 76.2326 63.1069H76.2549Z" fill="#000000"/>
</g>
</g>
<defs>
<clipPath id="clip0_1112_10573">
<rect width="141" height="75" fill="#000000"/>
</clipPath>
</defs>
</svg>
