<svg width="185" height="80" viewBox="0 0 185 80" fill="none" xmlns="http://www.w3.org/2000/svg">
<g clip-path="url(#clip0_1112_6889)">
<path d="M10.7249 25.2201L17.3209 24.7129L17.0526 34.3059C16.9153 39.1462 14.4441 42.0955 9.82005 42.4524C5.18974 42.8093 2.86835 40.2295 2.9994 35.3892L3.43622 19.6597C3.5735 14.8194 6.04467 11.8701 10.675 11.5132C15.299 11.1562 17.6204 13.7361 17.4894 18.5764L17.4083 21.5132L12.9527 21.8576L13.0401 18.614C13.1025 16.4537 12.1789 15.7023 10.6812 15.8212C9.18354 15.9402 8.21629 16.8294 8.15389 18.9897L7.69835 35.3203C7.63595 37.4806 8.55951 38.1882 10.0572 38.0692C11.5549 37.9502 12.5221 37.1049 12.5783 34.9446L12.7343 29.3716L10.5939 29.5344L10.7124 25.2138L10.7249 25.2201Z" fill="#000000"/>
<path d="M19.2987 18.4389C19.436 13.5986 22.0382 10.6368 26.6623 10.2799C31.2864 9.92297 33.7388 12.4903 33.6078 17.3306L33.171 33.0601C33.0337 37.9004 30.4315 40.8622 25.8074 41.2192C21.1833 41.5761 18.7309 39.0088 18.8619 34.1684L19.2987 18.4389ZM23.5609 34.1058C23.4985 36.2661 24.422 37.0175 25.9197 36.8986C27.4174 36.7796 28.3846 35.8904 28.447 33.7301L28.9026 17.3995C28.965 15.2392 28.0414 14.4878 26.5437 14.6068C25.0461 14.7257 24.0788 15.6149 24.0164 17.7752L23.5609 34.1058Z" fill="#000000"/>
<path d="M35.394 17.1958C35.525 12.3555 38.1335 9.39365 42.7575 9.03673C47.3816 8.67981 49.834 11.2471 49.703 16.0874L49.2662 31.8169C49.1351 36.6573 46.5267 39.6191 41.9026 39.976C37.2785 40.3329 34.8261 37.7656 34.9571 32.9253L35.394 17.1958ZM39.6623 32.8626C39.5999 35.023 40.5235 35.7744 42.0212 35.6554C43.5188 35.5364 44.4861 34.6472 44.5485 32.4869L45.004 16.1563C45.0664 13.996 44.1429 13.2446 42.6452 13.3636C41.1475 13.4826 40.1803 14.3717 40.1179 16.532L39.6623 32.8626Z" fill="#000000"/>
<path d="M58.4317 7.82168C63.012 7.46476 65.296 10.0509 65.1587 14.8912L65.1337 15.843L60.6782 16.1874L60.7156 14.935C60.778 12.7747 59.9418 12.017 58.4441 12.136C56.9465 12.255 56.0666 13.1379 56.0042 15.2982C55.8294 21.5224 65.0089 21.9732 64.7656 30.6144C64.6283 35.4547 62.1571 38.404 57.5331 38.7609C52.909 39.1179 50.5876 36.538 50.7186 31.6977L50.7686 29.838L55.2241 29.4936L55.1617 31.6539C55.0993 33.8142 56.0229 34.5217 57.5206 34.4028C59.0182 34.2838 59.9855 33.4385 60.0417 31.2782C60.2164 25.054 51.0369 24.6031 51.274 15.9619C51.4051 11.1216 53.8388 8.17234 58.4254 7.82168H58.4317Z" fill="#000000"/>
<path d="M71.6075 19.8667L78.0724 19.3658L77.9539 23.6864L71.4889 24.1873L71.2455 33.0477L79.3829 32.4152L79.2643 36.7358L66.4155 37.7314L67.258 7.48097L80.1068 6.48535L79.9882 10.806L71.8508 11.4384L71.6137 19.8667H71.6075Z" fill="#000000"/>
<path d="M94.6283 18.7348L101.224 18.2276L100.956 27.8205C100.825 32.6609 98.3476 35.6101 93.7235 35.9671C89.0994 36.324 86.778 33.7441 86.9091 28.9038L87.3459 13.1743C87.4832 8.334 89.9543 5.38472 94.5846 5.0278C99.2087 4.67088 101.53 7.25072 101.399 12.091L101.318 15.0278L96.8624 15.3722L96.9497 12.1286C97.0121 9.96832 96.0886 9.21691 94.5909 9.33588C93.0932 9.45485 92.126 10.344 92.0636 12.5043L91.608 28.8349C91.5456 30.9952 92.4692 31.7028 93.9669 31.5838C95.4645 31.4649 96.4318 30.6195 96.4879 28.4592L96.6439 22.8863L94.5035 23.0491L94.6221 18.7285L94.6283 18.7348Z" fill="#000000"/>
<path d="M103.197 11.9497C103.334 7.10936 105.937 4.14755 110.561 3.79064C115.185 3.43372 117.637 6.00103 117.5 10.8414L117.063 26.5708C116.926 31.4112 114.324 34.373 109.699 34.7299C105.075 35.0868 102.623 32.5195 102.754 27.6792L103.191 11.9497H103.197ZM107.465 27.6166C107.403 29.7769 108.327 30.5283 109.824 30.4093C111.322 30.2903 112.289 29.4012 112.352 27.2409L112.807 10.9102C112.87 8.74993 111.946 7.99852 110.448 8.1175C108.951 8.23647 107.983 9.12564 107.921 11.2859L107.465 27.6166Z" fill="#000000"/>
<path d="M119.292 10.7055C119.429 5.86522 122.031 2.90341 126.655 2.54649C131.279 2.18958 133.732 4.75689 133.595 9.59721L133.158 25.3267C133.02 30.167 130.418 33.1288 125.794 33.4858C121.17 33.8427 118.718 31.2754 118.849 26.435L119.286 10.7055H119.292ZM123.56 26.3724C123.498 28.5327 124.421 29.2841 125.919 29.1652C127.417 29.0462 128.384 28.157 128.44 25.9967L128.896 9.66609C128.958 7.50579 128.034 6.75438 126.537 6.87336C125.039 6.99233 124.072 7.8815 124.009 10.0418L123.554 26.3724H123.56Z" fill="#000000"/>
<path d="M142.341 1.33242C146.928 0.975505 149.206 3.5616 149.068 8.40193L149.043 9.35371L144.588 9.69811L144.625 8.44576C144.688 6.28546 143.851 5.52779 142.354 5.64676C140.856 5.76574 139.976 6.64864 139.914 8.80894C139.739 15.0331 148.919 15.484 148.675 24.1252C148.538 28.9655 146.067 31.9148 141.443 32.2717C136.819 32.6286 134.497 30.0488 134.628 25.2084L134.678 23.3487L139.134 23.0043L139.071 25.1646C139.009 27.3249 139.933 28.0325 141.43 27.9135C142.928 27.7945 143.895 26.9492 143.951 24.7826C144.126 18.5585 134.947 18.1076 135.184 9.46643C135.321 4.6261 137.755 1.67682 142.335 1.32616L142.341 1.33242Z" fill="#000000"/>
<path d="M155.505 13.377L161.97 12.8761L161.851 17.1967L155.386 17.6976L155.143 26.558L163.28 25.9256L163.162 30.2462L150.313 31.2418L151.155 0.99757L164.004 0.00195312L163.886 4.32255L155.748 4.95499L155.511 13.3833L155.505 13.377Z" fill="#000000"/>
<path d="M53.9985 49.9252L52.9189 50.0066L53.5367 43.4819L55.8769 43.3066C56.3074 43.2753 56.6382 43.3066 56.8566 43.4068C57.0812 43.5069 57.2622 43.676 57.4182 43.9202C57.568 44.1644 57.6616 44.4838 57.6865 44.872C57.7302 45.4418 57.6241 45.9115 57.3745 46.2746C57.1249 46.6378 56.738 46.882 56.2201 47.001C56.3761 47.1513 56.5383 47.3704 56.7006 47.6585C56.9689 48.1406 57.2747 48.8044 57.6241 49.6497L56.4572 49.7374C56.3948 49.562 56.2014 49.0799 55.8769 48.2909C55.7084 47.8902 55.5586 47.6084 55.4276 47.4456C55.3339 47.3329 55.2403 47.2577 55.153 47.2202C55.0594 47.1826 54.9096 47.1701 54.7037 47.1888L54.2606 47.2202L54.0048 49.919L53.9985 49.9252ZM54.3542 46.2433L54.9221 46.1995C55.465 46.1557 55.8269 46.0993 56.0141 46.0116C56.2013 45.9302 56.3511 45.7862 56.4634 45.5984C56.5758 45.4042 56.6257 45.1976 56.607 44.9722C56.5882 44.728 56.4946 44.5589 56.3262 44.4587C56.2263 44.3961 56.0204 44.3773 55.7084 44.3961L54.5227 44.4838L54.3542 46.2371V46.2433Z" fill="#000000"/>
<path d="M59.4706 49.5065L60.0884 42.9818L63.9886 42.6875L63.8825 43.777L61.0681 43.9899L60.9246 45.474L63.6516 45.2673L63.5455 46.3569L60.8185 46.5635L60.65 48.3356L63.6766 48.1102L63.5767 49.1997L59.4644 49.5128L59.4706 49.5065Z" fill="#000000"/>
<path d="M65.6166 46.9445L66.64 46.8004C66.6837 47.1448 66.7398 47.3828 66.8147 47.5143C66.8896 47.6458 67.0019 47.7397 67.1579 47.8086C67.314 47.8775 67.5199 47.8962 67.7757 47.8775C68.1065 47.8524 68.3498 47.7585 68.5121 47.6019C68.6681 47.4454 68.7367 47.245 68.718 47.0071C68.7055 46.838 68.6494 46.7002 68.5433 46.5875C68.4372 46.4748 68.1751 46.3308 67.757 46.1492C67.2266 45.9113 66.8709 45.7297 66.6899 45.5919C66.509 45.4542 66.3654 45.2788 66.2593 45.0659C66.1533 44.853 66.0846 44.6088 66.0659 44.327C66.0222 43.751 66.1595 43.2813 66.4653 42.9119C66.7773 42.5425 67.2203 42.3358 67.8007 42.2982C68.3873 42.2544 68.8678 42.3859 69.2485 42.699C69.6229 43.0121 69.8538 43.4817 69.9349 44.0954L68.899 44.2269C68.7991 43.5944 68.4559 43.3001 67.8693 43.344C67.5823 43.3627 67.3701 43.4441 67.2453 43.5756C67.1205 43.7071 67.0643 43.8825 67.0768 44.0891C67.0893 44.2832 67.1704 44.4335 67.3077 44.5462C67.445 44.6589 67.7133 44.8092 68.1065 44.9845C68.6307 45.21 68.9801 45.3978 69.1611 45.5293C69.3358 45.6671 69.4793 45.8361 69.5854 46.0428C69.6915 46.2494 69.7539 46.4936 69.7726 46.7629C69.8163 47.3703 69.6666 47.8837 69.3109 48.297C68.9552 48.7103 68.4684 48.942 67.8381 48.9858C67.3639 49.0234 66.952 48.9482 66.6026 48.7729C66.2531 48.5976 66.0035 48.3408 65.86 48.0152C65.7164 47.6896 65.6291 47.3327 65.6104 46.9445H65.6166Z" fill="#000000"/>
<path d="M74.0516 48.405L72.972 48.4864L73.4899 43.0512L71.9111 43.1702L72.0172 42.0807L76.1982 41.7676L76.0921 42.8571L74.5757 42.9698L74.0578 48.405H74.0516Z" fill="#000000"/>
<path d="M80.1971 46.5192L78.1129 46.6758L77.5825 48.1473L76.4717 48.2287L78.9678 41.5662L80.1659 41.4785L81.5014 47.853L80.478 47.9281L80.2034 46.5192H80.1971ZM79.9787 45.4547L79.4857 42.8874L78.5185 45.5674L79.985 45.4547H79.9787Z" fill="#000000"/>
<path d="M83.9979 41.1783L85.0837 41.0969L84.753 44.6411L84.6719 45.4989C84.6719 45.5803 84.6719 45.6555 84.6719 45.7181C84.6906 45.9873 84.7842 46.2002 84.9527 46.3443C85.1212 46.4883 85.3396 46.5509 85.6079 46.5321C85.845 46.5133 86.0447 46.4444 86.207 46.3255C86.363 46.2065 86.4816 46.0312 86.5627 45.7995C86.6438 45.5678 86.7124 45.142 86.7686 44.5158L87.1306 40.9466L88.2101 40.8652L87.8482 44.4282C87.7795 45.1545 87.6922 45.693 87.5798 46.0437C87.4176 46.5446 87.1805 46.9329 86.8622 47.1959C86.544 47.4588 86.1383 47.6091 85.6329 47.6467C85.0525 47.6905 84.5783 47.5465 84.2163 47.2209C83.8544 46.8953 83.6547 46.4257 83.6048 45.812C83.5923 45.6179 83.611 45.2171 83.6672 44.616L83.9854 41.1846L83.9979 41.1783Z" fill="#000000"/>
<path d="M91.0771 47.1231L89.9976 47.2045L90.6153 40.686L92.9555 40.5107C93.386 40.4794 93.7168 40.5107 93.9352 40.6109C94.1598 40.711 94.347 40.8801 94.4968 41.1243C94.6466 41.3685 94.7402 41.6879 94.7714 42.0761C94.8151 42.6459 94.709 43.1156 94.4594 43.4787C94.2035 43.8419 93.8229 44.0861 93.3049 44.2051C93.4609 44.3554 93.6232 44.5745 93.7854 44.8626C94.0538 45.3447 94.3595 46.0085 94.709 46.8538L93.5421 46.9415C93.4796 46.7661 93.2862 46.284 92.9617 45.495C92.7932 45.0943 92.6434 44.8125 92.5124 44.6497C92.4188 44.537 92.3252 44.4618 92.2316 44.4243C92.138 44.3867 91.9945 44.3742 91.7823 44.3929L91.3392 44.4243L91.0834 47.1231H91.0771ZM91.4328 43.4412L92.0007 43.3973C92.5436 43.3535 92.9055 43.2971 93.0927 43.2095C93.28 43.1281 93.4297 42.9841 93.5421 42.7962C93.6544 42.6021 93.7043 42.3954 93.6856 42.17C93.6669 41.9258 93.5733 41.7568 93.4048 41.6566C93.3049 41.5939 93.099 41.5752 92.787 41.5939L91.6013 41.6816L91.4328 43.4349V43.4412Z" fill="#000000"/>
<path d="M99.8749 45.029L97.7906 45.1855L97.2602 46.657L96.1494 46.7384L98.6455 40.0759L99.8437 39.9883L101.179 46.3627L100.156 46.4379L99.8811 45.029H99.8749ZM99.6565 43.9645L99.1572 41.3972L98.19 44.0772L99.6565 43.9645Z" fill="#000000"/>
<path d="M107.298 45.8997L106.294 45.9749L104.546 41.7545L104.135 46.1377L103.13 46.2128L103.748 39.6881L104.759 39.6129L106.5 43.8146L106.912 39.4501L107.922 39.375L107.305 45.8997H107.298Z" fill="#000000"/>
<path d="M111.935 45.5496L110.856 45.631L111.374 40.1958L109.795 40.3147L109.901 39.2252L114.082 38.9121L113.976 40.0017L112.46 40.1144L111.942 45.5496H111.935Z" fill="#000000"/>
</g>
<defs>
<clipPath id="clip0_1112_6889">
<rect width="161" height="50" fill="#000000" transform="translate(3)"/>
</clipPath>
</defs>
</svg>
