<svg width="148.937" height="65.828" viewBox="0.017 0.438 148.937 65.828" fill="none" xmlns="http://www.w3.org/2000/svg">
<g clip-path="url(#clip0_1112_8489)">
<path d="M10.5322 58.9534H8.91244L3.8296 29.6559V58.0773H5.75775V58.9534H0.0166016V58.0773H1.50646L2.51471 23.6115H0.806573V22.7354H9.04237V23.6115H7.4659L11.2339 45.8586L15.0018 23.6115H13.0754V22.7354H21.5745V23.6115H19.7347V58.0773H21.5745V58.9534H13.6869V58.0773H15.1352V29.6559L10.5322 58.9534Z" fill="#000"/>
<path d="M40.8996 34.2978H40.198L36.605 23.6132H34.2819V39.203H36.385L37.6999 33.1586H38.5314V46.4715H37.7449L36.385 40.0774H34.2819V58.0773H37.3049L41.0295 45.9469H41.7312V58.9534H27.8408V58.0773H29.7257V23.6132H27.8408V22.7354H40.373L40.8996 34.2978Z" fill="#000"/>
<path d="M46.7255 66.2669H46.069L46.0239 58.0773H48.697L53.6482 23.6115H51.94V22.7354H64.0339V23.6115H62.1924V58.0773H64.9521L64.9087 66.2669H64.2522L61.1841 58.9534H49.7919L46.7238 66.2669H46.7255ZM54.7448 23.6115L51.0201 58.0773H57.5929V23.6115H54.7448Z" fill="#000"/>
<path d="M85.5277 35.612C85.4532 36.2994 85.2713 36.8621 84.9802 37.3001C84.6875 37.7399 84.2717 38.0914 83.7312 38.3528C83.1907 38.616 82.4665 38.8203 81.5622 38.9658C82.4665 39.0835 83.1907 39.2809 83.7312 39.5562C84.2717 39.8332 84.6875 40.2124 84.9802 40.6937C85.2713 41.1751 85.4549 41.7499 85.5277 42.42C85.6004 43.0918 85.6368 43.8778 85.6368 44.7816V50.8174C85.6368 52.8293 85.5848 54.3824 85.4844 55.4749C85.3822 56.5675 85.0599 57.3778 84.5212 57.9024C83.9806 58.427 83.1335 58.7335 81.9797 58.8218C80.826 58.9101 79.1975 58.9534 77.0944 58.9534H70.4351V58.0773H72.2749V23.6115H70.4351V22.7354H77.0944C79.227 22.7354 80.8693 22.7873 82.023 22.8895C83.1768 22.9916 84.024 23.2998 84.5645 23.8106C85.1032 24.3231 85.4185 25.1265 85.5069 26.2242C85.5952 27.3202 85.6385 28.8785 85.6385 30.8956V33.1326C85.6385 34.097 85.6022 34.9246 85.5294 35.6103M80.5973 24.2711C80.2751 23.8313 79.6479 23.6132 78.7142 23.6132H76.8726V38.6333H78.7142C79.6479 38.6333 80.2768 38.4134 80.5973 37.9754C80.9178 37.5356 81.0789 36.8932 81.0789 36.0431V26.1601C81.0789 25.3412 80.9178 24.7109 80.5973 24.2729M80.5973 40.1431C80.2751 39.7207 79.6479 39.5077 78.7142 39.5077H76.8726V58.0755H78.7142C79.6479 58.0755 80.2768 57.8643 80.5973 57.4401C80.9178 57.0176 81.0789 56.3822 81.0789 55.5355V42.0477C81.0789 41.201 80.9178 40.5673 80.5973 40.1431Z" fill="#000"/>
<path d="M104.872 34.2978H104.17L100.577 23.6132H98.2558V39.203H100.357L101.672 33.1586H102.505V46.4715H101.717L100.357 40.0774H98.2558V58.0773H101.277L105.003 45.9469H105.703V58.9534H91.813V58.0773H93.6978V23.6132H91.813V22.7354H104.345L104.872 34.2978Z" fill="#000"/>
<path d="M110.697 66.2669H110.041L109.996 58.0773H112.669L117.62 23.6115H115.912V22.7354H128.006V23.6115H126.164V58.0773H128.925L128.882 66.2669H128.226L125.158 58.9534H113.765L110.697 66.2669ZM118.716 23.6115L114.992 58.0773H121.565V23.6115H118.716Z" fill="#000"/>
<path d="M140.145 23.6115V38.5017H141.153C143.081 38.5017 144.576 38.5606 145.645 38.6766C146.711 38.7944 147.485 39.1147 147.967 39.6393C148.448 40.1656 148.734 40.976 148.822 42.0702C148.909 43.1662 148.954 44.6916 148.954 46.6464V50.807C148.954 52.8207 148.911 54.3772 148.822 55.4715C148.734 56.5675 148.421 57.3709 147.88 57.8799C147.34 58.3924 146.492 58.6971 145.339 58.801C144.185 58.9032 142.541 58.9534 140.41 58.9534H133.706V58.0773H135.59V23.6115H133.749V22.7354H142.03V23.6115H140.147H140.145ZM144.394 41.9178C144.394 41.0712 144.233 40.4357 143.913 40.0133C143.591 39.5908 142.963 39.3778 142.028 39.3778H140.145V58.0773H142.028C142.963 58.0773 143.591 57.8574 143.913 57.4193C144.233 56.9813 144.394 56.3545 144.394 55.5373V41.9178Z" fill="#000"/>
<path d="M8.52712 2.75879V11.5042H7.30232V3.84612H3.42695L3.3386 6.40691C3.29702 7.61545 3.19827 8.5937 3.04582 9.34341C2.89164 10.0931 2.64737 10.6576 2.31475 11.0368C1.98213 11.4159 1.53171 11.6047 0.965218 11.6047C0.707091 11.6047 0.443767 11.5718 0.178711 11.5042L0.265331 10.3927C0.398725 10.4256 0.532119 10.4429 0.665514 10.4429C1.02412 10.4429 1.3117 10.2992 1.52825 10.0117C1.7448 9.72433 1.90764 9.2932 2.01678 8.71836C2.12419 8.14353 2.19695 7.38516 2.22987 6.445L2.36672 2.75879H8.52885H8.52712Z" fill="#000"/>
<path d="M21.9799 10.4208V11.5081H15.6289V2.7627H21.8032V3.85003H16.878V6.53548H21.2661V7.59684H16.878V10.4208H21.9781H21.9799Z" fill="#000"/>
<path d="M34.0425 3.84612H29.5417L29.5538 11.5042H28.3169V2.75879H34.0546L34.0407 3.84612H34.0425Z" fill="#000"/>
<path d="M46.2684 10.4208V11.5081H39.9175V2.7627H46.0917V3.85003H41.1665V6.53548H45.5547V7.59684H41.1665V10.4208H46.2667H46.2684Z" fill="#000"/>
<path d="M60.1312 2.75879V11.5042H58.8822V7.60679H53.8565V11.5042H52.6074V2.75879H53.8565V6.51945H58.8822V2.75879H60.1312Z" fill="#000"/>
<path d="M75.459 10.4186V13.4175H74.2965V11.506H67.095L67.0829 13.4175H65.9204L65.9325 10.4186H66.357C66.9079 10.3857 67.2942 9.94942 67.5194 9.11314C67.7446 8.27686 67.8815 7.09602 67.9317 5.57063L68.0183 2.75879H74.1683V10.4169H75.4555L75.459 10.4186ZM68.739 8.74434C68.5848 9.55292 68.3371 10.1104 67.9958 10.4186H72.9331V3.84612H69.0959L69.0335 5.68318C68.9919 6.91595 68.8932 7.93576 68.7407 8.74434H68.739Z" fill="#000"/>
<path d="M87.271 9.32135H82.6212L81.6597 11.5081H80.3726L84.3363 2.7627H85.5732L89.549 11.5081H88.2359L87.2727 9.32135H87.271ZM86.8344 8.32058L84.9461 4.03529L83.0578 8.32058H86.8327H86.8344Z" fill="#000"/>
<path d="M101.521 3.573C102.171 4.11494 102.497 4.85945 102.497 5.81001C102.497 6.76056 102.171 7.50507 101.521 8.04701C100.872 8.58895 99.9796 8.85905 98.8466 8.85905H96.6846V11.5081H95.4355V2.7627H98.8484C99.9831 2.7627 100.874 3.0328 101.523 3.57474L101.521 3.573ZM100.622 7.26614C101.038 6.92851 101.248 6.44371 101.248 5.81001C101.248 5.1763 101.038 4.69151 100.622 4.35388C100.207 4.01625 99.602 3.84829 98.8103 3.84829H96.6846V7.77172H98.8103C99.602 7.77172 100.207 7.60377 100.622 7.26614Z" fill="#000"/>
<path d="M116.136 2.75879V11.5042H114.887V7.60679H109.861V11.5042H108.612V2.75879H109.861V6.51945H114.887V2.75879H116.136Z" fill="#000"/>
<path d="M129.468 6.50733C130.023 6.97481 130.3 7.66046 130.3 8.56946C130.3 9.52694 130.002 10.2559 129.406 10.7563C128.81 11.2566 127.958 11.506 126.849 11.506H123.237V2.76052H124.474V5.80957H127.074C128.115 5.80957 128.914 6.0433 129.468 6.50906V6.50733ZM128.469 10.0239C128.855 9.6949 129.051 9.21875 129.051 8.59371C129.051 7.39383 128.301 6.79475 126.8 6.79475H124.475V10.5173H126.8C127.526 10.5173 128.082 10.3528 128.47 10.0239H128.469ZM131.687 2.75879H132.924V11.5042H131.687V2.75879Z" fill="#000"/>
<path d="M140.024 2.76205H141.261V9.50942L146.436 2.76205H147.586V11.5075H146.362V4.77397L141.175 11.5075H140.024V2.76205ZM142.206 1.70761C141.835 1.41153 141.646 0.989071 141.637 0.438477H142.524C142.533 0.763985 142.647 1.01504 142.869 1.19511C143.089 1.37518 143.396 1.46348 143.787 1.46348C144.179 1.46348 144.465 1.37345 144.693 1.19511C144.922 1.01677 145.04 0.763985 145.048 0.438477H145.923C145.916 0.980414 145.726 1.40115 145.355 1.70068C144.984 2.00022 144.461 2.15085 143.787 2.15085C143.113 2.15085 142.576 2.00368 142.206 1.70761Z" fill="#000"/>
</g>
<defs>
<clipPath id="clip0_1112_8489">
<rect width="148.186" height="66.5579" fill="white" transform="translate(0.0166016)"/>
</clipPath>
</defs>
</svg>
