<svg width="190" height="150" viewBox="0 0 190 150" fill="none" xmlns="http://www.w3.org/2000/svg">
<g clip-path="url(#clip0_1112_9641)">
<path d="M189.769 145.059C189.602 143.283 189.339 141.507 188.989 139.747C188.862 139.084 188.719 138.429 188.559 137.774C187.469 133.18 185.758 128.673 183.458 124.332C182.335 122.224 181.078 120.164 179.693 118.159C180.465 115.973 180.895 113.621 180.895 111.166C180.895 100.021 172.179 90.8967 161.14 90.1232C161.14 90.0601 161.116 89.9969 161.116 89.9338C161.856 85.6399 161.403 81.1883 159.747 77.076C157.383 71.1798 152.751 66.4598 146.877 63.9576C141.003 61.4476 134.365 61.3608 128.42 63.7051C124.448 65.2758 121.002 67.8568 118.399 71.1325C116.958 70.3589 115.319 69.9169 113.568 69.9169C111.188 69.9169 108.999 70.7299 107.264 72.0954C105.441 70.3589 102.958 69.2855 100.228 69.2855C96.3439 69.2855 92.9771 71.4403 91.2659 74.6133C88.0265 72.4427 84.1105 71.1719 79.9081 71.1719C78.4197 71.1719 76.9632 71.3377 75.5703 71.6376C73.6601 70.6115 71.6305 69.7748 69.5213 69.1355C61.1721 66.6176 52.1622 67.5016 44.4657 71.5745C36.7691 75.6473 31.0225 82.5932 28.4835 90.8731C27.7831 93.1463 27.3613 95.4747 27.1703 97.8032C25.5864 99.6028 24.6154 101.955 24.6154 104.528C24.6154 105.325 24.7029 106.099 24.878 106.841C19.5931 107.283 15.4384 111.679 15.4384 117.039C15.4384 119.036 16.0114 120.898 17.0143 122.469C14.0137 124.253 12 127.513 12 131.246C12 135.706 14.8812 139.487 18.8847 140.892C18.638 142.273 18.447 143.67 18.3117 145.059C18.1525 146.701 18.0808 148.351 18.0808 150H190C190 148.351 189.92 146.701 189.769 145.059ZM79.9081 74.3213C83.4579 74.3213 86.753 75.3868 89.483 77.218C90.2312 77.7153 91.1544 77.881 92.03 77.6679C92.9055 77.4548 93.6457 76.8786 94.0755 76.0893C95.2534 73.9029 97.5696 72.4269 100.236 72.4269H100.586C102.321 72.5216 103.889 73.232 105.067 74.3528C106.213 75.4421 108.004 75.5289 109.246 74.5502C110.44 73.6109 111.936 73.0584 113.576 73.0584H113.854C114.833 73.0978 115.756 73.3504 116.592 73.753C118.176 74.5107 119.434 75.821 120.078 77.4548C120.492 78.4967 121.423 79.2387 122.538 79.4202C123.652 79.5938 124.774 79.1755 125.491 78.3152C126.891 76.6339 129.001 75.5763 131.356 75.5763H131.715C135.392 75.7578 138.392 78.5125 138.894 82.0723C139.045 83.1694 139.777 84.1087 140.804 84.5428C141.831 84.9769 143.017 84.8427 143.924 84.1876C145.389 83.1299 147.187 82.5064 149.145 82.5064H149.575C153.985 82.7274 157.55 86.1214 157.988 90.4232C158.123 91.7492 159.078 92.8305 160.344 93.1621C160.535 93.2094 160.734 93.2489 160.933 93.2647C170.317 93.9277 177.727 101.687 177.727 111.158C177.727 112.453 177.584 113.708 177.321 114.923C175.053 112.034 172.506 109.288 169.704 106.699C168.152 105.27 166.536 103.881 164.833 102.555C162.652 100.858 160.36 99.2634 157.964 97.7558C151.597 93.754 144.529 90.4626 136.944 88.0079C136.872 87.9842 136.793 87.9605 136.721 87.9368C135.511 87.5501 134.293 87.1791 133.068 86.8397C132.59 86.7055 132.113 86.595 131.635 86.4687C130.799 86.2477 129.964 86.0188 129.12 85.8215C128.563 85.6873 127.998 85.5768 127.441 85.4505C126.668 85.2769 125.896 85.1032 125.116 84.9533C124.519 84.8349 123.915 84.7401 123.318 84.6296C122.569 84.4955 121.821 84.3534 121.073 84.235C120.452 84.1403 119.824 84.0613 119.203 83.9745C118.463 83.8719 117.73 83.7614 116.99 83.6746C116.353 83.5956 115.717 83.5404 115.072 83.4772C114.34 83.4062 113.607 83.3273 112.867 83.2641C112.223 83.2089 111.57 83.1773 110.925 83.1378C110.193 83.0905 109.461 83.0431 108.728 83.0116C108.076 82.98 107.423 82.9721 106.762 82.9563C106.205 82.9405 105.656 82.9168 105.099 82.9089H104.04C102.632 82.9089 101.223 82.9326 99.8141 82.9879C95.9937 83.1378 92.1891 83.493 88.4404 84.0377C86.2197 80.2332 83.2748 76.9339 79.7966 74.3292C79.8364 74.3292 79.8762 74.3292 79.9081 74.3292V74.3213ZM15.1837 131.246V131.009C15.2712 128.539 16.6323 126.384 18.6539 125.176L21.4396 123.519L19.7125 120.788C19.028 119.699 18.6221 118.42 18.6221 117.031V116.683C18.8051 113.139 21.6068 110.274 25.1407 109.982L28.4358 109.706L28.8019 109.674L27.9742 106.123C27.8866 105.736 27.8229 105.341 27.807 104.931V104.52C27.7991 100.613 30.9907 97.448 34.9305 97.448H35.2568C36.013 97.4875 36.7293 97.6374 37.3979 97.8821L41.0273 99.2082L41.6481 95.4195C42.1973 92.057 45.1422 89.4839 48.692 89.4839C49.7028 89.4839 50.6579 89.6891 51.5255 90.0601L54.2077 91.2125L55.5927 88.663C56.6035 86.8002 58.4341 85.4584 60.591 85.0638C61.0129 84.9848 61.4427 84.9375 61.8804 84.9375C62.5888 84.9375 63.2733 85.0401 63.926 85.2374C65.876 85.8136 67.4678 87.1949 68.3274 88.9945C67.8419 89.1682 67.3564 89.3339 66.8709 89.5155C66.2103 89.7601 65.5656 90.0285 64.9129 90.289C64.3319 90.5179 63.7429 90.7468 63.1698 90.9915C63.0345 91.0467 62.8992 91.102 62.7719 91.1572C62.2545 91.3782 61.7531 91.6229 61.2357 91.8518C60.7025 92.0886 60.1533 92.3254 59.628 92.578C59.6121 92.5859 59.5882 92.5938 59.5723 92.6095C58.9276 92.9174 58.2988 93.2331 57.662 93.5567C57.1367 93.8251 56.5955 94.0777 56.0782 94.3539C55.4335 94.6933 54.8047 95.0485 54.1679 95.4037C53.6745 95.68 53.181 95.9404 52.6955 96.2246C52.0349 96.6113 51.3981 97.0139 50.7534 97.4085C50.3157 97.6769 49.862 97.9453 49.4322 98.2215C48.7238 98.6793 48.0393 99.1529 47.3469 99.6265C46.9967 99.8633 46.6385 100.1 46.2883 100.345C45.2616 101.071 44.2587 101.821 43.2718 102.586L42.5316 103.178C42.4679 103.226 42.4122 103.281 42.3565 103.328C41.5207 103.999 40.7089 104.686 39.913 105.381C39.8016 105.483 39.6822 105.586 39.5707 105.68C38.7828 106.383 38.0028 107.093 37.2546 107.82C37.1511 107.922 37.0397 108.025 36.9362 108.127C36.1881 108.861 35.4558 109.603 34.7475 110.361C34.6519 110.464 34.5564 110.566 34.4609 110.669C33.7525 111.435 33.0601 112.208 32.3915 112.997C32.3119 113.092 32.2323 113.187 32.1527 113.282C31.6354 113.897 31.134 114.513 30.6485 115.136C30.4972 115.326 30.346 115.515 30.2027 115.713C30.1391 115.799 30.0754 115.886 30.0117 115.973C29.3829 116.81 28.7701 117.654 28.1811 118.515C28.1333 118.586 28.0856 118.657 28.0378 118.728C27.4409 119.604 26.8678 120.496 26.3266 121.396C26.3027 121.443 26.2709 121.482 26.247 121.53C25.6899 122.453 25.1566 123.393 24.6552 124.34C24.6552 124.34 24.6552 124.356 24.6472 124.363C22.347 128.697 20.6437 133.204 19.5533 137.797C16.9984 136.724 15.2076 134.206 15.2076 131.278L15.1837 131.246ZM104.04 146.843H21.368C21.4874 145.043 21.6943 143.244 22.0127 141.46C22.1003 140.955 22.2196 140.45 22.3231 139.944C22.4345 139.392 22.5539 138.847 22.6813 138.303C23.716 134.04 25.2999 129.849 27.4488 125.8C29.956 121.08 33.1874 116.605 37.0715 112.469C39.5309 109.848 42.261 107.362 45.2297 105.041C49.7187 101.537 54.7171 98.4662 60.1055 95.8536C61.0766 95.38 62.0635 94.9301 63.0664 94.4881C65.0005 93.6356 66.9823 92.8305 69.0039 92.1044C70.0386 91.7334 71.0733 91.3624 72.1319 91.023C72.1319 91.023 72.1319 91.023 72.1399 91.023C75.634 89.8943 79.2156 88.9708 82.8609 88.221C89.7536 86.8081 96.8692 86.0741 104.04 86.0741C115 86.0741 125.849 87.7632 135.949 91.023C146.049 94.2908 155.186 99.0661 162.851 105.049C168.048 109.106 172.498 113.66 176.095 118.586C176.812 119.564 177.496 120.551 178.141 121.553C179.04 122.951 179.876 124.363 180.64 125.808C184.206 132.533 186.251 139.652 186.713 146.851H104.04V146.843Z" fill="#000000" fill-opacity="0.3"/>
<path d="M93.2955 107.307C91.7594 107.307 90.5098 108.38 90.5098 109.706C90.5098 111.032 91.7594 112.106 93.2955 112.106C94.8316 112.106 96.0812 111.032 96.0812 109.706C96.0812 108.38 94.8316 107.307 93.2955 107.307Z" fill="#000000" fill-opacity="0.3"/>
<path d="M87.3263 138.16C89.0846 138.16 90.51 136.747 90.51 135.003C90.51 133.259 89.0846 131.846 87.3263 131.846C85.568 131.846 84.1426 133.259 84.1426 135.003C84.1426 136.747 85.568 138.16 87.3263 138.16Z" fill="#000000" fill-opacity="0.3"/>
<path d="M116.775 102.642C117.654 102.642 118.367 101.935 118.367 101.063C118.367 100.191 117.654 99.4844 116.775 99.4844C115.896 99.4844 115.183 100.191 115.183 101.063C115.183 101.935 115.896 102.642 116.775 102.642Z" fill="#000000" fill-opacity="0.3"/>
<path d="M59.4688 123.163C60.3479 123.163 61.0606 122.456 61.0606 121.584C61.0606 120.713 60.3479 120.006 59.4688 120.006C58.5896 120.006 57.877 120.713 57.877 121.584C57.877 122.456 58.5896 123.163 59.4688 123.163Z" fill="#000000" fill-opacity="0.3"/>
<path d="M137.469 126.32C139.227 126.32 140.653 124.907 140.653 123.163C140.653 121.419 139.227 120.006 137.469 120.006C135.711 120.006 134.285 121.419 134.285 123.163C134.285 124.907 135.711 126.32 137.469 126.32Z" fill="#000000" fill-opacity="0.3"/>
<path d="M109.922 123.953C109.214 123.953 108.641 124.482 108.641 125.137C108.641 125.792 109.214 126.321 109.922 126.321C110.63 126.321 111.203 125.792 111.203 125.137C111.203 124.482 110.63 123.953 109.922 123.953Z" fill="#000000" fill-opacity="0.3"/>
</g>
<defs>
<clipPath id="clip0_1112_9641">
<rect width="178" height="88" fill="#000000" transform="translate(12 62)"/>
</clipPath>
</defs>
</svg>
