<svg width="190" height="150" viewBox="0 0 190 150" fill="none" xmlns="http://www.w3.org/2000/svg">
<g clip-path="url(#clip0_1095_5601)">
<path d="M97.0754 72.645C105.476 70.2963 114.8 67.7178 123.992 69.2993L124.43 69.3776L124.431 69.3782C128.509 70.1417 132.248 72.5374 135.697 74.3203C139.248 76.1557 142.632 77.4519 146.47 76.6785L146.785 76.6091C147.09 76.5379 147.375 76.4614 147.765 76.372C148.231 76.265 148.757 76.1638 149.319 76.1444H149.32C150.518 76.1049 151.661 76.4579 152.646 77.0593L154.748 79.0259C154.885 79.2276 155.037 79.4583 155.175 79.7132C156.459 82.0657 156.713 84.0942 156.183 85.9214C155.669 87.6907 154.464 89.0931 153.231 90.301C152.612 90.9069 151.94 91.5073 151.318 92.0786C150.684 92.6615 150.084 93.2308 149.548 93.8239C148.478 95.0085 147.728 96.2177 147.515 97.651C146.599 103.807 145.931 109.391 143.942 114.648C141.93 119.963 138.586 124.921 132.386 129.981L132.385 129.98C123.58 137.169 111.257 142.224 100.969 146.527C84.7936 153.291 71.8931 149.45 57.0141 142.277C55.1402 141.375 53.1363 141.188 50.9225 141.116C48.7726 141.046 46.341 141.09 43.9929 140.495C42.1226 140.021 40.3138 138.82 39.144 137.291C37.9716 135.758 37.3248 133.712 38.2291 131.699L38.2297 131.698C38.7562 130.528 39.6532 129.724 40.5119 129.093C40.9404 128.779 41.3937 128.484 41.8017 128.213C42.2213 127.935 42.6031 127.677 42.9501 127.403C45.2887 125.561 46.3777 122.822 47.0137 119.536C47.331 117.897 47.527 116.172 47.7249 114.399C47.9208 112.644 48.1191 110.837 48.4427 109.112L48.5415 108.608C50.7105 98.0577 58.4674 89.492 67.4359 83.986C76.533 78.4011 86.9704 75.4696 97.0754 72.645ZM124.006 71.6284C115.287 70.0015 106.324 72.4382 97.6962 74.8504C87.5381 77.6899 77.4186 80.5474 68.6415 85.9359C59.8782 91.3159 52.5675 99.5884 50.7025 109.533C50.3975 111.158 50.2081 112.876 50.0098 114.652C49.8135 116.411 49.6087 118.227 49.2712 119.97C48.5975 123.45 47.36 126.849 44.3763 129.2L44.3757 129.201C43.9476 129.538 43.4954 129.842 43.0747 130.121C42.642 130.407 42.248 130.664 41.8758 130.937C41.1332 131.482 40.6128 132 40.3272 132.634L40.3278 132.634C39.8805 133.63 40.1165 134.784 40.9727 135.903C41.8315 137.026 43.1975 137.93 44.5592 138.275C46.5959 138.791 48.6777 138.751 50.9977 138.827C53.1832 138.899 55.5254 139.078 57.7954 140.113L58.0148 140.216C72.6922 147.291 84.8224 150.795 100.079 144.415L104.037 142.757C113.401 138.809 123.497 134.276 130.928 128.209L131.475 127.757C137.032 123.095 139.99 118.598 141.79 113.84C143.671 108.869 144.307 103.588 145.241 97.3155L145.271 97.1242C145.613 95.1569 146.656 93.6025 147.84 92.2917C148.45 91.6161 149.115 90.9877 149.759 90.3955C150.416 89.7917 151.036 89.2396 151.619 88.6676C152.792 87.5194 153.633 86.4627 153.975 85.285C154.3 84.1662 154.222 82.7604 153.153 80.8042L153.151 80.7997C153.08 80.6692 152.995 80.5371 152.894 80.3853L152.857 80.3333C152.011 79.1405 150.673 78.3918 149.397 78.4338L149.396 78.4332C149.053 78.4453 148.694 78.5089 148.281 78.6038C147.92 78.6867 147.379 78.8299 146.936 78.9214L146.931 78.9225C142.274 79.8631 138.275 78.2335 134.639 76.3536C130.899 74.4204 127.644 72.3096 124.006 71.6284Z" fill="white" fill-opacity="0.3"/>
<path d="M43.0533 57.5044C39.9827 54.3423 36.4813 50.7296 34.8616 46.1421L34.7102 45.6948L34.7105 45.694C34.0242 43.5558 34.2044 41.1372 34.1722 39.2149C34.1392 37.2409 33.9121 35.5979 32.8358 34.2287L32.7294 34.0972C32.5813 33.9219 32.4887 33.8321 32.2824 33.5986C32.1104 33.404 31.9078 33.1592 31.7342 32.864L31.7334 32.8625C31.3352 32.183 31.286 31.3842 31.3463 30.7415C31.3974 30.1983 31.5379 29.6523 31.7329 29.1778L31.7025 29.1605C31.7533 29.0634 31.8185 28.947 31.8952 28.8241L31.9033 28.8096L31.9036 28.8101C31.915 28.7921 31.9255 28.7732 31.9375 28.755L31.9372 28.7545C32.756 27.5016 33.7328 26.7771 34.873 26.5308C35.9529 26.2975 37.0046 26.5365 37.8787 26.8046C38.3186 26.9394 38.7745 27.1028 39.1772 27.2403C39.5958 27.3833 39.9829 27.5081 40.3591 27.5989C41.1094 27.7799 41.7231 27.8014 42.2858 27.5979L42.2863 27.5977C45.2954 26.5098 48.0761 25.4129 51.0387 25.0127C53.9686 24.6169 57.0477 24.8989 60.7989 26.3724L61.1639 26.5186C66.7 28.7793 72.1022 33.1815 76.5756 36.7708L76.5758 36.7713C83.8256 42.5902 85.2582 49.5815 85.6416 58.1405L85.6421 58.1402C85.6848 59.0872 86.0441 59.9521 86.5505 60.9639C87.0283 61.9187 87.6865 63.0838 88.0107 64.369C88.2848 65.4554 88.1686 66.6977 87.7069 67.716C87.2432 68.7385 86.3248 69.7237 84.9138 69.8287L84.9133 69.829C84.1078 69.8883 83.4158 69.6324 82.8855 69.3835C82.6212 69.2594 82.3602 69.1184 82.1429 69.0033C81.913 68.8815 81.7189 68.7814 81.5318 68.701C80.2986 68.1724 78.9385 68.3079 77.3283 68.8125C76.5264 69.0638 75.7104 69.3902 74.8493 69.7373C74.0042 70.078 73.1109 70.4403 72.2206 70.7249C66.6046 72.5206 60.5129 71.0477 55.6353 68.2442C50.7716 65.4487 46.8165 61.3801 43.0533 57.5044ZM36.8996 44.997C38.253 49.2042 41.4677 52.5779 44.7052 55.9118C48.5068 59.8271 52.2459 63.6518 56.784 66.2601C61.3082 68.8605 66.7161 70.0795 71.518 68.5443L71.5185 68.544C72.3123 68.2902 73.123 67.9624 73.987 67.614C74.8352 67.272 75.7346 66.9109 76.6381 66.6277C78.4384 66.0635 80.4521 65.7447 82.4409 66.5974L82.4417 66.5977C82.7235 66.7187 82.9912 66.8582 83.2221 66.9804C83.4656 67.1094 83.6649 67.217 83.8659 67.3114C84.266 67.4992 84.5259 67.5605 84.7438 67.5444L84.7436 67.5452C85.0383 67.523 85.3638 67.3214 85.6123 66.7732C85.8629 66.2206 85.9277 65.5069 85.7815 64.9274C85.5356 63.9526 85.0467 63.0927 84.493 61.9861C83.9678 60.9365 83.4111 59.7033 83.3452 58.2432L83.3449 58.2427C82.9715 49.9066 81.607 43.7508 75.1334 38.555C70.5797 34.9012 65.4543 30.7458 60.292 28.6377L60.2912 28.6375C56.7205 27.1783 53.9436 26.9319 51.3476 27.2826C48.6899 27.6416 46.19 28.6231 43.0704 29.751C41.9117 30.1701 40.7896 30.0596 39.8183 29.8252C39.3336 29.7083 38.8634 29.5541 38.4315 29.4065C37.9837 29.2536 37.5957 29.1145 37.2024 28.9939C36.4099 28.7509 35.8361 28.6667 35.3602 28.7695C34.9541 28.8572 34.4589 29.1186 33.9042 29.9445C33.7768 30.2199 33.6698 30.5897 33.6355 30.9548C33.5968 31.3664 33.6628 31.6123 33.7181 31.7073C33.7815 31.815 33.8717 31.9311 34.0079 32.0853C34.1087 32.1994 34.341 32.4474 34.4919 32.6262L34.4945 32.6299C36.1975 34.6637 36.4353 37.0434 36.4709 39.1765C36.5085 41.4249 36.35 43.283 36.9001 44.9967L36.8996 44.997Z" fill="white" fill-opacity="0.3"/>
<path d="M148.191 58.722C147.95 61.9139 147.494 65.0953 147.51 68.3081C147.515 69.7215 147.609 71.1349 147.745 72.5483C149.511 72.2667 151.727 68.741 152.507 67.385C153.707 65.2988 154.613 63.0717 155.252 60.7613C156.766 55.2693 156.756 49.3236 155.572 43.7482C154.713 39.7166 153.241 35.805 151.171 32.2584C150.459 31.0328 149.982 30.1149 149.307 29.9062C149.207 32.9365 149.102 35.9615 149.003 38.9917C148.783 45.5684 148.683 52.1609 148.191 58.7168V58.722Z" fill="white" fill-opacity="0.3"/>
<path d="M147.231 57.5326C147.451 54.252 147.562 50.9662 147.672 47.6805C147.871 41.8182 148.064 35.956 148.263 30.0938C147.97 30.2554 147.635 30.5006 147.247 30.85C142.077 35.5335 138.771 43.3985 138.216 50.356C137.88 54.5389 138.441 58.7895 139.819 62.7377C140.919 65.9035 144.722 70.9417 146.687 72.256C146.535 70.5766 146.446 68.8972 146.482 67.2126C146.556 63.9737 147.017 60.761 147.231 57.5326Z" fill="white" fill-opacity="0.3"/>
<path d="M169.029 64.4173C166.646 66.1436 164.131 67.7187 161.889 69.6223C160.899 70.462 159.972 71.3591 159.065 72.2823C160.354 73.2836 164.205 72.663 165.635 72.3814C167.84 71.9432 169.962 71.2287 171.973 70.2847C176.762 68.042 180.916 64.5268 184.085 60.4587C186.38 57.5119 188.203 54.2314 189.408 50.7735C189.822 49.5791 190.173 48.7238 189.9 48.1553C187.716 49.8764 185.531 51.5923 183.347 53.3134C178.606 57.0477 173.922 60.8707 169.024 64.412L169.029 64.4173Z" fill="white" fill-opacity="0.3"/>
<path d="M169.265 63.082C171.701 61.2931 174.069 59.4259 176.442 57.5588C180.67 54.2313 184.897 50.9038 189.13 47.571C188.837 47.472 188.454 47.3937 187.967 47.3468C181.482 46.6948 173.922 49.1566 168.705 52.8909C165.567 55.1336 162.942 58.0125 161.025 61.2514C159.49 63.8487 158.316 69.3302 158.615 71.4008C159.694 70.3107 160.82 69.2624 162.02 68.2923C164.336 66.4304 166.871 64.8396 169.265 63.0768V63.082Z" fill="white" fill-opacity="0.3"/>
<path d="M116.365 99.3771C119.697 99.7578 120.294 94.5997 116.957 94.2242C113.625 93.8434 113.028 99.0016 116.365 99.3771Z" fill="white" fill-opacity="0.3"/>
<path d="M94.4726 135.516C97.8044 135.897 98.4016 130.738 95.0646 130.363C91.7328 129.982 91.1356 135.14 94.4726 135.516Z" fill="white" fill-opacity="0.3"/>
<path d="M101.524 118.231C104.856 118.611 105.453 113.453 102.116 113.078C98.7846 112.697 98.1874 117.855 101.524 118.231Z" fill="white" fill-opacity="0.3"/>
<path d="M121.692 127.14C125.024 127.521 125.621 122.362 122.284 121.987C118.953 121.606 118.355 126.764 121.692 127.14Z" fill="white" fill-opacity="0.3"/>
<path d="M76.5674 124.62C79.8992 125.001 80.4964 119.843 77.1593 119.467C73.8275 119.087 73.2303 124.245 76.5674 124.62Z" fill="white" fill-opacity="0.3"/>
</g>
<defs>
<clipPath id="clip0_1095_5601">
<rect width="173" height="138" fill="white" transform="translate(17 12)"/>
</clipPath>
</defs>
</svg>
