<svg width="130.997" height="64.638" viewBox="1.976 0 130.997 64.638" fill="none" xmlns="http://www.w3.org/2000/svg">
<path d="M1.97751 50.2239C2.37183 49.0538 2.84694 47.9203 3.36437 46.8022C3.58366 46.3319 3.95682 46.0196 4.35307 45.7362C5.15133 45.1694 5.96498 44.622 6.7921 44.0938C7.41917 43.6928 8.11356 43.4827 8.86566 43.4441C9.86975 43.3902 10.818 43.6408 11.774 43.8875C12.1587 43.9839 12.5492 44.0437 12.9032 44.248C13.4475 44.5622 13.8091 45.0287 14.0246 45.5878C14.3977 46.5535 14.717 47.5386 14.9248 48.5564C15.0729 49.2716 14.9709 49.9579 14.5843 50.5728C14.0977 51.3458 13.5802 52.1034 13.0705 52.8591C12.5896 53.5723 12.1453 53.6514 11.3489 53.5029C10.3025 53.3082 9.26768 53.0499 8.21359 52.9054C7.94814 52.8687 7.68462 52.8282 7.42494 52.7743C6.75363 52.6374 6.38816 52.1786 6.17465 51.5656C6.14387 51.475 6.10733 51.3882 6.06308 51.3034C6.04385 51.2668 6.09771 51.1743 5.99191 51.1935C5.89766 51.2109 5.87843 51.2707 5.88035 51.3613C5.93228 53.208 6.5382 54.889 7.39032 56.4967C7.72501 57.129 8.09048 57.7516 8.5906 58.2682C9.33116 59.0316 10.2545 59.5135 11.272 59.7892C12.4492 60.1073 13.6553 60.2846 14.8613 60.4446C15.6826 60.5526 16.504 60.647 17.335 60.6104C18.0909 60.5796 18.8315 60.4523 19.5605 60.2461C20.7723 59.901 21.8726 59.3169 22.869 58.5555C24.6867 57.1656 25.987 55.4114 26.5121 53.1425C26.7872 51.9511 26.7006 50.7367 26.6775 49.5299C26.6698 49.1675 26.6487 48.7974 26.6371 48.4331C26.6275 48.1343 26.5756 47.8297 26.591 47.5405C26.6391 46.5401 26.6025 45.5434 26.6448 44.5449C26.6814 43.6427 26.791 42.7425 26.818 41.8345C26.8449 40.9188 26.791 40.0147 26.7006 39.1068C26.6737 38.8388 26.666 38.569 26.6391 38.301C26.5467 37.3449 26.5467 36.381 26.5833 35.4229C26.6237 34.3029 26.7025 33.1887 26.7603 32.0707C26.7987 31.3188 26.8507 30.567 26.8641 29.8152C26.8757 29.1174 26.9122 28.4215 26.9449 27.7256C26.9661 27.2128 26.9545 26.702 26.9853 26.1873C27.068 24.8533 27.0584 23.5155 27.1161 22.1815C27.1546 21.289 27.1642 20.3964 27.145 19.5078C27.1276 18.7849 26.9776 18.0678 26.841 17.3545C26.7102 16.6586 26.5833 15.9627 26.5717 15.2494C26.5564 14.2972 26.5717 13.3468 26.6371 12.4003C26.691 11.6292 26.7006 10.8562 26.7641 10.089C26.8199 9.42969 26.7295 8.75884 26.9218 8.10921C27.0892 7.54246 27.3989 7.07981 27.8682 6.71354C28.2318 6.42824 28.5357 6.07354 28.8857 5.76511C29.3128 5.38535 29.6994 4.9574 30.1072 4.55258C30.8074 3.86246 31.5114 3.17234 32.2789 2.55161C32.7867 2.14294 33.3637 1.84029 33.9408 1.55113C34.3043 1.368 34.7294 1.368 35.0603 1.70535C35.3296 1.97716 35.3815 2.30101 35.2565 2.65957C35.2045 2.80607 35.1084 2.92559 35.0006 3.03354C34.4351 3.61571 33.8446 4.16704 33.2041 4.66631C32.9617 4.85523 32.8886 5.10583 32.9752 5.43354C33.2502 6.44173 33.256 7.47692 33.2079 8.50631C33.1233 10.3415 33.1521 12.1786 33.1675 14.0119C33.1733 14.7078 33.2252 15.4056 33.2118 16.1015C33.1906 16.9747 33.131 17.8461 32.9906 18.7116C32.8328 19.6851 32.7443 20.6682 32.8155 21.6533C32.854 22.2066 32.9694 22.7502 33.0348 23.2996C33.0887 23.7372 33.1271 24.1786 33.156 24.6181C33.2406 25.9078 33.2368 27.1993 33.2098 28.489C33.1925 29.3641 33.1117 30.2374 33.0367 31.1126C32.9732 31.8297 32.929 32.5507 32.8578 33.2678C32.7078 34.7405 32.702 36.2133 32.7713 37.6841C32.8444 39.2417 32.9636 40.7935 32.9213 42.3511C32.8905 43.4808 32.8348 44.6066 32.7443 45.7323C32.6732 46.621 32.6039 47.5078 32.6424 48.3964C32.6866 49.3719 32.727 50.3473 32.7617 51.3227C32.7886 52.0745 32.8155 52.8282 32.8809 53.5762C33.0002 54.9198 32.6886 56.1439 31.973 57.2543C31.4941 57.9945 30.8247 58.5632 30.1264 59.101C28.2337 60.5661 26.0986 61.607 23.9634 62.6441C22.7151 63.2495 21.4898 63.9242 20.1818 64.3984C19.5547 64.6239 18.9142 64.6895 18.2371 64.5969C16.7002 64.3868 15.1845 64.061 13.6783 63.7025C12.4319 63.4056 11.2028 63.047 9.97939 62.6711C9.06379 62.3897 8.13857 62.1352 7.20951 61.9078C6.1458 61.6456 5.44563 60.9825 5.07439 59.9801C4.63775 58.8022 4.12032 57.6591 3.67021 56.489C3.24511 55.3786 2.85464 54.2586 2.55072 53.1097C2.39684 52.5333 2.17948 51.9743 2.05253 51.3844C2.02752 51.2707 2.10446 51.128 1.97559 51.0393V50.2239H1.97751Z" fill="#000"/>
<path d="M132.967 55.6582C132.708 56.2962 132.392 56.8958 131.905 57.395C131.325 57.9868 130.609 58.3685 129.861 58.6924C128.943 59.0895 128.028 59.4847 127.174 60.0186C126.895 60.1941 126.8 60.437 126.787 60.7358C126.781 60.8919 126.798 61.05 126.781 61.2023C126.754 61.4586 126.581 61.5839 126.344 61.6109C126.096 61.6379 125.883 61.4702 125.856 61.2312C125.819 60.9054 125.627 60.6664 125.415 60.4485C124.954 59.9743 124.492 59.502 124.013 59.0452C123.461 58.5189 123.19 57.8789 123.105 57.1271C123.028 56.4254 122.88 55.7353 122.778 55.0374C122.703 54.5362 122.649 54.0331 122.592 53.5261C122.551 53.1637 122.474 52.8013 122.482 52.4408C122.501 51.5772 122.632 50.7174 122.694 49.8596C122.732 49.3237 122.728 48.7801 122.667 48.2345C122.613 47.768 122.594 47.2957 122.534 46.8273C122.417 45.9271 122.37 45.0268 122.347 44.1189C122.32 43.1068 122.392 42.1044 122.461 41.0962C122.513 40.3656 122.703 39.6562 122.707 38.9256C122.709 38.0003 122.353 37.1791 121.947 36.3733C121.876 36.2345 121.726 36.1632 121.578 36.2191C121.22 36.3521 120.876 36.3329 120.518 36.2095C120.22 36.1073 120.003 36.2384 119.826 36.4871C119.299 37.2273 118.706 37.9097 117.95 38.4264C117.306 38.8659 116.552 39.0567 115.823 39.2919C115.086 39.5309 114.378 39.822 113.69 40.1709C113.393 40.3213 113.082 40.4427 112.784 40.5892C112.374 40.7917 112.318 40.969 112.424 41.4143C112.584 42.0851 112.647 42.7598 112.587 43.4635C112.48 44.6586 112.191 45.8403 112.28 47.0529C112.355 48.1112 112.443 49.1676 112.468 50.2297C112.487 51.0027 112.495 51.77 112.468 52.543C112.443 53.2736 112.289 54.0389 112.691 54.7271C112.986 55.2283 113.311 55.7102 113.624 56.1998C113.695 56.3097 113.79 56.302 113.903 56.2673C114.699 56.0437 115.482 55.7912 116.24 55.4519C116.471 55.3497 116.721 55.2495 116.963 55.4635C117.235 55.6986 117.233 55.9936 117.11 56.2789C116.804 56.9806 116.425 57.6398 115.957 58.249C115.355 59.0355 114.526 59.5001 113.692 59.9685C113.186 60.25 112.687 60.5507 112.195 60.8572C112.022 60.9652 111.935 61.1618 111.831 61.3314C111.76 61.4451 111.714 61.5724 111.643 61.6842C111.374 62.0986 111.058 62.1141 110.675 61.7864C110.372 61.5242 110.266 61.1444 110.064 60.8225C109.587 60.0688 108.971 59.4615 108.206 59.0124C107.713 58.7232 107.196 58.4842 106.665 58.2702C106.103 58.0408 105.715 58.1391 105.39 58.6615C104.88 59.477 104.126 59.5252 103.385 59.2553C103.172 59.1782 103.072 58.995 103.018 58.8042C102.87 58.2644 103.12 57.6052 103.566 57.289C104.482 56.6394 105.378 55.9608 106.305 55.3247C106.859 54.9468 107.057 54.3627 106.926 53.6803C106.865 53.3584 106.89 53.0288 106.863 52.6991C106.726 51.0085 106.69 49.3102 106.744 47.6138C106.775 46.6519 106.851 45.69 106.921 44.728C107.025 43.2803 106.884 41.8789 106.321 40.5391C106.115 40.0476 106.269 39.5714 106.292 39.0914C106.311 38.6345 106.401 38.1796 106.44 37.7208C106.459 37.5088 106.544 37.3025 106.448 37.0731C106.29 36.703 105.949 36.5102 105.563 36.6432C105.055 36.8167 104.603 37.1078 104.118 37.3314C103.63 37.557 103.127 37.7227 102.581 37.715C102.37 37.7131 102.175 37.6591 102.071 37.4644C101.954 37.2504 101.998 37.048 102.145 36.8495C102.533 36.3213 103.033 35.9107 103.531 35.5039C104.41 34.7868 105.324 34.1102 106.222 33.4143C107.036 32.7839 107.802 32.0957 108.544 31.3844C109.123 30.8312 109.856 30.8466 110.398 31.4384C111.201 32.3136 111.908 33.2582 112.278 34.4109C112.437 34.9102 112.464 35.4076 112.407 35.9396C112.341 36.5449 112.378 37.1637 112.397 37.7767C112.405 38.0119 112.618 38.0736 112.822 38.0639C113.415 38.037 114.003 37.9444 114.576 37.8114C115.157 37.6745 115.732 37.5049 116.294 37.3044C117.027 37.0442 117.633 36.5931 118.131 35.9801C118.408 35.637 118.71 35.3092 119.006 34.9796C119.479 34.4572 119.933 33.9194 120.432 33.4182C121.045 32.8032 121.765 32.3309 122.476 31.849C123.009 31.4904 123.502 31.0818 123.99 30.6692C124.332 30.3801 124.565 30.276 124.988 30.6288C125.819 31.3227 126.646 32.0206 127.481 32.7107C127.87 33.0345 128.27 33.3449 128.664 33.6668C128.797 33.7767 128.912 33.7671 129.053 33.6726C129.378 33.4509 129.636 33.1598 129.893 32.8745C130.43 32.2789 131.309 32.4813 131.73 33.0673C131.869 33.2601 131.832 33.6726 131.667 33.8538C131.19 34.3724 130.705 34.8851 130.234 35.4095C129.782 35.9107 129.337 36.4215 128.862 36.9015C128.674 37.0943 128.607 37.3391 128.662 37.5955C128.784 38.1526 128.832 38.7213 128.818 39.2842C128.791 40.2018 128.734 41.1194 128.697 42.0331C128.682 42.3878 128.657 42.7464 128.658 43.103C128.664 44.1709 128.605 45.237 128.578 46.303C128.56 46.97 128.595 47.6408 128.532 48.3059C128.451 49.1406 128.541 49.9753 128.468 50.8042C128.412 51.4538 128.424 52.1015 128.428 52.7512C128.433 53.7825 128.859 54.6384 129.603 55.3343C129.926 55.6389 130.342 55.6427 130.746 55.5599C131.076 55.4924 131.209 55.1974 131.271 54.9044C131.3 54.7676 131.342 54.6268 131.344 54.4803C131.35 54.3165 131.451 54.2452 131.611 54.2452C132.167 54.2432 132.671 54.355 132.973 54.8871V55.6505H132.967V55.6582Z" fill="#000"/>
<path d="M13.8094 0.00385542C14.2922 0.169639 14.7981 0.235181 15.2905 0.348916C16.1138 0.537831 16.9448 0.699759 17.768 0.880964C19.0741 1.16819 20.3821 1.45542 21.6863 1.76C22.7577 2.0106 23.8233 2.28819 24.8928 2.54843C25.1236 2.60434 25.3563 2.66988 25.5891 2.6853C25.9199 2.70651 26.1815 2.48867 26.4604 2.35759C27.2395 1.99711 28.0031 1.59807 28.7706 1.21639C29.4535 0.875181 30.0247 1.05831 30.4999 1.57108C30.6307 1.71181 30.5479 1.80627 30.4364 1.86602C29.4554 2.36916 28.661 3.10361 27.9146 3.89783C27.6434 4.18506 27.378 4.48193 27.0991 4.76145C26.3989 5.46699 25.5833 6.01639 24.712 6.48096C23.3155 7.22506 21.8632 7.85157 20.4129 8.47614C19.8762 8.70747 19.3338 8.60337 18.8048 8.37976C17.3256 7.75711 15.8387 7.15374 14.3595 6.53301C13.8517 6.31904 13.3612 6.08771 12.7995 6.00482C12.1071 5.90072 11.4704 6.01639 10.8433 6.27663C10.0931 6.59084 9.51032 7.15759 8.85824 7.61639C8.56202 7.82651 8.27541 8.04434 7.98303 8.26024C7.67719 8.48578 7.67719 8.54747 7.93495 8.81735C8.23309 9.13349 8.56394 9.41494 8.83323 9.76386C9.29488 10.3653 9.34104 11.0477 9.23717 11.7436C9.19678 12.0193 9.20255 12.2969 9.15446 12.5706C9.09099 12.9253 9.1333 13.3012 9.08714 13.6655C9.05059 13.9605 9.22563 14.1359 9.48723 14.2573C9.86617 14.4347 10.2528 14.6024 10.6048 14.8357C10.8549 15.0014 10.901 15.2289 10.7375 15.4776C10.4394 15.9306 10.1355 16.3798 9.83732 16.8328C9.73922 16.9812 9.65458 17.0429 9.50647 16.8713C9.37567 16.7171 9.24679 16.5667 9.1333 16.399C8.96596 16.1484 8.73706 15.9904 8.4139 15.9981C7.98303 16.0058 7.88493 15.9229 7.73875 15.4892C7.0809 13.5345 6.41921 11.5817 5.75944 9.62699C5.64018 9.27614 5.44205 8.95807 5.40743 8.57831C5.35165 7.97687 5.59401 7.47181 5.91716 7.00145C6.48268 6.17639 7.08475 5.37639 7.64834 4.55133C8.41775 3.42554 9.31219 2.40578 10.3163 1.48819C10.9722 0.890602 11.6858 0.358554 12.5553 0.0925301C12.638 0.0674699 12.7572 0.113735 12.8111 0H13.8075L13.8094 0.00385542Z" fill="#000"/>
<path d="M48.7269 39.6021C48.7808 40.8377 48.5499 41.9809 48.6134 43.1375C48.6615 44.03 48.7461 44.9187 48.8442 45.8074C48.9616 46.856 48.977 47.9105 48.9712 48.9649C48.9654 49.7457 48.8404 50.5129 48.75 51.284C48.6365 52.2517 48.473 53.231 48.7904 54.1987C48.9366 54.644 49.1058 55.0777 49.3232 55.4902C49.4694 55.7678 49.756 55.7659 49.9868 55.7004C50.258 55.6233 50.5023 55.683 50.7505 55.737C51.0948 55.8102 51.4083 55.764 51.7218 55.6194C53.0818 54.989 54.3475 54.1775 55.7035 53.5433C56.8096 53.0266 57.9098 52.5023 59.0062 51.9741C59.4833 51.7447 59.5256 51.6522 59.4006 51.1413C59.1794 50.2488 59.2044 49.3563 59.3371 48.456C59.4044 48.0011 59.4486 47.5384 59.4563 47.0796C59.4737 46.1312 59.5929 45.1789 59.5121 44.2305C59.4448 43.4247 59.5237 42.617 59.4544 41.8189C59.3736 40.9168 59.4179 40.0165 59.4102 39.1124C59.4044 38.4146 59.1947 37.7977 58.7793 37.2502C58.5792 36.99 58.4311 36.7047 58.2868 36.4136C58.1945 36.2286 58.0637 36.1418 57.856 36.2768C57.5809 36.456 57.2481 36.404 56.9442 36.4869C56.4537 36.6237 55.9921 36.8184 55.5516 37.0652C55.3265 37.1924 55.0726 37.2117 54.9072 37.0594C54.7341 36.9033 54.6052 36.6488 54.7129 36.3828C54.9976 35.6753 55.2958 34.9736 55.7766 34.3683C56.2825 33.7302 56.8615 33.1808 57.5944 32.8261C58.4638 32.4059 59.2698 31.8854 60.0988 31.3958C60.2104 31.3302 60.2815 31.2686 60.4162 31.4363C60.6816 31.764 61.0817 31.9221 61.4991 31.9317C61.8107 31.9394 61.9954 32.0531 62.1935 32.2922C62.6571 32.8474 63.213 33.31 63.8478 33.6666C64.2882 33.9153 64.7518 34.1139 65.2327 34.2719C65.7309 34.4358 66.0887 34.2989 66.4041 33.8652C66.6273 33.5587 66.8465 33.2329 67.2601 33.1481C67.8506 33.0286 68.5854 33.1461 68.7681 33.6936C68.9143 34.137 68.6816 34.8522 68.295 35.1471C67.3082 35.897 66.3137 36.6334 65.3019 37.3486C64.9249 37.6146 64.7922 38.0715 64.848 38.5013C64.9038 38.9505 64.8845 39.4035 64.9288 39.8546C64.9749 40.35 64.9769 40.8628 65.0211 41.3582C65.1077 42.3433 65.1384 43.3283 65.1192 44.3153C65.0981 45.364 65.0076 46.4069 64.898 47.4517C64.7845 48.5351 64.7441 49.6242 65.073 50.6845C65.2096 51.1278 65.4366 51.5404 65.4962 52.0107C65.5539 52.4753 65.5443 52.9399 65.5116 53.4006C65.4808 53.8382 65.4039 54.2739 65.3616 54.7115C65.3366 54.964 65.2442 55.2146 65.3597 55.4748C65.4712 55.7274 65.7405 55.8739 66.0098 55.7871C66.86 55.5153 67.6756 55.149 68.5085 54.831C68.9413 54.6652 69.3433 54.7963 69.703 55.0334C69.9357 55.1876 69.9069 55.5037 69.6414 55.7601C69.2471 56.1418 68.8355 56.5061 68.4181 56.8628C67.9218 57.283 67.4121 57.6898 66.9081 58.0965C66.1483 58.7076 65.3847 59.3129 64.6268 59.9259C64.0978 60.3519 63.59 60.8069 63.0437 61.2078C62.407 61.6724 61.8396 61.5317 61.3452 61.0517C60.6528 60.3828 60.2277 59.5327 59.8237 58.6748C59.6968 58.4069 59.5929 58.1331 59.4698 57.8652C59.3313 57.5741 59.3621 57.2792 59.3871 56.9669C59.4275 56.456 59.4256 55.9375 59.4063 55.4247C59.3967 55.1992 59.5044 54.989 59.4256 54.7461C59.3429 54.484 59.1774 54.3992 58.9562 54.4319C58.4484 54.509 57.931 54.5225 57.4309 54.6536C56.0748 55.0122 54.7437 55.4266 53.6107 56.298C52.9606 56.7992 52.3431 57.3447 51.6795 57.8286C50.7928 58.4763 49.9137 59.1298 49.0616 59.8218C48.3903 60.3616 47.6497 60.8165 47.0592 61.4565C46.9111 61.6165 46.8014 61.6589 46.5822 61.4758C45.6839 60.7163 44.7894 59.9529 43.8527 59.2416C43.493 58.9698 43.1602 58.6671 42.814 58.3799C42.5197 58.1389 42.335 58.1775 42.0946 58.4666C41.7791 58.8464 41.404 59.1683 40.9982 59.4401C40.6115 59.7004 40.3018 59.4247 39.9941 59.2281C39.9229 59.1818 39.8614 59.124 39.7902 59.0719C39.4632 58.8425 39.4016 58.4936 39.6325 58.1524C39.7402 57.9943 39.8479 57.8363 39.9768 57.6975C40.3653 57.2792 40.7616 56.8686 41.154 56.4541C41.5733 56.0146 42.0042 55.5789 42.4139 55.1278C42.6178 54.9042 42.6813 54.6324 42.6428 54.3143C42.5947 53.923 42.6043 53.5259 42.5793 53.1288C42.5408 52.4792 42.562 51.8237 42.5697 51.1722C42.5812 50.0927 42.739 49.0189 42.7582 47.9355C42.764 47.631 42.7755 47.3206 42.8024 47.0141C42.8755 46.2507 42.8197 45.4816 42.8659 44.7201C42.9756 42.9254 42.9178 41.1269 42.9025 39.3302C42.8948 38.3336 42.5639 37.4199 41.8137 36.697C41.379 36.2787 40.7173 36.2787 40.2768 36.564C40.0806 36.6912 40.0249 36.9418 40.0075 37.1693C39.9979 37.2984 39.9537 37.4122 39.9171 37.5298C39.8806 37.6493 39.7786 37.736 39.6594 37.7129C39.3555 37.6512 39.0419 37.5992 38.7553 37.4816C38.3668 37.3254 38.211 36.778 38.4014 36.3192C38.6899 35.6213 39.0727 34.9736 39.594 34.4146C40.1768 33.7842 40.927 33.4199 41.7003 33.1172C42.5197 32.7992 43.3083 32.431 44.07 31.9953C44.3355 31.8449 44.4951 31.6136 44.4894 31.2917C44.4874 31.1355 44.4874 30.9794 44.4894 30.8252C44.4913 30.5013 44.6471 30.3221 44.9356 30.3047C45.3319 30.2796 45.4357 30.3683 45.48 30.7558C45.5165 31.0796 45.7108 31.3187 45.9243 31.5365C46.4264 32.0531 46.9207 32.5775 47.4516 33.0594C47.9248 33.4854 48.1191 34.0252 48.2152 34.6189C48.3383 35.3919 48.4749 36.163 48.5596 36.9399C48.6442 37.8498 48.7942 38.7577 48.725 39.5963L48.7269 39.6021Z" fill="#000"/>
<path d="M82.8838 44.9204C82.5607 45.3657 82.1548 45.5122 81.6297 45.4023C81.3796 45.3503 81.1026 45.3503 80.8468 45.3946C80.4929 45.4563 80.2467 45.6606 80.137 46.0423C79.8889 46.9175 79.4041 47.6539 78.7444 48.2785C78.1769 48.8182 77.6133 49.3657 77.0536 49.9151C76.9247 50.0423 76.7978 50.183 76.7208 50.343C76.617 50.557 76.6631 50.7806 76.7689 50.9985C77.1863 51.8447 77.6095 52.691 78.0134 53.5488C78.2904 54.1349 78.5424 54.7363 78.8886 55.2857C79.2887 55.9238 79.9235 56.2245 80.6198 56.4173C82.3106 56.8876 83.7629 56.3498 85.1305 55.3782C85.9807 54.7749 86.754 54.0847 87.4791 53.3464C87.7869 53.0341 88.1158 52.7315 88.3678 52.3614C88.5563 52.0857 88.6063 51.8023 88.4851 51.492C88.387 51.2471 88.3659 50.9927 88.3659 50.7305C88.3678 49.2153 88.4755 47.7021 88.4236 46.1888C88.3928 45.25 88.2601 44.3228 88.0523 43.4052C87.9023 42.7402 87.783 42.0712 87.7907 41.3888C87.7965 41.0669 87.7176 40.7565 87.7196 40.4365C87.7273 39.8255 87.8696 39.2606 88.2389 38.7729C88.412 38.5435 88.3966 38.3797 88.1754 38.2139C87.6792 37.8418 87.1425 37.5334 86.6193 37.2096C86.5578 37.171 86.5097 37.1691 86.4462 37.2288C85.8884 37.7937 85.1613 38.0057 84.4207 38.21C83.4051 38.4915 82.3856 38.7864 81.5162 39.4226C80.9026 39.8717 80.1947 40.1339 79.5119 40.4423C79.308 40.5349 79.1137 40.4712 78.9464 40.3556C77.8307 39.5691 76.9093 38.6014 76.3034 37.3734C75.8475 36.4443 75.4609 35.4765 75.2128 34.4703C75.0589 33.8476 75.2224 33.2231 75.6398 32.7084C76.0591 32.1917 76.4996 31.6944 77.0921 31.3647C77.9923 30.8616 79.4272 30.8365 80.2601 31.6828C80.8699 32.3016 81.4623 32.9339 82.0048 33.6144C82.1125 33.7474 82.1894 33.9016 82.0894 34.0655C81.4969 35.0409 80.9334 36.0394 80.214 36.932C80.0139 37.1806 79.7254 37.3291 79.4715 37.5084C79.7677 37.9749 80.2409 38.0924 80.6948 37.8496C82.1913 37.0457 83.6975 36.263 85.1901 35.463C85.9114 35.0756 86.4693 34.5069 86.9732 33.865C87.6099 33.0573 88.2197 32.2245 88.9891 31.5286C89.6643 30.9175 90.5683 30.9271 91.2223 31.5806C92.0071 32.3614 92.8015 33.1382 93.569 33.9363C94.298 34.6958 94.5462 34.503 95.2483 34.2544C95.8753 34.0327 96.4947 33.7975 97.1314 33.6067C97.3603 33.5392 97.7296 33.6587 97.8335 33.8226C97.9989 34.0828 97.9758 34.5956 97.7815 34.8096C97.3911 35.2394 96.9256 35.5884 96.4909 35.97C96.0869 36.3228 95.6657 36.6505 95.2521 36.9937C95.0751 37.1421 94.9116 37.3059 94.7327 37.4505C94.2499 37.8496 94.0826 38.399 94.0826 38.983C94.0845 40.1782 94.0268 41.3696 93.998 42.5628C93.973 43.5016 94.0172 44.4462 93.946 45.3831C93.8595 46.5281 93.8941 47.6732 93.9114 48.8163C93.921 49.4602 94.0653 50.1059 94.1576 50.7479C94.2153 51.145 94.2692 51.544 94.3115 51.9431C94.3961 52.7565 94.323 53.5739 94.373 54.3835C94.4096 55.0023 94.7924 55.4592 95.2386 55.8563C95.3752 55.9778 95.6734 55.8949 95.7599 55.7194C96.2427 54.7459 97.1006 54.6052 98.0528 54.6765C98.2124 54.6881 98.374 54.7691 98.4702 54.9079C98.6067 55.1026 98.7375 55.305 98.8318 55.5209C98.8933 55.6597 98.8799 55.8235 98.7241 55.9353C98.3278 56.2168 98.2451 56.4982 98.3394 56.9859C98.4163 57.3927 98.4605 57.8052 98.4413 58.2197C98.4259 58.5108 98.222 58.611 97.7238 58.6958C96.7775 58.8616 95.8234 58.9869 94.8789 59.172C94.1845 59.3088 93.5959 59.6905 93.0612 60.1455C92.688 60.4616 92.361 60.8491 91.9552 61.1132C91.0934 61.6722 90.4394 61.4004 89.9855 60.3671C89.4565 59.1643 89.143 57.8785 88.5255 56.7141C88.2274 56.1512 87.8619 55.6385 87.2618 55.3493C86.8924 55.172 86.5558 55.2163 86.2634 55.5035C85.5998 56.1609 85.0401 56.9069 84.4534 57.6317C83.7475 58.5031 83.1108 59.4399 82.2721 60.1937C81.597 60.8028 80.8756 61.3503 80.0101 61.6703C79.1618 61.9845 78.3097 61.8727 77.4691 61.651C76.2746 61.3349 75.1705 60.8047 74.1491 60.1069C73.8163 59.8775 73.5951 59.5768 73.4547 59.2144C72.9642 57.9363 72.4871 56.6544 72.0024 55.3744C71.8697 55.0197 71.8755 54.6669 72.0005 54.3084C72.4737 52.9243 72.9699 51.544 73.397 50.1445C73.597 49.4929 74.0106 49.0611 74.5049 48.6582C74.9569 48.2881 75.3897 47.891 75.8533 47.5382C76.4842 47.0582 76.8901 46.3932 77.3671 45.784C77.4691 45.6529 77.6133 45.57 77.7557 45.4929C79.2926 44.664 80.8487 43.8717 82.4125 43.0968C82.8165 42.8963 83.2166 43.0062 83.6205 43.0679C83.9129 43.1122 84.2014 43.1816 84.4919 43.2144C85.1593 43.2857 85.6633 43.8235 85.6672 44.5021C85.6691 44.8394 85.7229 45.1691 85.7768 45.5026C85.8787 46.1271 85.5056 46.4799 84.9574 46.5532C84.3649 46.6303 83.859 46.4992 83.4801 46.0211C83.2858 45.7724 83.1493 45.4891 83.0108 45.2038C82.9819 45.1132 82.93 45.0264 82.878 44.9262L82.8838 44.9204Z" fill="#000"/>
<path d="M13.4673 30.4899C13.45 29.0056 13.7 27.5906 14.2348 26.2316C14.531 25.474 14.8945 24.7434 15.4658 24.1516C15.9775 23.6234 16.6103 23.2687 17.3259 23.0779C17.9049 22.9236 18.4704 22.7347 19.0417 22.5612C19.5476 22.407 19.7803 22.0966 19.8284 21.5781C19.8746 21.075 20.0342 20.5776 20.0419 20.0803C20.0534 19.2456 19.8284 18.4379 19.611 17.6379C19.4456 17.0229 19.2763 16.4099 19.1244 15.7911C19.0763 15.5964 18.9705 15.4268 18.9397 15.2244C18.8628 14.6885 19.2148 14.4282 19.5649 14.1468C20.0457 13.7574 20.4632 13.3024 20.8767 12.8398C21.7558 11.8528 22.4405 10.7174 23.2638 9.69183C23.6062 9.26388 24.089 9.01135 24.6776 9.06339C24.9642 9.08845 25.1546 9.28894 25.1854 9.57617C25.2316 9.97713 25.1142 10.3453 24.9257 10.6788C24.4199 11.5771 24.4141 12.5159 24.5853 13.4933C24.6488 13.8576 24.6795 14.2354 24.7084 14.6075C24.8219 16.0398 24.8123 17.4817 24.7603 18.9159C24.7084 20.273 24.4641 21.6244 24.5487 22.9873C24.6161 24.0745 24.743 25.1598 24.718 26.2528C24.7065 26.8118 24.6045 27.3574 24.5218 27.9068C24.3929 28.7704 24.4102 29.634 24.4699 30.5034C24.5141 31.126 24.6334 31.7391 24.6738 32.3656C24.7257 33.1019 24.7411 33.8422 24.7045 34.5728C24.6122 36.3424 24.6949 38.1082 24.6507 39.874C24.6411 40.2557 24.5333 40.6104 24.2237 40.8976C23.4927 41.5762 22.7925 42.2894 22.0712 42.9795C21.4307 43.5945 20.7786 44.2017 20.1304 44.8089C19.9342 44.994 19.2302 45.1039 18.9859 44.9921C18.7435 44.8803 18.6974 44.6393 18.7243 44.4369C18.7974 43.8624 18.9089 43.2918 19.0263 42.7212C19.1628 42.0465 19.2648 41.368 19.3494 40.6875C19.3937 40.3424 19.2629 40.0089 19.2109 39.6677C19.0724 38.7309 19.007 37.794 19.109 36.8456C19.1571 36.3983 19.1802 35.9453 19.2379 35.4981C19.3206 34.8735 19.3975 34.247 19.486 33.6224C19.5533 33.1309 19.6591 32.6412 19.6976 32.1477C19.7495 31.5154 19.8669 30.8851 19.8207 30.2451C19.7861 29.7651 19.8092 29.2697 19.688 28.8128C19.4687 27.9781 19.1821 27.5848 18.1992 27.8181C17.8106 27.9106 17.4201 27.982 17.0373 28.0995C16.2641 28.3386 15.8832 28.888 15.7409 29.6475C15.6428 30.1699 15.612 30.6981 15.6216 31.2282C15.6293 31.6851 15.6274 32.1458 15.6216 32.6027C15.6197 33.0075 15.412 33.2966 15.0542 33.4085C14.656 33.5318 14.3617 33.4374 14.1367 33.0615C13.6827 32.2981 13.4134 31.768 13.4654 30.4899H13.4673Z" fill="#000"/>
</svg>
